<svg width="80" height="80" viewBox="0 0 80 80" fill="none" xmlns="http://www.w3.org/2000/svg">
<g clip-path="url(#clip0_376_247)">
<path d="M80 40C80 17.9086 62.0914 0 40 0C17.9086 0 0 17.9086 0 40C0 62.0914 17.9086 80 40 80C62.0914 80 80 62.0914 80 40Z" fill="#2442BE"/>
<path d="M35.5925 54.6063C36.864 54.6063 37.8988 53.5714 37.8988 52.3V36.925C37.8988 35.6535 36.8639 34.6187 35.5925 34.6187C34.3211 34.6187 33.2861 35.6536 33.2861 36.925V52.3C33.2861 53.5715 34.3211 54.6063 35.5925 54.6063ZM34.8238 36.9257C34.8238 36.5015 35.1691 36.157 35.5925 36.157C36.0159 36.157 36.3611 36.5015 36.3611 36.9257V52.3007C36.3611 52.7249 36.0159 53.0693 35.5925 53.0693C35.1691 53.0693 34.8238 52.7249 34.8238 52.3007V36.9257Z" fill="#DCDDEB"/>
<path d="M40.9736 36.925C40.9736 36.5008 41.3188 36.1563 41.7423 36.1563C42.1657 36.1563 42.5109 36.5008 42.5109 36.925V45.3814H44.0482V36.925C44.0482 35.6535 43.0133 34.6187 41.7419 34.6187C40.4705 34.6187 39.4355 35.6536 39.4355 36.925V51.5314H40.9729L40.9736 36.925Z" fill="#DCDDEB"/>
<path d="M54.0427 46.919H47.8117L49.349 33.0811H50.9672C51.3914 33.0811 51.7359 32.7374 51.7359 32.3124V29.2374C51.7359 27.118 50.0116 25.3938 47.8922 25.3938H43.2799V23.8564C43.2799 21.3128 41.2112 19.2441 38.6676 19.2441H32.5175C29.9738 19.2441 27.9052 21.3129 27.9052 23.8564V25.3938H23.2929C21.1735 25.3938 19.4492 27.118 19.4492 29.2374V32.3124C19.4492 32.7374 19.7937 33.0811 20.2179 33.0811H21.0674L22.1367 42.7067L21.2719 42.3607C20.9984 42.2523 20.689 42.3084 20.4708 42.5045C20.2533 42.7013 20.1664 43.0042 20.2465 43.2861L21.5034 47.6848C19.2173 48.7995 17.572 51.0334 17.3022 53.7303L16.3768 62.9859C16.3554 63.2018 16.426 63.4181 16.5713 63.5787C16.7175 63.7401 16.9242 63.8316 17.1416 63.8316H32.5176C32.7351 63.8316 32.9418 63.7401 33.0879 63.5787C33.2333 63.4181 33.3038 63.203 33.2825 62.9859L33.0597 60.7566H37.899V63.063C37.899 63.4879 38.2435 63.8316 38.6677 63.8316H54.0427C54.4669 63.8316 54.8114 63.4879 54.8114 63.063V47.688C54.8114 47.263 54.4669 46.9193 54.0427 46.9193L54.0427 46.919ZM43.28 54.6064H44.8173V56.1437H44.0486C43.9296 56.1437 43.811 56.1715 43.7049 56.2245L43.28 56.4366V54.6056L43.28 54.6064ZM50.6492 48.4563L50.0396 49.0658C49.9366 49.1688 49.8005 49.2249 49.6551 49.2249H48.436C47.8802 49.2249 47.3576 49.4408 46.9647 49.8345C46.8617 49.9375 46.7255 49.9936 46.5802 49.9936H44.0487V48.4563L50.6492 48.4563ZM29.4422 23.8567C29.4422 22.1607 30.8212 20.7816 32.5172 20.7816H38.6673C40.3633 20.7816 41.7423 22.1607 41.7423 23.8567V25.394H40.205V23.0876C40.205 22.6626 39.8605 22.3189 39.4363 22.3189H31.7489C31.3247 22.3189 30.9803 22.6626 30.9803 23.0876V25.394H29.443V23.8567H29.4422ZM38.6673 25.394H32.5172V23.8567H38.6673V25.394ZM20.9866 29.2376C20.9866 27.9661 22.0216 26.9313 23.293 26.9313L47.8926 26.9316C49.1641 26.9316 50.1989 27.9666 50.1989 29.238V31.5443L20.986 31.544L20.9866 29.2376ZM22.614 33.0813H47.8025L46.2651 46.9191H43.2802C42.856 46.9191 42.5115 47.2629 42.5115 47.6878V53.0692H38.6679C38.2437 53.0692 37.8992 53.4129 37.8992 53.8378V56.1442H32.5987L32.3572 53.7302C32.2756 52.9146 32.062 52.1445 31.7492 51.4307L31.7488 36.9258C31.7488 35.6543 30.7138 34.6195 29.4425 34.6195C28.171 34.6195 27.1361 35.6544 27.1361 36.9258V42.863L24.8298 43.7854L23.7551 43.3555L22.6134 33.0821L22.614 33.0813ZM29.189 42.5047C29.0452 42.3754 28.8605 42.314 28.674 42.3132V36.9249C28.674 36.5007 29.0192 36.1563 29.4427 36.1563C29.8661 36.1563 30.2113 36.5007 30.2113 36.9249V49.1661C29.6162 48.5634 28.9242 48.0599 28.1556 47.6857L29.4125 43.2869C29.4934 43.0054 29.4064 42.7018 29.1882 42.5053L29.189 42.5047ZM22.1566 44.3712L24.5449 45.3268C24.7288 45.4004 24.9325 45.4004 25.116 45.3268L27.5044 44.3712L26.7079 47.1594C26.1059 47.0064 25.4788 46.9187 24.8306 46.9187C24.1825 46.9187 23.5546 47.0064 22.9534 47.1594L22.1569 44.3712H22.1566ZM17.992 62.2941L18.8331 53.8838C18.8499 53.7118 18.877 53.5431 18.9075 53.3764L20.5597 54.4773C20.6856 54.5612 20.834 54.6066 20.9862 54.6066H23.743L25.824 56.6876L26.9112 55.6004L24.6048 53.294C24.4602 53.1495 24.2649 53.069 24.0612 53.069H21.2192L19.405 51.8597C20.3819 49.8287 22.4483 48.4566 24.8303 48.4566C27.94 48.4566 30.5176 50.7897 30.8273 53.8841L31.2073 57.6817H29.443C29.2393 57.6817 29.0432 57.7625 28.8994 57.9067L27.5871 59.219H25.5993V60.7563H27.9057C28.1094 60.7563 28.3055 60.6755 28.4493 60.5313L29.7616 59.219H31.3615L31.6689 62.294L17.992 62.2941ZM32.9061 59.2191L32.7523 57.6817H37.8991V59.2191H32.9061ZM39.4364 62.2941V61.5254H41.7428C41.8618 61.5254 41.9804 61.4975 42.0865 61.4445L43.4617 60.7563H44.8178V59.219H43.2805C43.1615 59.219 43.0429 59.2469 42.9368 59.2999L41.5616 59.9881H39.4368V54.6067H41.7432V57.6817C41.7432 57.9484 41.8817 58.1952 42.1075 58.336C42.2311 58.413 42.3711 58.4504 42.5118 58.4504C42.6293 58.4504 42.7472 58.4233 42.8555 58.3695L44.2307 57.6814H45.5869C46.0111 57.6814 46.3555 57.3377 46.3555 56.9127V54.6063H48.6619V59.2187H47.1246V60.756H48.6619V62.2933H39.4368L39.4364 62.2941ZM53.2743 62.2941H50.1993V53.8376C50.1993 53.4126 49.8549 53.0689 49.4307 53.0689H44.0493V51.5316H46.5808C47.1366 51.5316 47.6592 51.3157 48.0521 50.9221C48.155 50.8191 48.2912 50.763 48.4366 50.763H49.6557C50.2115 50.763 50.7341 50.5471 51.127 50.1534L52.8238 48.4566H53.2743L53.2743 62.2941Z" fill="#DCDDEB"/>
<path d="M63.1895 16.7216C62.5269 16.1529 61.5244 16.0091 60.6981 16.3634C60.5119 16.4435 60.3437 16.5458 60.1923 16.6656C60.0416 16.5458 59.8726 16.4436 59.6872 16.3634C58.8594 16.0083 57.8584 16.1521 57.195 16.7216C56.3165 17.475 56.0972 18.679 56.6613 19.6475C56.8196 19.9195 56.9989 20.1289 57.1855 20.2949C57.1424 20.4517 57.118 20.6138 57.118 20.7816C57.118 22.0756 58.4687 23.088 60.193 23.088C61.9172 23.088 63.268 22.0756 63.268 20.7816C63.268 20.6142 63.2435 20.4517 63.2004 20.2949C63.3866 20.1289 63.5663 19.9199 63.7246 19.6475C64.2888 18.679 64.069 17.4758 63.1909 16.7216H63.1895ZM61.3039 17.7764C61.5945 17.6494 61.9657 17.6978 62.1881 17.8886C62.5085 18.1636 62.5887 18.542 62.3949 18.8743C62.3472 18.956 62.301 19.0174 62.2571 19.0689C61.8951 18.8236 61.4553 18.6454 60.9616 18.5531V18.1934C60.9616 18.0297 61.0963 17.8661 61.3046 17.7768L61.3039 17.7764ZM58.1964 17.8886C58.4177 17.6994 58.79 17.6532 59.0807 17.7764C59.289 17.8657 59.4236 18.0293 59.4236 18.193V18.5527C58.93 18.645 58.4905 18.8239 58.1281 19.0685C58.0835 19.017 58.0381 18.9555 57.9904 18.8739C57.7966 18.5409 57.876 18.1636 58.1972 17.8882L58.1964 17.8886ZM60.1923 21.5503C59.2535 21.5503 58.655 21.0952 58.655 20.7816C58.655 20.4681 59.2539 20.013 60.1923 20.013C61.1311 20.013 61.7296 20.4681 61.7296 20.7816C61.7296 21.0952 61.1307 21.5503 60.1923 21.5503Z" fill="#DCDDEB"/>
<path d="M58.655 27.7003H55.58C54.3085 27.7003 53.2736 26.6653 53.2736 25.3939C53.2736 24.1225 54.3086 23.0876 55.58 23.0876H56.3486V21.5503H55.58C53.4605 21.5503 51.7363 23.2745 51.7363 25.3939C51.7363 27.5134 53.4605 29.2376 55.58 29.2376H58.655C59.9265 29.2376 60.9613 30.2726 60.9613 31.5439C60.9613 32.8153 59.9264 33.8503 58.655 33.8503V35.3876C60.7744 35.3876 62.4986 33.6634 62.4986 31.5439C62.4986 29.4245 60.7744 27.7003 58.655 27.7003Z" fill="#DCDDEB"/>
<path d="M55.5811 33.8496H57.1176V35.3869H55.5811V33.8496Z" fill="#DCDDEB"/>
</g>
<defs>
<clipPath id="clip0_376_247">
<rect width="80" height="80" fill="white"/>
</clipPath>
</defs>
</svg>
