<svg width="80" height="80" viewBox="0 0 80 80" fill="none" xmlns="http://www.w3.org/2000/svg">
<g clip-path="url(#clip0_374_178)">
<path d="M80 40C80 17.9086 62.0914 0 40 0C17.9086 0 0 17.9086 0 40C0 62.0914 17.9086 80 40 80C62.0914 80 80 62.0914 80 40Z" fill="#2442BE"/>
<path d="M60.7052 60.5V26.6748C60.7052 25.8593 60.3813 25.0773 59.8045 24.5004C59.2281 23.9237 58.4457 23.5998 57.6301 23.5998H49.43V20.5248C49.43 19.7092 49.1061 18.9272 48.5293 18.3504C47.9529 17.7736 47.1705 17.4497 46.3553 17.4497H34.0555C33.2399 17.4497 32.4576 17.7736 31.8811 18.3504C31.3043 18.9271 30.9804 19.7092 30.9804 20.5248V23.5998H22.7803C21.9648 23.5998 21.1828 23.9236 20.6059 24.5004C20.0291 25.0772 19.7053 25.8592 19.7053 26.6748V60.5H17.6553V62.55H62.7549V60.5H60.7052ZM21.755 26.6748C21.755 26.1087 22.2139 25.6498 22.78 25.6498H30.9801V60.4995H21.755V26.6748ZM33.0304 24.6248V20.5248C33.0304 19.9587 33.4893 19.4998 34.0554 19.4998H46.3552C46.6268 19.4998 46.8877 19.6078 47.08 19.8001C47.2718 19.9923 47.3802 20.2529 47.3802 20.5249V60.4995H45.3302V51.2744C45.3302 51.0028 45.2218 50.7418 45.03 50.5496C44.8377 50.3577 44.5768 50.2494 44.3052 50.2494H36.1051C35.539 50.2494 35.0801 50.7083 35.0801 51.2744V60.4995H33.0301L33.0304 24.6248ZM37.1304 60.4998V52.2997H43.2804V60.4998H37.1304ZM49.4302 60.4998L49.4298 25.6502H57.6299C57.9019 25.6502 58.1624 25.7582 58.3547 25.9504C58.5469 26.1427 58.6549 26.4033 58.6549 26.6752V60.5004L49.4302 60.4998ZM23.8052 54.3497H28.9302V56.3997H23.8052V54.3497ZM23.8052 48.1996H28.9302V50.2496H23.8052V48.1996ZM23.8052 42.0496H28.9302V44.0996L23.8052 44.0999V42.0496ZM23.8052 35.8995H28.9302V37.9495L23.8052 37.9498V35.8995ZM23.8052 29.7494H28.9302V31.7994L23.8052 31.7997V29.7494ZM51.48 54.3499H56.605V56.3999H51.48V54.3499ZM51.48 48.1998H56.605V50.2498H51.48V48.1998ZM51.48 42.0497H56.605V44.0997L51.48 44.1001V42.0497ZM51.48 35.8996H56.605V37.9496L51.48 37.95V35.8996ZM51.48 29.7496H56.605V31.7996L51.48 31.7999V29.7496ZM39.1802 48.1997H35.0802V46.1501H39.1802V48.1997ZM39.1802 42.0497L35.0802 42.05V40H39.1802V42.0497ZM39.1802 35.8995L35.0802 35.8999V33.8499H39.1802V35.8995ZM39.1802 29.7495L35.0802 29.7498V27.6998H39.1802V29.7495ZM39.1802 23.5994L35.0802 23.5997V21.5497H39.1802V23.5994ZM45.3303 48.1999H41.2303V46.1503H45.3303V48.1999ZM45.3303 42.0498L41.2303 42.0502V40.0002H45.3303V42.0498ZM45.3303 35.8997L41.2303 35.9001V33.8501H45.3303V35.8997ZM45.3303 29.7497L41.2303 29.75V27.7H45.3303V29.7497ZM45.3303 23.5996L41.2303 23.5999V21.5499H45.3303V23.5996Z" fill="#DCDDEB"/>
</g>
<defs>
<clipPath id="clip0_374_178">
<rect width="80" height="80" fill="white"/>
</clipPath>
</defs>
</svg>
