<svg width="80" height="80" viewBox="0 0 80 80" fill="none" xmlns="http://www.w3.org/2000/svg">
<g clip-path="url(#clip0_375_226)">
<path d="M80 40C80 17.9086 62.0914 0 40 0C17.9086 0 0 17.9086 0 40C0 62.0914 17.9086 80 40 80C62.0914 80 80 62.0914 80 40Z" fill="#2442BE"/>
<path d="M61.3486 55.3338H60.3522C60.0154 53.8571 58.6936 52.7509 57.117 52.7509C56.5906 52.7509 56.0813 52.8867 55.6193 53.1213C54.7316 52.0207 53.3893 51.3566 51.9515 51.3566C50.6968 51.3566 49.5577 51.8525 48.712 52.6544V50.2462L49.1812 50.5792C49.3109 50.6711 49.4597 50.715 49.6077 50.715C49.8389 50.715 50.0662 50.6067 50.2104 50.4041C50.4462 50.0715 50.368 49.611 50.0357 49.3749L48.7124 48.4357V37.301H49.6088C50.0162 37.301 50.347 36.971 50.347 36.5628V31.3356C50.347 30.9278 50.0162 30.5974 49.6088 30.5974H45.5473V26.8751C45.5473 26.4673 45.2166 26.1369 44.8092 26.1369H44.2625V24.3787H45.1899C45.3783 24.3787 45.5484 24.3058 45.6789 24.1899C46.2023 25.2412 47.2586 26.2479 49.2292 26.6621C49.2803 26.6728 49.3314 26.6786 49.3822 26.6786C49.7236 26.6786 50.0303 26.4398 50.1035 26.0922C50.1878 25.6932 49.9319 25.3022 49.5332 25.2183C46.9755 24.6804 46.7088 23.0012 46.7134 22.2928C46.9423 22.1593 47.2043 22.0773 47.4874 22.0765L49.3825 22.0735C49.7899 22.0731 50.1195 21.7427 50.1195 21.3353L50.1199 17.8597C50.1199 17.4519 49.7892 17.1216 49.3818 17.1216H41.499C37.9044 17.1216 34.9801 20.0459 34.9801 23.6405C34.9801 24.0483 35.3101 24.3787 35.7182 24.3787H38.2348V26.1365H37.4761C37.0683 26.1365 36.738 26.4665 36.738 26.8746V30.597H35.1655V29.6769C35.1655 27.8485 33.8277 26.3314 32.0805 26.0411V23.38C32.0805 22.9722 31.7506 22.6419 31.3424 22.6419H30.9365L30.6916 18.5205C30.6683 18.131 30.3452 17.8262 29.9546 17.8262H25.6363C25.2457 17.8262 24.923 18.1306 24.8993 18.5205L24.6544 22.6419H24.2489C23.8412 22.6419 23.5108 22.9718 23.5108 23.38V26.0411C21.7636 26.3314 20.4262 27.8493 20.4262 29.6777V30.5978L18.0516 30.5974C17.6438 30.5974 17.3135 30.9274 17.3135 31.3355V36.5632C17.3135 36.971 17.6434 37.3013 18.0516 37.3013H18.9481V58.2173C18.9481 60.7876 21.0335 62.8785 23.5974 62.8785H61.3474C62.2969 62.8785 63.0694 62.106 63.0694 61.1565V57.0565C63.0701 56.1062 62.2977 55.3337 61.3482 55.3337L61.3486 55.3338ZM51.9508 52.8325C53.1192 52.8325 54.2018 53.4661 54.776 54.4862C54.9766 54.8425 55.4268 54.9665 55.7811 54.7677C55.8265 54.7422 55.8674 54.7128 55.9051 54.68C56.2408 54.3878 56.6703 54.2268 57.1162 54.2268C57.8708 54.2268 58.5193 54.6834 58.8046 55.3338H48.7997C49.1354 53.9026 50.4191 52.8326 51.9511 52.8326L51.9508 52.8325ZM36.1236 40.9731C35.7158 40.9731 35.3855 41.3039 35.3855 41.7113V51.1419C35.3855 51.483 35.1082 51.7603 34.7671 51.7603C34.4261 51.7603 34.1491 51.4833 34.1491 51.1419V41.7113C34.1491 41.3039 33.8192 40.9731 33.411 40.9731C33.0032 40.9731 32.6728 41.3039 32.6728 41.7113V49.4047C32.6728 49.7454 32.3955 50.0227 32.0545 50.0227C31.7135 50.0227 31.4365 49.7458 31.4365 49.4047L31.4369 41.7113C31.4369 41.3039 31.1069 40.9731 30.6988 40.9731C30.291 40.9731 29.9606 41.3039 29.9606 41.7113V46.7982C29.9606 47.1392 29.6833 47.4165 29.3422 47.4165C29.0012 47.4165 28.7243 47.1396 28.7243 46.7982L28.7247 32.0736H39.4551V39.3665C39.3231 39.1644 39.0965 39.0301 38.8371 39.0301C38.4293 39.0301 38.099 39.3601 38.099 39.7682V49.4049C38.099 49.7456 37.8217 50.0229 37.4806 50.0229C37.1396 50.0229 36.8627 49.746 36.8627 49.4049V41.7115C36.8623 41.3041 36.5315 40.9733 36.1241 40.9733L36.1236 40.9731ZM40.9306 40.3551V37.3008H47.2354V47.3886L39.8716 42.1644C40.501 41.8028 40.9306 41.1314 40.9306 40.3551ZM48.8705 35.8248H40.9306V32.0734H48.8705V35.8248ZM48.6428 20.5972L47.6559 20.5988V18.5972H48.6428V20.5972ZM41.4994 18.5972H46.1797V20.9082C45.3763 21.2965 44.7633 22.0198 44.5424 22.9021H38.9737L36.5101 22.9025C36.8687 20.4703 38.9695 18.5972 41.4994 18.5972ZM39.7111 24.3784H42.7861V26.1362H39.7111V24.3784ZM38.215 27.6125H44.0714V30.597L38.215 30.5967V27.6125ZM24.9875 24.1182H30.605V25.9875L24.9875 25.9871V24.1182ZM26.3325 19.3026H29.26L29.4587 22.6424L26.1338 22.642L26.3325 19.3026ZM21.9025 29.6776C21.9025 28.4569 22.8959 27.4635 24.1166 27.4635H31.4767C32.6974 27.4635 33.6907 28.4569 33.6907 29.6776V30.5977L21.9026 30.5973L21.9025 29.6776ZM18.7901 32.0736H27.248V35.825H18.7901V32.0736ZM20.4251 58.2162V37.3002H27.2488V46.7976C27.2488 47.9527 28.188 48.8919 29.3427 48.8919C29.559 48.8919 29.7642 48.8495 29.961 48.7881V49.4042C29.961 50.5589 30.9002 51.498 32.0549 51.498C32.2807 51.498 32.4943 51.4526 32.698 51.3863C32.8209 52.425 33.6964 53.2357 34.7675 53.2357C35.8386 53.2357 36.7137 52.4247 36.8369 51.3863C37.0406 51.4526 37.2542 51.498 37.48 51.498C38.6347 51.498 39.5743 50.5588 39.5743 49.4042L39.5739 43.7626L47.2353 49.1981V55.3329H42.4482C41.4987 55.3329 40.7262 56.1054 40.7262 57.0549V61.1549C40.7262 61.2392 40.7396 61.3197 40.7514 61.4009H23.5981C21.8479 61.4009 20.4247 59.9719 20.4247 58.2157L20.4251 58.2162ZM61.595 61.1554C61.595 61.2909 61.4844 61.4015 61.349 61.4015H42.4486C42.3132 61.4015 42.2025 61.2909 42.2025 61.1554V57.0554C42.2025 56.92 42.3132 56.8094 42.4486 56.8094H61.349C61.4844 56.8094 61.595 56.92 61.595 57.0554V61.1554Z" fill="#DCDDEB"/>
<path d="M54.5778 44.2001C56.0243 44.2001 57.2016 43.0229 57.2016 41.5764C57.2016 40.1295 56.0243 38.9526 54.5778 38.9526C53.1313 38.9526 51.9541 40.1299 51.9541 41.5764C51.9541 43.0232 53.1317 44.2001 54.5778 44.2001ZM54.5778 40.4285C55.2107 40.4285 55.7257 40.9431 55.7257 41.5764C55.7257 42.2092 55.2107 42.7242 54.5778 42.7242C53.945 42.7242 53.43 42.2092 53.43 41.5764C53.43 40.9431 53.9453 40.4285 54.5778 40.4285Z" fill="#DCDDEB"/>
<path d="M57.9302 35.9805C60.7782 35.9805 63.0953 33.6638 63.0953 30.8149C63.0953 27.9661 60.7786 25.6494 57.9302 25.6494C55.0821 25.6494 52.7646 27.9661 52.7646 30.8149C52.7646 33.6634 55.0817 35.9805 57.9302 35.9805ZM57.9302 27.1258C59.9646 27.1258 61.6193 28.781 61.6193 30.8153C61.6193 32.8497 59.9649 34.5049 57.9302 34.5049C55.8958 34.5049 54.2406 32.8497 54.2406 30.8153C54.2406 28.781 55.8958 27.1258 57.9302 27.1258Z" fill="#DCDDEB"/>
<path d="M57.9311 29.5857C58.6086 29.5857 59.1602 30.1373 59.1602 30.8152C59.1602 31.223 59.4909 31.5534 59.8983 31.5534C60.3057 31.5534 60.6365 31.2234 60.6365 30.8152C60.6365 29.3233 59.4226 28.1099 57.9315 28.1099C57.5241 28.1099 57.1934 28.4398 57.1934 28.848C57.193 29.2554 57.5233 29.5857 57.9311 29.5857Z" fill="#DCDDEB"/>
</g>
<defs>
<clipPath id="clip0_375_226">
<rect width="80" height="80" fill="white"/>
</clipPath>
</defs>
</svg>
