<svg width="80" height="80" viewBox="0 0 80 80" fill="none" xmlns="http://www.w3.org/2000/svg">
<g clip-path="url(#clip0_376_275)">
<path d="M80 40C80 17.9086 62.0914 0 40 0C17.9086 0 0 17.9086 0 40C0 62.0914 17.9086 80 40 80C62.0914 80 80 62.0914 80 40Z" fill="#2442BE"/>
<path d="M64.2076 61.428H63.0542V36.1861L63.6611 36.4692C63.7952 36.5318 63.9392 36.5628 64.0828 36.5628C64.2698 36.5628 64.456 36.5103 64.6187 36.4067C64.9062 36.2235 65.0804 35.9062 65.0804 35.5653V31.5584C65.0804 31.1709 64.856 30.8184 64.5047 30.6544L61.0697 29.0514V22.572C61.0697 22.0211 60.623 21.5745 60.0722 21.5745H54.139C53.5881 21.5745 53.1415 22.0211 53.1415 22.572V25.3519L34.5379 16.6707C34.2466 16.5348 33.9077 16.5476 33.6276 16.7049L15.7141 26.7665C15.3997 26.9432 15.2051 27.2756 15.2051 27.6362V31.6431C15.2051 31.9973 15.393 32.325 15.6987 32.504C16.0046 32.683 16.3823 32.6863 16.6911 32.5129L17.2313 32.2095V61.4281H16.2441C15.6932 61.4281 15.2466 61.8747 15.2466 62.4256C15.2466 62.9765 15.6932 63.4231 16.2441 63.4231H18.2288H62.0567H64.2076C64.7584 63.4231 65.2051 62.9765 65.2051 62.4256C65.2051 61.8747 64.7584 61.428 64.2076 61.428ZM55.1365 26.2478V23.5695H59.0745V28.1206L55.1348 26.2821C55.1351 26.2706 55.1365 26.2594 55.1365 26.2478ZM17.2001 28.22L34.1582 18.6951L63.0854 32.1938V33.9992L34.5379 20.6776C34.404 20.615 34.2599 20.584 34.1162 20.584C33.9473 20.584 33.7789 20.6269 33.6276 20.7118L17.2001 29.9387V28.22ZM19.2263 61.428V31.1219C19.2263 31.111 19.225 31.1005 19.2247 31.0897L34.1582 22.7018L61.0592 35.255V61.428H19.2263Z" fill="#DCDDEB"/>
<path d="M38.1475 44.478H22.229C21.6781 44.478 21.2314 44.9247 21.2314 45.4755V58.451C21.2314 59.0018 21.6781 59.4485 22.229 59.4485H38.1475C38.6984 59.4485 39.145 59.0018 39.145 58.451V45.4755C39.145 44.9247 38.6984 44.478 38.1475 44.478ZM23.2265 46.473H29.1907V57.4535H23.2265V46.473ZM37.15 57.4535H31.1858V46.473H37.15V57.4535Z" fill="#DCDDEB"/>
<path d="M58.0982 44.478H42.1381C41.5873 44.478 41.1406 44.9247 41.1406 45.4755V58.451C41.1406 59.0018 41.5873 59.4485 42.1381 59.4485H58.0982C58.6491 59.4485 59.0957 59.0018 59.0957 58.451V45.4755C59.0957 44.9247 58.6491 44.478 58.0982 44.478ZM43.1356 46.473H49.1207V57.4535H43.1356V46.473ZM57.1007 57.4535H51.1157V46.473H57.1007V57.4535Z" fill="#DCDDEB"/>
<path d="M58.5201 36.4907L42.6323 29.0767C42.483 29.007 42.3257 28.9775 42.1715 28.9837C41.6109 28.9648 41.1406 29.4186 41.1406 29.9807V41.5144C41.1406 42.0653 41.5873 42.5119 42.1381 42.5119H58.0982C58.6491 42.5119 59.0957 42.0653 59.0957 41.5144V37.3947C59.0957 37.007 58.8713 36.6547 58.5201 36.4907ZM43.1356 31.5131L49.1207 34.306V40.5168H43.1356V31.5131ZM57.1007 40.5169H51.1157V35.2371L57.1007 38.03V40.5169Z" fill="#DCDDEB"/>
<path d="M39.1408 28.0015C39.1395 27.9868 39.1378 27.9723 39.1361 27.9577C39.1339 27.941 39.1314 27.9243 39.1285 27.9077C39.1253 27.8907 39.1218 27.8737 39.1179 27.8569C39.1146 27.8433 39.1112 27.8298 39.1074 27.8163C39.1023 27.7979 39.0967 27.7798 39.0904 27.7617C39.0863 27.7496 39.0818 27.7377 39.0772 27.7257C39.0702 27.7077 39.063 27.6902 39.055 27.6727C39.0494 27.6605 39.0435 27.6484 39.0374 27.6363C39.0293 27.6203 39.0211 27.6046 39.0121 27.5892C39.0045 27.5758 38.9965 27.5628 38.9883 27.5499C38.9798 27.5365 38.9712 27.5234 38.9621 27.5106C38.9521 27.4964 38.9417 27.4825 38.9308 27.4688C38.9222 27.4579 38.9135 27.4471 38.9045 27.4365C38.8924 27.4223 38.8798 27.4086 38.8667 27.395C38.8575 27.3854 38.8483 27.3761 38.8387 27.3668C38.8253 27.354 38.8115 27.3415 38.7974 27.3293C38.7864 27.32 38.7753 27.3109 38.7641 27.3019C38.7508 27.2914 38.7373 27.2813 38.7235 27.2715C38.7094 27.2615 38.695 27.252 38.6804 27.2428C38.6684 27.2352 38.6563 27.2277 38.6438 27.2205C38.6261 27.2102 38.6079 27.2008 38.5894 27.1917C38.5826 27.1883 38.5763 27.1843 38.5695 27.1811L35.1197 25.5713C34.7763 25.4111 34.3882 25.4632 34.1036 25.6739C34.0858 25.6827 34.0679 25.6907 34.0503 25.7005L21.7405 32.6146C21.4081 32.8014 21.2243 33.15 21.2318 33.5064C21.2318 33.5089 21.2314 33.5112 21.2314 33.5137V41.5146C21.2314 42.0655 21.6781 42.5121 22.229 42.5121H38.1475C38.6984 42.5121 39.145 42.0655 39.145 41.5146V28.085C39.145 28.0772 39.144 28.0696 39.1439 28.0617C39.1434 28.0417 39.1425 28.0216 39.1408 28.0015ZM23.2265 34.0681L29.1907 30.7181V40.517H23.2265V34.0681ZM31.1858 40.517V29.5975L34.7454 27.5981L37.1501 28.7203V40.5168L31.1858 40.517Z" fill="#DCDDEB"/>
</g>
<defs>
<clipPath id="clip0_376_275">
<rect width="80" height="80" fill="white"/>
</clipPath>
</defs>
</svg>
