<svg width="80" height="80" viewBox="0 0 80 80" fill="none" xmlns="http://www.w3.org/2000/svg">
<g clip-path="url(#clip0_375_191)">
<path d="M80 40C80 17.9086 62.0914 0 40 0C17.9086 0 0 17.9086 0 40C0 62.0914 17.9086 80 40 80C62.0914 80 80 62.0914 80 40Z" fill="#2442BE"/>
<path d="M59.8308 63.5154C58.3311 61.5159 57.4629 59.717 57.4629 56.4377L57.4633 53.0295C57.4612 51.4563 56.9724 49.9222 56.0639 48.6378C55.1559 47.3533 53.8723 46.3815 52.3893 45.8553V42.8823C52.3893 42.6578 52.3004 42.443 52.1418 42.2844C51.9831 42.1258 51.7679 42.0364 51.5438 42.0364V14.9768C51.5438 14.7523 51.4548 14.5375 51.2962 14.3789C51.1376 14.2202 50.9223 14.1309 50.6983 14.1309H47.3158C46.8487 14.1309 46.4702 14.5098 46.4702 14.9768V40.3456H43.9333C43.9333 40.1211 43.8439 39.9062 43.6857 39.7476C43.5271 39.589 43.3118 39.5 43.0877 39.5H40.2897C39.9968 38.5869 39.4946 37.7553 38.8228 37.0713C37.7314 35.9308 36.2241 35.2812 34.6455 35.2716C33.1797 35.2573 31.7593 35.7789 30.6506 36.7377C30.0456 35.8569 29.0598 35.3139 27.992 35.2736C26.9245 35.2333 25.9001 35.7 25.2305 36.5325C24.5608 37.3654 24.3237 38.4652 24.5918 39.5H22.7925C22.3255 39.5 21.947 39.8785 21.947 40.3456H19.41C18.9429 40.3456 18.5645 40.724 18.5645 41.1911V45.4191C18.5649 49.3651 20.1875 53.1376 23.0522 55.8512L23.6401 64.0832C23.672 64.5259 24.04 64.8687 24.4835 64.8687H41.396C41.8396 64.8687 42.208 64.5259 42.2395 64.0832L42.4077 61.7275C42.8634 62.7236 43.432 63.664 44.1021 64.5305C44.2616 64.7433 44.5125 64.8687 44.7785 64.8687H59.1537C59.4739 64.8687 59.7668 64.6875 59.9103 64.4013C60.0534 64.1147 60.0223 63.7718 59.8301 63.5155L59.8308 63.5154ZM49.8523 45.4191H49.0067C48.4377 45.4195 47.8704 45.4841 47.3157 45.6109V43.7281H50.6982V45.4673C50.4175 45.4359 50.1351 45.4195 49.8523 45.4191ZM49.8523 15.8222V42.0364H48.1612V15.8222H49.8523ZM42.2416 41.191V42.882L40.3298 42.8824C40.4847 42.3319 40.5615 41.7624 40.5569 41.191L42.2416 41.191ZM39.4676 44.5735H41.9374L41.1888 55.0526H41.1892C39.7776 56.2653 38.116 57.1506 36.3225 57.6463V57.2581C36.3225 57.0336 36.2331 56.8188 36.0745 56.6602C35.9159 56.5016 35.701 56.4122 35.4765 56.4122H31.2485C30.7815 56.4122 30.403 56.7911 30.403 57.2581V57.8502V57.8498C28.2911 57.4214 26.3243 56.4588 24.6907 55.0535L23.9421 44.5735H28.7136C28.7169 45.0762 28.7207 45.6377 28.7258 46.2646L28.7262 46.265C28.727 47.2393 29.0644 48.183 29.6804 48.938C30.2964 49.6928 31.1541 50.2123 32.1083 50.4083V52.1841C32.1083 53.0905 32.5921 53.928 33.3769 54.3812C34.162 54.8344 35.1291 54.8344 35.9139 54.3812C36.699 53.928 37.1824 53.0905 37.1824 52.1841V46.3812C38.158 45.8802 38.9196 45.2776 39.4676 44.5735ZM34.6311 58.1032V59.7943H32.0941V58.1032H34.6311ZM34.6454 36.9626C36.8937 36.9626 38.8654 38.9382 38.8654 41.1906C38.8654 42.9887 37.9788 44.1872 35.991 45.0772C35.6868 45.2135 35.4913 45.5157 35.4909 45.8488V52.1838C35.4909 52.6509 35.1124 53.0294 34.6453 53.0294C34.1783 53.0294 33.7998 52.6509 33.7998 52.1838V49.6468C33.7998 49.4228 33.7109 49.2075 33.5522 49.0489C33.3936 48.8907 33.1784 48.8013 32.9543 48.8013C32.2804 48.8005 31.635 48.5315 31.1592 48.0548C30.6833 47.5777 30.4164 46.9315 30.4173 46.2577C30.4005 44.2226 30.3841 40.8841 30.4102 40.4577C30.7681 38.3987 32.5057 36.9628 34.6454 36.9628L34.6454 36.9626ZM26.1749 38.6537C26.1741 38.117 26.4284 37.6118 26.8598 37.2924C27.2911 36.9731 27.8484 36.8774 28.3615 37.0348C28.8747 37.1921 29.283 37.5836 29.4613 38.0897C29.4684 38.1098 29.4731 38.1308 29.4798 38.1514H29.4793C29.2309 38.5748 29.0362 39.028 28.8999 39.4996H26.4027C26.2538 39.2424 26.1749 38.9507 26.1749 38.6537ZM23.638 41.1906H28.7082C28.7052 41.5763 28.704 42.118 28.7057 42.8817L23.6379 42.8821L23.638 41.1906ZM20.2555 45.4187V42.0362H21.9469V43.7276C21.9469 43.9689 22.0502 44.1989 22.2314 44.3591L22.8567 53.109L22.8562 53.1086C21.1685 50.9005 20.2546 48.1982 20.2555 45.4187ZM25.2711 63.1766L24.8515 57.3032C26.5203 58.4437 28.4127 59.2166 30.4031 59.5703V60.6399C30.4031 60.864 30.492 61.0792 30.6506 61.2379C30.8092 61.3961 31.0245 61.4854 31.2486 61.4854H35.4766C35.7011 61.4854 35.9159 61.3961 36.0746 61.2379C36.2332 61.0792 36.3225 60.864 36.3225 60.6399V59.3916C38.0048 58.9858 39.5993 58.2779 41.0286 57.3023L40.609 63.1766H25.2711ZM43.6488 44.3584C43.8297 44.1981 43.9333 43.9682 43.9333 43.7269V42.0354H46.4703C46.0033 42.0354 45.6244 42.4143 45.6244 42.8814V46.2139C44.7851 46.6323 44.0298 47.2013 43.3962 47.8928L43.6488 44.3584ZM55.3546 63.1766C54.0081 61.3068 53.2352 59.5306 53.2352 56.4376V53.0291C53.2352 52.562 52.8567 52.1835 52.3896 52.1835C51.9226 52.1835 51.5441 52.562 51.5441 53.0291V56.4372C51.5441 59.3942 52.2277 61.3934 53.3229 63.1762L49.4352 63.1767C48.0891 61.3069 47.3161 59.5307 47.3161 56.4377V53.0292C47.3161 52.5621 46.9376 52.1836 46.4706 52.1836C46.0035 52.1836 45.6246 52.5621 45.6246 53.0292V56.4373C45.6246 59.3943 46.3082 61.3935 47.4034 63.1763L45.2067 63.1768C43.8602 61.307 43.0881 59.5311 43.0881 56.4378V53.0293C43.0897 51.4599 43.7137 49.9556 44.8236 48.8457C45.9335 47.7363 47.4378 47.1118 49.0071 47.1102H49.8526C51.4224 47.1119 52.9267 47.7363 54.0366 48.8457C55.1461 49.9556 55.7705 51.4599 55.7721 53.0293V56.4374C55.7721 59.3944 56.4548 61.3936 57.5501 63.1764L55.3546 63.1766Z" fill="#DCDDEB"/>
<path d="M32.0942 33.5799C32.7672 33.5799 33.4126 33.3126 33.888 32.8367C34.3639 32.3609 34.6312 31.7159 34.6312 31.0429C34.6312 30.3703 34.3639 29.7248 33.888 29.2491C33.4126 28.7732 32.7672 28.5063 32.0942 28.5063C31.4215 28.5063 30.7761 28.7732 30.3008 29.2491C29.8249 29.7249 29.5576 30.3703 29.5576 31.0429C29.5585 31.7156 29.8258 32.3605 30.3012 32.8359C30.777 33.3117 31.422 33.5791 32.0942 33.5799ZM32.0942 30.1974C32.4366 30.1974 32.7446 30.4034 32.8755 30.7194C33.0064 31.0354 32.9342 31.3992 32.6921 31.6409C32.4504 31.883 32.0866 31.9552 31.7706 31.8242C31.4547 31.6933 31.2486 31.3849 31.2486 31.0429C31.2491 30.5763 31.6276 30.1978 32.0942 30.1974Z" fill="#DCDDEB"/>
<path d="M34.6258 40.3457C35.0928 40.3461 35.4709 40.7246 35.4713 41.1913C35.4713 41.6583 35.8502 42.0368 36.3172 42.0368C36.7843 42.0368 37.1628 41.6583 37.1628 41.1913C37.1619 40.5186 36.8942 39.8741 36.4188 39.3983C35.9434 38.9229 35.2984 38.6551 34.6258 38.6543C34.1588 38.6543 33.7803 39.0332 33.7803 39.5002C33.7803 39.9673 34.1587 40.3457 34.6258 40.3457Z" fill="#DCDDEB"/>
</g>
<defs>
<clipPath id="clip0_375_191">
<rect width="80" height="80" fill="white"/>
</clipPath>
</defs>
</svg>
