<svg width="240" height="240" viewBox="0 0 240 240" fill="none" xmlns="http://www.w3.org/2000/svg">
<g clip-path="url(#clip0_131_4783)">
<g clip-path="url(#clip1_131_4783)">
<g clip-path="url(#clip2_131_4783)">
<path d="M120 240C186.274 240 240 186.274 240 120C240 53.7258 186.274 0 120 0C53.7258 0 0 53.7258 0 120C0 186.274 53.7258 240 120 240Z" fill="#CEE5FF"/>
<path d="M195.865 18.53H56.2715C49.6441 18.53 44.2715 23.9026 44.2715 30.53V185.57C44.2715 192.197 49.6441 197.57 56.2715 197.57H195.865C202.493 197.57 207.865 192.197 207.865 185.57V30.53C207.865 23.9026 202.493 18.53 195.865 18.53Z" fill="#2442BE"/>
<path d="M183.594 5.58447H44C37.3726 5.58447 32 10.9571 32 17.5845V172.624C32 179.252 37.3726 184.624 44 184.624H183.594C190.221 184.624 195.594 179.252 195.594 172.624V17.5845C195.594 10.9571 190.221 5.58447 183.594 5.58447Z" fill="white"/>
<path d="M32 17.5845C32 10.9571 37.3726 5.58447 44 5.58447H183.594C190.222 5.58447 195.594 10.9571 195.594 17.5845V29.8915H32V17.5845Z" fill="#0075FF"/>
<path d="M66.3604 66.6174H55.3701C50.9518 66.6174 47.3701 70.1992 47.3701 74.6174V85.6077C47.3701 90.026 50.9518 93.6077 55.3701 93.6077H66.3604C70.7787 93.6077 74.3604 90.026 74.3604 85.6077V74.6174C74.3604 70.1992 70.7787 66.6174 66.3604 66.6174Z" fill="#EFF0F6"/>
<path d="M66.3604 101.608H55.3701C50.9518 101.608 47.3701 105.19 47.3701 109.608V120.598C47.3701 125.016 50.9518 128.598 55.3701 128.598H66.3604C70.7787 128.598 74.3604 125.016 74.3604 120.598V109.608C74.3604 105.19 70.7787 101.608 66.3604 101.608Z" fill="#EFF0F6"/>
<path d="M66.3604 136.598H55.3701C50.9518 136.598 47.3701 140.18 47.3701 144.598V155.588C47.3701 160.006 50.9518 163.588 55.3701 163.588H66.3604C70.7787 163.588 74.3604 160.006 74.3604 155.588V144.598C74.3604 140.18 70.7787 136.598 66.3604 136.598Z" fill="#EFF0F6"/>
<path d="M100.351 66.6174H89.3604C84.9421 66.6174 81.3604 70.1992 81.3604 74.6174V85.6077C81.3604 90.026 84.9421 93.6077 89.3604 93.6077H100.351C104.769 93.6077 108.351 90.026 108.351 85.6077V74.6174C108.351 70.1992 104.769 66.6174 100.351 66.6174Z" fill="#EFF0F6"/>
<path d="M100.351 101.608H89.3604C84.9421 101.608 81.3604 105.19 81.3604 109.608V120.598C81.3604 125.016 84.9421 128.598 89.3604 128.598H100.351C104.769 128.598 108.351 125.016 108.351 120.598V109.608C108.351 105.19 104.769 101.608 100.351 101.608Z" fill="#1F3CBA"/>
<path d="M100.351 136.598H89.3604C84.9421 136.598 81.3604 140.18 81.3604 144.598V155.588C81.3604 160.006 84.9421 163.588 89.3604 163.588H100.351C104.769 163.588 108.351 160.006 108.351 155.588V144.598C108.351 140.18 104.769 136.598 100.351 136.598Z" fill="#EFF0F6"/>
<path d="M134.341 66.6174H123.351C118.932 66.6174 115.351 70.1992 115.351 74.6174V85.6077C115.351 90.026 118.932 93.6077 123.351 93.6077H134.341C138.759 93.6077 142.341 90.026 142.341 85.6077V74.6174C142.341 70.1992 138.759 66.6174 134.341 66.6174Z" fill="#EFF0F6"/>
<path d="M134.341 101.608H123.351C118.932 101.608 115.351 105.19 115.351 109.608V120.598C115.351 125.016 118.932 128.598 123.351 128.598H134.341C138.759 128.598 142.341 125.016 142.341 120.598V109.608C142.341 105.19 138.759 101.608 134.341 101.608Z" fill="#EFF0F6"/>
<path d="M134.341 136.598H123.351C118.932 136.598 115.351 140.18 115.351 144.598V155.588C115.351 160.006 118.932 163.588 123.351 163.588H134.341C138.759 163.588 142.341 160.006 142.341 155.588V144.598C142.341 140.18 138.759 136.598 134.341 136.598Z" fill="#EFF0F6"/>
<path d="M168.331 66.6174H157.341C152.923 66.6174 149.341 70.1992 149.341 74.6174V85.6077C149.341 90.026 152.923 93.6077 157.341 93.6077H168.331C172.749 93.6077 176.331 90.026 176.331 85.6077V74.6174C176.331 70.1992 172.749 66.6174 168.331 66.6174Z" fill="#EFF0F6"/>
<path d="M168.331 101.608H157.341C152.923 101.608 149.341 105.19 149.341 109.608V120.598C149.341 125.016 152.923 128.598 157.341 128.598H168.331C172.749 128.598 176.331 125.016 176.331 120.598V109.608C176.331 105.19 172.749 101.608 168.331 101.608Z" fill="#EFF0F6"/>
<path d="M168.331 136.598H157.341C152.923 136.598 149.341 140.18 149.341 144.598V155.588C149.341 160.006 152.923 163.588 157.341 163.588H168.331C172.749 163.588 176.331 160.006 176.331 155.588V144.598C176.331 140.18 172.749 136.598 168.331 136.598Z" fill="#DCDDEB"/>
<path opacity="0.6" d="M70.3604 46.5115H51.3701C49.161 46.5115 47.3701 48.3023 47.3701 50.5115C47.3701 52.7206 49.161 54.5115 51.3701 54.5115H70.3604C72.5696 54.5115 74.3604 52.7206 74.3604 50.5115C74.3604 48.3023 72.5696 46.5115 70.3604 46.5115Z" fill="#A0A3BD"/>
<path opacity="0.6" d="M104.351 46.5115H85.3604C83.1512 46.5115 81.3604 48.3023 81.3604 50.5115C81.3604 52.7206 83.1512 54.5115 85.3604 54.5115H104.351C106.56 54.5115 108.351 52.7206 108.351 50.5115C108.351 48.3023 106.56 46.5115 104.351 46.5115Z" fill="#A0A3BD"/>
<path opacity="0.6" d="M138.341 46.5115H119.351C117.141 46.5115 115.351 48.3023 115.351 50.5115C115.351 52.7206 117.141 54.5115 119.351 54.5115H138.341C140.55 54.5115 142.341 52.7206 142.341 50.5115C142.341 48.3023 140.55 46.5115 138.341 46.5115Z" fill="#A0A3BD"/>
<path opacity="0.6" d="M172.331 46.5115H153.341C151.132 46.5115 149.341 48.3023 149.341 50.5115C149.341 52.7206 151.132 54.5115 153.341 54.5115H172.331C174.54 54.5115 176.331 52.7206 176.331 50.5115C176.331 48.3023 174.54 46.5115 172.331 46.5115Z" fill="#A0A3BD"/>
</g>
</g>
</g>
<defs>
<clipPath id="clip0_131_4783">
<rect width="240" height="240" fill="white"/>
</clipPath>
<clipPath id="clip1_131_4783">
<rect width="240" height="240" fill="white"/>
</clipPath>
<clipPath id="clip2_131_4783">
<rect width="240" height="240" fill="white"/>
</clipPath>
</defs>
</svg>
