<svg width="55" height="55" viewBox="0 0 55 55" fill="none" xmlns="http://www.w3.org/2000/svg">
<rect width="55" height="55" rx="10" fill="#2442BE"/>
<g clip-path="url(#clip0_298_254)">
<path d="M24.2344 12.625H9.17188C8.5246 12.625 8 13.1496 8 13.7969V28.8594C8 29.5067 8.5246 30.0313 9.17188 30.0313H15.5311V40.1564C15.5311 40.8034 16.0557 41.3283 16.703 41.3283H20.4689C20.9733 41.3283 21.421 41.0054 21.5803 40.5269L25.3459 29.2299C25.3859 29.1106 25.4063 28.9855 25.4063 28.8594V13.7969C25.4063 13.1496 24.8817 12.625 24.2344 12.625Z" fill="#DCDDEB"/>
<path d="M46.8282 12.625H31.7656C31.1183 12.625 30.5938 13.1496 30.5938 13.7969V28.8594C30.5938 29.5067 31.1183 30.0313 31.7656 30.0313H38.1252V40.1564C38.1252 40.8034 38.6498 41.3283 39.2971 41.3283H43.0625C43.567 41.3283 44.0148 41.0054 44.1744 40.5269L47.9398 29.2299C47.9795 29.1106 48 28.9855 48 28.8594V13.7969C48 13.1496 47.4755 12.625 46.8282 12.625Z" fill="#DCDDEB"/>
</g>
<defs>
<clipPath id="clip0_298_254">
<rect width="40" height="40" fill="white" transform="translate(8 7)"/>
</clipPath>
</defs>
</svg>
