<svg width="518" height="661" viewBox="0 0 518 661" fill="none" xmlns="http://www.w3.org/2000/svg">
<g clip-path="url(#clip0_130_412)">
<path d="M67.4787 744.744C67.4787 744.744 44.3947 625.25 44.3332 600.681C44.2593 566.676 70.3335 553.138 70.3335 553.138L60.2065 524.306H115.886L107.088 552.942C107.088 552.942 136.436 568.47 132.338 603.739C124.684 669.672 112.502 744.695 112.502 744.695L67.4787 744.744Z" fill="#9D6428"/>
<path d="M209.857 51.1797H-20.5117V464.362H209.857V51.1797Z" fill="#BB752A"/>
<path d="M198.267 63.1582H-11.3174V452.04H198.267V63.1582Z" fill="#407BFF"/>
<path d="M219.6 468.069L209.858 464.348V44.1758H219.6V468.069Z" fill="#A0A3BD"/>
<path d="M40.0732 314.355L94.5798 263.847C101.471 257.451 110.493 250.555 119.358 253.698C123.634 255.262 126.845 258.858 131.027 260.594C139.375 264.066 148.93 259.03 155.351 252.682C161.773 246.333 166.848 238.358 174.632 233.745C182.417 229.132 194.508 229.711 198.361 237.889V292.869L119.17 326.677L40.0732 314.355Z" fill="#73D43E"/>
<path d="M-11.3174 282.751C8.74673 274.604 28.7638 281.532 43.111 297.716C46.1339 301.125 48.8905 305.065 53.0412 306.942C58.6641 309.491 65.1642 307.583 71.2884 306.942C79.7156 306.112 88.2085 307.625 95.8289 311.311C103.449 314.998 109.901 320.716 114.471 327.833L47.4966 360.671L-11.3174 360.249V282.751Z" fill="#5BA931"/>
<path d="M198.283 283.002C185.063 276.638 173.441 284.332 161.256 292.494C149.07 300.657 137.762 311.102 123.446 314.386C113.891 316.575 103.648 315.356 94.4224 318.64C75.627 325.332 64.663 349.179 44.7869 350.32C33.9639 350.946 24.2529 344.394 14.5889 339.468C4.92499 334.543 -2.64014 329.883 -11.3174 336.466V452.04H198.283V283.002Z" fill="#00AB76"/>
<path d="M172.422 182.912C176.77 164.344 165.218 145.772 146.62 141.431C128.022 137.089 109.42 148.622 105.071 167.19C100.723 185.758 112.274 204.33 130.873 208.671C149.471 213.013 168.073 201.48 172.422 182.912Z" fill="#E5D11F"/>
<path d="M202.825 175.028H-11.3174V179.172H202.825V175.028Z" fill="#BB752A"/>
<path d="M202.825 267.629H-11.3174V271.773H202.825V267.629Z" fill="#BB752A"/>
<path d="M202.825 360.249H-11.3174V364.393H202.825V360.249Z" fill="#BB752A"/>
<path d="M88.1885 177.092V463.065H98.7766V177.092H88.1885Z" fill="#BB752A"/>
<path d="M33.8387 63.1582H29.0459V177.107H33.8387V63.1582Z" fill="#BB752A"/>
<path d="M75.2205 63.1582H70.4277V177.107H75.2205V63.1582Z" fill="#BB752A"/>
<path d="M116.585 63.1582H111.793V177.107H116.585V63.1582Z" fill="#BB752A"/>
<path d="M157.966 63.1582H153.173V177.107H157.966V63.1582Z" fill="#BB752A"/>
<path d="M219.6 39.9058H-30.2686V51.1802H219.6V39.9058Z" fill="#A0A3BD"/>
<path d="M226.194 469.458H-37.1768V479.966H226.194V469.458Z" fill="#A0A3BD"/>
<path d="M209.858 464.345L226.194 469.458H-37.1768L-20.5273 464.345H209.858Z" fill="#6E7191"/>
<path d="M146.176 273.298C137.922 274.611 134.225 284.76 134.946 293.095C135.666 301.429 139.096 309.561 138.172 317.88C137.013 328.435 129.025 337.348 128.086 347.934C126.989 360.444 135.823 371.468 138.47 383.712C139.754 389.67 139.566 395.956 141.79 401.632C143.678 406.468 147.187 410.5 151.721 413.04C156.254 415.579 161.53 416.469 166.647 415.557C171.765 414.645 176.407 411.989 179.78 408.04C183.154 404.092 185.05 399.097 185.145 393.908C185.333 384.322 179.413 375.299 180.133 365.761C180.666 358.693 184.832 352 183.923 344.979C182.874 336.613 175.105 330.686 172.364 322.711C169.623 314.737 172.27 305.964 171.315 297.582C169.623 282.555 161.275 272.078 146.176 273.298Z" fill="#5BA933"/>
<path d="M103.964 345.965C102.554 359.897 108.663 376.27 115.883 388.295C123.151 400.386 134.084 409.854 147.099 415.331C148.556 415.941 150.373 416.457 151.61 415.472C152.046 414.992 152.372 414.423 152.567 413.805C152.762 413.187 152.82 412.534 152.738 411.891C152.835 397.116 148.136 382.707 139.343 370.822C130.55 358.937 118.138 350.216 103.964 345.965Z" fill="#5BA933"/>
<g opacity="0.1">
<path opacity="0.1" d="M103.964 345.964C102.554 359.897 108.663 376.269 115.883 388.294C123.151 400.385 134.084 409.854 147.099 415.331C148.556 415.941 150.373 416.457 151.61 415.472C152.046 414.991 152.372 414.423 152.567 413.804C152.762 413.186 152.82 412.533 152.738 411.891C152.835 397.116 148.136 382.706 139.343 370.821C130.55 358.937 118.138 350.215 103.964 345.964Z" fill="black"/>
</g>
<path d="M164.704 444.447C164.536 444.205 164.399 443.942 164.297 443.665L163.31 441.382C162.464 439.396 161.211 436.535 159.629 433.032C151.327 414.708 141.132 397.298 129.212 381.085C126.941 377.958 125.062 375.487 123.73 373.783L122.164 371.797C121.98 371.573 121.818 371.332 121.678 371.077C121.678 371.077 121.913 371.265 122.289 371.703L123.856 373.595C125.265 375.237 127.207 377.676 129.557 380.757C141.79 396.825 152.054 414.296 160.131 432.797C161.697 436.347 162.84 439.24 163.592 441.273L164.454 443.618C164.565 443.885 164.649 444.163 164.704 444.447Z" fill="#BB752A"/>
<path d="M155.745 311.734C155.821 312.179 155.868 312.628 155.886 313.079C155.964 314.017 156.058 315.299 156.168 316.91C156.387 320.319 156.7 325.119 157.076 330.983C157.828 342.899 158.893 359.349 160.209 377.504C161.524 395.659 162.762 412.125 163.686 424.024C164.14 429.92 164.5 434.705 164.767 438.098C164.876 439.662 164.955 440.991 165.017 441.929C165.059 442.376 165.059 442.827 165.017 443.274C164.914 442.837 164.845 442.392 164.814 441.945C164.72 441.006 164.579 439.724 164.406 438.129C164.093 434.72 163.639 429.935 163.075 424.056C162.01 412.156 160.663 395.721 159.379 377.551C158.094 359.38 157.123 342.914 156.512 330.999C156.246 325.088 156.027 320.287 155.854 316.925C155.854 315.362 155.76 314.032 155.729 313.079C155.697 312.631 155.703 312.181 155.745 311.734Z" fill="#BB752A"/>
<path d="M143.238 430.906C143.055 427.472 145.79 424.587 149.229 424.587H171.814C175.128 424.587 177.814 427.274 177.814 430.587V450.185C177.814 454.623 176.048 458.879 172.905 462.016C169.762 465.154 165.5 466.917 161.055 466.917C156.764 466.915 152.637 465.272 149.523 462.326C146.409 459.38 144.544 455.354 144.311 451.077L143.238 430.906Z" fill="#2442BE"/>
<path d="M388.192 137.869L354.927 138.176L355.234 171.387L388.5 171.08L388.192 137.869Z" fill="#A0A3BD"/>
<path d="M388.132 146.331C382.682 146.841 377.207 147.044 371.734 146.94C366.261 147.139 360.781 147.041 355.318 146.644C360.769 146.145 366.243 145.941 371.717 146.036C377.19 145.837 382.67 145.935 388.132 146.331Z" fill="#7976AB"/>
<path d="M378.042 156.632C377.886 156.159 377.758 155.677 377.659 155.188C377.263 153.913 376.462 152.802 375.376 152.022C374.585 151.466 373.669 151.112 372.709 150.99C371.749 150.869 370.774 150.984 369.869 151.326C368.756 151.74 367.798 152.489 367.128 153.469C366.458 154.449 366.108 155.612 366.127 156.798C366.147 157.984 366.533 159.136 367.235 160.094C367.936 161.052 368.917 161.769 370.044 162.147C370.955 162.471 371.931 162.568 372.888 162.428C373.845 162.289 374.753 161.918 375.533 161.347C376.606 160.551 377.389 159.427 377.763 158.146C377.855 157.653 377.971 157.165 378.112 156.684C378.24 157.193 378.24 157.725 378.112 158.233C377.847 159.662 377.074 160.947 375.934 161.852C375.084 162.537 374.073 162.995 372.997 163.184C371.921 163.373 370.815 163.285 369.782 162.93C368.501 162.49 367.387 161.664 366.596 160.566C365.804 159.469 365.373 158.153 365.361 156.8C365.35 155.447 365.759 154.124 366.532 153.012C367.305 151.901 368.404 151.057 369.678 150.595C370.705 150.226 371.809 150.121 372.887 150.292C373.966 150.462 374.984 150.902 375.847 151.569C376.998 152.46 377.795 153.73 378.095 155.153C378.201 155.643 378.183 156.151 378.042 156.632Z" fill="#7976AB"/>
<path d="M517.122 171.176H308.163V181.824H517.122V171.176Z" fill="#407BFF"/>
<path d="M481.851 179.287H475.943V214.239H481.851V179.287Z" fill="#407BFF"/>
<path d="M350.055 178.761H343.973V214.774H350.055V178.761Z" fill="#407BFF"/>
<path d="M406.134 0C409.684 0.2822 413.141 1.2767 416.297 2.9238C419.453 4.571 422.243 6.837 424.501 9.5862C428.985 15.1277 432.139 21.6207 433.72 28.5673C437.205 41.8592 434.853 57.4824 430.949 70.6352C416.607 65.4158 407.877 50.0014 403.938 41.9288C397.717 29.1588 394.232 2.2965 406.134 0Z" fill="#73D43E"/>
<path d="M451.493 86.8857C449.371 83.5247 448.173 79.6644 448.02 75.6939C447.867 71.7235 448.765 67.7828 450.622 64.2687C452.55 60.7937 455.152 57.7365 458.276 55.2753C461.399 52.8141 464.982 50.998 468.815 49.9329C472.301 48.889 476.413 48.4715 479.445 50.5244C480.802 51.582 481.854 52.9796 482.493 54.5748C483.133 56.1701 483.338 57.906 483.087 59.6061C482.513 63.0001 481.059 66.1849 478.87 68.8443C471.795 78.2218 463.187 86.0157 451.493 86.8857Z" fill="#73D43E"/>
<path d="M436.265 100.96C431.794 93.8537 425.689 87.9167 418.458 83.6407C411.226 79.3651 403.076 76.8747 394.686 76.3767C390.416 76.1679 385.328 76.9857 383.516 80.8306C381.703 84.6757 384.335 89.1467 387.28 92.2257C393.574 98.5287 401.597 102.829 410.337 104.584C419.076 106.34 428.141 105.472 436.387 102.091" fill="#73D43E"/>
<path d="M451.615 132.469C451.331 131.55 451.133 130.606 451.023 129.651C450.709 127.911 450.291 125.197 449.838 121.909C448.521 113.347 448.328 104.65 449.263 96.0377C450.293 87.3757 453.626 79.1457 458.917 72.2029C460.537 70.1289 462.403 68.2593 464.476 66.6356C465.19 66.0441 465.835 65.6787 466.218 65.4004C466.42 65.2421 466.643 65.1132 466.881 65.0176C464.129 67.2593 461.633 69.7974 459.44 72.5857C454.399 79.5425 451.22 87.6687 450.204 96.1947C449.306 104.726 449.417 113.334 450.535 121.839C450.901 125.006 451.197 127.615 451.423 129.599C451.556 130.55 451.62 131.509 451.615 132.469Z" fill="#BB752A"/>
<path d="M410.593 20.2173C410.809 20.5668 410.995 20.9334 411.151 21.3134L412.597 24.532C413.835 27.3156 415.595 31.3867 417.703 36.4321C421.938 46.5054 427.601 60.5107 433.509 76.1165C439.416 91.7227 444.453 105.971 447.955 116.341C449.698 121.56 451.092 125.718 452.016 128.641C452.434 130.033 452.782 131.146 453.061 131.999C453.203 132.381 453.302 132.778 453.358 133.182C453.155 132.825 452.997 132.446 452.887 132.051C452.573 131.216 452.173 130.12 451.685 128.745L447.345 116.567C443.703 106.267 438.632 92.0527 432.672 76.4645C426.713 60.876 421.189 46.8882 417.111 36.6931L412.266 24.706C411.743 23.3489 411.308 22.2529 410.977 21.4178C410.804 21.0335 410.675 20.6307 410.593 20.2173Z" fill="#BB752A"/>
<path d="M401.41 87.3376C402.331 87.3216 403.251 87.3796 404.163 87.5116C405.236 87.5756 406.302 87.7206 407.352 87.9466C408.767 88.1826 410.168 88.4906 411.552 88.8686L413.957 89.5296C414.793 89.7736 415.699 90.1216 416.518 90.4346C418.394 91.1076 420.232 91.8796 422.025 92.7486C426.108 94.7926 429.968 97.2526 433.544 100.091C437.118 103.023 440.366 106.33 443.233 109.955C444.453 111.529 445.587 113.166 446.631 114.861C447.119 115.662 447.624 116.41 448.025 117.175L449.175 119.385C449.822 120.659 450.404 121.966 450.918 123.299C451.347 124.282 451.708 125.294 451.998 126.326C452.309 127.194 452.554 128.084 452.73 128.988C452.521 128.988 451.51 125.248 448.583 119.681L447.398 117.523C446.997 116.775 446.474 116.044 445.986 115.261C445.028 113.678 443.791 112.13 442.501 110.46C436.877 103.391 429.776 97.6316 421.694 93.5836C419.812 92.7136 418.052 91.8436 416.292 91.2176C415.438 90.9046 414.549 90.5386 413.8 90.2776L411.43 89.5646C405.4 87.8076 401.41 87.5986 401.41 87.3376Z" fill="#BB752A"/>
<path d="M424.326 119.628H475.96V149.796C475.96 152.604 475.406 155.384 474.33 157.979C473.254 160.573 471.676 162.93 469.688 164.915C467.699 166.901 465.338 168.476 462.739 169.55C460.141 170.625 457.356 171.178 454.543 171.178H445.743C440.063 171.178 434.616 168.925 430.599 164.915C426.583 160.906 424.326 155.467 424.326 149.796V119.628Z" fill="#9D6428"/>
<path d="M506.278 239.423C505.787 239.997 505.091 240.355 504.339 240.423C503.587 240.49 502.838 240.261 502.253 239.784L414.805 167.326L418.469 162.947L505.87 235.423C506.451 235.902 506.819 236.591 506.896 237.34C506.972 238.088 506.75 238.837 506.278 239.423Z" fill="#7876B4"/>
<path d="M441.78 185.926C441.78 185.926 436.449 199.468 430.988 198.908C425.527 198.348 424.043 189.627 424.043 189.627C424.043 189.627 419.545 197.381 414.897 193.64C410.248 189.899 411.477 180.679 411.477 180.679C411.477 180.679 403.806 185.466 401.151 181.345C397.51 175.668 408.483 166.055 408.483 166.055C408.483 166.055 416.415 144.828 422.308 145.349C427.165 145.764 426.099 153.817 426.099 153.817C426.099 153.817 430.068 148.215 434.882 148.134C439.696 148.053 437.871 159.976 437.871 159.976C437.871 159.976 446.371 154.71 449.307 159.267C452.243 163.823 443.662 170.879 443.662 170.879C443.662 170.879 454.987 168.116 453.869 174.596C452.751 181.075 441.78 185.926 441.78 185.926Z" fill="#2442BE"/>
<path d="M412.851 130.395C408.263 126.586 402.086 131.583 402.086 131.583C402.086 131.583 403.431 125.735 400.497 124.203C394.526 121.048 387.848 134.421 387.848 134.421C387.848 134.421 369.447 141.649 369.25 147.58C369.053 153.511 376.913 152.832 376.913 152.832C375.896 153.815 375.13 155.028 374.68 156.368C374.231 157.708 374.11 159.136 374.329 160.532C375.131 165.251 386.566 161.244 386.566 161.244C386.566 161.244 382.958 170.559 387.967 172.608C391.542 174.073 395.281 169.578 397.149 166.855C395.787 169.39 394.186 173.787 397.666 176.48C399.349 177.806 401.947 175.768 404.523 172.734C404.765 173.462 405.211 174.104 405.808 174.586C406.406 175.067 407.129 175.367 407.892 175.45C411.969 176.052 414.839 168.884 414.687 164.258C418.906 163.308 423.005 161.609 421.938 158.545C421.51 157.485 420.846 156.538 419.995 155.774C419.144 155.011 418.129 154.453 417.028 154.142C419.688 149.962 422.436 144.731 421.585 141.8C420.059 136.492 413.115 142.205 413.115 142.205C413.115 142.205 417.439 134.203 412.851 130.395Z" fill="#5EAD33"/>
<path d="M375.076 108.16C375.076 108.16 375.185 100.593 370.105 98.4196C365.025 96.2456 359.963 108.197 359.963 108.197C359.963 108.197 347.932 105.624 344.828 111.421C341.723 117.219 349.246 123.17 349.246 123.17C349.246 123.17 343.192 125.956 344.586 131.207C345.98 136.457 355.697 134.054 355.697 134.054C355.697 134.054 350.219 144.869 354.791 146.282C359.363 147.694 365.16 142.235 365.16 142.235C365.16 142.235 362.164 151.244 368.061 151.829C370.67 152.091 373.53 148.64 375.929 144.715C376.52 145.713 377.448 146.467 378.547 146.842C379.645 147.216 380.842 147.187 381.921 146.759C388.566 144.167 384.854 137.174 384.854 137.174C384.854 137.174 399.053 134.821 398.329 129.743C398.036 127.587 395.617 126.945 392.939 126.895C395.9 124.42 397.945 121.704 396.72 119.292C394.177 113.958 384.772 117.953 384.772 117.953C384.772 117.953 389.592 112.595 386.422 107.584C383.252 102.574 375.076 108.16 375.076 108.16Z" fill="#1F3ABA"/>
<path d="M502.189 232.128C502.189 232.128 504.544 231.653 505.496 232.627C507.566 234.764 504.14 237.638 504.14 237.638C500.793 240.864 497.274 243.909 493.601 246.759C493.601 246.759 437.24 317.825 426.344 322.575C417.684 326.494 365.701 325.734 345.455 325.283L326.732 387.038L342.148 446.275L238.849 447.628L263.068 387.94L259.119 374.116L250.03 355.448C227.881 404.828 212.536 482.14 207.207 508.481L207.588 510.856C207.736 514.908 208.294 518.934 209.253 522.874C209.717 524.851 210.522 526.731 211.632 528.432C212.877 530.616 214.423 532.615 216.224 534.37C216.602 534.657 216.886 535.05 217.038 535.499C217.191 535.948 217.206 536.432 217.08 536.889C216.955 537.347 216.695 537.756 216.335 538.065C215.974 538.374 215.53 538.568 215.058 538.622C212.964 538.527 207.873 534.679 204.519 528.052C201.164 521.426 198.666 532.874 197.667 537.007C196.668 541.14 193.028 553.847 191.505 554.559C189.269 555.581 187.746 553.467 188.841 549.286C189.935 545.106 192.243 532.589 190.078 532.161C187.913 531.734 183.155 552.944 183.155 552.944C183.155 552.944 182.869 557.623 180.3 557.243C175.637 556.531 182.322 534.37 183.012 532.28C183.44 530.807 181.085 530.309 180.633 531.876C180.181 533.444 176.398 553.11 171.64 552.445C168 551.923 176.969 534.18 175.494 529.667C174.019 525.155 170.07 543.823 166.596 543.182C165.311 542.945 164.384 542.588 168.214 532.185C171.515 524.337 175.231 516.67 179.348 509.217C184.796 452.688 215.677 352.051 229.309 309.535C231.353 303.168 235.111 297.484 240.17 293.102C245.23 288.721 251.398 285.812 258 284.691C272.582 282.277 287.328 280.983 302.109 280.819C307.961 280.748 309.008 279.917 314.884 279.655C319.533 279.616 324.178 279.933 328.778 280.605C342.315 282.031 409.786 288.99 413.14 285.807C416.899 282.268 468.811 232.555 468.811 232.555H469.001C470.35 229.066 471.424 225.476 472.213 221.82C472.644 219.854 472.733 217.829 472.474 215.834C472.268 213.329 471.708 210.866 470.809 208.519C469.786 206.452 471.784 204.22 473.664 205.17C475.543 206.12 478.541 211.725 478.779 219.159C479.017 226.594 488.747 213.934 488.747 213.934C490.981 212.77 495.08 212.661 493.601 221.535C495.132 221.49 496.655 221.765 498.073 222.342C498.299 222.449 498.487 222.622 498.61 222.839C498.734 223.056 498.787 223.305 498.763 223.553C498.625 224.674 498.625 225.806 498.763 226.926C498.763 226.926 501.761 226.665 502.189 227.995C502.425 229.363 502.425 230.76 502.189 232.128Z" fill="#FFBE9D"/>
<path d="M234.304 403.522C237.302 393.309 252.695 342.813 252.695 342.813C252.695 342.813 260.26 383.975 258.262 388.939C256.423 393.188 254.252 397.286 251.767 401.195C234.304 427.725 236.588 441.003 236.588 441.003L342.1 437.796C342.338 423.07 333.607 388.82 331.799 383.357C329.991 377.894 336.01 360.009 336.01 360.009C336.01 360.009 347.905 347.919 347.477 341.696C347.251 336.106 346.559 330.545 345.407 325.07L409.642 327.445L407.62 283.979L315.36 274.764C312.148 283.813 283.099 279.371 283.099 279.371C251.743 280.416 249.792 286.164 236.755 296.283C223.717 306.401 202.139 393.238 202.139 393.238L234.304 403.522Z" fill="#DCDDEB"/>
<path d="M354.692 316.147C355.509 315.697 356.313 315.222 356.668 314.959C359.822 312.627 362.043 309.739 363.365 306.259C363.696 305.386 364.168 303.74 364.293 303.025L364.294 303.026C364.715 300.611 364.713 298.175 364.282 296.039C363.708 293.2 362.693 290.865 361.067 288.622C359.078 285.889 356.344 283.745 353.086 282.372C349.02 280.659 343.939 280.459 339.716 281.829L339.31 281.967C338.096 282.393 336.889 282.977 335.666 283.723C335.169 284.024 334.192 284.739 333.638 285.2L333.639 285.2C331.592 286.913 329.988 288.984 328.733 291.535C328.058 292.909 327.373 294.991 327.11 296.475C326.008 302.71 328.079 309.037 332.633 313.35C336.188 316.72 341.131 318.632 345.994 318.51C348.334 318.451 350.303 318.053 352.658 317.164C353.052 317.014 353.874 316.596 354.692 316.147ZM353.1 313.579C350.079 315.215 346.661 315.771 343.146 315.188C341.725 314.959 339.712 314.276 338.418 313.597C336.235 312.448 334.487 310.946 332.968 308.907C332.709 308.561 332.31 307.899 331.941 307.23C331.664 306.728 331.402 306.218 331.227 305.83L331.084 305.488C330.242 303.264 329.917 301.133 330.061 298.84C330.124 297.81 330.176 297.449 330.377 296.519L330.378 296.518C331.265 292.488 333.571 289.069 336.99 286.725C337.167 286.602 337.691 286.309 338.234 286.018C338.779 285.726 339.351 285.432 339.628 285.307L339.629 285.308C340.954 284.726 342.969 284.237 344.494 284.123C347.415 283.907 350.453 284.516 352.966 285.83C356.489 287.671 359.083 290.595 360.445 294.281C361.401 296.86 361.654 299.67 361.173 302.405C361.009 303.324 360.448 305.166 360.069 306.034L360.069 306.034C358.632 309.3 356.259 311.868 353.1 313.579Z" fill="#2643BD" stroke="#5EAD33" stroke-width="0.133333"/>
<path d="M338.125 285.643C345.86 281.453 355.528 284.326 359.719 292.061C363.909 299.796 361.035 309.465 353.3 313.655C345.564 317.845 335.897 314.971 331.706 307.236C327.516 299.5 330.39 289.833 338.125 285.643Z" fill="white" stroke="#5EAD33" stroke-width="2"/>
<path d="M336.126 297.171C336.076 296.991 336.028 296.625 336.021 296.348L336.021 296.347C336.007 295.946 336.066 295.594 336.214 295.265C336.361 294.936 336.596 294.633 336.929 294.325C336.979 294.279 337.019 294.239 337.051 294.207L336.84 294.263C336.409 294.384 335.775 294.393 335.362 294.27C334.981 294.161 334.67 293.968 334.307 293.611L334.148 293.447L334 293.294L334.04 293.441C334.335 294.557 334.054 295.54 333.228 296.239L333.227 296.24C333.186 296.274 333.15 296.31 333.118 296.34L333.438 296.282C333.939 296.178 334.391 296.189 334.816 296.326C335.241 296.463 335.635 296.725 336.023 297.113L336.022 297.115L336.145 297.236L336.126 297.171Z" fill="#5BA931" stroke="#5EAD33" stroke-width="0.133333"/>
<path d="M335.535 299.778C335.498 299.888 335.567 299.896 335.813 299.802C336.091 299.696 336.312 299.699 336.475 299.811C336.623 299.905 339.112 304.51 339.126 304.715C339.134 304.898 339.04 305.046 338.783 305.249C338.669 305.337 338.589 305.438 338.593 305.481C338.611 305.575 341.79 303.859 342.136 303.568C342.489 303.268 342.694 302.956 342.822 302.526C342.96 302.077 342.917 301.7 342.685 301.272C342.307 300.573 341.725 300.334 340.82 300.508C340.439 300.579 340.419 300.577 340.509 300.47C341.108 299.765 341.211 299.264 340.876 298.646C340.603 298.142 340.13 297.876 339.542 297.898C338.989 297.914 338.603 298.071 337.022 298.927C336.21 299.368 335.54 299.75 335.535 299.778ZM338.836 298.513C339.338 298.499 339.688 298.716 339.961 299.219C340.374 299.982 340.065 300.627 339.021 301.199L338.632 301.41L338.024 300.288L337.416 299.166L337.517 299.079C337.855 298.786 338.473 298.522 338.836 298.513ZM340.253 301.105C340.636 301.072 341.125 301.226 341.369 301.449C341.46 301.535 341.625 301.768 341.731 301.963C341.99 302.441 341.98 302.828 341.7 303.263C341.526 303.525 341.452 303.591 340.991 303.86C340.697 304.032 340.405 304.171 340.314 304.182L340.144 304.202L339.466 302.951L338.786 301.694L339.363 301.414C339.812 301.196 340.003 301.131 340.253 301.105Z" fill="#1F3CBA"/>
<path d="M340.871 296.888C340.834 296.998 340.905 297.011 341.126 296.93C341.249 296.883 341.425 296.839 341.508 296.826C341.827 296.783 341.856 296.825 343.141 299.161C343.796 300.347 344.367 301.425 344.417 301.552C344.537 301.881 344.468 302.111 344.193 302.318C344.07 302.411 343.974 302.521 343.978 302.564C343.99 302.622 344.449 302.386 346.219 301.414L348.445 300.189L348.284 299.438C348.136 298.738 348.064 298.557 347.97 298.609C347.945 298.622 347.929 298.76 347.932 298.92C347.935 299.331 347.809 299.837 347.635 300.099C347.507 300.291 347.395 300.371 346.636 300.802C346.167 301.069 345.721 301.304 345.643 301.327L345.507 301.362L344.836 300.1L344.173 298.84L344.29 298.757C344.354 298.71 344.729 298.52 345.121 298.327L345.835 297.978L346.073 298.049C346.258 298.104 346.357 298.179 346.492 298.358C346.63 298.554 346.677 298.58 346.736 298.522C346.81 298.456 346.766 298.364 346.285 297.451C345.779 296.493 345.752 296.456 345.662 296.505C345.582 296.548 345.585 296.611 345.668 296.824C345.737 297.012 345.75 297.167 345.712 297.335L345.659 297.571L344.815 298.047L343.97 298.524L343.346 297.372L342.719 296.215L343.692 295.714C344.578 295.254 344.683 295.209 344.93 295.212C345.211 295.207 345.482 295.351 345.717 295.617C345.791 295.706 345.871 295.747 345.916 295.722C345.986 295.684 345.953 295.612 345.674 295.157C345.5 294.871 345.318 294.608 345.276 294.566C345.198 294.505 345.046 294.581 343.041 295.667C341.854 296.31 340.875 296.86 340.871 296.888Z" fill="#1F3CBA"/>
<path d="M346.257 293.971C346.218 294.089 346.3 294.096 346.56 293.994C346.919 293.858 347.195 293.927 347.407 294.212C347.487 294.324 348.081 295.396 348.716 296.593C349.595 298.239 349.875 298.803 349.871 298.915C349.867 299.098 349.775 299.238 349.54 299.423C349.436 299.505 349.361 299.604 349.365 299.647C349.374 299.7 349.876 299.448 351.696 298.462L354.01 297.208L353.865 296.358C353.715 295.51 353.617 295.28 353.566 295.675C353.48 296.315 353.343 296.776 353.145 297.064C352.939 297.363 352.917 297.381 352.077 297.855C351.604 298.125 351.157 298.36 351.079 298.383L350.936 298.416L349.6 295.914L348.261 293.408L348.325 293.251C348.363 293.166 348.468 293.038 348.559 292.969C348.819 292.77 348.932 292.645 348.919 292.561C348.91 292.508 348.617 292.647 347.59 293.204C346.862 293.598 346.262 293.943 346.257 293.971Z" fill="#1F3CBA"/>
<path d="M352.197 303.017L351.54 301.804C351.351 301.455 351.179 301.139 351.053 300.911C350.99 300.797 350.938 300.704 350.902 300.641C350.897 300.632 350.891 300.623 350.887 300.615L350.808 300.675L350.727 300.737L352.015 303.116L352.197 303.017Z" fill="#59A32E" stroke="#5EAD33" stroke-width="0.133333"/>
<path d="M356.436 300.721L355.149 298.345L354.967 298.444L356.254 300.82L356.436 300.721Z" fill="#59A32E" stroke="#5EAD33" stroke-width="0.133333"/>
<path d="M338.679 307.63C338.734 307.6 338.754 307.559 338.755 307.527C338.755 307.504 338.746 307.476 338.72 307.453L338.688 307.43C338.642 307.404 338.613 307.4 338.596 307.402C338.579 307.405 338.56 307.416 338.533 307.449L338.532 307.45C338.531 307.457 338.531 307.467 338.533 307.481C338.537 307.51 338.548 307.546 338.566 307.579C338.582 307.608 338.594 307.627 338.604 307.639C338.609 307.645 338.612 307.649 338.615 307.651C338.616 307.652 338.618 307.653 338.618 307.653L338.628 307.652C338.638 307.649 338.654 307.643 338.679 307.63Z" fill="#59A32E" stroke="#5EAD33" stroke-width="0.133333"/>
<path d="M339.614 307.092C339.663 307.065 339.686 307.044 339.696 307.029C339.702 307.02 339.704 307.012 339.698 306.994L339.697 306.992C339.686 306.956 339.652 306.918 339.607 306.896C339.561 306.873 339.522 306.874 339.501 306.885C339.501 306.885 339.498 306.887 339.493 306.893C339.488 306.898 339.483 306.906 339.477 306.916L339.45 306.984C339.438 307.055 339.46 307.092 339.48 307.106C339.5 307.12 339.545 307.129 339.614 307.092Z" fill="#59A32E" stroke="#5EAD33" stroke-width="0.133333"/>
<path d="M337.896 310.673C338.408 310.644 338.823 310.351 338.927 309.964L338.928 309.963C338.954 309.867 338.961 309.812 338.952 309.756C338.942 309.697 338.913 309.63 338.85 309.515C338.761 309.35 338.669 309.26 338.532 309.214C338.423 309.178 338.282 309.167 338.082 309.18L337.862 309.199C337.599 309.226 337.436 309.238 337.317 309.214C337.188 309.189 337.115 309.122 337.03 309.021L337.03 309.02C336.943 308.916 336.917 308.795 336.937 308.678C336.956 308.563 337.02 308.455 337.107 308.367C337.28 308.193 337.564 308.084 337.836 308.174C337.901 308.196 337.95 308.212 337.986 308.22C337.982 308.213 337.98 308.205 337.975 308.197C337.936 308.124 337.902 308.092 337.859 308.076C337.81 308.057 337.737 308.053 337.61 308.065C337.357 308.092 337.087 308.234 336.943 308.418L336.943 308.419L336.898 308.487C336.883 308.514 336.867 308.546 336.853 308.581C336.823 308.648 336.8 308.721 336.79 308.782L336.789 308.785L336.768 308.907C336.766 308.94 336.768 308.966 336.773 308.99C336.784 309.04 336.811 309.091 336.872 309.18C336.956 309.302 337.063 309.383 337.203 309.426C337.344 309.47 337.522 309.476 337.746 309.443C338.07 309.395 338.33 309.414 338.506 309.51C338.595 309.559 338.664 309.628 338.705 309.715C338.745 309.802 338.757 309.904 338.744 310.016C338.722 310.215 338.568 310.378 338.381 310.475C338.192 310.573 337.955 310.612 337.743 310.549C337.641 310.519 337.584 310.531 337.565 310.545C337.558 310.55 337.554 310.555 337.553 310.563C337.552 310.574 337.555 310.596 337.573 310.627C337.581 310.642 337.596 310.658 337.645 310.668C337.696 310.679 337.775 310.681 337.895 310.674L337.896 310.673Z" fill="#59A32E" stroke="#5EAD33" stroke-width="0.133333"/>
<path d="M359.481 299.121C359.538 299.092 359.581 299.058 359.604 299.027C359.617 299.011 359.62 298.999 359.621 298.99C359.595 299.015 359.56 299.034 359.526 299.046C359.505 299.053 359.483 299.06 359.459 299.063L359.395 299.067C359.36 299.068 359.321 299.066 359.281 299.047C359.242 299.028 359.208 298.996 359.174 298.951C359.108 298.864 359.02 298.702 358.865 298.416L358.495 297.734L358.754 297.594C358.794 297.572 358.823 297.554 358.845 297.539C358.867 297.524 358.877 297.513 358.882 297.507C358.883 297.505 358.883 297.504 358.884 297.504L358.875 297.482C358.868 297.468 358.856 297.46 358.848 297.455C358.777 297.497 358.717 297.53 358.667 297.552C358.616 297.575 358.567 297.59 358.52 297.586C358.468 297.583 358.428 297.558 358.395 297.523C358.365 297.49 358.338 297.444 358.311 297.393C358.289 297.353 358.271 297.323 358.256 297.301C358.241 297.278 358.231 297.268 358.225 297.264L358.223 297.263C358.22 297.263 358.211 297.265 358.193 297.275C358.183 297.28 358.168 297.296 358.153 297.322C358.139 297.347 358.132 297.373 358.13 297.393C358.136 297.456 358.157 297.545 358.18 297.587C358.207 297.637 358.213 297.69 358.191 297.745C358.171 297.794 358.131 297.838 358.081 297.882C358.047 297.912 358.029 297.936 358.021 297.952C358.022 297.952 358.023 297.951 358.024 297.951C358.044 297.953 358.077 297.95 358.123 297.937L358.125 297.937C358.156 297.929 358.198 297.917 358.241 297.926C358.287 297.936 358.323 297.966 358.358 298.007C358.392 298.048 358.431 298.109 358.482 298.194C358.534 298.28 358.6 298.393 358.686 298.543C358.82 298.78 358.913 298.932 358.983 299.03C359.054 299.13 359.095 299.163 359.125 299.175C359.22 299.207 359.365 299.181 359.481 299.121Z" fill="#59A32E" stroke="#5EAD33" stroke-width="0.133333"/>
<path d="M339.93 309.663L339.516 308.92C339.298 308.535 339.187 308.342 339.117 308.248C339.081 308.201 339.064 308.191 339.059 308.19C339.059 308.189 339.058 308.189 339.056 308.189C339.052 308.19 339.045 308.192 339.033 308.196L339.032 308.197C339.004 308.206 338.979 308.218 338.961 308.23C338.958 308.233 338.955 308.236 338.953 308.239C338.957 308.249 338.962 308.262 338.969 308.277C338.989 308.322 339.019 308.384 339.056 308.46C339.131 308.612 339.236 308.815 339.353 309.031L339.748 309.761L339.93 309.663Z" fill="#59A32E" stroke="#5EAD33" stroke-width="0.133333"/>
<path d="M342.034 308.523C342.067 308.505 342.081 308.494 342.09 308.482C342.098 308.472 342.106 308.456 342.11 308.417C342.117 308.334 342.102 308.186 342.065 307.89C342.023 307.551 341.974 307.126 341.956 306.948L341.955 306.947C341.945 306.841 341.934 306.763 341.919 306.713C341.912 306.687 341.905 306.672 341.899 306.663C341.899 306.662 341.897 306.662 341.897 306.661C341.889 306.659 341.886 306.658 341.886 306.659L341.874 306.688C341.869 306.705 341.865 306.728 341.863 306.762C341.854 306.892 341.876 307.117 341.928 307.469L341.927 307.47C341.955 307.665 341.977 307.846 341.989 307.979C341.995 308.045 341.998 308.101 341.999 308.141C341.999 308.161 342 308.179 341.998 308.193C341.998 308.2 341.996 308.209 341.994 308.218C341.993 308.222 341.99 308.229 341.986 308.236C341.982 308.242 341.974 308.255 341.958 308.264C341.932 308.278 341.907 308.272 341.899 308.271C341.887 308.268 341.876 308.263 341.867 308.258C341.847 308.249 341.824 308.234 341.8 308.217C341.753 308.184 341.695 308.135 341.637 308.077C341.522 307.972 341.259 307.736 341.053 307.558C340.964 307.482 340.895 307.425 340.841 307.383C340.786 307.341 340.749 307.317 340.722 307.305C340.696 307.293 340.681 307.291 340.669 307.293C340.654 307.296 340.635 307.304 340.602 307.322C340.576 307.336 340.554 307.352 340.535 307.364C340.563 307.39 340.603 307.424 340.65 307.466C340.75 307.554 340.887 307.674 341.037 307.805C341.335 308.064 341.682 308.364 341.882 308.533C341.909 308.553 341.963 308.561 342.034 308.523Z" fill="#59A32E" stroke="#5EAD33" stroke-width="0.133333"/>
<path d="M342.998 307.558C343.356 307.814 343.88 307.716 344.128 307.337L344.129 307.337C344.321 307.049 344.303 306.691 344.145 306.403C344.007 306.152 343.765 305.962 343.474 305.923L343.346 305.915C343.238 305.917 343.091 305.968 342.954 306.049C342.851 306.109 342.76 306.183 342.698 306.256L342.646 306.331C342.543 306.506 342.529 306.738 342.594 306.967C342.658 307.196 342.8 307.414 342.998 307.558ZM343.914 307.499C343.787 307.618 343.602 307.651 343.397 307.59L343.395 307.59C343.285 307.555 343.208 307.531 343.137 307.451C343.072 307.379 343.011 307.26 342.907 307.05L342.907 307.049C342.812 306.85 342.756 306.729 342.736 306.635C342.713 306.531 342.732 306.459 342.767 306.363L342.768 306.362C342.853 306.139 343.042 305.988 343.27 305.991L343.27 305.99C343.359 305.989 343.451 306.03 343.535 306.088C343.62 306.148 343.704 306.23 343.779 306.324C343.928 306.51 344.05 306.751 344.073 306.967L344.073 306.967C344.095 307.192 344.039 307.381 343.914 307.499Z" fill="#59A32E" stroke="#5EAD33" stroke-width="0.133333"/>
<path d="M345.492 306.707C345.586 306.664 345.676 306.579 345.772 306.44C345.814 306.379 345.848 306.331 345.875 306.295C345.901 306.262 345.927 306.232 345.952 306.215C345.966 306.205 345.985 306.196 346.008 306.195C346.033 306.195 346.054 306.204 346.069 306.216C346.083 306.226 346.093 306.239 346.1 306.25C346.108 306.261 346.115 306.274 346.121 306.286L346.122 306.287L346.123 306.288C346.124 306.288 346.126 306.288 346.129 306.288C346.14 306.288 346.163 306.285 346.196 306.267L346.262 306.231L345.434 304.703L345.373 304.736C345.34 304.754 345.328 304.767 345.323 304.778C345.318 304.791 345.314 304.817 345.328 304.87C345.357 304.979 345.446 305.159 345.62 305.48C345.751 305.722 345.825 305.859 345.855 305.96C345.871 306.012 345.876 306.058 345.871 306.104C345.867 306.149 345.854 306.192 345.838 306.238C345.79 306.381 345.695 306.496 345.582 306.561C345.469 306.625 345.334 306.643 345.215 306.582C345.147 306.548 345.085 306.485 345.011 306.379C344.936 306.272 344.845 306.114 344.718 305.879C344.58 305.624 344.494 305.476 344.435 305.394C344.405 305.353 344.386 305.333 344.373 305.324L344.359 305.319C344.288 305.329 344.258 305.341 344.246 305.351C344.242 305.354 344.236 305.359 344.239 305.391C344.24 305.393 344.241 305.398 344.244 305.406C344.249 305.419 344.257 305.435 344.266 305.455C344.285 305.496 344.312 305.551 344.346 305.614L344.601 306.076L344.945 306.676L345.159 306.724L345.16 306.725C345.294 306.757 345.399 306.75 345.492 306.707Z" fill="#59A32E" stroke="#5EAD33" stroke-width="0.133333"/>
<path d="M346.96 305.835C347.209 305.807 347.432 305.675 347.567 305.509C347.703 305.342 347.743 305.153 347.661 305.001C347.605 304.897 347.542 304.84 347.448 304.809C347.348 304.776 347.207 304.771 346.987 304.791C346.754 304.814 346.571 304.804 346.455 304.746C346.395 304.716 346.349 304.67 346.327 304.608C346.306 304.547 346.311 304.48 346.331 304.41C346.407 304.155 346.687 304.024 346.948 304.102C346.983 304.112 347.009 304.119 347.029 304.123C347.026 304.102 347.025 304.089 347.023 304.079C347.021 304.074 347.02 304.071 347.02 304.07L347.019 304.07C347.016 304.068 347.009 304.062 346.986 304.054C346.963 304.046 346.931 304.038 346.886 304.025C346.853 304.017 346.805 304.017 346.747 304.029C346.69 304.041 346.626 304.064 346.562 304.094C346.433 304.155 346.313 304.245 346.249 304.337L346.25 304.336C346.149 304.485 346.163 304.719 346.283 304.86C346.344 304.929 346.39 304.964 346.475 304.982C346.567 305.003 346.706 305.005 346.953 304.994C347.107 304.988 347.217 304.989 347.298 305.007C347.385 305.028 347.441 305.069 347.485 305.135L347.484 305.136C347.518 305.185 347.54 305.237 347.543 305.294C347.545 305.323 347.542 305.352 347.535 305.381L347.502 305.465C347.45 305.572 347.38 305.65 347.278 305.695C347.179 305.739 347.058 305.748 346.911 305.734C346.86 305.73 346.822 305.727 346.793 305.726C346.776 305.726 346.763 305.728 346.755 305.729C346.764 305.811 346.779 305.823 346.787 305.828C346.794 305.832 346.808 305.837 346.837 305.839C346.867 305.84 346.906 305.839 346.96 305.835Z" fill="#59A32E" stroke="#5EAD33" stroke-width="0.133333"/>
<path d="M348.988 305.786L348.763 305.37C348.685 305.227 348.626 305.104 348.588 305.013C348.57 304.968 348.555 304.929 348.548 304.898C348.545 304.883 348.542 304.866 348.542 304.85C348.543 304.838 348.547 304.799 348.584 304.779C348.624 304.757 348.676 304.757 348.714 304.783L348.739 304.811C348.743 304.813 348.751 304.816 348.764 304.818C348.792 304.821 348.831 304.82 348.877 304.814C348.969 304.802 349.077 304.77 349.156 304.728C349.244 304.68 349.33 304.589 349.396 304.476C349.461 304.363 349.503 304.231 349.509 304.108C349.517 303.964 349.449 303.754 349.339 303.559C349.256 303.412 349.156 303.284 349.06 303.202L348.965 303.136C348.916 303.11 348.852 303.086 348.79 303.068C348.726 303.05 348.671 303.042 348.638 303.042C348.536 303.045 348.411 303.087 348.296 303.157C348.18 303.227 348.083 303.319 348.032 303.412L348.03 303.415C348.004 303.458 347.982 303.492 347.965 303.517C347.949 303.54 347.929 303.566 347.905 303.58C347.891 303.589 347.871 303.598 347.848 303.595C347.825 303.592 347.807 303.58 347.797 303.57C347.779 303.553 347.765 303.528 347.755 303.511L347.755 303.51C347.755 303.509 347.754 303.508 347.753 303.508C347.75 303.506 347.745 303.504 347.736 303.502C347.719 303.498 347.695 303.499 347.668 303.506C347.642 303.512 347.616 303.522 347.598 303.535C347.586 303.543 347.581 303.553 347.577 303.56C347.584 303.577 347.596 303.601 347.61 303.632C347.641 303.698 347.687 303.79 347.744 303.902C347.859 304.126 348.018 304.43 348.195 304.756L348.806 305.885L348.988 305.786ZM349.052 304.707C348.892 304.807 348.683 304.806 348.493 304.676C348.438 304.64 348.378 304.574 348.321 304.499C348.263 304.423 348.204 304.33 348.151 304.236C348.098 304.142 348.049 304.046 348.014 303.96C347.981 303.877 347.957 303.796 347.957 303.735L347.956 303.734C347.954 303.574 348.044 303.427 348.165 303.328C348.286 303.229 348.449 303.168 348.605 303.197C348.777 303.226 348.949 303.378 349.075 303.558C349.203 303.74 349.298 303.968 349.305 304.175C349.314 304.413 349.212 304.607 349.052 304.707Z" fill="#59A32E" stroke="#5EAD33" stroke-width="0.133333"/>
<path d="M351.502 303.412C351.501 303.41 351.486 303.39 351.42 303.377L351.416 303.376C351.351 303.36 351.296 303.308 351.237 303.227C351.175 303.144 351.1 303.015 350.997 302.825C350.853 302.56 350.731 302.377 350.622 302.262C350.54 302.176 350.468 302.132 350.402 302.115L350.339 302.107C350.304 302.108 350.253 302.12 350.189 302.144C350.127 302.168 350.058 302.202 349.99 302.241C349.851 302.321 349.723 302.42 349.659 302.504L349.611 302.572C349.578 302.631 349.581 302.671 349.595 302.695C349.605 302.714 349.614 302.723 349.619 302.728C349.625 302.722 349.636 302.712 349.65 302.692C349.667 302.665 349.687 302.626 349.708 302.575L349.709 302.573C349.794 302.372 349.966 302.256 350.142 302.241C350.319 302.226 350.495 302.316 350.578 302.511C350.61 302.588 350.639 302.66 350.597 302.746C350.579 302.784 350.55 302.821 350.511 302.861C350.472 302.901 350.419 302.95 350.352 303.01C350.156 303.188 350.054 303.294 350.005 303.385C349.96 303.468 349.957 303.541 349.983 303.668C350.002 303.763 350.018 303.811 350.04 303.845C350.06 303.875 350.088 303.9 350.149 303.934L350.15 303.933C350.269 303.996 350.428 303.995 350.575 303.939C350.685 303.897 350.781 303.826 350.84 303.74L350.887 303.648C350.906 303.59 350.93 303.525 350.996 303.499C351.027 303.486 351.06 303.485 351.093 303.486L351.212 303.499C351.346 303.519 351.452 303.473 351.49 303.431C351.498 303.422 351.501 303.415 351.502 303.412ZM350.711 303.771C350.623 303.83 350.515 303.866 350.419 303.837C350.374 303.824 350.331 303.787 350.297 303.751C350.26 303.712 350.226 303.663 350.199 303.613C350.148 303.52 350.128 303.432 350.162 303.332C350.193 303.239 350.268 303.145 350.38 303.029L350.38 303.028C350.438 302.971 350.488 302.926 350.53 302.895C350.571 302.864 350.618 302.838 350.668 302.84C350.723 302.842 350.763 302.873 350.794 302.91C350.824 302.945 350.853 302.995 350.885 303.053C350.934 303.144 350.966 303.218 350.974 303.29C350.983 303.364 350.966 303.43 350.934 303.505L350.933 303.507C350.884 303.617 350.802 303.71 350.711 303.771Z" fill="#59A32E" stroke="#5EAD33" stroke-width="0.133333"/>
<path d="M353.355 302.376C353.382 302.357 353.395 302.345 353.403 302.328C353.413 302.308 353.421 302.275 353.422 302.209C353.425 302.075 353.402 301.839 353.351 301.386C353.298 300.929 353.27 300.697 353.242 300.586C353.237 300.568 353.231 300.555 353.228 300.546C353.227 300.546 353.226 300.546 353.225 300.546C353.21 300.554 353.204 300.561 353.199 300.571C353.193 300.584 353.186 300.609 353.185 300.658C353.183 300.756 353.202 300.921 353.245 301.215L353.245 301.216L353.309 301.727C353.317 301.797 353.323 301.857 353.327 301.902C353.332 301.946 353.335 301.981 353.334 301.997L353.334 302L353.328 302.047C353.323 302.064 353.309 302.096 353.272 302.109C353.24 302.12 353.21 302.11 353.194 302.102C353.174 302.094 353.152 302.08 353.128 302.063C353.08 302.029 353.011 301.973 352.912 301.888L352.509 301.536C352.297 301.349 352.181 301.25 352.102 301.203C352.064 301.181 352.041 301.173 352.024 301.171C352.008 301.17 351.992 301.173 351.967 301.182C351.933 301.195 351.904 301.213 351.883 301.227C351.889 301.234 351.896 301.241 351.904 301.249C351.939 301.285 351.992 301.336 352.058 301.396L352.574 301.847C352.935 302.152 353.114 302.303 353.219 302.368C353.271 302.4 353.293 302.404 353.303 302.403C353.313 302.402 353.323 302.398 353.355 302.376Z" fill="#59A32E" stroke="#5EAD33" stroke-width="0.133333"/>
<path d="M355.126 301.494C355.212 301.448 355.332 301.333 355.428 301.216C355.475 301.159 355.514 301.104 355.537 301.06C355.549 301.038 355.556 301.022 355.559 301.011C355.554 301.003 355.551 300.999 355.55 300.999C355.548 300.999 355.545 300.998 355.538 301C355.528 301.003 355.515 301.012 355.5 301.027L355.454 301.093C355.405 301.19 355.294 301.284 355.18 301.354C355.065 301.424 354.929 301.478 354.819 301.481L354.818 301.481C354.721 301.481 354.604 301.429 354.506 301.362C354.406 301.295 354.311 301.201 354.258 301.104L354.159 300.921L355.255 300.327L355.206 300.236C355.11 300.058 354.922 299.907 354.739 299.849L354.661 299.83C354.577 299.815 354.447 299.84 354.315 299.898C354.183 299.955 354.061 300.039 353.988 300.128L353.987 300.128C353.938 300.186 353.896 300.303 353.874 300.443C353.858 300.547 353.854 300.657 353.864 300.754L353.879 300.845C354.021 301.433 354.653 301.75 355.126 301.494ZM354.373 300.759C354.319 300.789 354.274 300.809 354.237 300.819C354.199 300.83 354.158 300.832 354.12 300.808C354.088 300.788 354.069 300.754 354.056 300.73C354.013 300.652 353.992 300.526 353.988 300.417C353.986 300.361 353.989 300.305 353.997 300.257C354.004 300.213 354.019 300.164 354.048 300.13L354.048 300.129C354.202 299.938 354.461 299.859 354.668 299.945C354.726 299.97 354.783 300.008 354.829 300.05C354.852 300.071 354.873 300.094 354.892 300.118L354.935 300.194C354.947 300.225 354.961 300.261 354.962 300.298C354.963 300.341 354.947 300.378 354.917 300.411C354.89 300.442 354.85 300.472 354.798 300.506C354.746 300.54 354.676 300.581 354.586 300.635C354.497 300.688 354.427 300.73 354.373 300.759Z" fill="#59A32E" stroke="#5EAD33" stroke-width="0.133333"/>
<path d="M357.715 300.064C357.757 300.024 357.794 299.97 357.84 299.883L357.84 299.882C357.869 299.824 357.893 299.779 357.913 299.746C357.93 299.715 357.951 299.683 357.976 299.664C357.991 299.654 358.011 299.645 358.035 299.645C358.057 299.645 358.076 299.653 358.089 299.661C358.112 299.675 358.134 299.7 358.151 299.719L358.152 299.719C358.167 299.735 358.182 299.743 358.199 299.745C358.217 299.747 358.241 299.742 358.27 299.726L358.331 299.693L357.516 298.19L357.45 298.226C357.419 298.242 357.406 298.251 357.4 298.257C357.398 298.259 357.398 298.258 357.398 298.261C357.399 298.271 357.404 298.291 357.421 298.329L357.496 298.481C357.537 298.557 357.592 298.67 357.647 298.791L357.804 299.146C357.872 299.307 357.914 299.417 357.93 299.505C357.942 299.576 357.938 299.632 357.922 299.688L357.901 299.745L357.9 299.747L357.853 299.829C357.799 299.907 357.725 299.972 357.647 300.017C357.546 300.075 357.423 300.107 357.319 300.065C357.284 300.052 357.251 300.024 357.221 299.992C357.189 299.958 357.152 299.912 357.112 299.855C357.031 299.739 356.929 299.57 356.797 299.338C356.697 299.166 356.622 299.038 356.563 298.946C356.503 298.852 356.464 298.802 356.436 298.779C356.423 298.768 356.417 298.766 356.416 298.766L356.413 298.766C356.412 298.766 356.41 298.767 356.406 298.769C356.398 298.773 356.385 298.783 356.368 298.799C356.354 298.812 356.339 298.828 356.321 298.847C356.321 298.849 356.322 298.85 356.322 298.851C356.327 298.873 356.338 298.905 356.357 298.95C356.393 299.04 356.456 299.169 356.546 299.335C356.775 299.751 356.939 299.993 357.09 300.113C357.163 300.172 357.232 300.201 357.302 300.207C357.373 300.214 357.452 300.2 357.548 300.163C357.626 300.133 357.675 300.104 357.715 300.064Z" fill="#59A32E" stroke="#5EAD33" stroke-width="0.133333"/>
<path d="M340.828 309.176L340.027 307.697L339.841 307.798L340.25 308.532L340.656 309.269L340.828 309.176Z" fill="#59A32E" stroke="#5EAD33" stroke-width="0.133333"/>
<path d="M354.692 316.147C355.509 315.697 356.313 315.222 356.668 314.959C359.822 312.627 362.043 309.739 363.365 306.259C363.696 305.386 364.168 303.74 364.293 303.025L364.294 303.026C364.715 300.611 364.713 298.175 364.282 296.039C363.708 293.2 362.693 290.865 361.067 288.622C359.078 285.889 356.344 283.745 353.086 282.372C349.02 280.659 343.939 280.459 339.716 281.829L339.31 281.967C338.096 282.393 336.889 282.977 335.666 283.723C335.169 284.024 334.192 284.739 333.638 285.2L333.639 285.2C331.592 286.913 329.988 288.984 328.733 291.535C328.058 292.909 327.373 294.991 327.11 296.475C326.008 302.71 328.079 309.037 332.633 313.35C336.188 316.72 341.131 318.632 345.994 318.51C348.334 318.451 350.303 318.053 352.658 317.164C353.052 317.014 353.874 316.596 354.692 316.147ZM353.1 313.579C350.079 315.215 346.661 315.771 343.146 315.188C341.725 314.959 339.712 314.276 338.418 313.597C336.235 312.448 334.487 310.946 332.968 308.907C332.709 308.561 332.31 307.899 331.941 307.23C331.664 306.728 331.402 306.218 331.227 305.83L331.084 305.488C330.242 303.264 329.917 301.133 330.061 298.84C330.124 297.81 330.176 297.449 330.377 296.519L330.378 296.518C331.265 292.488 333.571 289.069 336.99 286.725C337.167 286.602 337.691 286.309 338.234 286.018C338.779 285.726 339.351 285.432 339.628 285.307L339.629 285.308C340.954 284.726 342.969 284.237 344.494 284.123C347.415 283.907 350.453 284.516 352.966 285.83C356.489 287.671 359.083 290.595 360.445 294.281C361.401 296.86 361.654 299.67 361.173 302.405C361.009 303.324 360.448 305.166 360.069 306.034L360.069 306.034C358.632 309.3 356.259 311.868 353.1 313.579Z" fill="#2845BF" stroke="#5EAD33" stroke-width="0.133333"/>
<path d="M296.684 393.238C294.856 393.564 292.993 393.66 291.141 393.523C287.691 393.523 282.957 393.285 277.747 392.763C272.536 392.24 267.826 391.504 264.471 390.839C262.622 390.601 260.808 390.138 259.071 389.461C260.931 389.462 262.787 389.637 264.614 389.984C267.992 390.411 272.679 391.005 277.866 391.528C283.052 392.05 287.762 392.406 291.165 392.644C293.019 392.667 294.867 392.866 296.684 393.238Z" fill="white"/>
<path d="M303.916 384.283C302.087 385.177 300.153 385.839 298.159 386.254C288.667 388.744 278.874 389.903 269.062 389.698C267.032 389.764 265.002 389.572 263.02 389.128C265.023 388.875 267.043 388.772 269.062 388.819C272.798 388.7 277.936 388.439 283.599 387.774C289.261 387.109 294.304 386.159 297.873 385.399C299.855 384.87 301.876 384.497 303.916 384.283Z" fill="white"/>
<path d="M339.413 344.33C339.365 346.141 339.117 347.941 338.675 349.698C338.057 352.999 337.105 357.512 335.892 362.453C334.679 367.393 333.513 371.953 332.466 375.041C332.045 376.809 331.422 378.522 330.61 380.148C330.743 378.342 331.078 376.558 331.61 374.827C332.514 371.122 333.537 366.847 334.679 362.168C335.821 357.488 336.915 353.213 337.819 349.508C338.141 347.724 338.676 345.986 339.413 344.33Z" fill="white"/>
<path d="M235.423 397.464C229.919 396.615 224.488 395.353 219.174 393.687C213.745 392.42 208.417 390.752 203.234 388.699C208.736 389.561 214.166 390.824 219.483 392.476C224.914 393.739 230.242 395.406 235.423 397.464Z" fill="white"/>
<path d="M346.55 324.547C345.652 324.701 344.735 324.701 343.838 324.547C341.353 324.293 338.913 323.71 336.581 322.813C332.69 321.353 329.147 319.096 326.18 316.188C323.214 313.28 320.89 309.784 319.357 305.926C317.663 301.681 316.939 297.113 317.24 292.553C317.346 288.793 318.472 285.132 320.499 281.96C321.924 279.824 324.054 278.252 326.518 277.518C327.176 277.337 327.857 277.249 328.54 277.257C329.016 277.257 329.254 277.257 329.254 277.257C329.254 277.257 328.255 277.257 326.661 277.899C324.4 278.732 322.483 280.295 321.213 282.34C317.977 287.423 317.073 296.71 320.523 305.379C322.128 309.467 324.642 313.138 327.874 316.115C330.522 318.552 333.573 320.512 336.891 321.911C340.004 323.139 343.243 324.023 346.55 324.547Z" fill="white"/>
<path d="M402.007 326.59C401.412 319.307 401.221 311.996 401.436 304.691C401.25 297.393 401.472 290.089 402.102 282.816C402.698 290.091 402.888 297.394 402.673 304.691C402.873 311.998 402.651 319.31 402.007 326.59Z" fill="white"/>
<path d="M314.741 277.424C315.002 272.128 315.55 266.142 315.55 266.142C315.55 266.142 328.682 264.693 329.467 251.155C330.252 237.616 329.467 206.382 329.467 206.382L305.676 194.222L279.269 214.957L283.337 282.65L307.556 284.194C309.407 284.245 311.203 283.561 312.55 282.292C313.897 281.023 314.685 279.272 314.741 277.424Z" fill="#FFBE9D"/>
<path d="M317.097 240.442C317.097 240.442 317.097 240.704 316.883 241.012C316.706 241.236 316.477 241.414 316.216 241.53C315.955 241.646 315.669 241.696 315.384 241.677C313.862 241.677 312.387 239.92 311.863 237.877C311.615 236.887 311.615 235.851 311.863 234.861C311.912 234.429 312.068 234.015 312.318 233.659C312.567 233.302 312.901 233.013 313.291 232.818C313.611 232.686 313.97 232.686 314.29 232.818C314.527 232.936 314.719 233.127 314.837 233.364C315.004 233.768 314.837 234.029 314.837 234.006C314.837 233.982 314.837 233.768 314.599 233.531C314.475 233.36 314.292 233.242 314.086 233.198C313.879 233.155 313.664 233.188 313.481 233.293C313.189 233.469 312.947 233.716 312.776 234.011C312.606 234.306 312.513 234.639 312.506 234.979C312.305 235.863 312.305 236.78 312.506 237.663C312.981 239.516 314.266 241.012 315.408 241.155C315.632 241.185 315.859 241.169 316.076 241.108C316.293 241.047 316.495 240.941 316.669 240.799C316.955 240.609 317.05 240.419 317.097 240.442Z" fill="#EB996E"/>
<path d="M337.628 199.065C335.796 192.842 329.158 189.755 323.115 188.045C313.908 185.432 303.964 184.292 294.971 187.593C285.978 190.895 275.177 196.69 275.177 206.595C269.872 206.167 266.826 210.799 264.733 216.547C263.394 220.049 262.592 223.732 262.354 227.473C261.688 240.441 258.048 258.35 249.626 267.851C244.868 273.148 238.277 276.805 235.565 283.408C233.186 289.133 234.423 295.926 232.211 301.721C230.236 306.828 225.882 310.462 222.695 314.903C219.447 319.942 217.535 325.722 217.14 331.701C216.745 337.68 217.878 343.661 220.434 349.082C223.009 354.364 226.634 359.068 231.088 362.906C235.542 366.745 240.732 369.638 246.343 371.409C257.455 374.784 269.306 374.9 280.482 371.741C288.87 369.739 296.695 365.866 303.369 360.412C310.198 354.844 314.888 347.091 316.644 338.465C318.333 328.774 315.621 318.917 313.599 309.274C307.271 278.8 309.079 277.209 317.073 248.921C317.263 248.422 317.358 247.899 317.501 247.401C317.644 246.902 317.715 246.664 317.81 246.284C318.037 245.166 318.157 244.029 318.167 242.888C316.999 243.321 315.732 243.413 314.514 243.152C313.296 242.891 312.178 242.289 311.291 241.415C310.403 240.484 309.783 239.33 309.498 238.075C309.213 236.821 309.274 235.512 309.674 234.289C310.235 232.952 311.071 231.747 312.129 230.753C313.186 229.759 314.441 228.997 315.812 228.518C318.452 227.425 321.284 226.855 323.877 225.644C329.372 223.031 333.179 217.616 335.772 211.939C337.904 208.005 338.562 203.44 337.628 199.065Z" fill="#9D6428"/>
<path d="M236.589 441.001L342.101 437.795L388.017 616.741L379.572 822.005H323.782L330.61 621.112L289.809 496.533L296.09 829.962L239.706 830.793L233.782 517.387C233.52 508.67 230.665 489.027 231.736 480.382L236.589 441.001Z" fill="#6E7191"/>
<path d="M303.845 499.073C302.118 499.181 300.384 499.078 298.682 498.764C295.494 498.384 291.141 497.719 286.359 496.769C281.577 495.819 277.294 494.726 274.202 493.848C272.548 493.485 270.949 492.91 269.443 492.137C269.443 491.781 277.199 493.634 286.715 495.558C296.232 497.482 303.892 498.717 303.845 499.073Z" fill="#A0A3BD"/>
<path d="M288.31 820.439C287.977 820.439 286.502 747.593 285.003 657.739C283.505 567.886 282.624 494.992 282.934 494.992C283.243 494.992 284.766 567.815 286.241 657.716C287.716 747.616 288.667 820.439 288.31 820.439Z" fill="#A0A3BD"/>
<path d="M371.507 810.747C371.481 810.423 371.481 810.098 371.507 809.774V806.923C371.507 804.358 371.697 800.677 371.84 795.997C372.173 786.497 372.649 772.697 373.244 755.786C374.528 721.773 376.336 674.887 378.311 623.131C378.311 622.633 378.311 622.158 378.311 621.73V621.896C365.821 572.017 354.52 526.746 346.312 493.993L336.796 455.253C335.702 450.717 334.869 447.178 334.274 444.708C333.989 443.544 333.798 442.641 333.632 441.952C333.539 441.643 333.483 441.324 333.465 441.002C333.589 441.302 333.685 441.612 333.751 441.929C333.941 442.594 334.179 443.496 334.512 444.636C335.155 447.012 336.082 450.622 337.272 455.135C339.651 464.303 343.005 477.509 347.193 493.779C355.472 526.509 366.891 571.661 379.548 621.611V621.778C379.548 622.205 379.548 622.704 379.548 623.179C377.431 674.934 375.504 721.797 374.1 755.809C373.363 772.744 372.744 786.449 372.316 795.997C372.078 800.748 371.887 804.358 371.769 806.923C371.769 808.135 371.626 809.085 371.602 809.774C371.606 810.101 371.574 810.427 371.507 810.747Z" fill="#A0A3BD"/>
<path d="M353.306 617.551C349.299 618.866 345.171 619.781 340.982 620.282C335.843 621.161 334.317 621.127 332.342 621.222V620.747C332.985 620.937 333.318 621.056 333.318 621.151C333.318 621.246 332.913 621.151 332.247 621.151H330.82L332.247 620.723C334.103 620.177 335.629 619.926 340.768 618.999C344.89 618.107 349.089 617.622 353.306 617.551Z" fill="#A0A3BD"/>
<path d="M352.331 624.367C348.62 624.536 344.902 624.37 341.221 623.868C337.505 623.792 334.263 623.344 330.618 622.614C338.053 622.009 345.078 622.628 352.331 624.367Z" fill="#A0A3BD"/>
<path opacity="0.2" d="M236.136 444.778C237.386 446.38 238.96 447.701 240.755 448.654C242.551 449.608 244.528 450.173 246.557 450.312C250.806 450.815 255.104 450.735 259.332 450.074C286.573 447.058 315.431 444.279 342.1 437.795C307.58 439.719 271.109 439.077 236.588 441.001L236.231 443.946" fill="#A0A3BD"/>
<g opacity="0.2">
<path opacity="0.2" d="M271.704 493.352L291.164 568.74L289.808 496.535L271.704 493.352Z" fill="black"/>
</g>
<path d="M474.005 90.3845C480.201 92.7395 477.732 100.196 477.732 100.196C477.732 100.196 482.779 98.6265 485.185 102.206C487.591 105.785 479.147 107.025 480.468 108.281C481.789 109.537 487.434 112.3 483.393 115.471C479.351 118.642 473.958 113.76 473.958 113.76C473.958 113.76 472.763 116.695 468.109 117.386C463.454 118.077 465.341 110.306 465.341 110.306C465.341 110.306 462.338 114.34 460.263 107.998C459.934 107.236 459.784 106.408 459.824 105.578C459.863 104.749 460.092 103.94 460.492 103.212C460.893 102.484 461.454 101.856 462.133 101.377C462.813 100.898 463.593 100.58 464.414 100.448C464.414 100.448 461.505 94.8895 464.005 93.5085C466.505 92.1265 471.175 96.6485 471.175 96.6485C471.175 96.6485 470.908 89.2075 474.005 90.3845Z" fill="#407BFF"/>
<path d="M474.005 90.3845C480.201 92.7395 477.732 100.196 477.732 100.196C477.732 100.196 482.779 98.6265 485.185 102.206C487.591 105.785 479.147 107.025 480.468 108.281C481.789 109.537 487.434 112.3 483.393 115.471C479.351 118.642 473.958 113.76 473.958 113.76C473.958 113.76 472.763 116.695 468.109 117.386C463.454 118.077 465.341 110.306 465.341 110.306C465.341 110.306 462.338 114.34 460.263 107.998C459.934 107.236 459.784 106.408 459.824 105.578C459.863 104.749 460.092 103.94 460.492 103.212C460.893 102.484 461.454 101.856 462.133 101.377C462.813 100.898 463.593 100.58 464.414 100.448C464.414 100.448 461.505 94.8895 464.005 93.5085C466.505 92.1265 471.175 96.6485 471.175 96.6485C471.175 96.6485 470.908 89.2075 474.005 90.3845Z" fill="#ACAAD1"/>
<path d="M517.027 122.173C518.19 124.999 514.92 126.537 514.92 126.537C514.92 126.537 517.043 127.714 516.602 129.677C516.162 131.639 513.064 129.19 513.08 130.038C513.096 130.885 513.945 133.664 511.602 133.303C509.259 132.942 509.165 129.614 509.165 129.614C508.627 129.745 508.066 129.74 507.53 129.601C506.995 129.461 506.503 129.19 506.099 128.813C504.385 127.479 507.592 125.674 507.592 125.674C507.592 125.674 505.297 125.956 506.759 123.24C506.912 122.889 507.143 122.578 507.434 122.329C507.725 122.08 508.07 121.9 508.441 121.803C508.812 121.706 509.2 121.695 509.576 121.77C509.952 121.845 510.306 122.004 510.611 122.236C510.611 122.236 511.555 119.489 512.813 119.897C514.071 120.305 514.024 123.303 514.024 123.303C514.024 123.303 516.429 120.76 517.027 122.173Z" fill="#407BFF"/>
<path d="M517.027 122.173C518.19 124.999 514.92 126.537 514.92 126.537C514.92 126.537 517.043 127.714 516.602 129.677C516.162 131.639 513.064 129.19 513.08 130.038C513.096 130.885 513.945 133.664 511.602 133.303C509.259 132.942 509.165 129.614 509.165 129.614C508.627 129.745 508.066 129.74 507.53 129.601C506.995 129.461 506.503 129.19 506.099 128.813C504.385 127.479 507.592 125.674 507.592 125.674C507.592 125.674 505.297 125.956 506.759 123.24C506.912 122.889 507.143 122.578 507.434 122.329C507.725 122.08 508.07 121.9 508.441 121.803C508.812 121.706 509.2 121.695 509.576 121.77C509.952 121.845 510.306 122.004 510.611 122.236C510.611 122.236 511.555 119.489 512.813 119.897C514.071 120.305 514.024 123.303 514.024 123.303C514.024 123.303 516.429 120.76 517.027 122.173Z" fill="#ACAAD1"/>
<path d="M483.031 148.938C479.76 151.937 476.034 148.216 476.034 148.216C476.034 148.216 475.468 151.717 472.59 152.078C469.713 152.439 471.505 147.007 470.342 147.463C469.178 147.918 465.829 150.414 465.153 147.039C464.477 143.664 469.005 141.905 469.005 141.905C468.547 141.242 468.268 140.471 468.194 139.669C468.119 138.866 468.253 138.058 468.581 137.322C469.556 134.339 473.675 137.793 473.675 137.793C473.675 137.793 472.103 134.794 476.584 135.453C477.134 135.492 477.668 135.653 478.147 135.925C478.626 136.197 479.037 136.573 479.351 137.025C479.665 137.477 479.873 137.994 479.96 138.537C480.048 139.08 480.011 139.636 479.855 140.163C479.855 140.163 484.069 140.163 484.147 142C484.226 143.836 480.075 145.328 480.075 145.328C480.075 145.328 484.666 147.447 483.031 148.938Z" fill="#407BFF"/>
<path d="M483.031 148.938C479.76 151.937 476.034 148.216 476.034 148.216C476.034 148.216 475.468 151.717 472.59 152.078C469.713 152.439 471.505 147.007 470.342 147.463C469.178 147.918 465.829 150.414 465.153 147.039C464.477 143.664 469.005 141.905 469.005 141.905C468.547 141.242 468.268 140.471 468.194 139.669C468.119 138.866 468.253 138.058 468.581 137.322C469.556 134.339 473.675 137.793 473.675 137.793C473.675 137.793 472.103 134.794 476.584 135.453C477.134 135.492 477.668 135.653 478.147 135.925C478.626 136.197 479.037 136.573 479.351 137.025C479.665 137.477 479.873 137.994 479.96 138.537C480.048 139.08 480.011 139.636 479.855 140.163C479.855 140.163 484.069 140.163 484.147 142C484.226 143.836 480.075 145.328 480.075 145.328C480.075 145.328 484.666 147.447 483.031 148.938Z" fill="#ACAAD1"/>
<path d="M165.829 441.262C164.942 444.769 162.621 447.029 159.188 447.716C158.622 447.825 158.169 447.969 158.169 448.024C158.169 448.078 158.867 448.313 159.716 448.566C162.923 449.488 164.791 451.368 165.81 454.677L166.225 455.997L166.451 454.984C166.583 454.424 167.017 453.339 167.432 452.562C168.602 450.32 170.262 449.09 173.149 448.385C174.545 448.042 174.526 447.988 172.979 447.662C171.564 447.355 169.734 446.433 168.753 445.493C167.715 444.516 167.093 443.377 166.565 441.443L166.15 439.997L165.829 441.262Z" fill="#E5D11F"/>
<path d="M153.82 436.993C153.272 439.187 151.826 440.603 149.681 441.039C149.327 441.107 149.044 441.199 149.044 441.233C149.045 441.266 149.481 441.412 150.012 441.569C152.019 442.139 153.189 443.311 153.832 445.377L154.094 446.201L154.233 445.568C154.315 445.218 154.584 444.539 154.842 444.052C155.569 442.649 156.605 441.878 158.408 441.432C159.28 441.215 159.268 441.181 158.3 440.98C157.415 440.791 156.27 440.218 155.655 439.632C155.005 439.024 154.614 438.313 154.28 437.105L154.018 436.201L153.82 436.993Z" fill="#E5D11F"/>
</g>
<path d="M518 660V659.5H0V660V660.5H518V660Z" fill="#A0A3BD"/>
<defs>
<clipPath id="clip0_130_412">
<path d="M0 0H518V660H0V0Z" fill="white"/>
</clipPath>
</defs>
</svg>
