<svg width="244" height="73" viewBox="0 0 244 73" fill="none" xmlns="http://www.w3.org/2000/svg">
<g clip-path="url(#clip0_264_233)">
<path d="M220.623 0H23.3772C10.4663 0 0 10.4586 0 23.36V49.64C0 62.5414 10.4663 73 23.3772 73H220.623C233.534 73 244 62.5414 244 49.64V23.36C244 10.4586 233.534 0 220.623 0Z" fill="white"/>
<path d="M61.3655 36.5001C61.3655 24.4051 51.5533 14.6001 39.4494 14.6001C27.3454 14.6001 17.5332 24.4051 17.5332 36.5001C17.5332 48.5951 27.3454 58.4001 39.4494 58.4001C51.5533 58.4001 61.3655 48.5951 61.3655 36.5001Z" fill="#2442BE"/>
<mask id="mask0_264_233" style="mask-type:luminance" maskUnits="userSpaceOnUse" x="27" y="24" width="25" height="25">
<path d="M51.5023 24.8198H27.3945V48.1798H51.5023V24.8198Z" fill="white"/>
</mask>
<g mask="url(#mask0_264_233)">
<mask id="mask1_264_233" style="mask-type:luminance" maskUnits="userSpaceOnUse" x="27" y="24" width="25" height="25">
<path d="M51.5023 24.8198H27.3945V48.1798H51.5023V24.8198Z" fill="white"/>
</mask>
<g mask="url(#mask1_264_233)">
<path d="M30.3496 29.6864C30.3496 28.6113 31.2218 27.7397 32.2977 27.7397H35.4919C35.9111 27.7397 36.2833 28.0078 36.4159 28.4053L37.8749 32.7789C38.0282 33.2384 37.82 33.7406 37.3865 33.9573L35.1877 35.0558C36.2614 37.4353 38.1798 39.3524 40.5611 40.4252L41.6605 38.2281C41.8772 37.7949 42.3798 37.5869 42.8397 37.74L47.2165 39.1979C47.6143 39.3304 47.8825 39.7023 47.8825 40.1213V43.3131C47.8825 44.3882 47.0104 45.2597 45.9345 45.2597H44.9604C36.8911 45.2597 30.3496 38.7231 30.3496 30.6597V29.6864Z" stroke="white" stroke-width="2.5" stroke-linecap="round" stroke-linejoin="round"/>
</g>
</g>
<path d="M73.9473 28.7094V26.7121H81.8897V28.7094H73.9473ZM76.9103 23.541H78.9442V31.863H76.9103V23.541ZM86.7792 33.7551C85.9493 33.7551 85.1895 33.6091 84.4999 33.3171C83.8103 33.0135 83.2317 32.5813 82.7641 32.0207L84.3421 30.4614C84.5759 30.8118 84.909 31.0921 85.3415 31.3023C85.774 31.5126 86.2415 31.6177 86.7441 31.6177C87.2117 31.6177 87.6149 31.5359 87.9539 31.3724C88.2929 31.1972 88.5559 30.9578 88.7429 30.6541C88.9416 30.3387 89.0409 29.9767 89.0409 29.5679C89.0409 29.1357 88.9416 28.7678 88.7429 28.4641C88.5559 28.1604 88.2812 27.9268 87.9188 27.7633C87.5565 27.5998 87.124 27.518 86.6214 27.518C86.3993 27.518 86.1714 27.5355 85.9376 27.5706C85.7038 27.5939 85.5051 27.6348 85.3415 27.6932L86.3935 26.3617C86.6857 26.2683 86.972 26.1923 87.2526 26.1339C87.5448 26.0639 87.8136 26.0288 88.0591 26.0288C88.6903 26.0288 89.2572 26.1807 89.7598 26.4843C90.2741 26.7763 90.6773 27.1968 90.9696 27.7458C91.2735 28.2831 91.4247 28.9196 91.4247 29.6555C91.4247 30.4731 91.2326 31.1914 90.8468 31.8104C90.4611 32.4178 89.9176 32.8967 89.2163 33.2471C88.5266 33.5858 87.7143 33.7551 86.7792 33.7551ZM85.3415 27.6932V26.3267L88.4974 22.665L91.2326 22.6299L87.9714 26.3617L85.3415 27.6932ZM83.4479 23.3307V21.2634H91.2326V22.6299L89.2864 23.3307H83.4479ZM96.0709 33.7551C95.2176 33.7551 94.4403 33.6091 93.739 33.3171C93.0377 33.0135 92.4533 32.5813 91.9857 32.0207L93.5637 30.4614C93.7975 30.8118 94.1306 31.0921 94.5631 31.3023C95.0072 31.5126 95.4923 31.6177 96.0183 31.6177C96.4975 31.6177 96.9125 31.5301 97.2631 31.3549C97.6255 31.1797 97.906 30.9344 98.1047 30.6191C98.3151 30.292 98.4203 29.9124 98.4203 29.4803C98.4203 29.0247 98.3151 28.6393 98.1047 28.3239C97.906 28.0086 97.6372 27.7691 97.2982 27.6056C96.9592 27.4421 96.5794 27.3603 96.1586 27.3603C95.7144 27.3603 95.3111 27.4187 94.9488 27.5355C94.5981 27.6407 94.2592 27.8159 93.9319 28.0611L94.0722 26.5544C94.2942 26.3208 94.528 26.1339 94.7735 25.9938C95.0189 25.8419 95.2936 25.731 95.5975 25.6609C95.9131 25.5791 96.2813 25.5383 96.7021 25.5383C97.6021 25.5383 98.3502 25.7251 98.9463 26.0989C99.5541 26.461 100.016 26.9515 100.331 27.5706C100.647 28.1779 100.805 28.8495 100.805 29.5854C100.805 30.3913 100.606 31.1096 100.209 31.7403C99.8113 32.3711 99.2561 32.8675 98.5431 33.2295C97.8417 33.5799 97.0177 33.7551 96.0709 33.7551ZM93.9319 28.0611L92.7922 26.9399L93.3533 21.2634H95.5099L94.8787 27.0275L93.9319 28.0611ZM93.7215 23.3307L93.3533 21.2634H100.121V23.3307H93.7215ZM105.887 33.7551C105.011 33.7551 104.251 33.6033 103.608 33.2996C102.977 32.9959 102.48 32.5696 102.118 32.0207C101.767 31.4717 101.592 30.8527 101.592 30.1635C101.592 29.5912 101.703 29.0715 101.925 28.6043C102.147 28.1371 102.462 27.7458 102.871 27.4304C103.292 27.1034 103.783 26.8756 104.344 26.7471L104.292 27.3253C103.824 27.2085 103.427 27.0041 103.099 26.7121C102.772 26.4201 102.527 26.0755 102.363 25.6784C102.199 25.2696 102.118 24.8491 102.118 24.417C102.118 23.7512 102.275 23.1672 102.591 22.665C102.918 22.1627 103.362 21.7715 103.923 21.4911C104.496 21.2108 105.151 21.0707 105.887 21.0707C106.624 21.0707 107.272 21.2108 107.833 21.4911C108.394 21.7715 108.833 22.1627 109.148 22.665C109.476 23.1672 109.639 23.7512 109.639 24.417C109.639 24.8491 109.557 25.2696 109.394 25.6784C109.23 26.0755 108.985 26.4201 108.657 26.7121C108.342 27.0041 107.944 27.2085 107.465 27.3253L107.413 26.7471C107.985 26.8756 108.476 27.1034 108.885 27.4304C109.294 27.7458 109.61 28.1371 109.832 28.6043C110.054 29.0715 110.165 29.5912 110.165 30.1635C110.165 30.8527 109.99 31.4717 109.639 32.0207C109.289 32.5696 108.792 32.9959 108.149 33.2996C107.506 33.6033 106.752 33.7551 105.887 33.7551ZM105.887 31.6703C106.273 31.6703 106.618 31.5943 106.922 31.4425C107.226 31.279 107.459 31.0571 107.623 30.7767C107.798 30.4964 107.886 30.1811 107.886 29.8307C107.886 29.4686 107.798 29.1532 107.623 28.8846C107.459 28.6043 107.226 28.3882 106.922 28.2363C106.618 28.0728 106.273 27.9911 105.887 27.9911C105.49 27.9911 105.139 28.0728 104.835 28.2363C104.543 28.3882 104.309 28.6043 104.134 28.8846C103.959 29.1532 103.871 29.4686 103.871 29.8307C103.871 30.1811 103.959 30.4964 104.134 30.7767C104.309 31.0571 104.543 31.279 104.835 31.4425C105.139 31.5943 105.49 31.6703 105.887 31.6703ZM105.887 26.1865C106.343 26.1865 106.717 26.0405 107.009 25.7485C107.301 25.4565 107.448 25.0827 107.448 24.6272C107.448 24.16 107.301 23.7804 107.009 23.4884C106.717 23.1964 106.343 23.0504 105.887 23.0504C105.431 23.0504 105.051 23.1964 104.748 23.4884C104.455 23.7804 104.309 24.1542 104.309 24.6097C104.309 25.0769 104.455 25.4565 104.748 25.7485C105.051 26.0405 105.431 26.1865 105.887 26.1865ZM117.132 35.7349C116.5 35.1743 115.951 34.491 115.484 33.6851C115.028 32.8908 114.677 32.0207 114.432 31.0746C114.186 30.1168 114.063 29.124 114.063 28.0962C114.063 27.0567 114.186 26.0639 114.432 25.1178C114.677 24.16 115.028 23.284 115.484 22.4898C115.951 21.6839 116.5 21.0006 117.132 20.4399L118.429 21.6313C117.669 22.3555 117.079 23.2665 116.658 24.3644C116.249 25.4623 116.045 26.7063 116.045 28.0962C116.045 29.4744 116.249 30.7125 116.658 31.8104C117.079 32.9083 117.669 33.8194 118.429 34.5435L117.132 35.7349ZM124.213 33.7551C123.243 33.7551 122.367 33.4923 121.584 32.9667C120.8 32.4411 120.175 31.6995 119.708 30.7417C119.252 29.7839 119.024 28.6685 119.024 27.3954C119.024 26.1223 119.252 25.0127 119.708 24.0666C120.163 23.1205 120.777 22.3847 121.548 21.8591C122.332 21.3335 123.202 21.0707 124.161 21.0707C125.143 21.0707 126.019 21.3335 126.791 21.8591C127.574 22.3847 128.193 23.1263 128.649 24.0841C129.105 25.0302 129.333 26.1456 129.333 27.4304C129.333 28.7035 129.105 29.819 128.649 30.7767C128.193 31.7228 127.58 32.4587 126.808 32.9843C126.037 33.4982 125.172 33.7551 124.213 33.7551ZM124.178 31.6002C124.739 31.6002 125.225 31.4425 125.634 31.1271C126.043 30.8118 126.358 30.3446 126.58 29.7255C126.814 29.1065 126.931 28.3356 126.931 27.4129C126.931 26.4902 126.814 25.7193 126.58 25.1003C126.358 24.4812 126.037 24.0199 125.616 23.7162C125.207 23.4008 124.722 23.2431 124.161 23.2431C123.611 23.2431 123.132 23.4008 122.723 23.7162C122.314 24.0199 121.993 24.4812 121.759 25.1003C121.537 25.7076 121.426 26.4727 121.426 27.3954C121.426 28.3298 121.537 29.1065 121.759 29.7255C121.993 30.3446 122.314 30.8118 122.723 31.1271C123.132 31.4425 123.617 31.6002 124.178 31.6002ZM130.04 29.235L134.247 21.2634H136.877L132.564 29.235H130.04ZM130.04 30.6366V29.235L130.916 28.5517H139.753V30.6366H130.04ZM135.86 33.5799V25.731H138.21V33.5799H135.86ZM143.995 33.7551C143.142 33.7551 142.364 33.6091 141.663 33.3171C140.962 33.0135 140.377 32.5813 139.91 32.0207L141.488 30.4614C141.722 30.8118 142.055 31.0921 142.487 31.3023C142.931 31.5126 143.416 31.6177 143.942 31.6177C144.422 31.6177 144.837 31.5301 145.187 31.3549C145.55 31.1797 145.83 30.9344 146.029 30.6191C146.239 30.292 146.344 29.9124 146.344 29.4803C146.344 29.0247 146.239 28.6393 146.029 28.3239C145.83 28.0086 145.561 27.7691 145.222 27.6056C144.883 27.4421 144.503 27.3603 144.083 27.3603C143.638 27.3603 143.235 27.4187 142.873 27.5355C142.522 27.6407 142.183 27.8159 141.856 28.0611L141.996 26.5544C142.218 26.3208 142.452 26.1339 142.698 25.9938C142.943 25.8419 143.218 25.731 143.522 25.6609C143.837 25.5791 144.205 25.5383 144.626 25.5383C145.526 25.5383 146.274 25.7251 146.87 26.0989C147.478 26.461 147.94 26.9515 148.255 27.5706C148.571 28.1779 148.729 28.8495 148.729 29.5854C148.729 30.3913 148.53 31.1096 148.133 31.7403C147.735 32.3711 147.18 32.8675 146.467 33.2295C145.766 33.5799 144.942 33.7551 143.995 33.7551ZM141.856 28.0611L140.716 26.9399L141.277 21.2634H143.434L142.803 27.0275L141.856 28.0611ZM141.646 23.3307L141.277 21.2634H148.045V23.3307H141.646ZM150.568 35.7349L149.288 34.5435C150.048 33.8194 150.633 32.9083 151.042 31.8104C151.451 30.7125 151.655 29.4744 151.655 28.0962C151.655 26.7063 151.451 25.4623 151.042 24.3644C150.633 23.2665 150.048 22.3555 149.288 21.6313L150.568 20.4399C151.211 21.0006 151.761 21.6839 152.216 22.4898C152.672 23.284 153.023 24.16 153.268 25.1178C153.526 26.0639 153.654 27.0567 153.654 28.0962C153.654 29.124 153.526 30.1168 153.268 31.0746C153.023 32.0207 152.672 32.8908 152.216 33.6851C151.761 34.491 151.211 35.1743 150.568 35.7349ZM161.831 33.7551C160.954 33.7551 160.195 33.6033 159.552 33.2996C158.921 32.9959 158.424 32.5696 158.062 32.0207C157.711 31.4717 157.536 30.8527 157.536 30.1635C157.536 29.5912 157.647 29.0715 157.869 28.6043C158.091 28.1371 158.406 27.7458 158.815 27.4304C159.236 27.1034 159.727 26.8756 160.288 26.7471L160.236 27.3253C159.768 27.2085 159.371 27.0041 159.043 26.7121C158.716 26.4201 158.471 26.0755 158.307 25.6784C158.143 25.2696 158.062 24.8491 158.062 24.417C158.062 23.7512 158.219 23.1672 158.535 22.665C158.862 22.1627 159.306 21.7715 159.867 21.4911C160.44 21.2108 161.095 21.0707 161.831 21.0707C162.567 21.0707 163.216 21.2108 163.777 21.4911C164.338 21.7715 164.777 22.1627 165.092 22.665C165.42 23.1672 165.583 23.7512 165.583 24.417C165.583 24.8491 165.501 25.2696 165.338 25.6784C165.174 26.0755 164.929 26.4201 164.601 26.7121C164.286 27.0041 163.888 27.2085 163.409 27.3253L163.356 26.7471C163.929 26.8756 164.42 27.1034 164.829 27.4304C165.238 27.7458 165.554 28.1371 165.776 28.6043C165.998 29.0715 166.109 29.5912 166.109 30.1635C166.109 30.8527 165.934 31.4717 165.583 32.0207C165.232 32.5696 164.736 32.9959 164.093 33.2996C163.45 33.6033 162.696 33.7551 161.831 33.7551ZM161.831 31.6703C162.217 31.6703 162.562 31.5943 162.866 31.4425C163.169 31.279 163.403 31.0571 163.567 30.7767C163.742 30.4964 163.83 30.1811 163.83 29.8307C163.83 29.4686 163.742 29.1532 163.567 28.8846C163.403 28.6043 163.169 28.3882 162.866 28.2363C162.562 28.0728 162.217 27.9911 161.831 27.9911C161.434 27.9911 161.083 28.0728 160.779 28.2363C160.487 28.3882 160.253 28.6043 160.078 28.8846C159.902 29.1532 159.815 29.4686 159.815 29.8307C159.815 30.1811 159.902 30.4964 160.078 30.7767C160.253 31.0571 160.487 31.279 160.779 31.4425C161.083 31.5943 161.434 31.6703 161.831 31.6703ZM161.831 26.1865C162.287 26.1865 162.661 26.0405 162.953 25.7485C163.245 25.4565 163.392 25.0827 163.392 24.6272C163.392 24.16 163.245 23.7804 162.953 23.4884C162.661 23.1964 162.287 23.0504 161.831 23.0504C161.375 23.0504 160.995 23.1964 160.691 23.4884C160.399 23.7804 160.253 24.1542 160.253 24.6097C160.253 25.0769 160.399 25.4565 160.691 25.7485C160.995 26.0405 161.375 26.1865 161.831 26.1865ZM171.296 33.7551C170.454 33.7551 169.695 33.5683 169.017 33.1945C168.35 32.8091 167.819 32.2951 167.421 31.6527C167.035 30.9987 166.843 30.2745 166.843 29.4803C166.843 28.394 167.217 27.3019 167.965 26.204L171.384 21.2634H174.119L170.384 26.4843L169.508 26.7296C169.636 26.461 169.788 26.2274 169.963 26.0288C170.15 25.8303 170.39 25.6784 170.682 25.5733C170.975 25.4682 171.343 25.4156 171.787 25.4156C172.523 25.4156 173.19 25.5908 173.786 25.9412C174.382 26.2799 174.861 26.753 175.223 27.3603C175.586 27.956 175.767 28.6451 175.767 29.4277C175.767 30.2336 175.568 30.9636 175.171 31.6177C174.773 32.2718 174.236 32.7915 173.558 33.177C172.88 33.5624 172.126 33.7551 171.296 33.7551ZM171.296 31.6177C171.705 31.6177 172.067 31.5243 172.383 31.3374C172.699 31.1388 172.95 30.876 173.137 30.549C173.324 30.2103 173.417 29.8307 173.417 29.4102C173.417 28.9897 173.324 28.6159 173.137 28.2889C172.95 27.9502 172.699 27.6874 172.383 27.5005C172.067 27.3136 171.705 27.2202 171.296 27.2202C170.887 27.2202 170.519 27.3195 170.191 27.518C169.876 27.7049 169.624 27.9619 169.437 28.2889C169.262 28.6159 169.174 28.9897 169.174 29.4102C169.174 29.8307 169.262 30.2103 169.437 30.549C169.624 30.876 169.876 31.1388 170.191 31.3374C170.519 31.5243 170.887 31.6177 171.296 31.6177ZM178.414 33.5799V21.2634H180.763V33.5799H178.414ZM175.994 23.3307V21.2634H180.588V23.3307H175.994ZM182.681 30.146V28.0611H188.747V30.146H182.681ZM193.78 33.7551C192.927 33.7551 192.15 33.6091 191.449 33.3171C190.747 33.0135 190.163 32.5813 189.695 32.0207L191.273 30.4614C191.507 30.8118 191.84 31.0921 192.273 31.3023C192.717 31.5126 193.202 31.6177 193.728 31.6177C194.207 31.6177 194.622 31.5301 194.973 31.3549C195.335 31.1797 195.616 30.9344 195.814 30.6191C196.025 30.292 196.13 29.9124 196.13 29.4803C196.13 29.0247 196.025 28.6393 195.814 28.3239C195.616 28.0086 195.347 27.7691 195.008 27.6056C194.669 27.4421 194.289 27.3603 193.868 27.3603C193.424 27.3603 193.021 27.4187 192.658 27.5355C192.308 27.6407 191.969 27.8159 191.641 28.0611L191.782 26.5544C192.004 26.3208 192.238 26.1339 192.483 25.9938C192.729 25.8419 193.003 25.731 193.307 25.6609C193.623 25.5791 193.991 25.5383 194.412 25.5383C195.312 25.5383 196.06 25.7251 196.656 26.0989C197.264 26.461 197.725 26.9515 198.041 27.5706C198.357 28.1779 198.514 28.8495 198.514 29.5854C198.514 30.3913 198.316 31.1096 197.918 31.7403C197.521 32.3711 196.966 32.8675 196.253 33.2295C195.551 33.5799 194.727 33.7551 193.78 33.7551ZM191.641 28.0611L190.502 26.9399L191.063 21.2634H193.219L192.588 27.0275L191.641 28.0611ZM191.431 23.3307L191.063 21.2634H197.831V23.3307H191.431ZM200.365 33.5799L204.695 22.6475H207.045L202.837 33.5799H200.365ZM198.664 23.3307V21.2634H207.045V22.6475L206.151 23.3307H198.664ZM207.353 30.146V28.0611H213.42V30.146H207.353ZM216.054 33.5799V21.2634H218.403V33.5799H216.054ZM213.634 23.3307V21.2634H218.228V23.3307H213.634ZM222.126 33.5799V21.2634H224.476V33.5799H222.126ZM219.707 23.3307V21.2634H224.3V23.3307H219.707Z" fill="black"/>
<path d="M100.112 46.8788C100.078 46.5618 99.9356 46.315 99.6836 46.1384C99.4345 45.9617 99.1094 45.8735 98.7105 45.8735C98.4293 45.8735 98.1882 45.9158 97.9873 46.0005C97.7864 46.0852 97.633 46.2001 97.5263 46.3453C97.4197 46.4904 97.3649 46.6562 97.3627 46.8425C97.3627 46.9973 97.3977 47.1316 97.4679 47.2453C97.5409 47.359 97.6388 47.4558 97.7623 47.5356C97.8857 47.6131 98.0223 47.6784 98.1728 47.7316C98.3226 47.7848 98.4738 47.8296 98.6265 47.866L99.3242 48.0401C99.6047 48.1055 99.875 48.1938 100.134 48.305C100.395 48.4164 100.629 48.5567 100.835 48.726C101.043 48.8954 101.208 49.0999 101.329 49.3394C101.45 49.5789 101.511 49.8596 101.511 50.1814C101.511 50.6169 101.399 51.0004 101.176 51.3318C100.953 51.6609 100.632 51.9186 100.21 52.1049C99.791 52.2888 99.284 52.3807 98.6886 52.3807C98.11 52.3807 97.6074 52.2912 97.1815 52.1121C96.7578 51.9331 96.4254 51.6718 96.1858 51.3283C95.9491 50.9847 95.8205 50.5661 95.8008 50.0725H97.1267C97.1464 50.3314 97.2261 50.5467 97.3663 50.7185C97.5066 50.8903 97.69 51.0185 97.915 51.1032C98.1422 51.1879 98.3964 51.2302 98.6776 51.2302C98.9706 51.2302 99.227 51.1867 99.4476 51.0996C99.6704 51.0101 99.8443 50.8867 99.9707 50.7294C100.096 50.5697 100.161 50.3834 100.163 50.1705C100.161 49.977 100.104 49.8172 99.9926 49.6915C99.8808 49.5632 99.7245 49.4568 99.5236 49.3721C99.3249 49.2849 99.0926 49.2075 98.8267 49.1398L97.98 48.922C97.3678 48.7648 96.8834 48.5265 96.5277 48.2071C96.1741 47.8853 95.9973 47.4582 95.9973 46.9259C95.9973 46.488 96.1156 46.1045 96.3531 45.7755C96.5927 45.4464 96.9185 45.1912 97.3298 45.0097C97.7418 44.8258 98.2079 44.7339 98.7281 44.7339C99.2562 44.7339 99.7187 44.8258 100.116 45.0097C100.515 45.1912 100.829 45.444 101.056 45.7682C101.284 46.09 101.402 46.4602 101.408 46.8788H100.112ZM109.358 48.5519C109.358 49.3527 109.208 50.0387 108.908 50.6097C108.61 51.1783 108.203 51.6138 107.687 51.9162C107.174 52.2186 106.592 52.3698 105.941 52.3698C105.289 52.3698 104.705 52.2186 104.19 51.9162C103.677 51.6113 103.27 51.1746 102.97 50.606C102.672 50.035 102.523 49.3503 102.523 48.5519C102.523 47.751 102.672 47.0663 102.97 46.4977C103.27 45.9267 103.677 45.4899 104.19 45.1875C104.705 44.8851 105.289 44.7339 105.941 44.7339C106.592 44.7339 107.174 44.8851 107.687 45.1875C108.203 45.4899 108.61 45.9267 108.908 46.4977C109.208 47.0663 109.358 47.751 109.358 48.5519ZM108.004 48.5519C108.004 47.9881 107.915 47.5127 107.739 47.1256C107.564 46.736 107.322 46.442 107.012 46.2437C106.702 46.0429 106.345 45.9424 105.941 45.9424C105.536 45.9424 105.179 46.0429 104.869 46.2437C104.559 46.442 104.316 46.736 104.139 47.1256C103.965 47.5127 103.878 47.9881 103.878 48.5519C103.878 49.1156 103.965 49.5923 104.139 49.9818C104.316 50.3689 104.559 50.6629 104.869 50.8637C105.179 51.0621 105.536 51.1613 105.941 51.1613C106.345 51.1613 106.702 51.0621 107.012 50.8637C107.322 50.6629 107.564 50.3689 107.739 49.9818C107.915 49.5923 108.004 49.1156 108.004 48.5519ZM111.979 44.8355V52.2682H110.632V44.8355H111.979ZM113.112 45.9642V44.8355H119.047V45.9642H116.748V52.2682H115.411V45.9642H113.112ZM119.863 45.9642V44.8355H125.798V45.9642H123.499V52.2682H122.162V45.9642H119.863ZM133.259 48.5519C133.259 49.3527 133.109 50.0387 132.808 50.6097C132.511 51.1783 132.104 51.6138 131.588 51.9162C131.075 52.2186 130.493 52.3698 129.842 52.3698C129.19 52.3698 128.606 52.2186 128.091 51.9162C127.578 51.6113 127.171 51.1746 126.871 50.606C126.573 50.035 126.424 49.3503 126.424 48.5519C126.424 47.751 126.573 47.0663 126.871 46.4977C127.171 45.9267 127.578 45.4899 128.091 45.1875C128.606 44.8851 129.19 44.7339 129.842 44.7339C130.493 44.7339 131.075 44.8851 131.588 45.1875C132.104 45.4899 132.511 45.9267 132.808 46.4977C133.109 47.0663 133.259 47.751 133.259 48.5519ZM131.904 48.5519C131.904 47.9881 131.816 47.5127 131.64 47.1256C131.465 46.736 131.222 46.442 130.913 46.2437C130.603 46.0429 130.246 45.9424 129.842 45.9424C129.437 45.9424 129.08 46.0429 128.77 46.2437C128.46 46.442 128.217 46.736 128.04 47.1256C127.866 47.5127 127.779 47.9881 127.779 48.5519C127.779 49.1156 127.866 49.5923 128.04 49.9818C128.217 50.3689 128.46 50.6629 128.77 50.8637C129.08 51.0621 129.437 51.1613 129.842 51.1613C130.246 51.1613 130.603 51.0621 130.913 50.8637C131.222 50.6629 131.465 50.3689 131.64 49.9818C131.816 49.5923 131.904 49.1156 131.904 48.5519ZM143.716 48.5519C143.716 49.3527 143.566 50.0387 143.266 50.6097C142.968 51.1783 142.561 51.6138 142.045 51.9162C141.533 52.2186 140.95 52.3698 140.299 52.3698C139.647 52.3698 139.064 52.2186 138.548 51.9162C138.035 51.6113 137.628 51.1746 137.328 50.606C137.03 50.035 136.881 49.3503 136.881 48.5519C136.881 47.751 137.03 47.0663 137.328 46.4977C137.628 45.9267 138.035 45.4899 138.548 45.1875C139.064 44.8851 139.647 44.7339 140.299 44.7339C140.95 44.7339 141.533 44.8851 142.045 45.1875C142.561 45.4899 142.968 45.9267 143.266 46.4977C143.566 47.0663 143.716 47.751 143.716 48.5519ZM142.362 48.5519C142.362 47.9881 142.273 47.5127 142.096 47.1256C141.922 46.736 141.68 46.442 141.37 46.2437C141.06 46.0429 140.703 45.9424 140.299 45.9424C139.895 45.9424 139.537 46.0429 139.227 46.2437C138.917 46.442 138.674 46.736 138.497 47.1256C138.323 47.5127 138.236 47.9881 138.236 48.5519C138.236 49.1156 138.323 49.5923 138.497 49.9818C138.674 50.3689 138.917 50.6629 139.227 50.8637C139.537 51.0621 139.895 51.1613 140.299 51.1613C140.703 51.1613 141.06 51.0621 141.37 50.8637C141.68 50.6629 141.922 50.3689 142.096 49.9818C142.273 49.5923 142.362 49.1156 142.362 48.5519ZM151.103 44.8355V52.2682H149.904L146.399 47.2054H146.338V52.2682H144.99V44.8355H146.196L149.697 49.9019H149.763V44.8355H151.103ZM156.455 44.8355V52.2682H155.108V44.8355H156.455ZM157.915 52.2682V44.8355H159.262V51.1395H162.538V52.2682H157.915ZM163.707 44.8355H165.356L167.565 50.2213H167.651L169.86 44.8355H171.509V52.2682H170.216V47.1619H170.147L168.091 52.2465H167.125L165.07 47.151H165V52.2682H163.707V44.8355ZM173.931 52.2682H172.493L175.112 44.8355H176.775L179.397 52.2682H177.959L175.972 46.3597H175.915L173.931 52.2682ZM173.979 49.3539H177.901V50.4354H173.979V49.3539ZM181.725 44.8355V52.2682H180.377V44.8355H181.725ZM189.297 44.8355V52.2682H188.098L184.593 47.2054H184.531V52.2682H183.183V44.8355H184.39L187.891 49.9019H187.956V44.8355H189.297ZM190.764 52.2682V44.8355H195.602V45.9642H192.112V47.982H195.351V49.1108H192.112V51.1395H195.631V52.2682H190.764ZM203.089 44.8355V52.2682H201.891L198.386 47.2054H198.325V52.2682H196.977V44.8355H198.183L201.684 49.9019H201.749V44.8355H203.089Z" fill="black" fill-opacity="0.6"/>
</g>
<defs>
<clipPath id="clip0_264_233">
<rect width="244" height="73" fill="white"/>
</clipPath>
</defs>
</svg>
