<svg width="244" height="73" viewBox="0 0 244 73" fill="none" xmlns="http://www.w3.org/2000/svg">
<g clip-path="url(#clip0_381_257)">
<path d="M220.623 0H23.3772C10.4663 0 0 10.4586 0 23.36V49.64C0 62.5414 10.4663 73 23.3772 73H220.623C233.534 73 244 62.5414 244 49.64V23.36C244 10.4586 233.534 0 220.623 0Z" fill="#2442BE"/>
<path d="M61.3655 36.5001C61.3655 24.4051 51.5533 14.6001 39.4494 14.6001C27.3454 14.6001 17.5332 24.4051 17.5332 36.5001C17.5332 48.5951 27.3454 58.4001 39.4494 58.4001C51.5533 58.4001 61.3655 48.5951 61.3655 36.5001Z" fill="#5EAD33"/>
<mask id="mask0_381_257" style="mask-type:luminance" maskUnits="userSpaceOnUse" x="27" y="24" width="25" height="25">
<path d="M51.5023 24.8198H27.3945V48.1798H51.5023V24.8198Z" fill="white"/>
</mask>
<g mask="url(#mask0_381_257)">
<mask id="mask1_381_257" style="mask-type:luminance" maskUnits="userSpaceOnUse" x="27" y="24" width="25" height="25">
<path d="M51.5023 24.8198H27.3945V48.1798H51.5023V24.8198Z" fill="white"/>
</mask>
<g mask="url(#mask1_381_257)">
<path d="M30.3496 29.6864C30.3496 28.6113 31.2218 27.7397 32.2977 27.7397H35.4919C35.9111 27.7397 36.2833 28.0078 36.4159 28.4053L37.8749 32.7789C38.0282 33.2384 37.82 33.7406 37.3865 33.9573L35.1877 35.0558C36.2614 37.4353 38.1798 39.3524 40.5611 40.4252L41.6605 38.2281C41.8772 37.7949 42.3798 37.5869 42.8397 37.74L47.2165 39.1979C47.6143 39.3304 47.8825 39.7023 47.8825 40.1213V43.3131C47.8825 44.3882 47.0104 45.2597 45.9345 45.2597H44.9604C36.8911 45.2597 30.3496 38.7231 30.3496 30.6597V29.6864Z" stroke="white" stroke-width="2.5" stroke-linecap="round" stroke-linejoin="round"/>
</g>
</g>
<path d="M73.9473 28.7094V26.7121H81.8897V28.7094H73.9473ZM76.9103 23.541H78.9442V31.863H76.9103V23.541ZM86.7792 33.7551C85.9493 33.7551 85.1895 33.6091 84.4999 33.3171C83.8103 33.0135 83.2317 32.5813 82.7641 32.0207L84.3421 30.4614C84.5759 30.8118 84.909 31.0921 85.3415 31.3023C85.774 31.5126 86.2415 31.6177 86.7441 31.6177C87.2117 31.6177 87.6149 31.5359 87.9539 31.3724C88.2929 31.1972 88.5559 30.9578 88.7429 30.6541C88.9416 30.3387 89.0409 29.9767 89.0409 29.5679C89.0409 29.1357 88.9416 28.7678 88.7429 28.4641C88.5559 28.1604 88.2812 27.9268 87.9188 27.7633C87.5565 27.5998 87.124 27.518 86.6214 27.518C86.3993 27.518 86.1714 27.5355 85.9376 27.5706C85.7038 27.5939 85.5051 27.6348 85.3415 27.6932L86.3935 26.3617C86.6857 26.2683 86.972 26.1923 87.2526 26.1339C87.5448 26.0639 87.8136 26.0288 88.0591 26.0288C88.6903 26.0288 89.2572 26.1807 89.7598 26.4843C90.2741 26.7763 90.6773 27.1968 90.9696 27.7458C91.2735 28.2831 91.4247 28.9196 91.4247 29.6555C91.4247 30.4731 91.2326 31.1914 90.8468 31.8104C90.4611 32.4178 89.9176 32.8967 89.2163 33.2471C88.5266 33.5858 87.7143 33.7551 86.7792 33.7551ZM85.3415 27.6932V26.3267L88.4974 22.665L91.2326 22.6299L87.9714 26.3617L85.3415 27.6932ZM83.4479 23.3307V21.2634H91.2326V22.6299L89.2864 23.3307H83.4479ZM96.0709 33.7551C95.2176 33.7551 94.4403 33.6091 93.739 33.3171C93.0377 33.0135 92.4533 32.5813 91.9857 32.0207L93.5637 30.4614C93.7975 30.8118 94.1306 31.0921 94.5631 31.3023C95.0072 31.5126 95.4923 31.6177 96.0183 31.6177C96.4975 31.6177 96.9125 31.5301 97.2631 31.3549C97.6255 31.1797 97.906 30.9344 98.1047 30.6191C98.3151 30.292 98.4203 29.9124 98.4203 29.4803C98.4203 29.0247 98.3151 28.6393 98.1047 28.3239C97.906 28.0086 97.6372 27.7691 97.2982 27.6056C96.9592 27.4421 96.5794 27.3603 96.1586 27.3603C95.7144 27.3603 95.3111 27.4187 94.9488 27.5355C94.5981 27.6407 94.2592 27.8159 93.9319 28.0611L94.0722 26.5544C94.2942 26.3208 94.528 26.1339 94.7735 25.9938C95.0189 25.8419 95.2936 25.731 95.5975 25.6609C95.9131 25.5791 96.2813 25.5383 96.7021 25.5383C97.6021 25.5383 98.3502 25.7251 98.9463 26.0989C99.5541 26.461 100.016 26.9515 100.331 27.5706C100.647 28.1779 100.805 28.8495 100.805 29.5854C100.805 30.3913 100.606 31.1096 100.209 31.7403C99.8113 32.3711 99.2561 32.8675 98.5431 33.2295C97.8417 33.5799 97.0177 33.7551 96.0709 33.7551ZM93.9319 28.0611L92.7922 26.9399L93.3533 21.2634H95.5099L94.8787 27.0275L93.9319 28.0611ZM93.7215 23.3307L93.3533 21.2634H100.121V23.3307H93.7215ZM105.887 33.7551C105.011 33.7551 104.251 33.6033 103.608 33.2996C102.977 32.9959 102.48 32.5696 102.118 32.0207C101.767 31.4717 101.592 30.8527 101.592 30.1635C101.592 29.5912 101.703 29.0715 101.925 28.6043C102.147 28.1371 102.462 27.7458 102.871 27.4304C103.292 27.1034 103.783 26.8756 104.344 26.7471L104.292 27.3253C103.824 27.2085 103.427 27.0041 103.099 26.7121C102.772 26.4201 102.527 26.0755 102.363 25.6784C102.199 25.2696 102.118 24.8491 102.118 24.417C102.118 23.7512 102.275 23.1672 102.591 22.665C102.918 22.1627 103.362 21.7715 103.923 21.4911C104.496 21.2108 105.151 21.0707 105.887 21.0707C106.624 21.0707 107.272 21.2108 107.833 21.4911C108.394 21.7715 108.833 22.1627 109.148 22.665C109.476 23.1672 109.639 23.7512 109.639 24.417C109.639 24.8491 109.557 25.2696 109.394 25.6784C109.23 26.0755 108.985 26.4201 108.657 26.7121C108.342 27.0041 107.944 27.2085 107.465 27.3253L107.413 26.7471C107.985 26.8756 108.476 27.1034 108.885 27.4304C109.294 27.7458 109.61 28.1371 109.832 28.6043C110.054 29.0715 110.165 29.5912 110.165 30.1635C110.165 30.8527 109.99 31.4717 109.639 32.0207C109.289 32.5696 108.792 32.9959 108.149 33.2996C107.506 33.6033 106.752 33.7551 105.887 33.7551ZM105.887 31.6703C106.273 31.6703 106.618 31.5943 106.922 31.4425C107.226 31.279 107.459 31.0571 107.623 30.7767C107.798 30.4964 107.886 30.1811 107.886 29.8307C107.886 29.4686 107.798 29.1532 107.623 28.8846C107.459 28.6043 107.226 28.3882 106.922 28.2363C106.618 28.0728 106.273 27.9911 105.887 27.9911C105.49 27.9911 105.139 28.0728 104.835 28.2363C104.543 28.3882 104.309 28.6043 104.134 28.8846C103.959 29.1532 103.871 29.4686 103.871 29.8307C103.871 30.1811 103.959 30.4964 104.134 30.7767C104.309 31.0571 104.543 31.279 104.835 31.4425C105.139 31.5943 105.49 31.6703 105.887 31.6703ZM105.887 26.1865C106.343 26.1865 106.717 26.0405 107.009 25.7485C107.301 25.4565 107.448 25.0827 107.448 24.6272C107.448 24.16 107.301 23.7804 107.009 23.4884C106.717 23.1964 106.343 23.0504 105.887 23.0504C105.431 23.0504 105.051 23.1964 104.748 23.4884C104.455 23.7804 104.309 24.1542 104.309 24.6097C104.309 25.0769 104.455 25.4565 104.748 25.7485C105.051 26.0405 105.431 26.1865 105.887 26.1865ZM117.132 35.7349C116.5 35.1743 115.951 34.491 115.484 33.6851C115.028 32.8908 114.677 32.0207 114.432 31.0746C114.186 30.1168 114.063 29.124 114.063 28.0962C114.063 27.0567 114.186 26.0639 114.432 25.1178C114.677 24.16 115.028 23.284 115.484 22.4898C115.951 21.6839 116.5 21.0006 117.132 20.4399L118.429 21.6313C117.669 22.3555 117.079 23.2665 116.658 24.3644C116.249 25.4623 116.045 26.7063 116.045 28.0962C116.045 29.4744 116.249 30.7125 116.658 31.8104C117.079 32.9083 117.669 33.8194 118.429 34.5435L117.132 35.7349ZM124.213 33.7551C123.243 33.7551 122.367 33.4923 121.584 32.9667C120.8 32.4411 120.175 31.6995 119.708 30.7417C119.252 29.7839 119.024 28.6685 119.024 27.3954C119.024 26.1223 119.252 25.0127 119.708 24.0666C120.163 23.1205 120.777 22.3847 121.548 21.8591C122.332 21.3335 123.202 21.0707 124.161 21.0707C125.143 21.0707 126.019 21.3335 126.791 21.8591C127.574 22.3847 128.193 23.1263 128.649 24.0841C129.105 25.0302 129.333 26.1456 129.333 27.4304C129.333 28.7035 129.105 29.819 128.649 30.7767C128.193 31.7228 127.58 32.4587 126.808 32.9843C126.037 33.4982 125.172 33.7551 124.213 33.7551ZM124.178 31.6002C124.739 31.6002 125.225 31.4425 125.634 31.1271C126.043 30.8118 126.358 30.3446 126.58 29.7255C126.814 29.1065 126.931 28.3356 126.931 27.4129C126.931 26.4902 126.814 25.7193 126.58 25.1003C126.358 24.4812 126.037 24.0199 125.616 23.7162C125.207 23.4008 124.722 23.2431 124.161 23.2431C123.611 23.2431 123.132 23.4008 122.723 23.7162C122.314 24.0199 121.993 24.4812 121.759 25.1003C121.537 25.7076 121.426 26.4727 121.426 27.3954C121.426 28.3298 121.537 29.1065 121.759 29.7255C121.993 30.3446 122.314 30.8118 122.723 31.1271C123.132 31.4425 123.617 31.6002 124.178 31.6002ZM130.04 29.235L134.247 21.2634H136.877L132.564 29.235H130.04ZM130.04 30.6366V29.235L130.916 28.5517H139.753V30.6366H130.04ZM135.86 33.5799V25.731H138.21V33.5799H135.86ZM143.995 33.7551C143.142 33.7551 142.364 33.6091 141.663 33.3171C140.962 33.0135 140.377 32.5813 139.91 32.0207L141.488 30.4614C141.722 30.8118 142.055 31.0921 142.487 31.3023C142.931 31.5126 143.416 31.6177 143.942 31.6177C144.422 31.6177 144.837 31.5301 145.187 31.3549C145.55 31.1797 145.83 30.9344 146.029 30.6191C146.239 30.292 146.344 29.9124 146.344 29.4803C146.344 29.0247 146.239 28.6393 146.029 28.3239C145.83 28.0086 145.561 27.7691 145.222 27.6056C144.883 27.4421 144.503 27.3603 144.083 27.3603C143.638 27.3603 143.235 27.4187 142.873 27.5355C142.522 27.6407 142.183 27.8159 141.856 28.0611L141.996 26.5544C142.218 26.3208 142.452 26.1339 142.698 25.9938C142.943 25.8419 143.218 25.731 143.522 25.6609C143.837 25.5791 144.205 25.5383 144.626 25.5383C145.526 25.5383 146.274 25.7251 146.87 26.0989C147.478 26.461 147.94 26.9515 148.255 27.5706C148.571 28.1779 148.729 28.8495 148.729 29.5854C148.729 30.3913 148.53 31.1096 148.133 31.7403C147.735 32.3711 147.18 32.8675 146.467 33.2295C145.766 33.5799 144.942 33.7551 143.995 33.7551ZM141.856 28.0611L140.716 26.9399L141.277 21.2634H143.434L142.803 27.0275L141.856 28.0611ZM141.646 23.3307L141.277 21.2634H148.045V23.3307H141.646ZM150.568 35.7349L149.288 34.5435C150.048 33.8194 150.633 32.9083 151.042 31.8104C151.451 30.7125 151.655 29.4744 151.655 28.0962C151.655 26.7063 151.451 25.4623 151.042 24.3644C150.633 23.2665 150.048 22.3555 149.288 21.6313L150.568 20.4399C151.211 21.0006 151.761 21.6839 152.216 22.4898C152.672 23.284 153.023 24.16 153.268 25.1178C153.526 26.0639 153.654 27.0567 153.654 28.0962C153.654 29.124 153.526 30.1168 153.268 31.0746C153.023 32.0207 152.672 32.8908 152.216 33.6851C151.761 34.491 151.211 35.1743 150.568 35.7349ZM161.831 33.7551C160.954 33.7551 160.195 33.6033 159.552 33.2996C158.921 32.9959 158.424 32.5696 158.062 32.0207C157.711 31.4717 157.536 30.8527 157.536 30.1635C157.536 29.5912 157.647 29.0715 157.869 28.6043C158.091 28.1371 158.406 27.7458 158.815 27.4304C159.236 27.1034 159.727 26.8756 160.288 26.7471L160.236 27.3253C159.768 27.2085 159.371 27.0041 159.043 26.7121C158.716 26.4201 158.471 26.0755 158.307 25.6784C158.143 25.2696 158.062 24.8491 158.062 24.417C158.062 23.7512 158.219 23.1672 158.535 22.665C158.862 22.1627 159.306 21.7715 159.867 21.4911C160.44 21.2108 161.095 21.0707 161.831 21.0707C162.567 21.0707 163.216 21.2108 163.777 21.4911C164.338 21.7715 164.777 22.1627 165.092 22.665C165.42 23.1672 165.583 23.7512 165.583 24.417C165.583 24.8491 165.501 25.2696 165.338 25.6784C165.174 26.0755 164.929 26.4201 164.601 26.7121C164.286 27.0041 163.888 27.2085 163.409 27.3253L163.356 26.7471C163.929 26.8756 164.42 27.1034 164.829 27.4304C165.238 27.7458 165.554 28.1371 165.776 28.6043C165.998 29.0715 166.109 29.5912 166.109 30.1635C166.109 30.8527 165.934 31.4717 165.583 32.0207C165.232 32.5696 164.736 32.9959 164.093 33.2996C163.45 33.6033 162.696 33.7551 161.831 33.7551ZM161.831 31.6703C162.217 31.6703 162.562 31.5943 162.866 31.4425C163.169 31.279 163.403 31.0571 163.567 30.7767C163.742 30.4964 163.83 30.1811 163.83 29.8307C163.83 29.4686 163.742 29.1532 163.567 28.8846C163.403 28.6043 163.169 28.3882 162.866 28.2363C162.562 28.0728 162.217 27.9911 161.831 27.9911C161.434 27.9911 161.083 28.0728 160.779 28.2363C160.487 28.3882 160.253 28.6043 160.078 28.8846C159.902 29.1532 159.815 29.4686 159.815 29.8307C159.815 30.1811 159.902 30.4964 160.078 30.7767C160.253 31.0571 160.487 31.279 160.779 31.4425C161.083 31.5943 161.434 31.6703 161.831 31.6703ZM161.831 26.1865C162.287 26.1865 162.661 26.0405 162.953 25.7485C163.245 25.4565 163.392 25.0827 163.392 24.6272C163.392 24.16 163.245 23.7804 162.953 23.4884C162.661 23.1964 162.287 23.0504 161.831 23.0504C161.375 23.0504 160.995 23.1964 160.691 23.4884C160.399 23.7804 160.253 24.1542 160.253 24.6097C160.253 25.0769 160.399 25.4565 160.691 25.7485C160.995 26.0405 161.375 26.1865 161.831 26.1865ZM171.296 33.7551C170.454 33.7551 169.695 33.5683 169.017 33.1945C168.35 32.8091 167.819 32.2951 167.421 31.6527C167.035 30.9987 166.843 30.2745 166.843 29.4803C166.843 28.394 167.217 27.3019 167.965 26.204L171.384 21.2634H174.119L170.384 26.4843L169.508 26.7296C169.636 26.461 169.788 26.2274 169.963 26.0288C170.15 25.8303 170.39 25.6784 170.682 25.5733C170.975 25.4682 171.343 25.4156 171.787 25.4156C172.523 25.4156 173.19 25.5908 173.786 25.9412C174.382 26.2799 174.861 26.753 175.223 27.3603C175.586 27.956 175.767 28.6451 175.767 29.4277C175.767 30.2336 175.568 30.9636 175.171 31.6177C174.773 32.2718 174.236 32.7915 173.558 33.177C172.88 33.5624 172.126 33.7551 171.296 33.7551ZM171.296 31.6177C171.705 31.6177 172.067 31.5243 172.383 31.3374C172.699 31.1388 172.95 30.876 173.137 30.549C173.324 30.2103 173.417 29.8307 173.417 29.4102C173.417 28.9897 173.324 28.6159 173.137 28.2889C172.95 27.9502 172.699 27.6874 172.383 27.5005C172.067 27.3136 171.705 27.2202 171.296 27.2202C170.887 27.2202 170.519 27.3195 170.191 27.518C169.876 27.7049 169.624 27.9619 169.437 28.2889C169.262 28.6159 169.174 28.9897 169.174 29.4102C169.174 29.8307 169.262 30.2103 169.437 30.549C169.624 30.876 169.876 31.1388 170.191 31.3374C170.519 31.5243 170.887 31.6177 171.296 31.6177ZM178.414 33.5799V21.2634H180.763V33.5799H178.414ZM175.994 23.3307V21.2634H180.588V23.3307H175.994ZM182.681 30.146V28.0611H188.747V30.146H182.681ZM193.78 33.7551C192.927 33.7551 192.15 33.6091 191.449 33.3171C190.747 33.0135 190.163 32.5813 189.695 32.0207L191.273 30.4614C191.507 30.8118 191.84 31.0921 192.273 31.3023C192.717 31.5126 193.202 31.6177 193.728 31.6177C194.207 31.6177 194.622 31.5301 194.973 31.3549C195.335 31.1797 195.616 30.9344 195.814 30.6191C196.025 30.292 196.13 29.9124 196.13 29.4803C196.13 29.0247 196.025 28.6393 195.814 28.3239C195.616 28.0086 195.347 27.7691 195.008 27.6056C194.669 27.4421 194.289 27.3603 193.868 27.3603C193.424 27.3603 193.021 27.4187 192.658 27.5355C192.308 27.6407 191.969 27.8159 191.641 28.0611L191.782 26.5544C192.004 26.3208 192.238 26.1339 192.483 25.9938C192.729 25.8419 193.003 25.731 193.307 25.6609C193.623 25.5791 193.991 25.5383 194.412 25.5383C195.312 25.5383 196.06 25.7251 196.656 26.0989C197.264 26.461 197.725 26.9515 198.041 27.5706C198.357 28.1779 198.514 28.8495 198.514 29.5854C198.514 30.3913 198.316 31.1096 197.918 31.7403C197.521 32.3711 196.966 32.8675 196.253 33.2295C195.551 33.5799 194.727 33.7551 193.78 33.7551ZM191.641 28.0611L190.502 26.9399L191.063 21.2634H193.219L192.588 27.0275L191.641 28.0611ZM191.431 23.3307L191.063 21.2634H197.831V23.3307H191.431ZM200.365 33.5799L204.695 22.6475H207.045L202.837 33.5799H200.365ZM198.664 23.3307V21.2634H207.045V22.6475L206.151 23.3307H198.664ZM207.353 30.146V28.0611H213.42V30.146H207.353ZM216.054 33.5799V21.2634H218.403V33.5799H216.054ZM213.634 23.3307V21.2634H218.228V23.3307H213.634ZM222.126 33.5799V21.2634H224.476V33.5799H222.126ZM219.707 23.3307V21.2634H224.3V23.3307H219.707Z" fill="white"/>
<path d="M111.847 48.5519C111.847 49.3527 111.697 50.0387 111.397 50.6097C111.099 51.1783 110.692 51.6138 110.176 51.9162C109.663 52.2186 109.081 52.3698 108.429 52.3698C107.778 52.3698 107.195 52.2186 106.679 51.9162C106.165 51.6113 105.758 51.1746 105.458 50.606C105.161 50.035 105.012 49.3503 105.012 48.5519C105.012 47.751 105.161 47.0663 105.458 46.4977C105.758 45.9267 106.165 45.4899 106.679 45.1875C107.195 44.8851 107.778 44.7339 108.429 44.7339C109.081 44.7339 109.663 44.8851 110.176 45.1875C110.692 45.4899 111.099 45.9267 111.397 46.4977C111.697 47.0663 111.847 47.751 111.847 48.5519ZM110.492 48.5519C110.492 47.9881 110.404 47.5127 110.227 47.1256C110.052 46.736 109.811 46.442 109.501 46.2437C109.19 46.0429 108.834 45.9424 108.429 45.9424C108.025 45.9424 107.668 46.0429 107.357 46.2437C107.048 46.442 106.804 46.736 106.628 47.1256C106.453 47.5127 106.366 47.9881 106.366 48.5519C106.366 49.1156 106.453 49.5923 106.628 49.9818C106.804 50.3689 107.048 50.6629 107.357 50.8637C107.668 51.0621 108.025 51.1613 108.429 51.1613C108.834 51.1613 109.19 51.0621 109.501 50.8637C109.811 50.6629 110.052 50.3689 110.227 49.9818C110.404 49.5923 110.492 49.1156 110.492 48.5519ZM113.121 52.2682V44.8355H115.91C116.481 44.8355 116.961 44.9347 117.348 45.1331C117.738 45.3315 118.032 45.6097 118.231 45.9678C118.432 46.3235 118.533 46.7385 118.533 47.2127C118.533 47.6893 118.431 48.1031 118.227 48.4539C118.026 48.8023 117.73 49.0721 117.337 49.2632C116.945 49.4519 116.464 49.5463 115.892 49.5463H113.905V48.4285H115.71C116.044 48.4285 116.318 48.3825 116.531 48.2905C116.744 48.1962 116.901 48.0595 117.004 47.8804C117.107 47.699 117.159 47.4764 117.159 47.2127C117.159 46.9489 117.107 46.7239 117.004 46.5376C116.899 46.3489 116.741 46.2062 116.527 46.1094C116.315 46.0101 116.04 45.9606 115.703 45.9606H114.469V52.2682H113.121ZM116.963 48.9003L118.805 52.2682H117.301L115.493 48.9003H116.963ZM122.293 52.2682H119.773V44.8355H122.344C123.082 44.8355 123.717 44.9843 124.248 45.2819C124.78 45.577 125.189 46.0017 125.475 46.5557C125.76 47.1098 125.904 47.7728 125.904 48.5446C125.904 49.3189 125.759 49.9842 125.471 50.5407C125.186 51.0971 124.773 51.5242 124.233 51.8218C123.695 52.1194 123.049 52.2682 122.293 52.2682ZM121.12 51.1032H122.228C122.746 51.1032 123.178 51.0089 123.524 50.8201C123.871 50.629 124.131 50.3447 124.305 49.9673C124.48 49.5874 124.567 49.1132 124.567 48.5446C124.567 47.976 124.48 47.5042 124.305 47.1292C124.131 46.7518 123.873 46.4699 123.532 46.2835C123.193 46.0948 122.771 46.0005 122.268 46.0005H121.12V51.1032ZM127.184 52.2682V44.8355H132.021V45.9642H128.531V47.982H131.771V49.1108H128.531V51.1395H132.05V52.2682H127.184ZM133.396 52.2682V44.8355H136.185C136.757 44.8355 137.237 44.9347 137.624 45.1331C138.014 45.3315 138.307 45.6097 138.506 45.9678C138.707 46.3235 138.808 46.7385 138.808 47.2127C138.808 47.6893 138.706 48.1031 138.503 48.4539C138.302 48.8023 138.005 49.0721 137.613 49.2632C137.22 49.4519 136.738 49.5463 136.167 49.5463H134.181V48.4285H135.986C136.32 48.4285 136.594 48.3825 136.806 48.2905C137.02 48.1962 137.177 48.0595 137.279 47.8804C137.383 47.699 137.435 47.4764 137.435 47.2127C137.435 46.9489 137.383 46.7239 137.279 46.5376C137.174 46.3489 137.016 46.2062 136.803 46.1094C136.59 46.0101 136.315 45.9606 135.979 45.9606H134.743V52.2682H133.396ZM137.239 48.9003L139.08 52.2682H137.576L135.767 48.9003H137.239ZM148.951 47.3433H147.593C147.555 47.1207 147.483 46.9235 147.379 46.7518C147.275 46.5775 147.146 46.43 146.991 46.3089C146.836 46.188 146.659 46.0972 146.46 46.0368C146.264 45.9739 146.052 45.9424 145.825 45.9424C145.42 45.9424 145.062 46.044 144.749 46.2473C144.437 46.4481 144.193 46.7433 144.016 47.1328C143.839 47.5199 143.751 47.993 143.751 48.5519C143.751 49.1205 143.839 49.5995 144.016 49.989C144.195 50.3761 144.44 50.6689 144.749 50.8673C145.062 51.0633 145.419 51.1613 145.821 51.1613C146.044 51.1613 146.252 51.1323 146.446 51.0742C146.641 51.0137 146.818 50.9254 146.972 50.8092C147.129 50.6931 147.262 50.5504 147.368 50.381C147.477 50.2117 147.552 50.0181 147.593 49.8003L148.951 49.8076C148.901 50.1609 148.791 50.4923 148.621 50.802C148.454 51.1117 148.235 51.3851 147.964 51.6222C147.693 51.8569 147.376 52.0408 147.012 52.1738C146.649 52.3045 146.246 52.3698 145.803 52.3698C145.149 52.3698 144.565 52.2186 144.052 51.9162C143.539 51.6138 143.134 51.177 142.839 50.606C142.544 50.035 142.396 49.3503 142.396 48.5519C142.396 47.751 142.545 47.0663 142.843 46.4977C143.141 45.9267 143.546 45.4899 144.06 45.1875C144.573 44.8851 145.154 44.7339 145.803 44.7339C146.217 44.7339 146.602 44.7919 146.958 44.9081C147.314 45.0242 147.631 45.1948 147.909 45.4198C148.188 45.6424 148.417 45.9158 148.596 46.24C148.778 46.5618 148.896 46.9296 148.951 47.3433ZM150.185 52.2682V44.8355H151.533V51.1395H154.809V52.2682H150.185ZM155.978 52.2682V44.8355H160.816V45.9642H157.326V47.982H160.566V49.1108H157.326V51.1395H160.845V52.2682H155.978ZM163.147 52.2682H161.708L164.326 44.8355H165.99L168.612 52.2682H167.174L165.188 46.3597H165.129L163.147 52.2682ZM163.193 49.3539H167.116V50.4354H163.193V49.3539ZM175.705 44.8355V52.2682H174.506L171.001 47.2054H170.939V52.2682H169.592V44.8355H170.797L174.299 49.9019H174.365V44.8355H175.705ZM178.52 44.8355V52.2682H177.173V44.8355H178.52ZM186.092 44.8355V52.2682H184.893L181.389 47.2054H181.327V52.2682H179.98V44.8355H181.185L184.686 49.9019H184.752V44.8355H186.092ZM192.543 47.209C192.483 47.013 192.399 46.8376 192.293 46.6828C192.188 46.5255 192.063 46.3912 191.914 46.28C191.77 46.1686 191.602 46.0852 191.413 46.0295C191.225 45.9715 191.019 45.9424 190.796 45.9424C190.396 45.9424 190.041 46.0429 189.729 46.2437C189.416 46.4445 189.171 46.7396 188.991 47.1292C188.814 47.5163 188.726 47.9881 188.726 48.5446C188.726 49.1059 188.814 49.5814 188.991 49.9709C189.168 50.3604 189.414 50.6568 189.729 50.86C190.043 51.0609 190.409 51.1613 190.825 51.1613C191.203 51.1613 191.529 51.0887 191.806 50.9436C192.084 50.7984 192.299 50.5927 192.448 50.3266C192.599 50.058 192.674 49.7434 192.674 49.383L192.979 49.4301H190.96V48.3777H193.977V49.2705C193.977 49.9067 193.842 50.4572 193.571 50.9217C193.3 51.3863 192.927 51.7444 192.452 51.996C191.978 52.2452 191.433 52.3698 190.818 52.3698C190.133 52.3698 189.531 52.2162 189.013 51.9089C188.497 51.5992 188.094 51.1601 187.804 50.5915C187.515 50.0205 187.371 49.343 187.371 48.5591C187.371 47.9591 187.456 47.4231 187.625 46.9513C187.797 46.4795 188.037 46.0791 188.344 45.75C188.652 45.4186 189.013 45.167 189.427 44.9952C189.841 44.821 190.291 44.7339 190.778 44.7339C191.19 44.7339 191.573 44.7943 191.929 44.9154C192.286 45.0339 192.601 45.2033 192.877 45.4234C193.156 45.6436 193.384 45.9049 193.564 46.2073C193.743 46.5098 193.861 46.8437 193.916 47.209H192.543Z" fill="white" fill-opacity="0.6"/>
</g>
<defs>
<clipPath id="clip0_381_257">
<rect width="244" height="73" fill="white"/>
</clipPath>
</defs>
</svg>
