<svg width="334" height="100" viewBox="0 0 334 100" fill="none" xmlns="http://www.w3.org/2000/svg">
<rect width="334" height="100" rx="32" fill="white"/>
<rect x="24" y="20" width="60" height="60" rx="30" fill="#2442BE"/>
<g clip-path="url(#clip0_264_197)">
<g clip-path="url(#clip1_264_197)">
<path d="M41.5449 40.6667C41.5449 39.1939 42.7388 38 44.2116 38H48.5839C49.1578 38 49.6673 38.3672 49.8488 38.9117L51.8459 44.9029C52.0557 45.5324 51.7708 46.2204 51.1773 46.5172L48.1676 48.022C49.6373 51.2816 52.2633 53.9077 55.5229 55.3773L57.0278 52.3676C57.3245 51.7742 58.0125 51.4892 58.642 51.699L64.6332 53.6961C65.1777 53.8776 65.5449 54.3871 65.5449 54.961V59.3333C65.5449 60.8061 64.351 62 62.8783 62H61.5449C50.4992 62 41.5449 53.0457 41.5449 42V40.6667Z" stroke="white" stroke-width="2.5" stroke-linecap="round" stroke-linejoin="round"/>
</g>
</g>
<path d="M101.224 39.328V36.592H112.096V39.328H101.224ZM105.28 32.248H108.064V43.648H105.28V32.248ZM118.789 46.24C117.653 46.24 116.613 46.04 115.669 45.64C114.725 45.224 113.933 44.632 113.293 43.864L115.453 41.728C115.773 42.208 116.229 42.592 116.821 42.88C117.413 43.168 118.053 43.312 118.741 43.312C119.381 43.312 119.933 43.2 120.397 42.976C120.861 42.736 121.221 42.408 121.477 41.992C121.749 41.56 121.885 41.064 121.885 40.504C121.885 39.912 121.749 39.408 121.477 38.992C121.221 38.576 120.845 38.256 120.349 38.032C119.853 37.808 119.261 37.696 118.573 37.696C118.269 37.696 117.957 37.72 117.637 37.768C117.317 37.8 117.045 37.856 116.821 37.936L118.261 36.112C118.661 35.984 119.053 35.88 119.437 35.8C119.837 35.704 120.205 35.656 120.541 35.656C121.405 35.656 122.181 35.864 122.869 36.28C123.573 36.68 124.125 37.256 124.525 38.008C124.941 38.744 125.148 39.616 125.148 40.624C125.148 41.744 124.885 42.728 124.357 43.576C123.829 44.408 123.085 45.064 122.125 45.544C121.181 46.008 120.069 46.24 118.789 46.24ZM116.821 37.936V36.064L121.141 31.048L124.885 31L120.421 36.112L116.821 37.936ZM114.229 31.96V29.128H124.885V31L122.221 31.96H114.229ZM131.508 46.24C130.34 46.24 129.276 46.04 128.316 45.64C127.356 45.224 126.556 44.632 125.916 43.864L128.076 41.728C128.396 42.208 128.852 42.592 129.444 42.88C130.052 43.168 130.716 43.312 131.436 43.312C132.092 43.312 132.66 43.192 133.14 42.952C133.636 42.712 134.02 42.376 134.292 41.944C134.58 41.496 134.724 40.976 134.724 40.384C134.724 39.76 134.58 39.232 134.292 38.8C134.02 38.368 133.652 38.04 133.188 37.816C132.724 37.592 132.204 37.48 131.628 37.48C131.02 37.48 130.468 37.56 129.972 37.72C129.492 37.864 129.028 38.104 128.58 38.44L128.772 36.376C129.076 36.056 129.396 35.8 129.732 35.608C130.068 35.4 130.444 35.248 130.86 35.152C131.292 35.04 131.796 34.984 132.372 34.984C133.604 34.984 134.628 35.24 135.444 35.752C136.276 36.248 136.908 36.92 137.34 37.768C137.772 38.6 137.988 39.52 137.988 40.528C137.988 41.632 137.716 42.616 137.172 43.48C136.628 44.344 135.868 45.024 134.892 45.52C133.932 46 132.804 46.24 131.508 46.24ZM128.58 38.44L127.02 36.904L127.788 29.128H130.74L129.876 37.024L128.58 38.44ZM128.292 31.96L127.788 29.128H137.052V31.96H128.292ZM144.945 46.24C143.745 46.24 142.705 46.032 141.825 45.616C140.961 45.2 140.281 44.616 139.785 43.864C139.305 43.112 139.065 42.264 139.065 41.32C139.065 40.536 139.217 39.824 139.521 39.184C139.825 38.544 140.257 38.008 140.817 37.576C141.393 37.128 142.065 36.816 142.833 36.64L142.761 37.432C142.121 37.272 141.577 36.992 141.129 36.592C140.681 36.192 140.345 35.72 140.121 35.176C139.897 34.616 139.785 34.04 139.785 33.448C139.785 32.536 140.001 31.736 140.433 31.048C140.881 30.36 141.489 29.824 142.257 29.44C143.041 29.056 143.937 28.864 144.945 28.864C145.953 28.864 146.841 29.056 147.609 29.44C148.377 29.824 148.977 30.36 149.409 31.048C149.857 31.736 150.081 32.536 150.081 33.448C150.081 34.04 149.969 34.616 149.745 35.176C149.521 35.72 149.185 36.192 148.737 36.592C148.305 36.992 147.761 37.272 147.105 37.432L147.033 36.64C147.817 36.816 148.489 37.128 149.049 37.576C149.609 38.008 150.041 38.544 150.345 39.184C150.649 39.824 150.801 40.536 150.801 41.32C150.801 42.264 150.561 43.112 150.081 43.864C149.601 44.616 148.921 45.2 148.041 45.616C147.161 46.032 146.129 46.24 144.945 46.24ZM144.945 43.384C145.473 43.384 145.945 43.28 146.361 43.072C146.777 42.848 147.097 42.544 147.321 42.16C147.561 41.776 147.681 41.344 147.681 40.864C147.681 40.368 147.561 39.936 147.321 39.568C147.097 39.184 146.777 38.888 146.361 38.68C145.945 38.456 145.473 38.344 144.945 38.344C144.401 38.344 143.921 38.456 143.505 38.68C143.105 38.888 142.785 39.184 142.545 39.568C142.305 39.936 142.185 40.368 142.185 40.864C142.185 41.344 142.305 41.776 142.545 42.16C142.785 42.544 143.105 42.848 143.505 43.072C143.921 43.28 144.401 43.384 144.945 43.384ZM144.945 35.872C145.569 35.872 146.081 35.672 146.481 35.272C146.881 34.872 147.081 34.36 147.081 33.736C147.081 33.096 146.881 32.576 146.481 32.176C146.081 31.776 145.569 31.576 144.945 31.576C144.321 31.576 143.801 31.776 143.385 32.176C142.985 32.576 142.785 33.088 142.785 33.712C142.785 34.352 142.985 34.872 143.385 35.272C143.801 35.672 144.321 35.872 144.945 35.872ZM160.337 48.952C159.473 48.184 158.721 47.248 158.081 46.144C157.457 45.056 156.977 43.864 156.641 42.568C156.305 41.256 156.137 39.896 156.137 38.488C156.137 37.064 156.305 35.704 156.641 34.408C156.977 33.096 157.457 31.896 158.081 30.808C158.721 29.704 159.473 28.768 160.337 28L162.113 29.632C161.073 30.624 160.265 31.872 159.689 33.376C159.129 34.88 158.849 36.584 158.849 38.488C158.849 40.376 159.129 42.072 159.689 43.576C160.265 45.08 161.073 46.328 162.113 47.32L160.337 48.952ZM170.031 46.24C168.703 46.24 167.503 45.88 166.431 45.16C165.359 44.44 164.503 43.424 163.863 42.112C163.239 40.8 162.927 39.272 162.927 37.528C162.927 35.784 163.239 34.264 163.863 32.968C164.487 31.672 165.327 30.664 166.383 29.944C167.455 29.224 168.647 28.864 169.959 28.864C171.303 28.864 172.503 29.224 173.559 29.944C174.631 30.664 175.479 31.68 176.103 32.992C176.727 34.288 177.039 35.816 177.039 37.576C177.039 39.32 176.727 40.848 176.103 42.16C175.479 43.456 174.639 44.464 173.583 45.184C172.527 45.888 171.343 46.24 170.031 46.24ZM169.983 43.288C170.751 43.288 171.415 43.072 171.975 42.64C172.535 42.208 172.967 41.568 173.271 40.72C173.591 39.872 173.751 38.816 173.751 37.552C173.751 36.288 173.591 35.232 173.271 34.384C172.967 33.536 172.527 32.904 171.951 32.488C171.391 32.056 170.727 31.84 169.959 31.84C169.207 31.84 168.551 32.056 167.991 32.488C167.431 32.904 166.991 33.536 166.671 34.384C166.367 35.216 166.215 36.264 166.215 37.528C166.215 38.808 166.367 39.872 166.671 40.72C166.991 41.568 167.431 42.208 167.991 42.64C168.551 43.072 169.215 43.288 169.983 43.288ZM178.006 40.048L183.766 29.128H187.366L181.462 40.048H178.006ZM178.006 41.968V40.048L179.206 39.112H191.302V41.968H178.006ZM185.974 46V35.248H189.19V46H185.974ZM197.109 46.24C195.941 46.24 194.877 46.04 193.917 45.64C192.957 45.224 192.157 44.632 191.517 43.864L193.677 41.728C193.997 42.208 194.453 42.592 195.045 42.88C195.653 43.168 196.317 43.312 197.037 43.312C197.693 43.312 198.261 43.192 198.741 42.952C199.237 42.712 199.621 42.376 199.893 41.944C200.181 41.496 200.325 40.976 200.325 40.384C200.325 39.76 200.181 39.232 199.893 38.8C199.621 38.368 199.253 38.04 198.789 37.816C198.325 37.592 197.805 37.48 197.229 37.48C196.621 37.48 196.069 37.56 195.573 37.72C195.093 37.864 194.629 38.104 194.181 38.44L194.373 36.376C194.677 36.056 194.997 35.8 195.333 35.608C195.669 35.4 196.045 35.248 196.461 35.152C196.893 35.04 197.397 34.984 197.973 34.984C199.205 34.984 200.229 35.24 201.045 35.752C201.877 36.248 202.509 36.92 202.941 37.768C203.373 38.6 203.589 39.52 203.589 40.528C203.589 41.632 203.317 42.616 202.773 43.48C202.229 44.344 201.469 45.024 200.493 45.52C199.533 46 198.405 46.24 197.109 46.24ZM194.181 38.44L192.621 36.904L193.389 29.128H196.341L195.477 37.024L194.181 38.44ZM193.893 31.96L193.389 29.128H202.653V31.96H193.893ZM206.107 48.952L204.355 47.32C205.395 46.328 206.195 45.08 206.755 43.576C207.315 42.072 207.595 40.376 207.595 38.488C207.595 36.584 207.315 34.88 206.755 33.376C206.195 31.872 205.395 30.624 204.355 29.632L206.107 28C206.987 28.768 207.739 29.704 208.363 30.808C208.987 31.896 209.467 33.096 209.803 34.408C210.155 35.704 210.331 37.064 210.331 38.488C210.331 39.896 210.155 41.256 209.803 42.568C209.467 43.864 208.987 45.056 208.363 46.144C207.739 47.248 206.987 48.184 206.107 48.952ZM221.524 46.24C220.324 46.24 219.284 46.032 218.404 45.616C217.54 45.2 216.86 44.616 216.364 43.864C215.884 43.112 215.644 42.264 215.644 41.32C215.644 40.536 215.796 39.824 216.1 39.184C216.404 38.544 216.836 38.008 217.396 37.576C217.972 37.128 218.644 36.816 219.412 36.64L219.34 37.432C218.7 37.272 218.156 36.992 217.708 36.592C217.26 36.192 216.924 35.72 216.7 35.176C216.476 34.616 216.364 34.04 216.364 33.448C216.364 32.536 216.58 31.736 217.012 31.048C217.46 30.36 218.068 29.824 218.836 29.44C219.62 29.056 220.516 28.864 221.524 28.864C222.532 28.864 223.42 29.056 224.188 29.44C224.956 29.824 225.556 30.36 225.988 31.048C226.436 31.736 226.66 32.536 226.66 33.448C226.66 34.04 226.548 34.616 226.324 35.176C226.1 35.72 225.764 36.192 225.316 36.592C224.884 36.992 224.34 37.272 223.684 37.432L223.612 36.64C224.396 36.816 225.068 37.128 225.628 37.576C226.188 38.008 226.62 38.544 226.924 39.184C227.228 39.824 227.38 40.536 227.38 41.32C227.38 42.264 227.14 43.112 226.66 43.864C226.18 44.616 225.5 45.2 224.62 45.616C223.74 46.032 222.708 46.24 221.524 46.24ZM221.524 43.384C222.052 43.384 222.524 43.28 222.94 43.072C223.356 42.848 223.676 42.544 223.9 42.16C224.14 41.776 224.26 41.344 224.26 40.864C224.26 40.368 224.14 39.936 223.9 39.568C223.676 39.184 223.356 38.888 222.94 38.68C222.524 38.456 222.052 38.344 221.524 38.344C220.98 38.344 220.5 38.456 220.084 38.68C219.684 38.888 219.364 39.184 219.124 39.568C218.884 39.936 218.764 40.368 218.764 40.864C218.764 41.344 218.884 41.776 219.124 42.16C219.364 42.544 219.684 42.848 220.084 43.072C220.5 43.28 220.98 43.384 221.524 43.384ZM221.524 35.872C222.148 35.872 222.66 35.672 223.06 35.272C223.46 34.872 223.66 34.36 223.66 33.736C223.66 33.096 223.46 32.576 223.06 32.176C222.66 31.776 222.148 31.576 221.524 31.576C220.9 31.576 220.38 31.776 219.964 32.176C219.564 32.576 219.364 33.088 219.364 33.712C219.364 34.352 219.564 34.872 219.964 35.272C220.38 35.672 220.9 35.872 221.524 35.872ZM234.48 46.24C233.328 46.24 232.288 45.984 231.36 45.472C230.448 44.944 229.72 44.24 229.176 43.36C228.648 42.464 228.384 41.472 228.384 40.384C228.384 38.896 228.896 37.4 229.92 35.896L234.6 29.128H238.344L233.232 36.28L232.032 36.616C232.208 36.248 232.416 35.928 232.656 35.656C232.912 35.384 233.24 35.176 233.64 35.032C234.04 34.888 234.544 34.816 235.152 34.816C236.16 34.816 237.072 35.056 237.888 35.536C238.704 36 239.36 36.648 239.856 37.48C240.352 38.296 240.6 39.24 240.6 40.312C240.6 41.416 240.328 42.416 239.784 43.312C239.24 44.208 238.504 44.92 237.576 45.448C236.648 45.976 235.616 46.24 234.48 46.24ZM234.48 43.312C235.04 43.312 235.536 43.184 235.968 42.928C236.4 42.656 236.744 42.296 237 41.848C237.256 41.384 237.384 40.864 237.384 40.288C237.384 39.712 237.256 39.2 237 38.752C236.744 38.288 236.4 37.928 235.968 37.672C235.536 37.416 235.04 37.288 234.48 37.288C233.92 37.288 233.416 37.424 232.968 37.696C232.536 37.952 232.192 38.304 231.936 38.752C231.696 39.2 231.576 39.712 231.576 40.288C231.576 40.864 231.696 41.384 231.936 41.848C232.192 42.296 232.536 42.656 232.968 42.928C233.416 43.184 233.92 43.312 234.48 43.312ZM244.223 46V29.128H247.439V46H244.223ZM240.911 31.96V29.128H247.199V31.96H240.911ZM250.064 41.296V38.44H258.368V41.296H250.064ZM265.258 46.24C264.09 46.24 263.026 46.04 262.066 45.64C261.106 45.224 260.306 44.632 259.666 43.864L261.826 41.728C262.146 42.208 262.602 42.592 263.194 42.88C263.802 43.168 264.466 43.312 265.186 43.312C265.842 43.312 266.41 43.192 266.89 42.952C267.386 42.712 267.77 42.376 268.042 41.944C268.33 41.496 268.474 40.976 268.474 40.384C268.474 39.76 268.33 39.232 268.042 38.8C267.77 38.368 267.402 38.04 266.938 37.816C266.474 37.592 265.954 37.48 265.378 37.48C264.77 37.48 264.218 37.56 263.722 37.72C263.242 37.864 262.778 38.104 262.33 38.44L262.522 36.376C262.826 36.056 263.146 35.8 263.482 35.608C263.818 35.4 264.194 35.248 264.61 35.152C265.042 35.04 265.546 34.984 266.122 34.984C267.354 34.984 268.378 35.24 269.194 35.752C270.026 36.248 270.658 36.92 271.09 37.768C271.522 38.6 271.738 39.52 271.738 40.528C271.738 41.632 271.466 42.616 270.922 43.48C270.378 44.344 269.618 45.024 268.642 45.52C267.682 46 266.554 46.24 265.258 46.24ZM262.33 38.44L260.77 36.904L261.538 29.128H264.49L263.626 37.024L262.33 38.44ZM262.042 31.96L261.538 29.128H270.802V31.96H262.042ZM274.271 46L280.199 31.024H283.415L277.655 46H274.271ZM271.943 31.96V29.128H283.415V31.024L282.191 31.96H271.943ZM283.837 41.296V38.44H292.141V41.296H283.837ZM295.747 46V29.128H298.963V46H295.747ZM292.435 31.96V29.128H298.723V31.96H292.435ZM304.059 46V29.128H307.275V46H304.059ZM300.747 31.96V29.128H307.035V31.96H300.747Z" fill="black"/>
<path d="M137.038 64.2173C136.991 63.7831 136.796 63.445 136.451 63.2031C136.11 62.9611 135.665 62.8402 135.119 62.8402C134.734 62.8402 134.404 62.8982 134.129 63.0142C133.854 63.1302 133.644 63.2876 133.498 63.4865C133.352 63.6853 133.277 63.9124 133.274 64.1676C133.274 64.3797 133.322 64.5636 133.418 64.7194C133.518 64.8752 133.652 65.0078 133.821 65.1171C133.99 65.2232 134.177 65.3127 134.383 65.3856C134.588 65.4585 134.795 65.5198 135.004 65.5696L135.959 65.8082C136.343 65.8977 136.713 66.0187 137.067 66.1711C137.425 66.3236 137.745 66.5158 138.027 66.7478C138.312 66.9798 138.537 67.2599 138.703 67.588C138.869 67.9161 138.952 68.3006 138.952 68.7414C138.952 69.338 138.799 69.8634 138.494 70.3174C138.189 70.7682 137.749 71.1212 137.172 71.3764C136.598 71.6283 135.904 71.7542 135.089 71.7542C134.297 71.7542 133.609 71.6316 133.026 71.3863C132.446 71.1411 131.991 70.7831 131.663 70.3125C131.339 69.8418 131.163 69.2684 131.136 68.5923H132.951C132.978 68.9469 133.087 69.2419 133.279 69.4772C133.471 69.7126 133.722 69.8882 134.03 70.0042C134.341 70.1202 134.689 70.1782 135.074 70.1782C135.475 70.1782 135.826 70.1186 136.128 69.9992C136.433 69.8766 136.671 69.7076 136.844 69.4921C137.016 69.2734 137.104 69.0182 137.107 68.7265C137.104 68.4614 137.026 68.2426 136.874 68.0703C136.721 67.8946 136.507 67.7488 136.232 67.6328C135.96 67.5134 135.642 67.4074 135.278 67.3146L134.119 67.0163C133.281 66.8009 132.618 66.4744 132.131 66.0369C131.647 65.5961 131.405 65.0111 131.405 64.2819C131.405 63.682 131.567 63.1567 131.892 62.7059C132.22 62.2552 132.666 61.9055 133.229 61.6569C133.793 61.405 134.431 61.2791 135.143 61.2791C135.866 61.2791 136.499 61.405 137.043 61.6569C137.589 61.9055 138.019 62.2518 138.33 62.696C138.642 63.1368 138.803 63.6439 138.812 64.2173H137.038ZM149.694 66.5092C149.694 67.6063 149.489 68.5459 149.078 69.3281C148.67 70.107 148.113 70.7036 147.407 71.1179C146.704 71.5322 145.907 71.7393 145.016 71.7393C144.124 71.7393 143.325 71.5322 142.619 71.1179C141.917 70.7002 141.36 70.102 140.949 69.3231C140.541 68.5409 140.338 67.6029 140.338 66.5092C140.338 65.4121 140.541 64.4742 140.949 63.6953C141.36 62.9131 141.917 62.3148 142.619 61.9005C143.325 61.4862 144.124 61.2791 145.016 61.2791C145.907 61.2791 146.704 61.4862 147.407 61.9005C148.113 62.3148 148.67 62.9131 149.078 63.6953C149.489 64.4742 149.694 65.4121 149.694 66.5092ZM147.84 66.5092C147.84 65.7369 147.719 65.0857 147.477 64.5554C147.238 64.0217 146.907 63.619 146.482 63.3473C146.058 63.0722 145.569 62.9346 145.016 62.9346C144.462 62.9346 143.973 63.0722 143.549 63.3473C143.125 63.619 142.792 64.0217 142.55 64.5554C142.311 65.0857 142.192 65.7369 142.192 66.5092C142.192 67.2814 142.311 67.9344 142.55 68.468C142.792 68.9983 143.125 69.401 143.549 69.6761C143.973 69.9479 144.462 70.0838 145.016 70.0838C145.569 70.0838 146.058 69.9479 146.482 69.6761C146.907 69.401 147.238 68.9983 147.477 68.468C147.719 67.9344 147.84 67.2814 147.84 66.5092ZM153.282 61.4183V71.6001H151.438V61.4183H153.282ZM154.832 62.9644V61.4183H162.956V62.9644H159.809V71.6001H157.979V62.9644H154.832ZM164.074 62.9644V61.4183H172.198V62.9644H169.051V71.6001H167.221V62.9644H164.074ZM182.411 66.5092C182.411 67.6063 182.205 68.5459 181.794 69.3281C181.387 70.107 180.83 70.7036 180.124 71.1179C179.421 71.5322 178.624 71.7393 177.733 71.7393C176.841 71.7393 176.042 71.5322 175.336 71.1179C174.634 70.7002 174.077 70.102 173.666 69.3231C173.258 68.5409 173.054 67.6029 173.054 66.5092C173.054 65.4121 173.258 64.4742 173.666 63.6953C174.077 62.9131 174.634 62.3148 175.336 61.9005C176.042 61.4862 176.841 61.2791 177.733 61.2791C178.624 61.2791 179.421 61.4862 180.124 61.9005C180.83 62.3148 181.387 62.9131 181.794 63.6953C182.205 64.4742 182.411 65.4121 182.411 66.5092ZM180.556 66.5092C180.556 65.7369 180.435 65.0857 180.194 64.5554C179.955 64.0217 179.623 63.619 179.199 63.3473C178.775 63.0722 178.286 62.9346 177.733 62.9346C177.179 62.9346 176.69 63.0722 176.266 63.3473C175.842 63.619 175.509 64.0217 175.267 64.5554C175.028 65.0857 174.909 65.7369 174.909 66.5092C174.909 67.2814 175.028 67.9344 175.267 68.468C175.509 68.9983 175.842 69.401 176.266 69.6761C176.69 69.9479 177.179 70.0838 177.733 70.0838C178.286 70.0838 178.775 69.9479 179.199 69.6761C179.623 69.401 179.955 68.9983 180.194 68.468C180.435 67.9344 180.556 67.2814 180.556 66.5092ZM196.725 66.5092C196.725 67.6063 196.52 68.5459 196.109 69.3281C195.701 70.107 195.144 70.7036 194.438 71.1179C193.736 71.5322 192.939 71.7393 192.047 71.7393C191.155 71.7393 190.357 71.5322 189.651 71.1179C188.948 70.7002 188.391 70.102 187.98 69.3231C187.573 68.5409 187.369 67.6029 187.369 66.5092C187.369 65.4121 187.573 64.4742 187.98 63.6953C188.391 62.9131 188.948 62.3148 189.651 61.9005C190.357 61.4862 191.155 61.2791 192.047 61.2791C192.939 61.2791 193.736 61.4862 194.438 61.9005C195.144 62.3148 195.701 62.9131 196.109 63.6953C196.52 64.4742 196.725 65.4121 196.725 66.5092ZM194.871 66.5092C194.871 65.7369 194.75 65.0857 194.508 64.5554C194.269 64.0217 193.938 63.619 193.514 63.3473C193.089 63.0722 192.601 62.9346 192.047 62.9346C191.494 62.9346 191.005 63.0722 190.58 63.3473C190.156 63.619 189.823 64.0217 189.581 64.5554C189.343 65.0857 189.223 65.7369 189.223 66.5092C189.223 67.2814 189.343 67.9344 189.581 68.468C189.823 68.9983 190.156 69.401 190.58 69.6761C191.005 69.9479 191.494 70.0838 192.047 70.0838C192.601 70.0838 193.089 69.9479 193.514 69.6761C193.938 69.401 194.269 68.9983 194.508 68.468C194.75 67.9344 194.871 67.2814 194.871 66.5092ZM206.836 61.4183V71.6001H205.196L200.398 64.6647H200.314V71.6001H198.469V61.4183H200.12L204.912 68.3586H205.002V61.4183H206.836ZM214.163 61.4183V71.6001H212.319V61.4183H214.163ZM216.161 71.6001V61.4183H218.005V70.0539H222.489V71.6001H216.161ZM224.09 61.4183H226.347L229.37 68.7961H229.489L232.512 61.4183H234.769V71.6001H232.999V64.6051H232.905L230.091 71.5703H228.768L225.955 64.5902H225.86V71.6001H224.09V61.4183ZM238.085 71.6001H236.116L239.701 61.4183H241.978L245.567 71.6001H243.599L240.879 63.5063H240.8L238.085 71.6001ZM238.15 67.6079H243.519V69.0894H238.15V67.6079ZM248.753 61.4183V71.6001H246.909V61.4183H248.753ZM259.118 61.4183V71.6001H257.477L252.679 64.6647H252.595V71.6001H250.75V61.4183H252.401L257.194 68.3586H257.283V61.4183H259.118ZM261.127 71.6001V61.4183H267.749V62.9644H262.972V65.7286H267.406V67.2748H262.972V70.0539H267.789V71.6001H261.127ZM277.998 61.4183V71.6001H276.358L271.56 64.6647H271.476V71.6001H269.631V61.4183H271.282L276.074 68.3586H276.164V61.4183H277.998Z" fill="black" fill-opacity="0.6"/>
<defs>
<clipPath id="clip0_264_197">
<rect width="33" height="32" fill="white" transform="translate(37.5 34)"/>
</clipPath>
<clipPath id="clip1_264_197">
<rect width="33" height="32" fill="white" transform="translate(37.5 34)"/>
</clipPath>
</defs>
</svg>
