<svg width="334" height="100" viewBox="0 0 334 100" fill="none" xmlns="http://www.w3.org/2000/svg">
<rect width="334" height="100" rx="32" fill="#2442BE"/>
<rect x="24" y="20" width="60" height="60" rx="30" fill="#5EAD33"/>
<g clip-path="url(#clip0_130_387)">
<g clip-path="url(#clip1_130_387)">
<path d="M41.5449 40.6667C41.5449 39.1939 42.7388 38 44.2116 38H48.5839C49.1578 38 49.6673 38.3672 49.8488 38.9117L51.8459 44.9029C52.0557 45.5324 51.7708 46.2204 51.1773 46.5172L48.1676 48.022C49.6373 51.2816 52.2633 53.9077 55.5229 55.3773L57.0278 52.3676C57.3245 51.7742 58.0125 51.4892 58.642 51.699L64.6332 53.6961C65.1777 53.8776 65.5449 54.3871 65.5449 54.961V59.3333C65.5449 60.8061 64.351 62 62.8783 62H61.5449C50.4992 62 41.5449 53.0457 41.5449 42V40.6667Z" stroke="white" stroke-width="2.5" stroke-linecap="round" stroke-linejoin="round"/>
</g>
</g>
<path d="M101.224 40.028V37.292H112.096V40.028H101.224ZM105.28 32.948H108.064V44.348H105.28V32.948ZM118.789 46.94C117.653 46.94 116.613 46.74 115.669 46.34C114.725 45.924 113.933 45.332 113.293 44.564L115.453 42.428C115.773 42.908 116.229 43.292 116.821 43.58C117.413 43.868 118.053 44.012 118.741 44.012C119.381 44.012 119.933 43.9 120.397 43.676C120.861 43.436 121.221 43.108 121.477 42.692C121.749 42.26 121.885 41.764 121.885 41.204C121.885 40.612 121.749 40.108 121.477 39.692C121.221 39.276 120.845 38.956 120.349 38.732C119.853 38.508 119.261 38.396 118.573 38.396C118.269 38.396 117.957 38.42 117.637 38.468C117.317 38.5 117.045 38.556 116.821 38.636L118.261 36.812C118.661 36.684 119.053 36.58 119.437 36.5C119.837 36.404 120.205 36.356 120.541 36.356C121.405 36.356 122.181 36.564 122.869 36.98C123.573 37.38 124.125 37.956 124.525 38.708C124.941 39.444 125.148 40.316 125.148 41.324C125.148 42.444 124.885 43.428 124.357 44.276C123.829 45.108 123.085 45.764 122.125 46.244C121.181 46.708 120.069 46.94 118.789 46.94ZM116.821 38.636V36.764L121.141 31.748L124.885 31.7L120.421 36.812L116.821 38.636ZM114.229 32.66V29.828H124.885V31.7L122.221 32.66H114.229ZM131.508 46.94C130.34 46.94 129.276 46.74 128.316 46.34C127.356 45.924 126.556 45.332 125.916 44.564L128.076 42.428C128.396 42.908 128.852 43.292 129.444 43.58C130.052 43.868 130.716 44.012 131.436 44.012C132.092 44.012 132.66 43.892 133.14 43.652C133.636 43.412 134.02 43.076 134.292 42.644C134.58 42.196 134.724 41.676 134.724 41.084C134.724 40.46 134.58 39.932 134.292 39.5C134.02 39.068 133.652 38.74 133.188 38.516C132.724 38.292 132.204 38.18 131.628 38.18C131.02 38.18 130.468 38.26 129.972 38.42C129.492 38.564 129.028 38.804 128.58 39.14L128.772 37.076C129.076 36.756 129.396 36.5 129.732 36.308C130.068 36.1 130.444 35.948 130.86 35.852C131.292 35.74 131.796 35.684 132.372 35.684C133.604 35.684 134.628 35.94 135.444 36.452C136.276 36.948 136.908 37.62 137.34 38.468C137.772 39.3 137.988 40.22 137.988 41.228C137.988 42.332 137.716 43.316 137.172 44.18C136.628 45.044 135.868 45.724 134.892 46.22C133.932 46.7 132.804 46.94 131.508 46.94ZM128.58 39.14L127.02 37.604L127.788 29.828H130.74L129.876 37.724L128.58 39.14ZM128.292 32.66L127.788 29.828H137.052V32.66H128.292ZM144.945 46.94C143.745 46.94 142.705 46.732 141.825 46.316C140.961 45.9 140.281 45.316 139.785 44.564C139.305 43.812 139.065 42.964 139.065 42.02C139.065 41.236 139.217 40.524 139.521 39.884C139.825 39.244 140.257 38.708 140.817 38.276C141.393 37.828 142.065 37.516 142.833 37.34L142.761 38.132C142.121 37.972 141.577 37.692 141.129 37.292C140.681 36.892 140.345 36.42 140.121 35.876C139.897 35.316 139.785 34.74 139.785 34.148C139.785 33.236 140.001 32.436 140.433 31.748C140.881 31.06 141.489 30.524 142.257 30.1399C143.041 29.7559 143.937 29.564 144.945 29.564C145.953 29.564 146.841 29.7559 147.609 30.1399C148.377 30.524 148.977 31.06 149.409 31.748C149.857 32.436 150.081 33.236 150.081 34.148C150.081 34.74 149.969 35.316 149.745 35.876C149.521 36.42 149.185 36.892 148.737 37.292C148.305 37.692 147.761 37.972 147.105 38.132L147.033 37.34C147.817 37.516 148.489 37.828 149.049 38.276C149.609 38.708 150.041 39.244 150.345 39.884C150.649 40.524 150.801 41.236 150.801 42.02C150.801 42.964 150.561 43.812 150.081 44.564C149.601 45.316 148.921 45.9 148.041 46.316C147.161 46.732 146.129 46.94 144.945 46.94ZM144.945 44.084C145.473 44.084 145.945 43.98 146.361 43.772C146.777 43.548 147.097 43.244 147.321 42.86C147.561 42.476 147.681 42.044 147.681 41.564C147.681 41.068 147.561 40.636 147.321 40.268C147.097 39.884 146.777 39.588 146.361 39.38C145.945 39.156 145.473 39.044 144.945 39.044C144.401 39.044 143.921 39.156 143.505 39.38C143.105 39.588 142.785 39.884 142.545 40.268C142.305 40.636 142.185 41.068 142.185 41.564C142.185 42.044 142.305 42.476 142.545 42.86C142.785 43.244 143.105 43.548 143.505 43.772C143.921 43.98 144.401 44.084 144.945 44.084ZM144.945 36.572C145.569 36.572 146.081 36.372 146.481 35.972C146.881 35.572 147.081 35.06 147.081 34.436C147.081 33.796 146.881 33.276 146.481 32.876C146.081 32.476 145.569 32.276 144.945 32.276C144.321 32.276 143.801 32.476 143.385 32.876C142.985 33.276 142.785 33.788 142.785 34.412C142.785 35.052 142.985 35.572 143.385 35.972C143.801 36.372 144.321 36.572 144.945 36.572ZM160.337 49.652C159.473 48.884 158.721 47.948 158.081 46.844C157.457 45.756 156.977 44.564 156.641 43.268C156.305 41.956 156.137 40.596 156.137 39.188C156.137 37.764 156.305 36.404 156.641 35.108C156.977 33.796 157.457 32.596 158.081 31.508C158.721 30.404 159.473 29.468 160.337 28.6999L162.113 30.332C161.073 31.324 160.265 32.572 159.689 34.076C159.129 35.58 158.849 37.284 158.849 39.188C158.849 41.076 159.129 42.772 159.689 44.276C160.265 45.78 161.073 47.028 162.113 48.02L160.337 49.652ZM170.031 46.94C168.703 46.94 167.503 46.58 166.431 45.86C165.359 45.14 164.503 44.124 163.863 42.812C163.239 41.5 162.927 39.972 162.927 38.228C162.927 36.484 163.239 34.964 163.863 33.668C164.487 32.372 165.327 31.364 166.383 30.644C167.455 29.924 168.647 29.564 169.959 29.564C171.303 29.564 172.503 29.924 173.559 30.644C174.631 31.364 175.479 32.38 176.103 33.6919C176.727 34.988 177.039 36.516 177.039 38.276C177.039 40.02 176.727 41.548 176.103 42.86C175.479 44.156 174.639 45.164 173.583 45.884C172.527 46.588 171.343 46.94 170.031 46.94ZM169.983 43.988C170.751 43.988 171.415 43.772 171.975 43.34C172.535 42.908 172.967 42.268 173.271 41.42C173.591 40.572 173.751 39.516 173.751 38.252C173.751 36.988 173.591 35.932 173.271 35.084C172.967 34.236 172.527 33.604 171.951 33.188C171.391 32.756 170.727 32.54 169.959 32.54C169.207 32.54 168.551 32.756 167.991 33.188C167.431 33.604 166.991 34.236 166.671 35.084C166.367 35.916 166.215 36.964 166.215 38.228C166.215 39.508 166.367 40.572 166.671 41.42C166.991 42.268 167.431 42.908 167.991 43.34C168.551 43.772 169.215 43.988 169.983 43.988ZM178.006 40.748L183.766 29.828H187.366L181.462 40.748H178.006ZM178.006 42.668V40.748L179.206 39.812H191.302V42.668H178.006ZM185.974 46.7V35.948H189.19V46.7H185.974ZM197.109 46.94C195.941 46.94 194.877 46.74 193.917 46.34C192.957 45.924 192.157 45.332 191.517 44.564L193.677 42.428C193.997 42.908 194.453 43.292 195.045 43.58C195.653 43.868 196.317 44.012 197.037 44.012C197.693 44.012 198.261 43.892 198.741 43.652C199.237 43.412 199.621 43.076 199.893 42.644C200.181 42.196 200.325 41.676 200.325 41.084C200.325 40.46 200.181 39.932 199.893 39.5C199.621 39.068 199.253 38.74 198.789 38.516C198.325 38.292 197.805 38.18 197.229 38.18C196.621 38.18 196.069 38.26 195.573 38.42C195.093 38.564 194.629 38.804 194.181 39.14L194.373 37.076C194.677 36.756 194.997 36.5 195.333 36.308C195.669 36.1 196.045 35.948 196.461 35.852C196.893 35.74 197.397 35.684 197.973 35.684C199.205 35.684 200.229 35.94 201.045 36.452C201.877 36.948 202.509 37.62 202.941 38.468C203.373 39.3 203.589 40.22 203.589 41.228C203.589 42.332 203.317 43.316 202.773 44.18C202.229 45.044 201.469 45.724 200.493 46.22C199.533 46.7 198.405 46.94 197.109 46.94ZM194.181 39.14L192.621 37.604L193.389 29.828H196.341L195.477 37.724L194.181 39.14ZM193.893 32.66L193.389 29.828H202.653V32.66H193.893ZM206.107 49.652L204.355 48.02C205.395 47.028 206.195 45.78 206.755 44.276C207.315 42.772 207.595 41.076 207.595 39.188C207.595 37.284 207.315 35.58 206.755 34.076C206.195 32.572 205.395 31.324 204.355 30.332L206.107 28.6999C206.987 29.468 207.739 30.404 208.363 31.508C208.987 32.596 209.467 33.796 209.803 35.108C210.155 36.404 210.331 37.764 210.331 39.188C210.331 40.596 210.155 41.956 209.803 43.268C209.467 44.564 208.987 45.756 208.363 46.844C207.739 47.948 206.987 48.884 206.107 49.652ZM221.524 46.94C220.324 46.94 219.284 46.732 218.404 46.316C217.54 45.9 216.86 45.316 216.364 44.564C215.884 43.812 215.644 42.964 215.644 42.02C215.644 41.236 215.796 40.524 216.1 39.884C216.404 39.244 216.836 38.708 217.396 38.276C217.972 37.828 218.644 37.516 219.412 37.34L219.34 38.132C218.7 37.972 218.156 37.692 217.708 37.292C217.26 36.892 216.924 36.42 216.7 35.876C216.476 35.316 216.364 34.74 216.364 34.148C216.364 33.236 216.58 32.436 217.012 31.748C217.46 31.06 218.068 30.524 218.836 30.1399C219.62 29.7559 220.516 29.564 221.524 29.564C222.532 29.564 223.42 29.7559 224.188 30.1399C224.956 30.524 225.556 31.06 225.988 31.748C226.436 32.436 226.66 33.236 226.66 34.148C226.66 34.74 226.548 35.316 226.324 35.876C226.1 36.42 225.764 36.892 225.316 37.292C224.884 37.692 224.34 37.972 223.684 38.132L223.612 37.34C224.396 37.516 225.068 37.828 225.628 38.276C226.188 38.708 226.62 39.244 226.924 39.884C227.228 40.524 227.38 41.236 227.38 42.02C227.38 42.964 227.14 43.812 226.66 44.564C226.18 45.316 225.5 45.9 224.62 46.316C223.74 46.732 222.708 46.94 221.524 46.94ZM221.524 44.084C222.052 44.084 222.524 43.98 222.94 43.772C223.356 43.548 223.676 43.244 223.9 42.86C224.14 42.476 224.26 42.044 224.26 41.564C224.26 41.068 224.14 40.636 223.9 40.268C223.676 39.884 223.356 39.588 222.94 39.38C222.524 39.156 222.052 39.044 221.524 39.044C220.98 39.044 220.5 39.156 220.084 39.38C219.684 39.588 219.364 39.884 219.124 40.268C218.884 40.636 218.764 41.068 218.764 41.564C218.764 42.044 218.884 42.476 219.124 42.86C219.364 43.244 219.684 43.548 220.084 43.772C220.5 43.98 220.98 44.084 221.524 44.084ZM221.524 36.572C222.148 36.572 222.66 36.372 223.06 35.972C223.46 35.572 223.66 35.06 223.66 34.436C223.66 33.796 223.46 33.276 223.06 32.876C222.66 32.476 222.148 32.276 221.524 32.276C220.9 32.276 220.38 32.476 219.964 32.876C219.564 33.276 219.364 33.788 219.364 34.412C219.364 35.052 219.564 35.572 219.964 35.972C220.38 36.372 220.9 36.572 221.524 36.572ZM234.48 46.94C233.328 46.94 232.288 46.684 231.36 46.172C230.448 45.644 229.72 44.94 229.176 44.06C228.648 43.164 228.384 42.172 228.384 41.084C228.384 39.596 228.896 38.1 229.92 36.596L234.6 29.828H238.344L233.232 36.98L232.032 37.316C232.208 36.948 232.416 36.628 232.656 36.356C232.912 36.084 233.24 35.876 233.64 35.732C234.04 35.588 234.544 35.516 235.152 35.516C236.16 35.516 237.072 35.756 237.888 36.236C238.704 36.7 239.36 37.348 239.856 38.18C240.352 38.996 240.6 39.94 240.6 41.012C240.6 42.116 240.328 43.116 239.784 44.012C239.24 44.908 238.504 45.62 237.576 46.148C236.648 46.676 235.616 46.94 234.48 46.94ZM234.48 44.012C235.04 44.012 235.536 43.884 235.968 43.628C236.4 43.356 236.744 42.996 237 42.548C237.256 42.084 237.384 41.564 237.384 40.988C237.384 40.412 237.256 39.9 237 39.452C236.744 38.988 236.4 38.628 235.968 38.372C235.536 38.116 235.04 37.988 234.48 37.988C233.92 37.988 233.416 38.124 232.968 38.396C232.536 38.652 232.192 39.004 231.936 39.452C231.696 39.9 231.576 40.412 231.576 40.988C231.576 41.564 231.696 42.084 231.936 42.548C232.192 42.996 232.536 43.356 232.968 43.628C233.416 43.884 233.92 44.012 234.48 44.012ZM244.223 46.7V29.828H247.439V46.7H244.223ZM240.911 32.66V29.828H247.199V32.66H240.911ZM250.064 41.996V39.14H258.368V41.996H250.064ZM265.258 46.94C264.09 46.94 263.026 46.74 262.066 46.34C261.106 45.924 260.306 45.332 259.666 44.564L261.826 42.428C262.146 42.908 262.602 43.292 263.194 43.58C263.802 43.868 264.466 44.012 265.186 44.012C265.842 44.012 266.41 43.892 266.89 43.652C267.386 43.412 267.77 43.076 268.042 42.644C268.33 42.196 268.474 41.676 268.474 41.084C268.474 40.46 268.33 39.932 268.042 39.5C267.77 39.068 267.402 38.74 266.938 38.516C266.474 38.292 265.954 38.18 265.378 38.18C264.77 38.18 264.218 38.26 263.722 38.42C263.242 38.564 262.778 38.804 262.33 39.14L262.522 37.076C262.826 36.756 263.146 36.5 263.482 36.308C263.818 36.1 264.194 35.948 264.61 35.852C265.042 35.74 265.546 35.684 266.122 35.684C267.354 35.684 268.378 35.94 269.194 36.452C270.026 36.948 270.658 37.62 271.09 38.468C271.522 39.3 271.738 40.22 271.738 41.228C271.738 42.332 271.466 43.316 270.922 44.18C270.378 45.044 269.618 45.724 268.642 46.22C267.682 46.7 266.554 46.94 265.258 46.94ZM262.33 39.14L260.77 37.604L261.538 29.828H264.49L263.626 37.724L262.33 39.14ZM262.042 32.66L261.538 29.828H270.802V32.66H262.042ZM274.271 46.7L280.199 31.724H283.415L277.655 46.7H274.271ZM271.943 32.66V29.828H283.415V31.724L282.191 32.66H271.943ZM283.837 41.996V39.14H292.141V41.996H283.837ZM295.747 46.7V29.828H298.963V46.7H295.747ZM292.435 32.66V29.828H298.723V32.66H292.435ZM304.059 46.7V29.828H307.275V46.7H304.059ZM300.747 32.66V29.828H307.035V32.66H300.747Z" fill="white"/>
<path d="M137.038 64.9172C136.991 64.4831 136.796 64.145 136.451 63.903C136.11 63.6611 135.665 63.5401 135.119 63.5401C134.734 63.5401 134.404 63.5981 134.129 63.7141C133.854 63.8301 133.644 63.9875 133.498 64.1864C133.352 64.3853 133.277 64.6123 133.274 64.8675C133.274 65.0796 133.322 65.2636 133.418 65.4194C133.518 65.5751 133.652 65.7077 133.821 65.8171C133.99 65.9232 134.177 66.0126 134.383 66.0856C134.588 66.1585 134.795 66.2198 135.004 66.2695L135.959 66.5081C136.343 66.5976 136.713 66.7186 137.067 66.8711C137.425 67.0235 137.745 67.2158 138.027 67.4478C138.312 67.6798 138.537 67.9598 138.703 68.288C138.869 68.6161 138.952 69.0006 138.952 69.4414C138.952 70.038 138.799 70.5633 138.494 71.0174C138.189 71.4681 137.749 71.8211 137.172 72.0763C136.598 72.3282 135.904 72.4542 135.089 72.4542C134.297 72.4542 133.609 72.3315 133.026 72.0863C132.446 71.841 131.991 71.4831 131.663 71.0124C131.339 70.5418 131.163 69.9684 131.136 69.2922H132.951C132.978 69.6469 133.087 69.9419 133.279 70.1772C133.471 70.4125 133.722 70.5882 134.03 70.7042C134.341 70.8202 134.689 70.8782 135.074 70.8782C135.475 70.8782 135.826 70.8185 136.128 70.6992C136.433 70.5766 136.671 70.4075 136.844 70.1921C137.016 69.9733 137.104 69.7181 137.107 69.4265C137.104 69.1613 137.026 68.9426 136.874 68.7702C136.721 68.5946 136.507 68.4487 136.232 68.3327C135.96 68.2134 135.642 68.1073 135.278 68.0145L134.119 67.7162C133.281 67.5008 132.618 67.1743 132.131 66.7368C131.647 66.296 131.405 65.711 131.405 64.9819C131.405 64.382 131.567 63.8566 131.892 63.4059C132.22 62.9551 132.666 62.6054 133.229 62.3569C133.793 62.105 134.431 61.979 135.143 61.979C135.866 61.979 136.499 62.105 137.043 62.3569C137.589 62.6054 138.019 62.9518 138.33 63.3959C138.642 63.8367 138.803 64.3438 138.812 64.9172H137.038ZM149.694 67.2091C149.694 68.3062 149.489 69.2458 149.078 70.028C148.67 70.8069 148.113 71.4035 147.407 71.8178C146.704 72.2321 145.907 72.4393 145.016 72.4393C144.124 72.4393 143.325 72.2321 142.619 71.8178C141.917 71.4002 141.36 70.8019 140.949 70.0231C140.541 69.2409 140.338 68.3029 140.338 67.2091C140.338 66.1121 140.541 65.1741 140.949 64.3952C141.36 63.613 141.917 63.0148 142.619 62.6005C143.325 62.1862 144.124 61.979 145.016 61.979C145.907 61.979 146.704 62.1862 147.407 62.6005C148.113 63.0148 148.67 63.613 149.078 64.3952C149.489 65.1741 149.694 66.1121 149.694 67.2091ZM147.84 67.2091C147.84 66.4369 147.719 65.7856 147.477 65.2553C147.238 64.7217 146.907 64.319 146.482 64.0472C146.058 63.7721 145.569 63.6346 145.016 63.6346C144.462 63.6346 143.973 63.7721 143.549 64.0472C143.125 64.319 142.792 64.7217 142.55 65.2553C142.311 65.7856 142.192 66.4369 142.192 67.2091C142.192 67.9814 142.311 68.6343 142.55 69.1679C142.792 69.6982 143.125 70.1009 143.549 70.376C143.973 70.6478 144.462 70.7837 145.016 70.7837C145.569 70.7837 146.058 70.6478 146.482 70.376C146.907 70.1009 147.238 69.6982 147.477 69.1679C147.719 68.6343 147.84 67.9814 147.84 67.2091ZM153.282 62.1182V72.3H151.438V62.1182H153.282ZM154.832 63.6644V62.1182H162.956V63.6644H159.809V72.3H157.979V63.6644H154.832ZM164.074 63.6644V62.1182H172.198V63.6644H169.051V72.3H167.221V63.6644H164.074ZM182.411 67.2091C182.411 68.3062 182.205 69.2458 181.794 70.028C181.387 70.8069 180.83 71.4035 180.124 71.8178C179.421 72.2321 178.624 72.4393 177.733 72.4393C176.841 72.4393 176.042 72.2321 175.336 71.8178C174.634 71.4002 174.077 70.8019 173.666 70.0231C173.258 69.2409 173.054 68.3029 173.054 67.2091C173.054 66.1121 173.258 65.1741 173.666 64.3952C174.077 63.613 174.634 63.0148 175.336 62.6005C176.042 62.1862 176.841 61.979 177.733 61.979C178.624 61.979 179.421 62.1862 180.124 62.6005C180.83 63.0148 181.387 63.613 181.794 64.3952C182.205 65.1741 182.411 66.1121 182.411 67.2091ZM180.556 67.2091C180.556 66.4369 180.435 65.7856 180.194 65.2553C179.955 64.7217 179.623 64.319 179.199 64.0472C178.775 63.7721 178.286 63.6346 177.733 63.6346C177.179 63.6346 176.69 63.7721 176.266 64.0472C175.842 64.319 175.509 64.7217 175.267 65.2553C175.028 65.7856 174.909 66.4369 174.909 67.2091C174.909 67.9814 175.028 68.6343 175.267 69.1679C175.509 69.6982 175.842 70.1009 176.266 70.376C176.69 70.6478 177.179 70.7837 177.733 70.7837C178.286 70.7837 178.775 70.6478 179.199 70.376C179.623 70.1009 179.955 69.6982 180.194 69.1679C180.435 68.6343 180.556 67.9814 180.556 67.2091ZM196.725 67.2091C196.725 68.3062 196.52 69.2458 196.109 70.028C195.701 70.8069 195.144 71.4035 194.438 71.8178C193.736 72.2321 192.939 72.4393 192.047 72.4393C191.155 72.4393 190.357 72.2321 189.651 71.8178C188.948 71.4002 188.391 70.8019 187.98 70.0231C187.573 69.2409 187.369 68.3029 187.369 67.2091C187.369 66.1121 187.573 65.1741 187.98 64.3952C188.391 63.613 188.948 63.0148 189.651 62.6005C190.357 62.1862 191.155 61.979 192.047 61.979C192.939 61.979 193.736 62.1862 194.438 62.6005C195.144 63.0148 195.701 63.613 196.109 64.3952C196.52 65.1741 196.725 66.1121 196.725 67.2091ZM194.871 67.2091C194.871 66.4369 194.75 65.7856 194.508 65.2553C194.269 64.7217 193.938 64.319 193.514 64.0472C193.089 63.7721 192.601 63.6346 192.047 63.6346C191.494 63.6346 191.005 63.7721 190.58 64.0472C190.156 64.319 189.823 64.7217 189.581 65.2553C189.343 65.7856 189.223 66.4369 189.223 67.2091C189.223 67.9814 189.343 68.6343 189.581 69.1679C189.823 69.6982 190.156 70.1009 190.58 70.376C191.005 70.6478 191.494 70.7837 192.047 70.7837C192.601 70.7837 193.089 70.6478 193.514 70.376C193.938 70.1009 194.269 69.6982 194.508 69.1679C194.75 68.6343 194.871 67.9814 194.871 67.2091ZM206.836 62.1182V72.3H205.196L200.398 65.3647H200.314V72.3H198.469V62.1182H200.12L204.912 69.0586H205.002V62.1182H206.836ZM214.163 62.1182V72.3H212.319V62.1182H214.163ZM216.161 72.3V62.1182H218.005V70.7539H222.489V72.3H216.161ZM224.09 62.1182H226.347L229.37 69.4961H229.489L232.512 62.1182H234.769V72.3H232.999V65.305H232.905L230.091 72.2702H228.768L225.955 65.2901H225.86V72.3H224.09V62.1182ZM238.085 72.3H236.116L239.701 62.1182H241.978L245.567 72.3H243.599L240.879 64.2063H240.8L238.085 72.3ZM238.15 68.3079H243.519V69.7894H238.15V68.3079ZM248.753 62.1182V72.3H246.909V62.1182H248.753ZM259.118 62.1182V72.3H257.477L252.679 65.3647H252.595V72.3H250.75V62.1182H252.401L257.194 69.0586H257.283V62.1182H259.118ZM261.127 72.3V62.1182H267.749V63.6644H262.972V66.4286H267.406V67.9748H262.972V70.7539H267.789V72.3H261.127ZM277.998 62.1182V72.3H276.358L271.56 65.3647H271.476V72.3H269.631V62.1182H271.282L276.074 69.0586H276.164V62.1182H277.998Z" fill="white" fill-opacity="0.6"/>
<defs>
<clipPath id="clip0_130_387">
<rect width="33" height="32" fill="white" transform="translate(37.5 34)"/>
</clipPath>
<clipPath id="clip1_130_387">
<rect width="33" height="32" fill="white" transform="translate(37.5 34)"/>
</clipPath>
</defs>
</svg>
