<svg width="20" height="21" viewBox="0 0 20 21" fill="none" xmlns="http://www.w3.org/2000/svg">
<g clip-path="url(#clip0_98_7897)">
<g clip-path="url(#clip1_98_7897)">
<path d="M12.291 6.77696C12.9924 6.91354 13.637 7.25592 14.1424 7.76028C14.6477 8.26463 14.9907 8.90801 15.1276 9.6081M12.291 3.91C13.7483 4.07158 15.1072 4.72291 16.1446 5.75704C17.182 6.79118 17.8363 8.14665 18 9.6009M17.2819 15.3205V17.4707C17.2827 17.6703 17.2417 17.8679 17.1616 18.0508C17.0815 18.2337 16.964 18.3979 16.8166 18.5328C16.6692 18.6678 16.4952 18.7705 16.3058 18.8344C16.1163 18.8984 15.9156 18.9221 15.7164 18.9042C13.5067 18.6645 11.384 17.9109 9.5191 16.7038C7.78402 15.6034 6.31297 14.1351 5.21043 12.4034C3.99681 10.5335 3.24154 8.40467 3.00583 6.18923C2.98788 5.99103 3.01148 5.79127 3.07513 5.60267C3.13877 5.41407 3.24106 5.24076 3.37549 5.09378C3.50992 4.9468 3.67353 4.82937 3.85592 4.74896C4.03831 4.66855 4.23548 4.62693 4.43487 4.62674H6.58921C6.93771 4.62332 7.27557 4.74649 7.53981 4.97331C7.80406 5.20012 7.97665 5.5151 8.02543 5.85953C8.11636 6.54765 8.28499 7.22329 8.5281 7.87357C8.6247 8.13011 8.6456 8.40891 8.5884 8.67695C8.5311 8.945 8.39803 9.191 8.20496 9.3859L7.29296 10.2961C8.31523 12.0905 9.8038 13.5763 11.6016 14.5966L12.5136 13.6863C12.7089 13.4936 12.9554 13.3608 13.2239 13.3036C13.4925 13.2465 13.7718 13.2674 14.0288 13.3638C14.6804 13.6064 15.3573 13.7748 16.0467 13.8655C16.3956 13.9146 16.7142 14.09 16.9419 14.3583C17.1696 14.6265 17.2906 14.969 17.2819 15.3205Z" stroke="white" stroke-width="1.5" stroke-linecap="round" stroke-linejoin="round"/>
</g>
</g>
<defs>
<clipPath id="clip0_98_7897">
<rect width="20" height="21" fill="white"/>
</clipPath>
<clipPath id="clip1_98_7897">
<rect width="24" height="25" fill="white"/>
</clipPath>
</defs>
</svg>
