<svg width="24" height="23" viewBox="0 0 24 23" fill="none" xmlns="http://www.w3.org/2000/svg">
<mask id="mask0_355_235" style="mask-type:luminance" maskUnits="userSpaceOnUse" x="0" y="0" width="24" height="23">
<path d="M24 11.4286C24 5.11675 18.6274 0 12 0C5.37258 0 0 5.11675 0 11.4286C0 17.7404 5.37258 22.8571 12 22.8571C18.6274 22.8571 24 17.7404 24 11.4286Z" fill="white"/>
</mask>
<g mask="url(#mask0_355_235)">
<path d="M21 11.143C21 5.77797 16.7467 1.42871 11.5 1.42871C6.25329 1.42871 2 5.77797 2 11.143C2 16.5081 6.25329 20.8574 11.5 20.8574C16.7467 20.8574 21 16.5081 21 11.143Z" fill="#DCDDEB"/>
<path d="M15.5856 5.31445H13.3056C12.2977 5.31445 11.3312 5.72384 10.6186 6.45256C9.90594 7.18128 9.50559 8.16962 9.50559 9.20019V11.5316H7.22559V14.6402H9.50559V20.8574H12.5456V14.6402H14.8256L15.5856 11.5316H12.5456V9.20019C12.5456 8.99408 12.6257 8.7964 12.7682 8.65066C12.9107 8.50492 13.104 8.42304 13.3056 8.42304H15.5856V5.31445Z" fill="#2442BE"/>
</g>
</svg>
