<svg width="15" height="12" viewBox="0 0 15 12" fill="none" xmlns="http://www.w3.org/2000/svg">
<g clip-path="url(#clip0_130_4245)">
<g clip-path="url(#clip1_130_4245)">
<path d="M15 3.66037C15 5.96406 15 8.26815 15 10.5718C14.991 10.5887 14.9785 10.6043 14.9742 10.6219C14.8091 11.3199 14.2828 11.7397 13.5629 11.7397C9.52129 11.7405 5.48005 11.7409 1.43841 11.7397C0.59839 11.7393 0.00603326 11.1407 0.00603326 10.298C0.00564201 8.1406 0.00603326 5.98323 0.00603326 3.82587C0.00603326 3.77422 0.00603326 3.72258 0.00603326 3.64941C0.0619824 3.68424 0.0983688 3.70497 0.132799 3.72806C2.14501 5.06966 4.15683 6.41205 6.16943 7.75326C7.03919 8.3331 7.95824 8.33779 8.82447 7.76148C10.8343 6.42418 12.8419 5.08375 14.8509 3.74527C14.8979 3.71397 14.9499 3.68854 15 3.66037Z" fill="#5EAD33"/>
<path d="M14.9987 2.10805C14.9905 2.11939 14.9768 2.12996 14.9741 2.14248C14.8954 2.54038 14.6615 2.82287 14.3297 3.04314C12.454 4.29006 10.5811 5.5409 8.70699 6.78977C8.5325 6.90598 8.36347 7.03235 8.17959 7.13212C7.66939 7.40874 7.17016 7.37157 6.68891 7.05074C5.46782 6.23615 4.24632 5.42196 3.02523 4.60776C2.2345 4.08035 1.443 3.55294 0.651888 3.02514C0.101396 2.65815 -0.116532 2.09318 0.0599232 1.49456C0.235595 0.899469 0.768873 0.501565 1.40857 0.501174C5.46938 0.499609 9.53019 0.499609 13.591 0.501174C14.278 0.501565 14.8176 0.938594 14.9706 1.60411C14.9756 1.62681 14.9893 1.64715 14.9987 1.66867C14.9987 1.815 14.9987 1.96172 14.9987 2.10805Z" fill="#5EAD33"/>
</g>
</g>
<defs>
<clipPath id="clip0_130_4245">
<rect width="15" height="12" fill="white"/>
</clipPath>
<clipPath id="clip1_130_4245">
<rect width="15" height="12" fill="white"/>
</clipPath>
</defs>
</svg>
