<svg width="412" height="435" viewBox="0 0 412 435" fill="none" xmlns="http://www.w3.org/2000/svg">
<g clip-path="url(#clip0_356_383)">
<path d="M204.833 435.499C306.485 435.499 388.89 348.979 388.89 242.25C388.89 135.521 306.485 49 204.833 49C103.181 49 20.7764 135.521 20.7764 242.25C20.7764 348.979 103.181 435.499 204.833 435.499Z" fill="#C0C3DA"/>
<path d="M87.2578 113.295H294.495L213.877 218.426H24.8613C21.95 218.426 19.6732 216.995 18.4922 215.093C17.3216 213.207 17.2004 210.838 18.6357 208.724L18.6377 208.722L81.001 116.432L81.002 116.431C82.2773 114.538 84.6519 113.295 87.2578 113.295Z" fill="#407BFF" stroke="#86BEFF" stroke-width="3"/>
<path d="M380.861 219.926C385.681 219.926 388.173 213.84 384.875 210.125L297.534 111.795L214.614 219.926H380.861Z" fill="#2442BE"/>
<path d="M60.9892 219.043H214.868C214.868 219.043 214.868 223.087 214.868 228.042V382.036C214.868 386.991 214.868 391.035 214.868 391.035H60.9892C56.5044 391.035 52.8984 386.991 52.8984 382.036V219.043C52.8984 219.043 56.5044 219.043 60.9892 219.043Z" fill="#407BFF"/>
<path d="M101.733 274.212H166.854C169.082 274.212 170.859 276.125 170.859 278.485V331.957C170.859 334.285 169.082 336.199 166.854 336.199H101.733C99.535 336.199 97.7285 334.285 97.7285 331.957V278.485C97.7285 276.125 99.535 274.212 101.733 274.212Z" fill="#C0C3DA"/>
<rect x="97.7285" y="329.674" width="6.18" height="6.525" fill="#C0C3DA"/>
<rect x="122.449" y="274.212" width="48.41" height="61.9875" fill="#C0C3DA"/>
<path d="M97.7285 336.199L121.419 274.212H97.7285V336.199Z" fill="white"/>
<path d="M214.868 219.043H362.114V228.042V382.036C362.114 386.991 358.477 391.035 354.053 391.035H214.868C214.868 391.035 214.868 386.991 214.868 382.036V228.042C214.868 223.087 214.868 219.043 214.868 219.043Z" fill="#2442BE"/>
<path d="M259.229 381.736H315.251V291.303C315.251 286.643 311.657 282.869 307.188 282.869H267.293C262.823 282.869 259.229 286.643 259.229 291.303V381.736Z" fill="#4A4566"/>
<path d="M415.67 381.373H-4.34026C-5.25691 381.373 -6 382.159 -6 383.128V397.011C-6 397.98 -5.25691 398.766 -4.34026 398.766H415.67C416.587 398.766 417.33 397.98 417.33 397.011V383.128C417.33 382.159 416.587 381.373 415.67 381.373Z" fill="#6E7191"/>
<path d="M363.141 348.744C379.972 348.744 393.617 334.418 393.617 316.746C393.617 299.074 379.972 284.748 363.141 284.748C346.31 284.748 332.665 299.074 332.665 316.746C332.665 334.418 346.31 348.744 363.141 348.744Z" fill="#00AB76"/>
<path d="M367.324 325.405C367.324 322.963 365.451 320.983 363.141 320.983C360.831 320.983 358.958 322.963 358.958 325.405V378.575C358.958 381.017 360.831 382.997 363.141 382.997C365.451 382.997 367.324 381.017 367.324 378.575V325.405Z" fill="#9D6428"/>
<path d="M40.5639 356.862C59.0516 356.862 74.0389 341.281 74.0389 322.062C74.0389 302.842 59.0516 287.262 40.5639 287.262C22.0761 287.262 7.08887 302.842 7.08887 322.062C7.08887 341.281 22.0761 356.862 40.5639 356.862Z" fill="#5EAD33"/>
<path d="M44.2364 338.998C44.2364 337.133 42.8057 335.62 41.0408 335.62C39.2759 335.62 37.8452 337.133 37.8452 338.998V379.618C37.8452 381.484 39.2759 382.996 41.0408 382.996C42.8057 382.996 44.2364 381.484 44.2364 379.618V338.998Z" fill="#9D6428"/>
<path d="M286.219 189.387H265.619V218.749H286.219V189.387Z" fill="white"/>
<path d="M265.619 218.749L286.219 189.387H265.619V218.749Z" fill="#C0C3DA"/>
<path d="M265.619 218.749L274.202 206.515H265.619V218.749Z" fill="#C0C3DA"/>
<path d="M312.999 189.387H292.399V218.749H312.999V189.387Z" fill="white"/>
<path d="M292.399 218.749L312.999 189.387H292.399V218.749Z" fill="#C0C3DA"/>
<path d="M292.399 218.749L300.982 206.515H292.399V218.749Z" fill="#C0C3DA"/>
<path d="M286.219 224.187H265.619V232.887H286.219V224.187Z" fill="#407BFF"/>
<path d="M312.999 224.187H292.399V232.887H312.999V224.187Z" fill="#407BFF"/>
<g clip-path="url(#clip1_356_383)">
<path d="M138.378 345.558H123.175C122.496 345.558 121.869 345.94 121.53 346.561C121.19 347.182 121.19 347.947 121.53 348.567C121.869 349.188 122.496 349.571 123.175 349.571H138.378C139.057 349.571 139.684 349.188 140.024 348.567C140.363 347.947 140.363 347.181 140.024 346.561C139.684 345.94 139.057 345.558 138.378 345.558Z" fill="#2442BE"/>
<path d="M138.378 307.435C138.378 311.868 134.975 315.461 130.776 315.461C126.578 315.461 123.175 311.868 123.175 307.435C123.175 303.002 126.578 299.409 130.776 299.409C134.975 299.409 138.378 303.002 138.378 307.435Z" fill="#2442BE"/>
<path d="M145.979 333.518H140.278V327.84C140.314 325.298 139.459 322.833 137.876 320.918C136.294 319.003 134.096 317.773 131.707 317.466C129.03 317.188 126.367 318.121 124.378 320.033C122.389 321.946 121.261 324.658 121.274 327.499V341.544C121.274 342.076 121.474 342.587 121.83 342.963C122.187 343.339 122.67 343.55 123.174 343.55H142.178V353.583C142.178 354.115 142.378 354.625 142.735 355.002C143.091 355.378 143.574 355.589 144.078 355.589H149.779C150.283 355.589 150.766 355.378 151.123 355.002C151.479 354.625 151.68 354.115 151.68 353.583V339.538C151.68 337.942 151.079 336.41 150.01 335.282C148.94 334.153 147.491 333.518 145.979 333.518Z" fill="#2442BE"/>
<rect x="114.062" y="336.82" width="50.3229" height="23.3036" fill="#407BFF"/>
</g>
<rect x="93.6089" y="340.549" width="81.37" height="6.525" fill="#2442BE"/>
</g>
<defs>
<clipPath id="clip0_356_383">
<rect width="412" height="435" fill="white"/>
</clipPath>
<clipPath id="clip1_356_383">
<rect width="61.8" height="65.25" fill="white" transform="translate(113.179 294.874)"/>
</clipPath>
</defs>
</svg>
