<svg width="80" height="80" viewBox="0 0 80 80" fill="none" xmlns="http://www.w3.org/2000/svg">
<path d="M40 80C62.0914 80 80 62.0914 80 40C80 17.9086 62.0914 0 40 0C17.9086 0 0 17.9086 0 40C0 62.0914 17.9086 80 40 80Z" fill="#2442BE"/>
<g clip-path="url(#clip0_216_229)">
<path d="M30.9296 43.6642C29.9536 42.6496 28.3716 42.6496 27.3956 43.6642C26.9864 44.0932 26.7354 44.6582 26.6866 45.2602C26.4023 45.2265 26.1164 45.2083 25.8302 45.2056C22.241 45.2007 19.0533 47.5901 17.9227 51.1329C16.7921 54.6757 17.9735 58.5732 20.8533 60.8011H17.4993C16.119 60.8011 15 61.9649 15 63.4004C15 64.836 16.119 65.9996 17.4993 65.9996H62.4864C63.8667 65.9996 64.9856 64.836 64.9856 63.4004C64.9856 61.9649 63.8667 60.8011 62.4864 60.8011H59.3206L61.53 48.5508C62.7181 48.1852 63.4675 46.9674 63.2893 45.6922C63.111 44.417 62.0593 43.4715 60.8202 43.4728C60.8185 41.8929 59.7913 40.5134 58.3209 40.1163C58.3209 40.0799 58.3209 40.0435 58.3209 40.0071C58.3189 38.123 57.1463 36.4562 55.4202 35.8842C53.6941 35.312 51.8103 35.9659 50.7606 37.5014C50.508 37.4395 50.2495 37.4082 49.99 37.4078C48.4383 37.4091 47.0921 38.522 46.7409 40.0937C45.2296 40.459 44.1595 41.8591 44.1583 43.4728C42.9186 43.4698 41.8652 44.4147 41.686 45.6905C41.5069 46.9662 42.2564 48.185 43.4452 48.5508L45.6579 60.8011H39.9928C39.99 57.9313 37.7537 55.6055 34.9943 55.6026H33.9862C34.1665 54.7412 34.2079 53.8547 34.1087 52.9791C35.072 52.889 35.898 52.2268 36.2268 51.2808C36.5555 50.3348 36.3277 49.2763 35.6424 48.5664L35.0534 47.9539L63.4203 18.4524C64.0603 17.7977 64.3135 16.8362 64.0836 15.9337C63.8537 15.0312 63.176 14.3262 62.3082 14.0869C61.4405 13.8476 60.516 14.1107 59.8863 14.7762L31.5194 44.2777L30.9296 43.6642ZM47.4907 41.7399C47.9507 41.7399 48.3238 41.3521 48.3238 40.8735C48.3235 40.2694 48.6257 39.7088 49.1214 39.3938C49.6171 39.0789 50.2347 39.0553 50.7514 39.3313C50.9539 39.4393 51.1901 39.4563 51.405 39.3787C51.62 39.3009 51.795 39.1351 51.8894 38.9197C52.3832 37.8159 53.5476 37.2164 54.691 37.4774C55.8345 37.7383 56.6506 38.7896 56.6547 40.0071C56.6534 40.2314 56.6254 40.4546 56.5714 40.6716C56.5041 40.9513 56.5749 41.2475 56.7604 41.4617C56.9459 41.676 57.2216 41.7803 57.4961 41.7399C58.4131 41.7447 59.154 42.5191 59.154 43.4728H45.8245C45.8245 42.5158 46.5704 41.7399 47.4907 41.7399ZM44.1583 45.2056H60.8202C61.2802 45.2056 61.6533 45.5935 61.6533 46.072C61.6533 46.5506 61.2802 46.9384 60.8202 46.9384H44.1583C43.6982 46.9384 43.3252 46.5506 43.3252 46.072C43.3252 45.5935 43.6982 45.2056 44.1583 45.2056ZM45.158 48.6713H59.8205L57.6294 60.8011H47.349L45.158 48.6713ZM46.6576 62.534H62.4864C62.9464 62.534 63.3195 62.9219 63.3195 63.4004C63.3195 63.8789 62.9464 64.2668 62.4864 64.2668H17.4993C17.0392 64.2668 16.6662 63.8789 16.6662 63.4004C16.6662 62.9219 17.0392 62.534 17.4993 62.534H46.6576ZM30.8288 55.6026C30.3687 55.6026 29.9957 55.9906 29.9957 56.469C29.9957 56.9476 30.3687 57.3354 30.8288 57.3354H34.9943C36.8347 57.3354 38.3266 58.8871 38.3266 60.8011H25.8302C22.1494 60.8011 19.1655 57.6979 19.1655 53.8698C19.1655 50.0417 22.1494 46.9384 25.8302 46.9384C26.2927 46.9433 26.7536 46.997 27.2057 47.0987C27.264 47.1834 27.3275 47.2641 27.3956 47.3405L32.1076 52.2418C32.1815 52.3127 32.2593 52.379 32.3409 52.4402C32.4389 52.91 32.4906 53.3891 32.495 53.8698C32.4957 54.4545 32.4243 55.0368 32.2825 55.6026H30.8288ZM34.4644 51.0167C34.3081 51.1794 34.0961 51.2708 33.875 51.2708C33.6539 51.2708 33.4419 51.1794 33.2856 51.0167L28.5736 46.1153C28.2579 45.7754 28.2624 45.235 28.5837 44.9008C28.9051 44.5666 29.4247 44.5619 29.7516 44.8902L30.9288 46.1145L31.6361 46.8501L34.4636 49.7907C34.7888 50.129 34.7888 50.6775 34.4636 51.0158L34.4644 51.0167ZM61.0643 16.0013C61.2734 15.7761 61.5832 15.6857 61.8745 15.765C62.1658 15.8443 62.3932 16.0809 62.4694 16.3838C62.5457 16.6867 62.4589 17.0089 62.2423 17.2264L33.8754 46.7279L33.548 46.3883L32.6974 45.5028L61.0643 16.0013Z" fill="#DCDDEB"/>
<path d="M49.9915 50.4042H48.3253C47.8651 50.4042 47.4922 50.7921 47.4922 51.2706C47.4922 51.7491 47.8651 52.137 48.3253 52.137H49.9915C50.4515 52.137 50.8246 51.7491 50.8246 51.2706C50.8246 50.7921 50.4515 50.4042 49.9915 50.4042Z" fill="#DCDDEB"/>
<path d="M55.8207 50.4042H53.3214C52.8613 50.4042 52.4883 50.7921 52.4883 51.2706C52.4883 51.7491 52.8613 52.137 53.3214 52.137H55.8207C56.2807 52.137 56.6538 51.7491 56.6538 51.2706C56.6538 50.7921 56.2807 50.4042 55.8207 50.4042Z" fill="#DCDDEB"/>
<path d="M61.6536 38.2741C63.0339 38.2741 64.1529 37.1103 64.1529 35.6748C64.1529 34.2393 63.0339 33.0756 61.6536 33.0756C60.2733 33.0756 59.1543 34.2393 59.1543 35.6748C59.1543 37.1103 60.2733 38.2741 61.6536 38.2741ZM61.6536 34.8084C62.1137 34.8084 62.4867 35.1963 62.4867 35.6748C62.4867 36.1533 62.1137 36.5412 61.6536 36.5412C61.1935 36.5412 60.8205 36.1533 60.8205 35.6748C60.8205 35.1963 61.1935 34.8084 61.6536 34.8084Z" fill="#DCDDEB"/>
<path d="M57.4876 27.8772C56.1073 27.8772 54.9883 29.0409 54.9883 30.4764C54.9883 31.912 56.1073 33.0757 57.4876 33.0757C58.8679 33.0757 59.9868 31.912 59.9868 30.4764C59.9868 29.0409 58.8679 27.8772 57.4876 27.8772ZM57.4876 31.3429C57.0275 31.3429 56.6545 30.9549 56.6545 30.4764C56.6545 29.9979 57.0275 29.61 57.4876 29.61C57.9477 29.61 58.3207 29.9979 58.3207 30.4764C58.3207 30.9549 57.9477 31.3429 57.4876 31.3429Z" fill="#DCDDEB"/>
<path d="M37.4858 14.0149C37.0349 14.0147 36.6657 14.3875 36.6527 14.8562V14.8744V14.8813C36.6527 15.2002 36.5769 22.6791 29.9796 22.6791C29.5194 22.6791 29.1465 23.067 29.1465 23.5455C29.1465 24.024 29.5194 24.4119 29.9796 24.4119C36.551 24.4119 36.6518 31.8926 36.6527 32.2097C36.6464 32.6881 37.0144 33.0814 37.4745 33.0878C37.9346 33.0942 38.3126 32.7115 38.3189 32.2331V32.2149V32.2097C38.3189 31.8908 38.3947 24.4119 44.9911 24.4119C45.4512 24.4119 45.8242 24.024 45.8242 23.5455C45.8242 23.067 45.4512 22.6791 44.9911 22.6791C38.4346 22.6791 38.3205 15.2279 38.3189 14.8813C38.3189 14.4028 37.9458 14.0149 37.4858 14.0149ZM41.1939 23.5455C39.4879 24.4814 38.1692 26.033 37.4858 27.9088C36.8022 26.033 35.4836 24.4814 33.7777 23.5455C35.4836 22.6095 36.8022 21.058 37.4858 19.1822C38.1692 21.058 39.4879 22.6095 41.1939 23.5455Z" fill="#DCDDEB"/>
<path d="M19.9986 40.0114V40.0166C20.0011 40.4951 20.3761 40.8809 20.8362 40.8782C21.2963 40.8756 21.6673 40.4856 21.6648 40.0071C21.6648 39.7948 21.7347 34.8085 25.8302 34.8085C26.2903 34.8085 26.6633 34.4207 26.6633 33.9421C26.6633 33.4636 26.2903 33.0757 25.8302 33.0757C21.7347 33.0757 21.6648 28.0877 21.6648 27.8772V27.872C21.6634 27.3935 21.2893 27.0068 20.8292 27.0082C20.3691 27.0096 19.9972 27.3987 19.9986 27.8772C19.9986 28.0895 19.9286 33.0757 15.8331 33.0757C15.373 33.0757 15 33.4636 15 33.9421C15 34.4207 15.373 34.8085 15.8331 34.8085C19.9286 34.8085 19.9986 39.7965 19.9986 40.0071V40.0114ZM18.8789 33.9421C19.7226 33.3571 20.3976 32.5447 20.8317 31.5915C21.2657 32.5447 21.9407 33.3571 22.7844 33.9421C21.9409 34.5273 21.2659 35.3398 20.8317 36.2927C20.3974 35.3398 19.7225 34.5273 18.8789 33.9421Z" fill="#DCDDEB"/>
<path d="M23.9926 21.1255L25.2422 22.4251C25.5692 22.7535 26.0887 22.7488 26.4101 22.4146C26.7315 22.0803 26.736 21.54 26.4202 21.2L25.1706 19.9004C24.9614 19.6752 24.6517 19.5848 24.3604 19.6641C24.0691 19.7434 23.8417 19.98 23.7654 20.2829C23.6892 20.5858 23.7761 20.908 23.9926 21.1255Z" fill="#DCDDEB"/>
<path d="M21.4933 18.5261C21.8202 18.8545 22.3398 18.8498 22.6611 18.5156C22.9825 18.1814 22.987 17.641 22.6713 17.301L21.4216 16.0014C21.0947 15.673 20.5751 15.6777 20.2538 16.0119C19.9324 16.3462 19.9279 16.8865 20.2436 17.2265L21.4933 18.5261Z" fill="#DCDDEB"/>
<path d="M20.2439 22.4247C20.5692 22.7629 21.0966 22.7629 21.4219 22.4247L22.6715 21.1251C22.9873 20.7851 22.9828 20.2447 22.6614 19.9105C22.34 19.5763 21.8204 19.5716 21.4936 19.8999L20.2439 21.1996C19.9187 21.5379 19.9187 22.0864 20.2439 22.4247Z" fill="#DCDDEB"/>
<path d="M24.581 18.7797C24.8019 18.7797 25.0138 18.6883 25.17 18.5258L26.4196 17.2262C26.6362 17.0087 26.723 16.6865 26.6468 16.3836C26.5706 16.0807 26.3431 15.8441 26.0518 15.7648C25.7605 15.6855 25.4508 15.7759 25.2416 16.0011L23.992 17.3007C23.7538 17.5485 23.6826 17.9211 23.8115 18.2448C23.9404 18.5685 24.2441 18.7796 24.581 18.7797Z" fill="#DCDDEB"/>
</g>
<defs>
<clipPath id="clip0_216_229">
<rect width="50" height="52" fill="white" transform="translate(15 14)"/>
</clipPath>
</defs>
</svg>
