<svg width="80" height="80" viewBox="0 0 80 80" fill="none" xmlns="http://www.w3.org/2000/svg">
<path d="M40 80C62.0914 80 80 62.0914 80 40C80 17.9086 62.0914 0 40 0C17.9086 0 0 17.9086 0 40C0 62.0914 17.9086 80 40 80Z" fill="#2442BE"/>
<path d="M65 50.4832H62.5733C62.5369 49.1758 61.8774 47.9706 60.7845 47.2414L60.1086 46.7904L58.7812 36.1619C58.6055 34.7553 57.9568 33.4279 56.9536 32.4254C56.1392 31.6111 55.1123 31.0813 53.9827 30.8932L51.1658 30.4238L50.9521 29.3553C51.3415 29.064 51.6853 28.7174 51.9714 28.3241C52.56 28.2057 53.1302 28.066 53.6586 27.8943C55.1373 27.4161 56.1288 26.0587 56.1288 24.5177C56.1288 23.9711 56 23.4232 55.7547 22.9322L55.5266 22.4764C55.3933 22.2079 55.3225 21.9089 55.3225 21.6112C55.3225 17.9661 52.3564 15 48.7112 15H47.4178C43.7726 15 40.8065 17.9661 40.8065 21.6112C40.8065 21.9089 40.7357 22.2079 40.6024 22.4748L40.3743 22.9322C40.129 23.4224 40.0001 23.971 40.0001 24.5177C40.0001 26.0587 40.9922 27.4169 42.4704 27.896C42.9978 28.0668 43.5681 28.2073 44.1568 28.3257C44.4429 28.7183 44.7866 29.0653 45.1752 29.3562L44.9615 30.4247L42.1439 30.8941C41.8357 30.9457 41.5376 31.0274 41.2463 31.1286H33.6413C34.0959 30.6596 34.3549 30.1122 34.3549 29.5164C34.3549 27.9937 32.6889 26.784 30.2902 26.4114C30.8217 25.9164 31.129 25.3257 31.129 24.6774C31.129 22.8387 28.7016 21.4517 25.4838 21.4517C22.266 21.4517 19.8385 22.8387 19.8385 24.6774C19.8385 25.3257 20.1459 25.916 20.6773 26.4114C18.2791 26.784 16.6131 27.9936 16.6131 29.5164C16.6131 30.1122 16.872 30.66 17.3258 31.129H15V35.9674H16.6127V50.4837L15 50.4841V56.9357H16.6127V63.3873H45.2809C45.8576 64.3841 46.9037 65 48.0665 65C48.5607 65 49.0594 64.8823 49.5083 64.6598C49.8873 64.4701 50.2051 64.2 50.4752 63.8887C51.0786 64.5862 51.9535 65 52.907 65C53.4012 65 53.8998 64.8824 54.3488 64.6599C54.9351 64.3661 55.3901 63.9163 55.6946 63.3873H63.3868V56.9357H64.9995L65 50.4832ZM42.9681 26.3618C42.1574 26.0989 41.6131 25.3578 41.6131 24.5174C41.6131 24.2197 41.6839 23.9208 41.8172 23.6539L42.0453 23.1965C42.2906 22.7063 42.4195 22.1576 42.4195 21.611C42.4195 18.8546 44.6617 16.6128 47.4181 16.6128H48.7114C51.4678 16.6128 53.71 18.8546 53.71 21.611C53.71 22.1576 53.8389 22.7055 54.0842 23.1965L54.3123 23.6523C54.4456 23.9208 54.5164 24.2197 54.5164 24.5174C54.5164 25.3578 53.9722 26.099 53.1614 26.3618C53.0469 26.399 52.9217 26.4287 52.8032 26.4635C52.8688 26.1465 52.9032 25.8192 52.9032 25.4835V21.4514H51.958C50.7211 21.4514 49.5098 20.95 48.6346 20.0747L48.0647 19.5045L47.4945 20.0747C46.6197 20.9499 45.4084 21.4514 44.1711 21.4514H43.2262V25.4835C43.2262 25.8188 43.2611 26.1473 43.3263 26.4635C43.2074 26.4287 43.0826 26.399 42.9681 26.3618ZM44.839 23.028C46.0108 22.9016 47.1364 22.4442 48.0648 21.7191C48.9932 22.4442 50.1189 22.9012 51.2906 23.028V25.4835C51.2906 27.2626 49.844 28.7092 48.0648 28.7092C46.2856 28.7092 44.839 27.2626 44.839 25.4835V23.028ZM42.4099 32.4852L46.3245 31.8329L46.669 30.1153C47.1116 30.2486 47.5794 30.3222 48.0648 30.3222C48.5502 30.3222 49.018 30.249 49.4606 30.1149L49.8052 31.8325L53.7197 32.4848C54.5157 32.6181 55.2408 32.9922 55.8159 33.5668C56.5658 34.3175 57.0512 35.3096 57.1829 36.3628L58.6023 47.7238L59.8925 48.5834C60.5351 49.0115 60.919 49.717 60.9561 50.4826H56.8264L55.2829 40.1921C55.3061 39.906 55.3229 39.6179 55.3229 39.3301V39.0544C55.3229 37.9892 55.1521 36.9359 54.8155 35.9255L54.7011 35.5837C54.4562 34.8478 53.7699 34.3536 52.9939 34.3536H43.1359C42.36 34.3536 41.6737 34.8478 41.428 35.5841C41.0158 36.8231 40.8069 38.1108 40.8069 39.4134V40.4754L39.3051 50.4825H35.1753C35.2117 49.7166 35.5963 49.0107 36.239 48.5833L37.5292 47.7238L38.9485 36.3628C39.0798 35.3095 39.5664 34.3175 40.3156 33.5668C40.8906 32.9917 41.615 32.6176 42.4101 32.4848L42.4099 32.4852ZM50.8537 50.4835C50.277 49.4867 49.2309 48.8709 48.0672 48.8709C47.573 48.8709 47.0744 48.9885 46.6254 49.211C46.2473 49.3999 45.9183 49.6576 45.6466 49.9657C45.0435 49.2778 44.174 48.8705 43.2272 48.8705C42.7329 48.8705 42.2343 48.9881 41.7853 49.2106C41.5096 49.3487 41.2699 49.5324 41.0498 49.7357L42.412 40.6566L42.4196 39.4145C42.4196 38.2855 42.6009 37.1687 42.9575 36.0951C42.9835 36.0183 43.0543 35.9674 43.136 35.9674H52.9947C53.0763 35.9674 53.1463 36.0182 53.1719 36.0939L53.2856 36.4356C53.5677 37.2824 53.7106 38.164 53.7106 39.0547V39.3304C53.7106 39.6005 53.693 39.8698 53.6662 40.1384L53.6566 40.2368L55.1932 50.4832L50.8537 50.4835ZM32.7424 29.5164C32.7424 30.1735 31.1713 31.129 28.7102 31.129H27.1908C27.645 30.6597 27.9039 30.1122 27.9039 29.5164C27.9039 28.9705 27.6862 28.4663 27.3016 28.0253C27.7506 27.9485 28.2232 27.9033 28.7102 27.9033C31.1717 27.9033 32.7424 28.8589 32.7424 29.5164ZM25.4843 23.0648C27.9458 23.0648 29.5165 24.0204 29.5165 24.6775C29.5165 25.3345 27.9454 26.2901 25.4843 26.2901C23.0229 26.2901 21.4522 25.3345 21.4522 24.6775C21.4522 24.0204 23.0233 23.0648 25.4843 23.0648ZM18.2263 29.5164C18.2263 28.8593 19.7974 27.9037 22.2584 27.9037C24.7199 27.9037 26.2906 28.8593 26.2906 29.5164C26.2906 30.1735 24.7195 31.129 22.2584 31.129C19.7974 31.129 18.2263 30.1734 18.2263 29.5164ZM16.6136 32.7417H38.9088C38.483 33.2271 38.1304 33.7674 37.8683 34.3544L16.614 34.3548L16.6136 32.7417ZM18.2263 35.9675H37.3887C37.3783 36.0335 37.3555 36.0963 37.3475 36.1627L36.0201 46.7913L35.3442 47.2423C34.2513 47.9706 33.5926 49.1763 33.5554 50.4841H18.2255L18.2263 35.9675ZM16.6136 52.0962H40.0141C40.0141 52.5912 40.1142 53.0834 40.3423 53.5388L41.2335 55.3219H16.6138L16.6136 52.0962ZM23.0653 56.935V61.7734H21.4522V56.935H23.0653ZM24.678 56.935H26.2907V61.7734H24.678V56.935ZM27.9038 56.935H29.5165V61.7734H27.9038V56.935ZM31.1296 56.935H32.7423V61.7734H31.1296V56.935ZM34.3554 56.935H35.9681V61.7734H34.3554V56.935ZM37.5812 56.935H39.1939V61.7734H37.5812V56.935ZM40.807 56.935H42.0399L44.4593 61.7734H40.807V56.935ZM18.226 56.935H19.8387V61.7734H18.226V56.935ZM48.7895 63.2153C48.0023 63.6055 47.0095 63.2661 46.6233 62.4958L41.784 52.8169C41.5911 52.4316 41.5607 51.9934 41.6959 51.5864C41.8332 51.1766 42.1201 50.8453 42.5031 50.654C43.291 50.2646 44.2847 50.604 44.67 51.3743L44.8637 51.7612C44.7993 52.3675 44.9033 52.9814 45.1822 53.5396L49.567 62.3081C49.4289 62.7035 49.1596 63.03 48.7895 63.2153ZM53.6296 63.2153C52.8425 63.6055 51.8496 63.2661 51.4634 62.4958L46.6241 52.8169C46.4312 52.4316 46.4008 51.9934 46.5361 51.5864C46.6733 51.1766 46.9602 50.8453 47.3432 50.654C47.5689 50.5419 47.819 50.4831 48.0659 50.4831C48.6814 50.4831 49.2344 50.8249 49.5094 51.3743L54.3479 61.0516C54.7464 61.8476 54.4232 62.8188 53.6296 63.2153ZM55.7917 60.3309L54.0942 56.9351H58.5482V61.7735H56.1183C56.1191 61.2873 56.023 60.7947 55.7917 60.3309ZM61.774 61.7735H60.1613V56.9351H61.774V61.7735ZM63.3871 55.3219H53.2879L51.6752 52.0962H63.3867L63.3871 55.3219Z" fill="#DCDDEB"/>
<path d="M35.9665 44.8375C35.9665 44.2181 35.7328 43.6531 35.3487 43.2249C35.7328 42.7963 35.9665 42.2313 35.9665 41.6118C35.9665 40.278 34.8808 39.1924 33.5471 39.1924H23.87C21.6467 39.1924 19.8379 41.0011 19.8379 43.2245C19.8379 45.4478 21.6467 47.2565 23.87 47.2565H33.5475C34.8813 47.2569 35.9665 46.1713 35.9665 44.8375ZM21.4501 43.2249C21.4501 41.8911 22.5358 40.8055 23.8695 40.8055H33.547C33.992 40.8055 34.3534 41.1668 34.3534 41.6118C34.3534 42.0568 33.992 42.4181 33.547 42.4181H23.0628V44.0308H33.547C33.992 44.0308 34.3534 44.3922 34.3534 44.8372C34.3534 45.2822 33.992 45.6435 33.547 45.6435L23.8695 45.6439C22.5357 45.6439 21.4501 44.5586 21.4501 43.2249Z" fill="#DCDDEB"/>
</svg>
