<svg width="80" height="80" viewBox="0 0 80 80" fill="none" xmlns="http://www.w3.org/2000/svg">
<path d="M40 80C62.0914 80 80 62.0914 80 40C80 17.9086 62.0914 0 40 0C17.9086 0 0 17.9086 0 40C0 62.0914 17.9086 80 40 80Z" fill="#2442BE"/>
<path d="M60.9336 30.5833H49.3187C48.9355 30.5843 48.5559 30.5093 48.2018 30.3628C47.8478 30.2162 47.5263 30.0009 47.2559 29.7294L46.4757 28.9477C46.0701 28.5404 45.588 28.2176 45.0569 27.9977C44.5259 27.7777 43.9566 27.6653 43.3818 27.6666H41.2461V27.4311L44.4333 26.1565C44.5687 26.1024 44.6848 26.0089 44.7665 25.8882C44.8483 25.7674 44.892 25.6249 44.8919 25.4791V22.5624C44.892 22.4269 44.8543 22.2941 44.783 22.1788C44.7119 22.0635 44.6099 21.9704 44.4887 21.9098L40.1137 19.7223C40.0125 19.6719 39.9008 19.6456 39.7878 19.6458H28.1211C27.5409 19.6458 26.9845 19.8762 26.5743 20.2865C26.164 20.6967 25.9336 21.2531 25.9336 21.8333V23.2916C25.9336 23.8717 26.164 24.4282 26.5743 24.8384C26.9845 25.2486 27.5409 25.4791 28.1211 25.4791H28.8451C28.8391 26.2125 28.7728 26.9441 28.6468 27.6666H24.1106C23.4338 27.6666 22.7847 27.9355 22.3061 28.4141C21.8275 28.8927 21.5586 29.5418 21.5586 30.2186C21.5586 30.8955 21.8275 31.5447 22.3061 32.0232C22.7847 32.5019 23.4338 32.7708 24.1106 32.7708H29.769C29.5226 33.437 29.5162 34.1682 29.7508 34.8387C29.4799 35.0678 29.2598 35.3513 29.1051 35.6705C28.9502 35.9899 28.8639 36.3381 28.8518 36.6928C28.8396 37.0474 28.9018 37.4007 29.0344 37.7299C29.167 38.0591 29.3671 38.3569 29.6217 38.6041C29.3777 38.8408 29.1836 39.1242 29.0512 39.4373C28.9186 39.7505 28.8503 40.087 28.8503 40.427C28.8503 40.767 28.9186 41.1036 29.0512 41.4167C29.1836 41.7298 29.3777 42.0132 29.6217 42.2499C29.1577 42.6971 28.8825 43.3051 28.8528 43.9488C28.8231 44.5926 29.0411 45.2233 29.4621 45.7113L28.8874 46.2859C28.4119 46.7587 28.0348 47.3212 27.7782 47.9408C27.5214 48.5603 27.3901 49.2246 27.3919 49.8952V58.2916C27.3931 59.2581 27.7775 60.1848 28.4611 60.8683C29.1445 61.5518 30.0712 61.9362 31.0378 61.9374H43.4336C44.4001 61.9362 45.3269 61.5518 46.0103 60.8683C46.6938 60.1848 47.0783 59.2581 47.0794 58.2916V46.6249H49.6942C50.117 46.6261 50.5358 46.5434 50.9264 46.3817C51.317 46.22 51.6717 45.9825 51.9699 45.6829C52.133 45.5188 52.3269 45.3887 52.5406 45.3001C52.7542 45.2115 52.9834 45.1661 53.2146 45.1666H60.9336C61.1269 45.1666 61.3124 45.0897 61.4492 44.953C61.5859 44.8163 61.6628 44.6308 61.6628 44.4374V31.3124C61.6628 31.1191 61.5859 30.9336 61.4492 30.7968C61.3124 30.6601 61.1269 30.5833 60.9336 30.5833ZM43.4336 23.013V24.9854L40.2464 26.2601C40.111 26.3141 39.9949 26.4076 39.9131 26.5283C39.8314 26.6491 39.7877 26.7916 39.7878 26.9374V27.6666H35.4128V26.2083C35.4127 26.0149 35.3358 25.8295 35.1991 25.6927L33.7408 24.2344C33.604 24.0977 33.4186 24.0208 33.2253 24.0208H30.3086V21.1041H39.6156L43.4336 23.013ZM33.1523 25.7051L33.9544 26.5072V27.6666H32.4742C32.8114 27.0567 33.0408 26.3931 33.1523 25.7051ZM27.3919 23.2916V21.8333C27.3919 21.6399 27.4688 21.4544 27.6055 21.3177C27.7422 21.1809 27.9277 21.1041 28.1211 21.1041H28.8503V24.0208H28.1211C27.9277 24.0208 27.7422 23.9439 27.6055 23.8072C27.4688 23.6704 27.3919 23.485 27.3919 23.2916ZM31.7035 25.4791C31.5257 26.637 30.9148 27.6842 29.9943 28.4089C30.1933 27.4448 30.2967 26.4634 30.3028 25.4791H31.7035ZM23.0169 30.2186C23.0169 29.9286 23.1322 29.6504 23.3373 29.4453C23.5424 29.2402 23.8206 29.1249 24.1106 29.1249H28.3034C28.2546 29.2912 28.2137 29.4589 28.1576 29.6237C28.1137 29.7555 28.1085 29.8973 28.1425 30.032C28.1765 30.1668 28.2483 30.2889 28.3494 30.3843C28.4506 30.4796 28.5768 30.5441 28.7134 30.57C28.8499 30.5959 28.991 30.5823 29.1201 30.5308L29.3804 30.4265C30.121 30.1268 30.7956 29.6845 31.3659 29.1249H32.9234L30.7359 31.3124H24.1106C23.8206 31.3124 23.5424 31.1972 23.3373 30.9921C23.1322 30.787 23.0169 30.5087 23.0169 30.2186ZM30.3086 36.7812C30.3105 36.5515 30.3854 36.3283 30.5222 36.1439C30.827 36.458 31.1912 36.7084 31.5937 36.8804C31.9962 37.0524 32.4289 37.1426 32.8665 37.1456C33.3043 37.1486 33.7381 37.0646 34.143 36.8982C34.5479 36.7318 34.9155 36.4866 35.2246 36.1767L35.5739 35.8274C35.7841 35.9454 35.9495 36.1296 36.0443 36.3513C36.139 36.5729 36.1579 36.8197 36.098 37.0532C36.038 37.2868 35.9026 37.4939 35.7127 37.6425C35.5229 37.7911 35.2892 37.8728 35.0482 37.8749H31.4023C31.1123 37.8749 30.8341 37.7597 30.629 37.5546C30.4239 37.3495 30.3086 37.0712 30.3086 36.7812ZM45.6211 49.5416H39.7878V37.8749H40.5169C40.5265 39.0176 40.9863 40.1105 41.7966 40.9163L44.7643 43.8854C45.0366 44.1553 45.2525 44.4765 45.3996 44.8305C45.5467 45.1845 45.6219 45.5642 45.6211 45.9476V49.5416ZM40.5169 36.4166H37.5681C37.4743 35.7694 37.1349 35.1832 36.6203 34.7796L37.1729 34.2291H40.5169V36.4166ZM30.3086 40.427C30.3086 40.1369 30.4239 39.8587 30.629 39.6536C30.8341 39.4485 31.1123 39.3333 31.4023 39.3333H35.0482C35.3382 39.3333 35.6165 39.4485 35.8216 39.6536C36.0267 39.8587 36.1419 40.1369 36.1419 40.427C36.1419 40.7171 36.0267 40.9953 35.8216 41.2004C35.6165 41.4055 35.3382 41.5208 35.0482 41.5208H31.4023C31.1123 41.5208 30.8341 41.4055 30.629 41.2004C30.4239 40.9953 30.3086 40.7171 30.3086 40.427ZM35.0482 42.9791C35.3382 42.9791 35.6165 43.0944 35.8216 43.2995C36.0267 43.5046 36.1419 43.7828 36.1419 44.0729C36.1419 44.3629 36.0267 44.6411 35.8216 44.8462C35.6165 45.0513 35.3382 45.1666 35.0482 45.1666H31.4023C31.1123 45.1666 30.8341 45.0513 30.629 44.8462C30.4239 44.6411 30.3086 44.3629 30.3086 44.0729C30.3086 43.7828 30.4239 43.5046 30.629 43.2995C30.8341 43.0944 31.1123 42.9791 31.4023 42.9791H35.0482ZM29.9185 47.3176L30.7162 46.5156C30.9387 46.5835 31.1697 46.6203 31.4023 46.6249H35.0482C35.5555 46.6256 36.0515 46.4749 36.4726 46.192C36.8937 45.9091 37.2209 45.5071 37.4121 45.0372C37.6034 44.5673 37.65 44.051 37.546 43.5545C37.4421 43.058 37.1924 42.6037 36.8288 42.2499C37.0728 42.0132 37.2669 41.7298 37.3994 41.4167C37.5319 41.1036 37.6002 40.767 37.6002 40.427C37.6002 40.087 37.5319 39.7505 37.3994 39.4373C37.2669 39.1242 37.0728 38.8408 36.8288 38.6041C37.042 38.3931 37.2165 38.1463 37.3443 37.8749H38.3294V49.5416H28.8846C28.9588 48.7022 29.3246 47.9154 29.9185 47.3176ZM43.4336 60.4791H31.0378C30.4576 60.4791 29.9012 60.2486 29.491 59.8384C29.0807 59.4282 28.8503 58.8717 28.8503 58.2916V50.9999H38.3243C38.3148 51.7553 38.0099 52.4769 37.4748 53.0102L34.8972 55.5886L35.9283 56.6196L38.5059 54.042C39.3169 53.2362 39.7775 52.1431 39.7878 50.9999H45.6211V58.2916C45.6211 58.8717 45.3906 59.4282 44.9804 59.8384C44.5702 60.2486 44.0137 60.4791 43.4336 60.4791ZM60.2044 43.7083H53.2146C52.7919 43.7071 52.3731 43.7898 51.9825 43.9515C51.5919 44.1132 51.2372 44.3507 50.9389 44.6503C50.7758 44.8144 50.5819 44.9445 50.3683 45.033C50.1546 45.1217 49.9255 45.1671 49.6942 45.1666H47.0065C46.8506 44.2898 46.4282 43.4825 45.7968 42.8544L42.8291 39.8852C42.5573 39.6151 42.342 39.2938 42.1954 38.9398C42.0488 38.5858 41.974 38.2063 41.9753 37.8231V33.4999C41.9753 33.3066 41.8984 33.1211 41.7617 32.9843C41.6249 32.8476 41.4394 32.7708 41.2461 32.7708H36.8711C36.6777 32.7708 36.4923 32.8477 36.3556 32.9844L34.1936 35.1456C33.845 35.4834 33.3776 35.6705 32.8922 35.6667C32.4069 35.6629 31.9425 35.4684 31.5992 35.1252C31.256 34.782 31.0616 34.3176 31.0577 33.8322C31.0539 33.3469 31.2411 32.8794 31.5788 32.5309L34.9854 29.1249H43.3818C43.765 29.1239 44.1446 29.1989 44.4987 29.3454C44.8527 29.492 45.1743 29.7072 45.4446 29.9788L46.2248 30.7604C46.6304 31.1678 47.1126 31.4906 47.6436 31.7105C48.1746 31.9304 48.7439 32.0429 49.3187 32.0416H60.2044V43.7083Z" fill="#DCDDEB"/>
<path d="M20.4638 16.8254L19.7402 18.0916L24.8442 21.0082L25.5678 19.742L20.4638 16.8254Z" fill="#DCDDEB"/>
<path d="M24.8442 24.1169L19.7402 27.0335L20.4638 28.2998L25.5678 25.3832L24.8442 24.1169Z" fill="#DCDDEB"/>
<path d="M24.4753 21.8333H17.1836V23.2916H24.4753V21.8333Z" fill="#DCDDEB"/>
<path d="M25.9342 38.6041C24.9677 38.603 24.041 38.2185 23.3575 37.535C22.6741 36.8516 22.2896 35.9248 22.2884 34.9583C22.2884 34.7649 22.2116 34.5794 22.0748 34.4427C21.9381 34.306 21.7526 34.2291 21.5592 34.2291C21.3659 34.2291 21.1804 34.306 21.0436 34.4427C20.9069 34.5794 20.8301 34.7649 20.8301 34.9583C20.8289 35.9248 20.4444 36.8516 19.761 37.535C19.0775 38.2185 18.1508 38.603 17.1842 38.6041C16.9909 38.6041 16.8054 38.681 16.6686 38.8177C16.5319 38.9544 16.4551 39.1399 16.4551 39.3333C16.4551 39.5266 16.5319 39.7121 16.6686 39.8489C16.8054 39.9856 16.9909 40.0625 17.1842 40.0625C18.1508 40.0636 19.0775 40.4481 19.761 41.1316C20.4444 41.815 20.8289 42.7417 20.8301 43.7083C20.8301 43.9016 20.9069 44.0871 21.0436 44.2239C21.1804 44.3606 21.3659 44.4375 21.5592 44.4375C21.7526 44.4375 21.9381 44.3606 22.0748 44.2239C22.2116 44.0871 22.2884 43.9016 22.2884 43.7083C22.2896 42.7417 22.6741 41.815 23.3575 41.1316C24.041 40.4481 24.9677 40.0636 25.9342 40.0625C26.1276 40.0625 26.3131 39.9856 26.4498 39.8489C26.5866 39.7121 26.6634 39.5266 26.6634 39.3333C26.6634 39.1399 26.5866 38.9544 26.4498 38.8177C26.3131 38.681 26.1276 38.6041 25.9342 38.6041ZM21.5592 41.0833C21.1268 40.3664 20.5261 39.7658 19.8092 39.3333C20.5261 38.9008 21.1268 38.3002 21.5592 37.5833C21.9917 38.3002 22.5924 38.9008 23.3092 39.3333C22.5924 39.7658 21.9917 40.3664 21.5592 41.0833Z" fill="#DCDDEB"/>
<path d="M47.0807 22.5625C48.0473 22.5636 48.974 22.9481 49.6574 23.6316C50.3409 24.315 50.7254 25.2417 50.7266 26.2083C50.7266 26.4016 50.8034 26.5871 50.9401 26.7239C51.0769 26.8606 51.2624 26.9375 51.4557 26.9375C51.6491 26.9375 51.8346 26.8606 51.9713 26.7239C52.108 26.5871 52.1849 26.4016 52.1849 26.2083C52.1861 25.2417 52.5705 24.315 53.254 23.6316C53.9375 22.9481 54.8642 22.5636 55.8307 22.5625C56.0241 22.5625 56.2096 22.4856 56.3463 22.3489C56.483 22.2121 56.5599 22.0267 56.5599 21.8333C56.5599 21.6399 56.483 21.4544 56.3463 21.3177C56.2096 21.1809 56.0241 21.1041 55.8307 21.1041C54.8642 21.103 53.9375 20.7185 53.254 20.035C52.5705 19.3515 52.1861 18.4249 52.1849 17.4583C52.1849 17.2649 52.108 17.0794 51.9713 16.9427C51.8346 16.8059 51.6491 16.7291 51.4557 16.7291C51.2624 16.7291 51.0769 16.8059 50.9401 16.9427C50.8034 17.0794 50.7266 17.2649 50.7266 17.4583C50.7254 18.4249 50.3409 19.3515 49.6574 20.035C48.974 20.7185 48.0473 21.103 47.0807 21.1041C46.8874 21.1041 46.7019 21.1809 46.5651 21.3177C46.4284 21.4544 46.3516 21.6399 46.3516 21.8333C46.3516 22.0267 46.4284 22.2121 46.5651 22.3489C46.7019 22.4856 46.8874 22.5625 47.0807 22.5625ZM51.4557 20.0833C51.8883 20.8001 52.4889 21.4008 53.2057 21.8333C52.4889 22.2658 51.8883 22.8664 51.4557 23.5833C51.0232 22.8664 50.4226 22.2658 49.7057 21.8333C50.4226 21.4008 51.0232 20.8001 51.4557 20.0833Z" fill="#DCDDEB"/>
</svg>
