<svg width="80" height="80" viewBox="0 0 80 80" fill="none" xmlns="http://www.w3.org/2000/svg">
<path d="M40 80C62.0914 80 80 62.0914 80 40C80 17.9086 62.0914 0 40 0C17.9086 0 0 17.9086 0 40C0 62.0914 17.9086 80 40 80Z" fill="#2442BE"/>
<mask id="mask0_216_214" style="mask-type:luminance" maskUnits="userSpaceOnUse" x="10" y="15" width="57" height="52">
<path d="M65.8184 16.1371V66.2767H10.5V16.1371H65.8184Z" fill="white" stroke="white"/>
</mask>
<g mask="url(#mask0_216_214)">
<path d="M43.5444 59.2548L43.8191 59.0909L45.4705 57.9134L45.5591 57.8484C45.838 57.6442 45.8886 57.2695 45.671 57.0055L45.6702 57.0046C45.4573 56.7444 45.0562 56.6909 44.7682 56.8877L42.5807 58.4619M43.905 59.0297L35.6866 64.8979C34.8013 65.5367 33.5863 65.6061 32.6215 65.076C31.2538 64.3289 14.8692 55.4289 12.9057 54.3624L12.7429 54.2739C11.9622 53.837 11.4623 53.0692 11.4053 52.2218C11.3509 51.3724 11.7481 50.5559 12.4685 50.0334L12.4694 50.0328L20.9815 43.9519C21.2647 43.7585 21.6623 43.8125 21.8747 44.0711L21.8755 44.072C22.0835 44.3232 22.0454 44.6803 21.7924 44.8903L21.7714 44.9052L13.2524 50.9917L13.2515 50.9923C12.8683 51.2679 12.6601 51.7015 12.6889 52.1485C12.7178 52.5958 12.9808 53.0026 13.3961 53.2332L13.4774 53.2784H13.4814L15.2157 54.2239L15.4159 54.333L15.5994 54.201L17.522 52.8184C17.8022 52.626 18.2003 52.6767 18.418 52.9371C18.6325 53.1966 18.5863 53.5664 18.3125 53.7725L17.0284 54.6959L16.6255 54.9856L17.0651 55.2247L20.4049 57.0411L20.6066 57.1508L20.7904 57.0167L26.5488 52.8124C26.8307 52.6159 27.2284 52.6649 27.4467 52.9229C27.6631 53.1815 27.6193 53.5532 27.3477 53.7602L22.208 57.5145L21.8106 57.8048L22.2468 58.0417L33.274 64.0362C33.7859 64.3174 34.4296 64.2786 34.8986 63.9411L43.1646 58.0417" stroke="#DCDDEB" stroke-width="1.5"/>
<path d="M26.1548 46.6493L20.7034 50.4886C20.7034 50.4886 20.5308 50.9982 20.7493 51.2628C20.9646 51.5253 21.3725 51.5768 21.6575 51.3731L26.8416 47.665C27.1259 47.4617 27.1782 47.0824 26.9608 46.8207L26.9594 46.8191C26.7442 46.5565 26.337 46.5059 26.052 46.7096" stroke="#DCDDEB" stroke-width="1.5"/>
<path d="M32.0218 50.5117L30.6675 51.3874C30.3745 51.5673 29.9795 51.4974 29.7772 51.2294C29.5772 50.9591 29.6446 50.5901 29.9275 50.3975L31.2819 49.5218C31.5749 49.3418 31.9699 49.4117 32.1722 49.682C32.3717 49.9494 32.3055 50.3185 32.0218 50.5117Z" stroke="#DCDDEB" stroke-width="1.5"/>
<path d="M65.6832 19.4489L65.6854 19.446C65.7372 19.3896 65.7326 19.3036 65.6717 19.2508L62.0783 16.1836C62.0425 16.1549 62.0004 16.1427 61.9587 16.1454C61.9152 16.1484 61.8731 16.168 61.8451 16.1979C60.601 17.5857 57.4712 21.0791 54.0027 24.9501C48.8953 30.6506 43.0544 37.1698 41.4226 38.9889L41.2036 39.2331L40.9401 39.0305L39.4151 37.8584L39.148 37.6532L39.3708 37.4064C39.8602 36.8644 40.7846 35.8311 41.6465 34.8676C42.1699 34.2824 42.6703 33.7231 43.0364 33.315L38.391 30.7892V30.794L37.6055 30.378C37.0421 29.8624 35.8542 30.0466 34.9902 30.5736C35.1567 30.6821 35.3399 30.7853 35.5356 30.8896C35.6313 30.9406 35.7314 30.9925 35.8336 31.0455C36.078 31.1723 36.3344 31.3053 36.5705 31.4463C37.2527 31.8538 37.8956 32.4014 37.991 33.3513C38.1467 34.4302 37.5742 35.4877 36.5478 36.0118L36.5446 36.0134C36.4738 36.0487 36.4024 36.084 36.3306 36.1194C35.898 36.3331 35.451 36.5539 35.0462 36.8181C34.576 37.125 34.197 37.4696 33.9875 37.8867L33.9826 37.8964L33.9771 37.9057L33.3214 39.0115L33.3204 39.0132C32.82 39.8454 31.8756 40.36 30.8531 40.3625C29.8302 40.3651 28.8828 39.8531 28.3797 39.0234L28.3667 39.0021L28.3575 38.9792C27.9796 38.0483 27.308 37.2481 26.4326 36.6855L25.644 37.2486L25.6362 37.2542L25.6282 37.2592C25.042 37.6306 24.7635 38.1663 24.6364 38.7998C24.5531 39.2154 24.5376 39.6567 24.5416 40.1044L24.541 39.9669L24.5416 40.9266C24.5394 41.8341 25.0757 42.6074 25.9177 43.064L46.8253 54.4371C48.1614 55.1602 49.8357 55.0633 51.0633 54.1919L59.6868 48.0213L59.6927 48.0173L59.6987 48.0134C60.2818 47.631 60.558 47.0972 60.684 46.472C60.8008 45.8923 60.7838 45.2628 60.7664 44.6288C60.7646 44.5641 60.7627 44.4994 60.7614 44.4346L60.7568 44.2541C60.6927 43.4127 60.1865 42.6512 59.3987 42.224L52.253 38.3305C51.7946 38.8426 50.9805 39.7518 50.1336 40.6976C49.0098 41.9529 47.8282 43.2726 47.3437 43.8138L47.124 44.0591L46.8601 43.855L45.3326 42.6738L45.2087 42.578V42.428C45.2243 42.3328 45.274 42.2406 45.2784 42.235L45.284 42.2283L45.2894 42.2221L45.3018 42.208L45.3462 42.158C45.3849 42.1145 45.4423 42.0501 45.5171 41.9665C45.6665 41.7991 45.8856 41.5541 46.1645 41.2424C46.7222 40.6189 47.5189 39.7289 48.4749 38.6611C50.3869 36.5255 52.9363 33.679 55.4856 30.8328C58.035 27.9865 60.5841 25.1405 62.4965 23.0061L64.8064 20.4271L65.4541 19.7046L65.6245 19.5142L65.668 19.4654L65.6795 19.4531L65.6822 19.4499L65.6832 19.4489ZM65.6832 19.4489L65.9787 19.7046C65.7148 19.5 65.6832 19.4489 65.6832 19.4489ZM61.1022 44.4294L61.1044 44.4272L61.1072 44.4271M51.4814 46.5931H51.5332L48.9817 48.4192L48.9748 48.4242L48.968 48.4295C48.733 48.6164 48.4437 48.6023 48.0235 48.4162C47.8182 48.3253 47.6109 48.2053 47.3994 48.08C47.3805 48.0688 47.3614 48.0575 47.3422 48.0461C47.1595 47.9376 46.9674 47.8235 46.7919 47.7428C46.1584 47.417 45.3575 47.6207 44.992 48.2058C44.627 48.7903 44.8288 49.5366 45.444 49.8916C46.1791 50.3536 47.019 50.8029 47.8964 50.9769C48.7942 51.1549 49.7298 51.0432 50.611 50.3912L50.6135 50.3894L53.961 47.9937L53.9645 47.9911L53.968 47.9885C54.5291 47.5646 54.6291 46.7996 54.1861 46.264C53.7457 45.7284 52.9262 45.6189 52.3392 46.0147L51.4814 46.5931Z" stroke="#DCDDEB" stroke-width="1.5"/>
<path d="M30.1825 36.0719L30.7258 36.9865L30.7534 37.0314C30.7725 37.0626 30.8086 37.0814 30.8453 37.0814C30.8829 37.0814 30.9174 37.0635 30.9368 37.0349C31.545 35.9103 32.3554 34.6814 33.6918 34.0738L34.6865 33.5775L34.7354 33.5522C34.7689 33.535 34.79 33.5022 34.79 33.4664C34.79 33.4359 34.7731 33.4058 34.7445 33.3874C33.4032 32.8869 32.2719 32.0052 31.5161 30.8724L31.513 30.8678L31.5102 30.8631L30.9429 29.9081C30.9199 29.8793 30.8832 29.8622 30.8453 29.8622C30.8097 29.8622 30.775 29.8775 30.7516 29.9055C30.1431 31.0307 29.3385 32.2422 28.0011 32.8588L27.0463 33.3352L26.9553 33.3822C26.9232 33.3987 26.9023 33.4308 26.9023 33.4664C26.9023 33.5039 26.9233 33.5353 26.9543 33.5517L28.0043 34.0756M30.1825 36.0719V36.0719ZM30.1825 36.0719C29.6832 35.2258 28.9256 34.533 28.0043 34.0756M28.0043 34.0756V34.0756Z" stroke="#DCDDEB"/>
<path d="M19.882 33.5597L20.681 34.9251L20.7215 34.9922C20.7496 35.0387 20.8028 35.0668 20.8568 35.0668C20.912 35.0668 20.9628 35.0401 20.9912 34.9973C21.8857 33.3185 23.0773 31.4838 25.0425 30.5767L26.5051 29.8358L26.5771 29.7981C26.6263 29.7724 26.6574 29.7234 26.6574 29.67C26.6574 29.6244 26.6325 29.5795 26.5905 29.552C24.6181 28.8047 22.9545 27.4885 21.8431 25.7973L21.8386 25.7904L21.8344 25.7834L21.0002 24.3578C20.9663 24.3147 20.9124 24.2892 20.8568 24.2892C20.8043 24.2892 20.7534 24.312 20.7189 24.3539C19.8241 26.0336 18.6409 27.8423 16.6744 28.7629L15.2704 29.4741L15.1364 29.5442C15.0892 29.5689 15.0586 29.6167 15.0586 29.67C15.0586 29.7259 15.0894 29.7729 15.135 29.7973L16.679 30.5795M19.882 33.5597V33.5597ZM19.882 33.5597C19.1479 32.2965 18.0337 31.2623 16.679 30.5795M16.679 30.5795V30.5795Z" stroke="#DCDDEB" stroke-width="1.5"/>
</g>
</svg>
