<svg width="80" height="80" viewBox="0 0 80 80" fill="none" xmlns="http://www.w3.org/2000/svg">
<path d="M40 80C62.0914 80 80 62.0914 80 40C80 17.9086 62.0914 0 40 0C17.9086 0 0 17.9086 0 40C0 62.0914 17.9086 80 40 80Z" fill="#2442BE"/>
<path d="M58.1056 27.6228L46.166 20.71V16.2916C46.166 16.0761 46.076 15.8695 45.9159 15.7171C45.7557 15.5647 45.5384 15.4791 45.3119 15.4791H38.4785C38.252 15.4791 38.0347 15.5647 37.8745 15.7171C37.7143 15.8695 37.6244 16.0761 37.6244 16.2916V20.7206C36.3132 21.5634 35.2385 22.6984 34.4941 24.0268C33.7498 25.3552 33.3582 26.8365 33.3535 28.3418V30.9166L27.8868 27.0166C27.739 26.9111 27.5592 26.8542 27.3743 26.8542H16.2702C16.0436 26.8542 15.8264 26.9397 15.6662 27.0921C15.506 27.2445 15.416 27.4511 15.416 27.6666V30.9166C15.4172 31.1197 15.499 31.315 15.645 31.4633C15.791 31.6115 15.9905 31.7018 16.2036 31.7162C15.9786 33.209 15.143 34.5569 13.8785 35.4666L13.1952 35.9542C13.0518 36.0565 12.9458 36.1991 12.8924 36.3619C12.8389 36.5247 12.8407 36.6992 12.8973 36.8611C12.954 37.0228 13.0628 37.1635 13.2082 37.2633C13.3537 37.3629 13.5284 37.4166 13.7077 37.4166H14.5619C16.0824 37.414 17.5587 36.9294 18.7574 36.0395C19.956 35.1495 20.8088 33.905 21.1808 32.5026L22.6628 35.7916H22.2493C22.0228 35.7916 21.8055 35.8772 21.6454 36.0296C21.4852 36.182 21.3952 36.3886 21.3952 36.6042V39.8542C21.3952 40.0696 21.4852 40.2763 21.6454 40.4287C21.8055 40.581 22.0228 40.6666 22.2493 40.6666H23.1035V41.6936C23.1035 41.7224 23.0951 41.7506 23.0793 41.7751C23.0634 41.7997 23.0408 41.8195 23.0138 41.8326C22.5277 42.0637 22.1188 42.4191 21.833 42.8589C21.5472 43.2987 21.3958 43.8054 21.3958 44.3224C21.3958 44.8395 21.5472 45.3463 21.833 45.7861C22.1188 46.2259 22.5277 46.5813 23.0138 46.8124C23.041 46.8256 23.0638 46.8455 23.0797 46.8701C23.0957 46.8948 23.1042 46.9232 23.1044 46.9522C23.1037 47.1251 23.0562 47.295 22.9664 47.4454C22.8767 47.5959 22.7477 47.7218 22.5919 47.8109L21.4439 48.4658C20.6492 48.9224 19.9914 49.5661 19.5341 50.3347C19.0768 51.1032 18.8352 51.971 18.8327 52.8542V65.0417C18.8327 65.2571 18.9227 65.4637 19.0829 65.6161C19.2431 65.7685 19.4603 65.8542 19.6868 65.8542H34.2076C34.4342 65.8542 34.6514 65.7685 34.8116 65.6161C34.9718 65.4637 35.0619 65.2571 35.0619 65.0417V65.0205C35.7968 65.5582 36.6972 65.8512 37.6244 65.8542H61.541C62.6733 65.8529 63.7589 65.4244 64.5595 64.6628C65.36 63.9013 65.8105 62.8687 65.8119 61.7916V40.6666C65.8032 38.0477 65.0906 35.4746 63.7418 33.1915C62.393 30.9085 60.4528 28.9915 58.1056 27.6228ZM39.3327 17.1041H44.4577V20.3541H39.3327V17.1041ZM33.3535 53.6666V60.9791H20.541V53.6666H33.3535ZM35.0619 50.4166H64.1035V60.1666H35.0619V50.4166ZM33.3535 44.2944C32.7196 42.9841 31.9162 41.7543 30.9619 40.6333C31.1528 40.5984 31.3251 40.5018 31.4498 40.3597C31.5743 40.2177 31.6433 40.0391 31.6452 39.8542V36.6042C31.6452 36.3886 31.5552 36.182 31.395 36.0296C31.2348 35.8772 31.0175 35.7916 30.7911 35.7916H29.9368V34.7524L33.3535 33.6686V44.2944ZM23.1035 39.0417V37.4166H29.9368V39.0417H23.1035ZM16.2702 35.5146C17.187 34.4271 17.7607 33.1144 17.9247 31.7291H19.6125C19.4594 32.5857 19.069 33.388 18.4815 34.0534C17.894 34.7188 17.1307 35.2231 16.2702 35.5146ZM22.1844 30.5965C22.1183 30.4498 22.0082 30.3248 21.8678 30.2372C21.7274 30.1497 21.563 30.1033 21.3952 30.1042H17.1243V28.4791H27.0899L32.3909 32.2613L28.8128 33.3988C28.6431 33.4525 28.4955 33.5556 28.3908 33.6933C28.2859 33.8311 28.2292 33.9966 28.2285 34.1666V35.7916H24.5206L22.1844 30.5965ZM22.3271 49.8584L23.4759 49.2084C23.8835 48.973 24.2205 48.6418 24.4545 48.2466C24.6885 47.8515 24.8115 47.4057 24.8119 46.9522C24.8129 46.6213 24.7166 46.2968 24.5337 46.0153C24.3509 45.7339 24.0889 45.5068 23.7775 45.3597C23.575 45.2633 23.4046 45.1153 23.2856 44.9321C23.1664 44.7489 23.1034 44.5379 23.1034 44.3224C23.1034 44.1071 23.1664 43.896 23.2856 43.7128C23.4046 43.5296 23.575 43.3816 23.7775 43.2853C24.0889 43.1383 24.3509 42.9113 24.5336 42.63C24.7165 42.3487 24.8129 42.0244 24.8119 41.6936V40.6666H28.706C31.6943 43.6045 33.3615 47.5344 33.3535 51.6224V52.0417H20.6478C20.7616 51.5906 20.9683 51.1654 21.2558 50.7907C21.5432 50.416 21.9059 50.0991 22.3228 49.8584H22.3271ZM20.541 64.2291V62.6042H33.3535V64.2291H20.541ZM61.541 64.2291H37.6244C36.9448 64.2291 36.293 63.9723 35.8124 63.5152C35.3319 63.058 35.0619 62.4381 35.0619 61.7916H64.1035C64.1035 62.4381 63.8335 63.058 63.353 63.5152C62.8724 63.9723 62.2206 64.2291 61.541 64.2291ZM64.1035 48.7916H35.0619V28.3418C35.0658 27.0751 35.4026 25.8293 36.0419 24.718C36.6811 23.6068 37.6024 22.6652 38.722 21.9791H45.0727L57.2173 29.0113C59.3145 30.2345 61.048 31.9475 62.2533 33.9874C63.4585 36.0274 64.0955 38.3266 64.1035 40.6666V48.7916Z" fill="#DCDDEB"/>
<path d="M56.2357 30.8036L53.2546 28.9999C52.7252 28.68 52.1152 28.5013 51.4885 28.4824C50.8616 28.4634 50.2409 28.6049 49.6913 28.8921C49.1416 29.1793 48.6831 29.6016 48.3635 30.1149C48.044 30.6282 47.8753 31.2138 47.875 31.8103V37.4165C47.8788 38.6716 48.4027 39.8749 49.3331 40.7648L54.605 45.7796C55.0661 46.2208 55.6147 46.5706 56.2189 46.8087C56.8232 47.0467 57.471 47.1683 58.125 47.1665H61.5417C61.7683 47.1665 61.9855 47.0809 62.1457 46.9286C62.3059 46.7762 62.3959 46.5695 62.3959 46.3541V41.479C62.4018 39.3493 61.8398 37.2529 60.7625 35.386C59.6851 33.519 58.1277 31.9424 56.2357 30.8036ZM60.6875 45.5416H58.125C57.6955 45.5429 57.2699 45.4629 56.8729 45.3066C56.4761 45.1503 56.1157 44.9206 55.8128 44.6307L50.5409 39.616C49.93 39.0312 49.586 38.241 49.5834 37.4165V31.8103C49.5839 31.5051 49.6706 31.2056 49.8343 30.9431C49.998 30.6806 50.2326 30.4647 50.5138 30.3178C50.7952 30.1709 51.1127 30.0984 51.4334 30.108C51.7541 30.1175 52.0661 30.2088 52.3372 30.3721L55.3183 32.1767C56.9671 33.169 58.3245 34.5427 59.2634 36.1696C60.2024 37.7963 60.6924 39.6231 60.6875 41.479V45.5416Z" fill="#DCDDEB"/>
<path d="M41.8958 26.0416C39.5041 26.0416 37.625 28.54 37.625 31.729C37.625 34.9181 39.5041 37.4166 41.8958 37.4166C44.2874 37.4166 46.1666 34.9181 46.1666 31.729C46.1666 28.54 44.2874 26.0416 41.8958 26.0416ZM41.8958 35.7915C40.5069 35.7915 39.3333 33.931 39.3333 31.729C39.3333 29.5272 40.5069 27.6666 41.8958 27.6666C43.2847 27.6666 44.4583 29.5272 44.4583 31.729C44.4583 33.931 43.2847 35.7915 41.8958 35.7915Z" fill="#DCDDEB"/>
</svg>
