<svg width="24" height="24" viewBox="0 0 24 24" fill="none" xmlns="http://www.w3.org/2000/svg">
<mask id="mask0_131_4847" style="mask-type:luminance" maskUnits="userSpaceOnUse" x="0" y="0" width="24" height="24">
<path d="M24 12C24 5.37258 18.6274 0 12 0C5.37258 0 0 5.37258 0 12C0 18.6274 5.37258 24 12 24C18.6274 24 24 18.6274 24 12Z" fill="white"/>
</mask>
<g mask="url(#mask0_131_4847)">
<path d="M21 11.7001C21 6.06672 16.7467 1.5 11.5 1.5C6.25329 1.5 2 6.06672 2 11.7001C2 17.3334 6.25329 21.9001 11.5 21.9001C16.7467 21.9001 21 17.3334 21 11.7001Z" fill="#DCDDEB"/>
<path d="M15.5856 5.58008H13.3056C12.2977 5.58008 11.3312 6.00994 10.6186 6.77509C9.90594 7.54024 9.50559 8.57801 9.50559 9.6601V12.1081H7.22559V15.3721H9.50559V21.9002H12.5456V15.3721H14.8256L15.5856 12.1081H12.5456V9.6601C12.5456 9.44369 12.6257 9.23612 12.7682 9.08309C12.9107 8.93007 13.104 8.84409 13.3056 8.84409H15.5856V5.58008Z" fill="#0E0F11"/>
</g>
</svg>
