<svg width="15" height="21" viewBox="0 0 15 21" fill="none" xmlns="http://www.w3.org/2000/svg">
<g clip-path="url(#clip0_130_4238)">
<g clip-path="url(#clip1_130_4238)">
<path d="M8.07525 0.5C8.28997 0.533955 8.50468 0.567909 8.71452 0.606715C11.1056 1.02387 12.8966 2.30445 14.0775 4.39509C14.8729 5.80664 15.1413 7.3346 14.9315 8.94503C14.7607 10.2353 14.2727 11.3946 13.4968 12.4327C11.6863 14.8629 9.87104 17.2882 8.06061 19.7184C7.92886 19.8979 7.78734 20.0579 7.54335 20.0725C7.2652 20.087 7.0944 19.9221 6.94313 19.7184C5.96228 18.4038 4.98142 17.0942 4.00057 15.7748C3.08804 14.5476 2.14135 13.3397 1.27273 12.0834C0.165004 10.4778 -0.205865 8.68309 0.106445 6.75737C0.404117 4.92382 1.29225 3.41041 2.71717 2.22199C3.8005 1.31976 5.04974 0.766787 6.45514 0.577611C6.6113 0.558208 6.76745 0.524253 6.92361 0.5C7.30424 0.5 7.68974 0.5 8.07525 0.5ZM11.5351 7.96034C11.54 5.75328 9.72953 3.94398 7.50919 3.93913C5.28397 3.93428 3.45403 5.73873 3.45403 7.95064C3.44915 10.1577 5.25958 11.967 7.47991 11.9718C9.70513 11.9767 11.5351 10.1722 11.5351 7.96034Z" fill="#2442BE"/>
</g>
</g>
<defs>
<clipPath id="clip0_130_4238">
<rect width="15" height="21" fill="white"/>
</clipPath>
<clipPath id="clip1_130_4238">
<rect width="15" height="21" fill="white"/>
</clipPath>
</defs>
</svg>
