<svg width="800" height="800" viewBox="0 0 800 800" fill="none" xmlns="http://www.w3.org/2000/svg">
<path d="M399.968 72.0156C345.415 72.0156 301.031 116.4 301.031 170.966V223.486C281.586 226.452 266.436 243.194 266.436 263.544V400.256C266.436 422.692 284.801 440.93 307.109 440.93H492.765C515.201 440.93 533.439 422.692 533.439 400.256V263.544C533.439 243.219 518.43 226.495 498.936 223.486V170.966C498.929 116.4 454.539 72.0156 399.973 72.0156H399.968ZM327.27 170.966C327.27 130.872 359.887 98.2547 399.968 98.2547C440.062 98.2547 472.679 130.872 472.679 170.966V222.827L327.27 222.833V170.966ZM413.104 341.669V357.77C413.104 365.015 407.227 370.893 399.982 370.893C392.737 370.893 386.859 365.015 386.859 357.77V341.669C379.053 337.115 373.737 328.748 373.737 319.073C373.737 304.602 385.504 292.834 399.976 292.834C414.447 292.834 426.215 304.602 426.215 319.073C426.227 328.741 420.911 337.116 413.104 341.669Z" fill="url(#paint0_linear_317_176)"/>
<path d="M615.516 584.187C615.516 591.444 621.393 597.31 628.638 597.31C635.883 597.31 641.761 591.444 641.761 584.187C641.761 545.577 610.351 514.156 571.742 514.156L413.117 514.15V479.384C413.117 472.127 407.239 466.262 399.995 466.262C392.75 466.262 386.872 472.127 386.872 479.384L386.878 514.15H228.222C189.611 514.15 158.203 545.57 158.203 584.181C158.203 591.438 164.081 597.304 171.326 597.304C178.57 597.304 184.448 591.438 184.448 584.181C184.448 560.03 204.089 540.389 228.229 540.389H386.87V575.155C386.87 582.412 392.748 588.277 399.993 588.277C407.237 588.277 413.115 582.412 413.115 575.155L413.103 540.389H571.743C595.882 540.389 615.525 560.03 615.525 584.188L615.516 584.187Z" fill="url(#paint1_linear_317_176)"/>
<path d="M628.686 727.984C657.684 727.984 681.298 704.37 681.298 675.372C681.298 646.245 657.684 622.631 628.686 622.631C599.559 622.631 575.945 646.245 575.945 675.372C575.945 704.37 599.559 727.984 628.686 727.984Z" fill="url(#paint2_linear_317_176)"/>
<path d="M171.312 727.984C200.31 727.984 223.924 704.37 223.924 675.372C223.924 646.245 200.31 622.631 171.312 622.631C142.313 622.631 118.699 646.245 118.699 675.372C118.699 704.37 142.32 727.984 171.312 727.984Z" fill="url(#paint3_linear_317_176)"/>
<path d="M347.25 675.375C347.25 704.373 370.864 727.987 399.991 727.987C428.989 727.987 452.603 704.373 452.603 675.375C452.603 646.248 428.989 622.634 399.991 622.634C370.87 622.634 347.25 646.248 347.25 675.375Z" fill="url(#paint4_linear_317_176)"/>
<defs>
<linearGradient id="paint0_linear_317_176" x1="399.937" y1="72.0156" x2="399.937" y2="440.93" gradientUnits="userSpaceOnUse">
<stop offset="0.471173" stop-color="#01A978"/>
<stop offset="1" stop-color="#C1DCEC"/>
</linearGradient>
<linearGradient id="paint1_linear_317_176" x1="399.982" y1="466.262" x2="399.982" y2="597.31" gradientUnits="userSpaceOnUse">
<stop offset="0.471173" stop-color="#01A978"/>
<stop offset="1" stop-color="#C1DCEC"/>
</linearGradient>
<linearGradient id="paint2_linear_317_176" x1="628.622" y1="622.631" x2="628.622" y2="727.984" gradientUnits="userSpaceOnUse">
<stop offset="0.471173" stop-color="#01A978"/>
<stop offset="1" stop-color="#C1DCEC"/>
</linearGradient>
<linearGradient id="paint3_linear_317_176" x1="171.312" y1="622.631" x2="171.312" y2="727.984" gradientUnits="userSpaceOnUse">
<stop offset="0.471173" stop-color="#01A978"/>
<stop offset="1" stop-color="#C1DCEC"/>
</linearGradient>
<linearGradient id="paint4_linear_317_176" x1="399.927" y1="622.634" x2="399.927" y2="727.987" gradientUnits="userSpaceOnUse">
<stop offset="0.471173" stop-color="#01A978"/>
<stop offset="1" stop-color="#C1DCEC"/>
</linearGradient>
</defs>
</svg>
