<svg width="30" height="30" viewBox="0 0 30 30" fill="none" xmlns="http://www.w3.org/2000/svg">
<mask id="mask0_186_175" style="mask-type:luminance" maskUnits="userSpaceOnUse" x="0" y="0" width="30" height="30">
<path d="M30 0H0V30H30V0Z" fill="white"/>
</mask>
<g mask="url(#mask0_186_175)">
<path d="M14.0223 0.0242113C13.5611 0.0467538 12.612 0.177509 12.0523 0.290227C9.97937 0.714049 8.08104 1.55719 6.24538 2.86924C5.25591 3.57712 3.99333 4.77643 3.25013 5.71877C0.129516 9.67294 -0.815175 14.8986 0.72946 19.6553C1.93383 23.3706 4.65598 26.5898 8.08998 28.3527C9.74206 29.2004 11.2643 29.6693 13.2388 29.9398C13.9059 30.03 16.1669 30.0165 16.8653 29.9173C19.9412 29.4799 22.5782 28.2986 24.8123 26.3599C25.372 25.8729 26.3212 24.899 26.6793 24.4436C27.8837 22.9107 28.8015 21.2019 29.3075 19.5381C29.979 17.3288 30.1536 15.3044 29.8671 13.1131C29.5134 10.4394 28.4165 7.8965 26.6659 5.69621C24.4094 2.86022 20.7918 0.745613 17.2235 0.177509C16.2161 0.0151939 15.155 -0.0344025 14.0223 0.0242113ZM16.1758 2.73848C17.3086 2.83317 18.8845 3.25248 19.9815 3.74843C22.0812 4.6998 23.9527 6.26885 25.1974 8.13094C26.9435 10.7415 27.6419 13.7534 27.2032 16.8329C26.8987 18.988 26.0212 21.0395 24.6646 22.7619C24.2079 23.339 23.1289 24.4121 22.5424 24.872C20.3262 26.6033 17.7249 27.4961 14.8998 27.4961C12.2 27.4961 9.63014 26.5943 7.41839 24.8629C6.52298 24.1686 5.38576 22.9332 4.7455 21.9729C3.66651 20.3497 3.02179 18.6454 2.73525 16.6525C2.63675 15.9807 2.62332 14.2088 2.71286 13.564C2.96359 11.6974 3.53666 10.0923 4.4948 8.55026C4.92461 7.85592 5.09473 7.62597 5.58276 7.05337C7.70496 4.58256 10.5793 3.07213 13.8208 2.72947C14.1521 2.6934 15.7012 2.70241 16.1758 2.73848Z" fill="#2643BD"/>
<path d="M14.0223 0.0242113C13.5611 0.0467538 12.612 0.177509 12.0523 0.290227C9.97937 0.714049 8.08104 1.55719 6.24538 2.86924C5.25591 3.57712 3.99333 4.77643 3.25013 5.71877C0.129516 9.67294 -0.815175 14.8986 0.72946 19.6553C1.93383 23.3706 4.65598 26.5898 8.08998 28.3527C9.74206 29.2004 11.2643 29.6693 13.2388 29.9398C13.9059 30.03 16.1669 30.0165 16.8653 29.9173C19.9412 29.4799 22.5782 28.2986 24.8123 26.3599C25.372 25.8729 26.3212 24.899 26.6793 24.4436C27.8837 22.9107 28.8015 21.2019 29.3075 19.5381C29.979 17.3288 30.1536 15.3044 29.8671 13.1131C29.5134 10.4394 28.4165 7.8965 26.6659 5.69621C24.4094 2.86022 20.7918 0.745613 17.2235 0.177509C16.2161 0.0151939 15.155 -0.0344025 14.0223 0.0242113ZM16.1758 2.73848C17.3086 2.83317 18.8845 3.25248 19.9815 3.74843C22.0812 4.6998 23.9527 6.26885 25.1974 8.13094C26.9435 10.7415 27.6419 13.7534 27.2032 16.8329C26.8987 18.988 26.0212 21.0395 24.6646 22.7619C24.2079 23.339 23.1289 24.4121 22.5424 24.872C20.3262 26.6033 17.7249 27.4961 14.8998 27.4961C12.2 27.4961 9.63014 26.5943 7.41839 24.8629C6.52298 24.1686 5.38576 22.9332 4.7455 21.9729C3.66651 20.3497 3.02179 18.6454 2.73525 16.6525C2.63675 15.9807 2.62332 14.2088 2.71286 13.564C2.96359 11.6974 3.53666 10.0923 4.4948 8.55026C4.92461 7.85592 5.09473 7.62597 5.58276 7.05337C7.70496 4.58256 10.5793 3.07213 13.8208 2.72947C14.1521 2.6934 15.7012 2.70241 16.1758 2.73848Z" fill="#2845BF"/>
<path d="M15.0092 2.14746C22.0657 2.14746 27.7861 7.90817 27.7861 15.0143C27.7861 22.1205 22.0657 27.8812 15.0092 27.8812C7.95281 27.8812 2.23242 22.1205 2.23242 15.0143C2.23242 7.90817 7.95281 2.14746 15.0092 2.14746Z" fill="#FAFAF8" stroke="#5EAD33"/>
<path d="M9.19078 6.24239C8.98037 7.11707 8.42968 7.68068 7.61482 7.85202C7.4805 7.87907 7.37305 7.91512 7.37305 7.92865C7.37305 7.94217 7.53869 8.00081 7.74017 8.06391C8.5013 8.29386 8.94454 8.76278 9.18631 9.58788L9.2848 9.91701L9.33853 9.66454C9.36989 9.52475 9.47284 9.25422 9.57136 9.06036C9.84893 8.50128 10.2429 8.19467 10.928 8.01883C11.2592 7.93318 11.2548 7.91965 10.8877 7.83849C10.5519 7.76183 10.1176 7.53189 9.88476 7.29744C9.63852 7.05397 9.49078 6.76992 9.36539 6.28747L9.2669 5.92676L9.19078 6.24239Z" fill="#5BA931"/>
<path d="M7.89717 11.2513C7.83002 11.3144 7.87478 11.346 8.08075 11.373C8.31355 11.4046 8.46577 11.4903 8.53742 11.63C8.60458 11.7517 8.60008 15.9133 8.53293 16.0621C8.47027 16.1929 8.34938 16.2605 8.09418 16.3056C7.98223 16.3236 7.88821 16.3642 7.87478 16.3958C7.85241 16.4679 10.7044 16.4724 11.0536 16.4003C11.4118 16.3236 11.6715 16.1839 11.9222 15.9314C12.1863 15.6699 12.2983 15.3903 12.2983 15.0026C12.2983 14.3713 11.9848 13.9836 11.2909 13.7627C10.9999 13.668 10.9864 13.659 11.0894 13.6184C11.7699 13.3523 12.0296 13.0412 12.0296 12.4822C12.0296 12.0268 11.8013 11.6616 11.3849 11.4542C10.9954 11.2558 10.6686 11.2197 9.2493 11.2197C8.51949 11.2197 7.91061 11.2333 7.89717 11.2513ZM10.6641 11.6165C11.0178 11.7968 11.179 12.0809 11.179 12.5363C11.179 13.2261 10.7223 13.5598 9.78206 13.5643H9.43284V12.5498V11.5353L9.53583 11.5128C9.88059 11.4361 10.4089 11.4857 10.6641 11.6165ZM10.6731 13.9656C10.9506 14.0873 11.2327 14.3803 11.3178 14.6283C11.3491 14.723 11.376 14.9484 11.376 15.1243C11.376 15.5571 11.2237 15.8232 10.8656 16.0216C10.6462 16.1388 10.5701 16.1568 10.1492 16.1703C9.88059 16.1793 9.62539 16.1658 9.55823 16.1388L9.43284 16.0892V14.9575V13.8213L9.93878 13.8438C10.3328 13.8618 10.4895 13.8889 10.6731 13.9656Z" fill="#1F3CBA"/>
<path d="M12.6877 11.2513C12.6206 11.3144 12.6653 11.3505 12.8489 11.3775C12.9519 11.3911 13.0907 11.4271 13.1533 11.4497C13.3906 11.5399 13.3951 11.5804 13.4085 13.6995C13.4175 14.7771 13.4085 15.7465 13.3951 15.8547C13.3548 16.1298 13.2205 16.265 12.9519 16.3056C12.831 16.3236 12.7235 16.3642 12.7101 16.3958C12.6967 16.4409 13.1041 16.4499 14.698 16.4409L16.7038 16.4273L16.8739 15.8412C17.0351 15.2956 17.053 15.1423 16.9679 15.1423C16.9456 15.1423 16.8829 15.2325 16.8247 15.3452C16.6724 15.6338 16.3949 15.9404 16.1755 16.0576C16.0143 16.1433 15.9068 16.1568 15.2173 16.1703C14.792 16.1794 14.3936 16.1748 14.3309 16.1613L14.2234 16.1343L14.2324 14.9981L14.2458 13.8664L14.3577 13.8529C14.4204 13.8438 14.7517 13.8529 15.0965 13.8664L15.7233 13.8934L15.8621 14.0332C15.9695 14.1414 16.0098 14.2316 16.0367 14.4074C16.0591 14.5968 16.0814 14.6328 16.1441 14.6148C16.2203 14.5968 16.2247 14.5156 16.2337 13.695C16.2426 12.8339 16.2381 12.7978 16.1576 12.7978C16.0859 12.7978 16.0635 12.8429 16.0411 13.0232C16.0188 13.181 15.9695 13.2937 15.88 13.3975L15.7546 13.5417L14.989 13.5553L14.2234 13.5688V12.5273V11.4812L15.0875 11.4993C15.8755 11.5128 15.9651 11.5218 16.1352 11.6165C16.3322 11.7202 16.4665 11.9231 16.5292 12.1981C16.5471 12.2883 16.5874 12.3469 16.6277 12.3469C16.6904 12.3469 16.6948 12.2838 16.6724 11.86C16.659 11.594 16.6321 11.3415 16.6187 11.2964C16.5874 11.2242 16.4531 11.2197 14.6532 11.2197C13.5877 11.2197 12.7012 11.2333 12.6877 11.2513Z" fill="#1F3CBA"/>
<path d="M17.523 11.2513C17.4513 11.3189 17.5051 11.355 17.7245 11.382C18.0244 11.4226 18.1901 11.5759 18.2304 11.8555C18.2438 11.9637 18.2528 12.9376 18.2438 14.0151C18.2349 15.4985 18.2169 15.999 18.1722 16.0757C18.1006 16.2019 17.9841 16.265 17.7513 16.3056C17.6483 16.3236 17.5588 16.3642 17.5454 16.3958C17.5319 16.4363 17.9752 16.4499 19.6094 16.4499H21.6868L21.9062 15.8006C22.1211 15.1513 22.139 14.953 21.9554 15.21C21.6554 15.6248 21.3868 15.8953 21.1406 16.0216C20.8854 16.1523 20.863 16.1568 20.1019 16.1703C19.6721 16.1793 19.2736 16.1748 19.2109 16.1613L19.099 16.1298L19.1124 13.8754L19.1258 11.6165L19.2288 11.5308C19.287 11.4857 19.4079 11.4361 19.4974 11.4226C19.7526 11.382 19.878 11.3369 19.9004 11.2738C19.9138 11.2333 19.6586 11.2197 18.7363 11.2197C18.0826 11.2197 17.5364 11.2333 17.523 11.2513Z" fill="#1F3CBA"/>
<path d="M5.77432 19.6557C5.67547 19.6557 5.58628 19.6438 5.50677 19.62C5.4294 19.5962 5.36171 19.568 5.30368 19.5356C5.24566 19.5031 5.19623 19.4696 5.1554 19.4349C5.11671 19.3981 5.0877 19.3668 5.06836 19.3408L5.23599 19.1785C5.24243 19.1936 5.25855 19.2163 5.28434 19.2466C5.31228 19.2769 5.34881 19.3072 5.39394 19.3375C5.43907 19.3678 5.4928 19.3949 5.55512 19.4187C5.61959 19.4403 5.69266 19.4512 5.77432 19.4512C5.83235 19.4512 5.88715 19.4425 5.93873 19.4252C5.99245 19.4079 6.03866 19.383 6.07734 19.3505C6.11602 19.3159 6.14611 19.2737 6.1676 19.2239C6.19124 19.172 6.20306 19.1125 6.20306 19.0454C6.20306 18.9523 6.17727 18.8776 6.1257 18.8214C6.07412 18.7629 6.00965 18.7121 5.93228 18.6688C5.85491 18.6255 5.7711 18.5855 5.68084 18.5487C5.59058 18.5097 5.50677 18.4643 5.4294 18.4123C5.35203 18.3582 5.28756 18.2922 5.23599 18.2143C5.18441 18.1342 5.15862 18.0314 5.15862 17.9059C5.15862 17.815 5.17581 17.736 5.2102 17.6689C5.24673 17.5997 5.29401 17.5423 5.35203 17.4969C5.41221 17.4514 5.4799 17.4179 5.55512 17.3962C5.63249 17.3724 5.712 17.3605 5.79367 17.3605C5.87748 17.3605 5.95162 17.3692 6.01609 17.3865C6.08271 17.4017 6.13966 17.4211 6.18694 17.4449C6.23637 17.4666 6.2772 17.4904 6.30944 17.5164C6.34168 17.5402 6.36639 17.5607 6.38358 17.578L6.20951 17.7306C6.19876 17.7198 6.18265 17.7046 6.16115 17.6852C6.13966 17.6657 6.11173 17.6473 6.07734 17.63C6.04511 17.6105 6.00642 17.5943 5.96129 17.5813C5.91616 17.5661 5.86566 17.5586 5.80978 17.5586C5.76465 17.5586 5.71845 17.564 5.67117 17.5748C5.62604 17.5856 5.58521 17.6029 5.54867 17.6267C5.51214 17.6505 5.48205 17.6819 5.45841 17.7209C5.43477 17.7577 5.42295 17.802 5.42295 17.854C5.42295 17.9405 5.44982 18.0098 5.50354 18.0617C5.55727 18.1137 5.62389 18.1602 5.70341 18.2013C5.78292 18.2403 5.86996 18.2792 5.96452 18.3182C6.05907 18.355 6.14611 18.4015 6.22563 18.4578C6.30514 18.5119 6.37176 18.5811 6.42549 18.6656C6.47922 18.7478 6.50608 18.8549 6.50608 18.9869C6.50608 19.0735 6.49104 19.1568 6.46095 19.2369C6.43086 19.317 6.38466 19.3884 6.32233 19.4512C6.26216 19.5118 6.18587 19.5615 6.09346 19.6005C6.0032 19.6373 5.89682 19.6557 5.77432 19.6557ZM6.90325 18.1981H7.19015V19.6135H6.90325V18.1981ZM7.04509 17.8962C6.99351 17.8962 6.94946 17.8778 6.91292 17.841C6.8785 17.8042 6.86131 17.7609 6.86131 17.7111C6.86131 17.6592 6.8785 17.6148 6.91292 17.578C6.94946 17.5412 6.99244 17.5229 7.04183 17.5229C7.09344 17.5229 7.1375 17.5412 7.17403 17.578C7.21057 17.6148 7.22883 17.6592 7.22883 17.7111C7.22883 17.7609 7.21057 17.8042 7.17403 17.841C7.1375 17.8778 7.09452 17.8962 7.04509 17.8962ZM7.70236 18.1981H7.9893V19.6135H7.70236V18.1981ZM7.8442 17.8962C7.79266 17.8962 7.7486 17.8778 7.71204 17.841C7.67765 17.8042 7.66046 17.7609 7.66046 17.7111C7.66046 17.6592 7.67765 17.6148 7.71204 17.578C7.7486 17.5412 7.79158 17.5229 7.84098 17.5229C7.89259 17.5229 7.93665 17.5412 7.97318 17.578C8.00971 17.6148 8.02798 17.6592 8.02798 17.7111C8.02798 17.7609 8.00971 17.8042 7.97318 17.841C7.93665 17.8778 7.89366 17.8962 7.8442 17.8962ZM8.25978 18.1981H8.59503L9.00765 19.2499H9.0141L9.45895 18.1981H9.69427L9.06245 19.6135H8.87226L8.25978 18.1981ZM10.5708 19.6557C10.4698 19.6557 10.3752 19.6384 10.2871 19.6037C10.199 19.5669 10.1216 19.5161 10.055 19.4512C9.99054 19.3862 9.93896 19.3083 9.90028 19.2174C9.86375 19.1244 9.84548 19.0205 9.84548 18.9058C9.84548 18.7932 9.86375 18.6915 9.90028 18.6006C9.93896 18.5076 9.99054 18.4286 10.055 18.3636C10.1216 18.2966 10.199 18.2457 10.2871 18.2111C10.3752 18.1743 10.4698 18.1559 10.5708 18.1559C10.6739 18.1559 10.7696 18.1732 10.8577 18.2078C10.9479 18.2424 11.0253 18.2922 11.0898 18.3572C11.1564 18.4221 11.208 18.5011 11.2445 18.5941C11.2832 18.6872 11.3025 18.7911 11.3025 18.9058C11.3025 19.0205 11.2832 19.1244 11.2445 19.2174C11.2058 19.3083 11.1532 19.3862 11.0866 19.4512C11.0221 19.5161 10.9447 19.5669 10.8545 19.6037C10.7663 19.6384 10.6718 19.6557 10.5708 19.6557ZM10.5708 19.4771C10.6288 19.4771 10.6836 19.4652 10.7352 19.4414C10.7889 19.4154 10.8351 19.3787 10.8738 19.331C10.9146 19.2813 10.9458 19.2207 10.9673 19.1492C10.9909 19.0778 11.0027 18.9967 11.0027 18.9058C11.0027 18.8279 10.992 18.7543 10.9705 18.685C10.9512 18.6158 10.9222 18.5552 10.8835 18.5032C10.8448 18.4513 10.7986 18.4102 10.7449 18.3799C10.6933 18.3496 10.6353 18.3344 10.5708 18.3344C10.5042 18.3344 10.444 18.3485 10.3903 18.3766C10.3387 18.4048 10.2946 18.4437 10.2581 18.4935C10.2216 18.5433 10.1936 18.6039 10.1743 18.6753C10.1549 18.7445 10.1453 18.8214 10.1453 18.9058C10.1453 18.9902 10.156 19.0681 10.1775 19.1395C10.199 19.2088 10.2291 19.2694 10.2678 19.3213C10.3065 19.3711 10.3516 19.41 10.4032 19.4382C10.4547 19.4641 10.5106 19.4771 10.5708 19.4771ZM12.1473 19.6557C12.0935 19.6557 12.0366 19.6481 11.9764 19.6329C11.9184 19.62 11.8636 19.5951 11.812 19.5583C11.7626 19.5215 11.7217 19.4696 11.6895 19.4025C11.6573 19.3354 11.6412 19.2499 11.6412 19.146V18.1981H11.9345V19.1103C11.9345 19.2293 11.9571 19.3148 12.0022 19.3668C12.0495 19.4187 12.1279 19.4447 12.2375 19.4447C12.3278 19.4447 12.4094 19.4209 12.4825 19.3732C12.5577 19.3256 12.6082 19.2683 12.634 19.2012V18.1981H12.9241V19.6135H12.6437L12.6372 19.4154H12.6308C12.5792 19.4825 12.5126 19.5399 12.4309 19.5875C12.3493 19.6329 12.2547 19.6557 12.1473 19.6557ZM13.7788 19.6557C13.6369 19.6557 13.523 19.6329 13.4371 19.5875C13.3511 19.5399 13.2855 19.4869 13.2404 19.4284L13.3823 19.2888C13.4059 19.3321 13.45 19.3743 13.5144 19.4154C13.581 19.4544 13.6627 19.4739 13.7594 19.4739C13.7917 19.4739 13.8239 19.4706 13.8561 19.4641C13.8884 19.4555 13.9174 19.4425 13.9432 19.4252C13.9689 19.4079 13.9894 19.3862 14.0044 19.3603C14.0195 19.3321 14.027 19.2975 14.027 19.2564C14.027 19.1979 14.0087 19.1514 13.9722 19.1168C13.9378 19.0822 13.8937 19.0519 13.84 19.0259C13.7863 18.9978 13.7283 18.9729 13.6659 18.9512C13.6058 18.9274 13.5488 18.8993 13.4951 18.8668C13.4414 18.8322 13.3962 18.79 13.3597 18.7402C13.3253 18.6883 13.3081 18.6212 13.3081 18.5389C13.3081 18.4675 13.3232 18.408 13.3532 18.3604C13.3833 18.3106 13.4209 18.2706 13.4661 18.2403C13.5112 18.21 13.5606 18.1883 13.6144 18.1754C13.6702 18.1624 13.724 18.1559 13.7755 18.1559C13.8894 18.1559 13.9818 18.171 14.0528 18.2013C14.1258 18.2295 14.1839 18.2652 14.2268 18.3085L14.0786 18.4448C14.0571 18.4123 14.0227 18.3842 13.9754 18.3604C13.9281 18.3366 13.869 18.3247 13.7981 18.3247C13.7358 18.3247 13.681 18.3388 13.6337 18.3669C13.5864 18.3929 13.5628 18.434 13.5628 18.4902C13.5628 18.5422 13.581 18.5833 13.6176 18.6136C13.6541 18.6439 13.6992 18.671 13.753 18.6948C13.8067 18.7186 13.8658 18.7424 13.9303 18.7662C13.9947 18.79 14.0538 18.8192 14.1076 18.8538C14.1613 18.8885 14.2064 18.9328 14.243 18.9869C14.2795 19.041 14.2978 19.1114 14.2978 19.1979C14.2978 19.2802 14.2816 19.3505 14.2494 19.409C14.2193 19.4674 14.1796 19.515 14.1301 19.5518C14.0807 19.5886 14.0248 19.6146 13.9625 19.6297C13.9002 19.647 13.8389 19.6557 13.7788 19.6557ZM14.6218 18.1981H14.9087L14.9055 18.3766H14.9119C14.9527 18.316 15.014 18.2641 15.0957 18.2208C15.1795 18.1775 15.274 18.1559 15.3793 18.1559C15.4782 18.1559 15.5674 18.1732 15.6469 18.2078C15.7286 18.2424 15.7973 18.2922 15.8532 18.3572C15.9112 18.4199 15.9553 18.4978 15.9854 18.5909C16.0176 18.6818 16.0337 18.7835 16.0337 18.896C16.0337 19.0021 16.0165 19.1016 15.9821 19.1947C15.9499 19.2856 15.9037 19.3657 15.8435 19.4349C15.7855 19.502 15.7157 19.5561 15.634 19.5972C15.5523 19.6362 15.4642 19.6557 15.3697 19.6557C15.2794 19.6557 15.1924 19.6373 15.1086 19.6005C15.0269 19.5637 14.9624 19.515 14.9151 19.4544H14.9087V20.2887H14.6218V18.1981ZM15.302 19.4609C15.4266 19.4609 15.5298 19.4144 15.6114 19.3213C15.6931 19.2282 15.7339 19.0854 15.7339 18.8928C15.7339 18.7218 15.6985 18.5866 15.6276 18.487C15.5566 18.3853 15.4535 18.3344 15.3181 18.3344C15.2665 18.3344 15.2182 18.342 15.173 18.3572C15.13 18.3723 15.0903 18.3929 15.0538 18.4188C15.0194 18.4426 14.9893 18.4697 14.9635 18.5C14.9399 18.5303 14.9216 18.5595 14.9087 18.5876V19.2401C14.9517 19.3094 15.0075 19.3635 15.0763 19.4025C15.1451 19.4414 15.2203 19.4609 15.302 19.4609ZM16.7839 19.6557C16.7151 19.6557 16.6507 19.6459 16.5905 19.6265C16.5303 19.607 16.4787 19.5778 16.4358 19.5388C16.3928 19.4999 16.3584 19.4512 16.3326 19.3927C16.309 19.3343 16.2971 19.2672 16.2971 19.1915C16.2971 19.0659 16.3444 18.962 16.439 18.8798C16.5335 18.7976 16.6786 18.7532 16.8742 18.7467L17.2417 18.7337V18.685C17.2417 18.5617 17.2169 18.4719 17.1675 18.4156C17.1181 18.3593 17.0343 18.3312 16.9161 18.3312C16.8344 18.3312 16.7689 18.3496 16.7194 18.3864C16.67 18.4232 16.6335 18.4664 16.6098 18.5162L16.4293 18.3864C16.4787 18.3171 16.5432 18.2619 16.6227 18.2208C16.7022 18.1775 16.8108 18.1559 16.9483 18.1559C17.1353 18.1559 17.2782 18.2002 17.3771 18.289C17.4781 18.3755 17.5286 18.5076 17.5286 18.685V19.6135H17.2513L17.2449 19.4154H17.2384C17.1955 19.4739 17.1353 19.5291 17.0579 19.581C16.9827 19.6308 16.8914 19.6557 16.7839 19.6557ZM16.8387 19.4577C16.8946 19.4577 16.944 19.4501 16.987 19.4349C17.0321 19.4198 17.0708 19.4003 17.103 19.3765C17.1374 19.3527 17.1654 19.3267 17.1869 19.2986C17.2105 19.2683 17.2288 19.238 17.2417 19.2077V18.8993L16.958 18.9123C16.8462 18.9188 16.756 18.9415 16.6872 18.9804C16.6206 19.0194 16.5873 19.0876 16.5873 19.185C16.5873 19.265 16.6088 19.331 16.6517 19.383C16.6947 19.4328 16.757 19.4577 16.8387 19.4577ZM17.9578 19.6135V17.3086H18.2351V19.6135H17.9578ZM18.4751 18.1981H18.8103L19.223 19.2499H19.2294L19.6743 18.1981H19.9096L19.2778 19.6135H19.0876L18.4751 18.1981ZM20.7894 19.6557C20.6797 19.6557 20.5798 19.6373 20.4896 19.6005C20.4014 19.5615 20.3252 19.5085 20.2607 19.4414C20.1984 19.3743 20.1489 19.2943 20.1124 19.2012C20.078 19.1081 20.0608 19.0075 20.0608 18.8993C20.0608 18.7846 20.0791 18.6818 20.1156 18.5909C20.1522 18.4978 20.2016 18.4199 20.2639 18.3572C20.3284 18.2922 20.4025 18.2424 20.4863 18.2078C20.5723 18.1732 20.6626 18.1559 20.7571 18.1559C20.8689 18.1559 20.9656 18.1743 21.0472 18.2111C21.1311 18.2479 21.1998 18.2987 21.2535 18.3636C21.3094 18.4286 21.3513 18.5043 21.3793 18.5909C21.4072 18.6775 21.4212 18.7705 21.4212 18.8701V18.9317H20.3703C20.3703 19.0097 20.38 19.0822 20.3993 19.1492C20.4208 19.2142 20.4498 19.2704 20.4863 19.3181C20.5229 19.3657 20.5659 19.4025 20.6153 19.4284C20.6669 19.4544 20.7238 19.4674 20.7861 19.4674C20.8592 19.4674 20.9204 19.4587 20.9699 19.4414C21.0193 19.4219 21.0591 19.4003 21.0891 19.3765C21.1214 19.3527 21.145 19.3289 21.1601 19.3051C21.1751 19.2813 21.1848 19.264 21.1891 19.2531L21.3599 19.3635C21.3513 19.3808 21.3341 19.4057 21.3083 19.4382C21.2826 19.4706 21.2471 19.5031 21.202 19.5356C21.1568 19.568 21.0999 19.5962 21.0311 19.62C20.9623 19.6438 20.8818 19.6557 20.7894 19.6557ZM21.1311 18.7467C21.1311 18.6904 21.1235 18.6374 21.1085 18.5876C21.0934 18.5379 21.0698 18.4946 21.0376 18.4578C21.0075 18.4188 20.9688 18.3885 20.9215 18.3669C20.8742 18.3452 20.8194 18.3344 20.7571 18.3344C20.7012 18.3344 20.6507 18.3463 20.6056 18.3701C20.5626 18.3939 20.525 18.4253 20.4928 18.4643C20.4605 18.5011 20.4348 18.5444 20.4154 18.5941C20.3982 18.6439 20.3864 18.6948 20.38 18.7467H21.1311ZM21.775 19.6135V17.3086H22.0523V19.6135H21.775ZM22.9886 19.6557C22.9349 19.6557 22.8779 19.6481 22.8178 19.6329C22.7597 19.62 22.7049 19.5951 22.6534 19.5583C22.6039 19.5215 22.5631 19.4696 22.5309 19.4025C22.4986 19.3354 22.4825 19.2499 22.4825 19.146V18.1981H22.7759V19.1103C22.7759 19.2293 22.7984 19.3148 22.8435 19.3668C22.8908 19.4187 22.9693 19.4447 23.0789 19.4447C23.1691 19.4447 23.2508 19.4209 23.3239 19.3732C23.3991 19.3256 23.4496 19.2683 23.4754 19.2012V18.1981H23.7655V19.6135H23.485L23.4786 19.4154H23.4721C23.4206 19.4825 23.3539 19.5399 23.2723 19.5875C23.1906 19.6329 23.0961 19.6557 22.9886 19.6557ZM24.7297 19.6557C24.648 19.6557 24.5803 19.6459 24.5266 19.6265C24.4729 19.607 24.4288 19.5745 24.3944 19.5291C24.36 19.4836 24.3353 19.4241 24.3203 19.3505C24.3074 19.2769 24.3009 19.186 24.3009 19.0778V18.3799H24.0624V18.1981H24.3009V17.9481L24.5911 17.789V18.1981H25.0005V18.3799H24.5911V19.1428C24.5911 19.264 24.6029 19.3473 24.6265 19.3927C24.6523 19.4382 24.6996 19.4609 24.7684 19.4609C24.8156 19.4609 24.8554 19.4555 24.8876 19.4447C24.9199 19.4338 24.9381 19.4263 24.9424 19.4219L24.9876 19.6167C24.9768 19.621 24.9467 19.6286 24.8973 19.6394C24.8479 19.6503 24.792 19.6557 24.7297 19.6557Z" fill="#59A32E"/>
</g>
</svg>
