<svg width="84" height="84" viewBox="0 0 84 84" fill="none" xmlns="http://www.w3.org/2000/svg">
<mask id="mask0_130_4190" style="mask-type:luminance" maskUnits="userSpaceOnUse" x="0" y="0" width="84" height="84">
<path d="M84 0H0V83.691H84V0Z" fill="white"/>
</mask>
<g mask="url(#mask0_130_4190)">
<path d="M39.2616 0.067645C37.9704 0.130532 35.3127 0.495299 33.7457 0.809749C27.9414 1.99209 22.6261 4.3442 17.4863 8.00442C14.7158 9.9792 11.1806 13.3249 9.09957 15.9538C0.361865 26.9847 -2.28327 41.5628 2.04171 54.8326C5.41394 65.197 13.036 74.1777 22.6511 79.0957C27.277 81.4604 31.5394 82.7686 37.0678 83.5233C38.9356 83.7748 45.2665 83.737 47.2221 83.4604C55.8344 82.2403 63.2182 78.9448 69.4737 73.5362C71.0408 72.1778 73.6985 69.4609 74.7013 68.1905C78.0736 63.914 80.6435 59.1469 82.0601 54.5056C83.9405 48.3423 84.4294 42.6948 83.6271 36.5819C82.6367 29.123 79.5654 22.029 74.6637 15.8908C68.3455 7.97926 58.2163 2.08014 48.2249 0.495299C45.4043 0.0424892 42.4332 -0.0958701 39.2616 0.067645ZM45.2915 7.63965C48.4632 7.90379 52.8759 9.07355 55.9473 10.4571C61.8267 13.1111 67.0668 17.4883 70.5519 22.683C75.441 29.9657 77.3966 38.3679 76.1681 46.9588C75.3157 52.9711 72.8585 58.6941 69.06 63.4989C67.7814 65.109 64.7602 68.1025 63.1179 69.3855C56.9125 74.2155 49.629 76.7059 41.7187 76.7059C34.1594 76.7059 26.9636 74.1903 20.7707 69.3603C18.2636 67.4233 15.0793 63.9769 13.2866 61.2978C10.2654 56.7697 8.46023 52.0152 7.65792 46.4556C7.38211 44.5815 7.34451 39.6383 7.59523 37.8396C8.29726 32.6323 9.90187 28.1545 12.5847 23.8528C13.7881 21.9158 14.2645 21.2743 15.631 19.6769C21.5731 12.7841 29.6213 8.57043 38.6975 7.6145C39.6252 7.51387 43.9627 7.53902 45.2915 7.63965Z" fill="#2643BD"/>
<path d="M39.2616 0.067645C37.9704 0.130532 35.3127 0.495299 33.7457 0.809749C27.9414 1.99209 22.6261 4.3442 17.4863 8.00442C14.7158 9.9792 11.1806 13.3249 9.09957 15.9538C0.361865 26.9847 -2.28327 41.5628 2.04171 54.8326C5.41394 65.197 13.036 74.1777 22.6511 79.0957C27.277 81.4604 31.5394 82.7686 37.0678 83.5233C38.9356 83.7748 45.2665 83.737 47.2221 83.4604C55.8344 82.2403 63.2182 78.9448 69.4737 73.5362C71.0408 72.1778 73.6985 69.4609 74.7013 68.1905C78.0736 63.914 80.6435 59.1469 82.0601 54.5056C83.9405 48.3423 84.4294 42.6948 83.6271 36.5819C82.6367 29.123 79.5654 22.029 74.6637 15.8908C68.3455 7.97926 58.2163 2.08014 48.2249 0.495299C45.4043 0.0424892 42.4332 -0.0958701 39.2616 0.067645ZM45.2915 7.63965C48.4632 7.90379 52.8759 9.07355 55.9473 10.4571C61.8267 13.1111 67.0668 17.4883 70.5519 22.683C75.441 29.9657 77.3966 38.3679 76.1681 46.9588C75.3157 52.9711 72.8585 58.6941 69.06 63.4989C67.7814 65.109 64.7602 68.1025 63.1179 69.3855C56.9125 74.2155 49.629 76.7059 41.7187 76.7059C34.1594 76.7059 26.9636 74.1903 20.7707 69.3603C18.2636 67.4233 15.0793 63.9769 13.2866 61.2978C10.2654 56.7697 8.46023 52.0152 7.65792 46.4556C7.38211 44.5815 7.34451 39.6383 7.59523 37.8396C8.29726 32.6323 9.90187 28.1545 12.5847 23.8528C13.7881 21.9158 14.2645 21.2743 15.631 19.6769C21.5731 12.7841 29.6213 8.57043 38.6975 7.6145C39.6252 7.51387 43.9627 7.53902 45.2915 7.63965Z" fill="#2845BF"/>
<path d="M42.028 5.99023C61.786 5.99023 77.8031 22.0609 77.8031 41.885C77.8031 61.709 61.786 77.7797 42.028 77.7797C22.27 77.7797 6.25293 61.709 6.25293 41.885C6.25293 22.0609 22.27 5.99023 42.028 5.99023Z" fill="#FAFAF8" stroke="#5EAD33" stroke-width="3"/>
<path d="M25.7352 17.4128C25.146 19.8528 23.6041 21.4251 21.3225 21.9031C20.9464 21.9786 20.6455 22.0792 20.6455 22.1169C20.6455 22.1546 21.1093 22.3182 21.6734 22.4942C23.8046 23.1357 25.0457 24.4439 25.7227 26.7457L25.9984 27.6638L26.1489 26.9595C26.2367 26.5695 26.5249 25.8149 26.8008 25.274C27.578 23.7144 28.6812 22.859 30.5993 22.3685C31.5269 22.1295 31.5144 22.0918 30.4864 21.8654C29.5462 21.6515 28.3301 21.0101 27.6783 20.356C26.9888 19.6768 26.5751 18.8844 26.2241 17.5385L25.9483 16.5322L25.7352 17.4128Z" fill="#5BA931"/>
<path d="M22.1115 31.3868C21.9235 31.563 22.0488 31.651 22.6255 31.7265C23.2774 31.8145 23.7036 32.0535 23.9042 32.4434C24.0922 32.783 24.0796 44.3926 23.8916 44.8077C23.7162 45.1724 23.3777 45.3611 22.6631 45.4869C22.3497 45.5372 22.0864 45.6504 22.0488 45.7384C21.9862 45.9397 29.9717 45.9523 30.9495 45.7511C31.9524 45.5372 32.6795 45.1473 33.3815 44.4429C34.1211 43.7134 34.4346 42.9335 34.4346 41.8518C34.4346 40.0909 33.557 39.0092 31.6139 38.3929C30.7991 38.1287 30.7615 38.1035 31.0498 37.9903C32.9553 37.2482 33.6824 36.3803 33.6824 34.8207C33.6824 33.5502 33.0431 32.5314 31.8772 31.9529C30.7866 31.3994 29.8714 31.2988 25.8975 31.2988C23.854 31.2988 22.1491 31.3366 22.1115 31.3868ZM29.8589 32.4057C30.8492 32.9088 31.3005 33.7012 31.3005 34.9716C31.3005 36.896 30.0218 37.8269 27.3892 37.8394H26.4114V35.0093V32.1793L26.6997 32.1163C27.6651 31.9026 29.1443 32.0409 29.8589 32.4057ZM29.884 38.9589C30.6611 39.2985 31.4509 40.116 31.6892 40.8079C31.7769 41.072 31.8521 41.7008 31.8521 42.1914C31.8521 43.3989 31.4259 44.141 30.423 44.6945C29.8087 45.0215 29.5956 45.0718 28.4172 45.1096C27.6651 45.1347 26.9505 45.0969 26.7625 45.0215L26.4114 44.8832V41.726V38.5564L27.828 38.6193C28.9311 38.6696 29.3699 38.745 29.884 38.9589Z" fill="#1F3CBA"/>
<path d="M35.5251 31.3868C35.337 31.563 35.4624 31.6636 35.9764 31.7391C36.2647 31.7768 36.6533 31.8774 36.8288 31.9403C37.4932 32.1919 37.5057 32.3051 37.5433 38.2167C37.5684 41.2229 37.5433 43.9273 37.5057 44.2291C37.3929 44.9964 37.0168 45.3737 36.2647 45.4869C35.9262 45.5372 35.6253 45.6504 35.5877 45.7385C35.5501 45.8643 36.6909 45.8894 41.1538 45.8643L46.77 45.8265L47.2463 44.1914C47.6976 42.6694 47.7478 42.2418 47.5096 42.2418C47.447 42.2418 47.2714 42.4934 47.1085 42.8078C46.6822 43.6127 45.905 44.4681 45.2907 44.7952C44.8394 45.0341 44.5385 45.0718 42.608 45.1096C41.417 45.1348 40.3014 45.1221 40.1258 45.0844L39.825 45.0089L39.8501 41.8392L39.8877 38.6822L40.201 38.6445C40.3766 38.6193 41.3042 38.6445 42.2695 38.6822L44.0246 38.7577L44.4132 39.1476C44.7141 39.4494 44.8269 39.701 44.9021 40.1916C44.9648 40.7198 45.0274 40.8204 45.203 40.7701C45.4161 40.7198 45.4286 40.4934 45.4537 38.2042C45.4787 35.8018 45.4662 35.7012 45.2406 35.7012C45.04 35.7012 44.9773 35.8269 44.9146 36.33C44.852 36.7703 44.7141 37.0847 44.4633 37.374L44.1123 37.7766L41.9686 37.8143L39.825 37.852V34.9465V32.0283L42.2444 32.0787C44.4508 32.1164 44.7016 32.1415 45.1779 32.4057C45.7295 32.695 46.1056 33.261 46.2811 34.0282C46.3312 34.2798 46.4441 34.4433 46.5569 34.4433C46.7324 34.4433 46.7449 34.2673 46.6822 33.0849C46.6446 32.3428 46.5694 31.6384 46.5318 31.5127C46.4441 31.3114 46.068 31.2988 41.0284 31.2988C38.0449 31.2988 35.5627 31.3366 35.5251 31.3868Z" fill="#1F3CBA"/>
<path d="M49.064 31.3868C48.8634 31.5755 49.0138 31.6762 49.6281 31.7516C50.468 31.8648 50.9318 32.2925 51.0447 33.0723C51.0823 33.3742 51.1074 36.0911 51.0823 39.0972C51.0573 43.2354 51.007 44.6316 50.8817 44.8454C50.6812 45.1976 50.3552 45.3737 49.7033 45.4869C49.415 45.5372 49.1642 45.6504 49.1266 45.7384C49.089 45.8516 50.3301 45.8894 54.9058 45.8894H60.7226L61.3369 44.0781C61.9386 42.2669 61.9887 41.7135 61.4748 42.4304C60.6348 43.5876 59.8827 44.3422 59.1932 44.6945C58.4786 45.0592 58.4159 45.0718 56.2848 45.1096C55.0814 45.1347 53.9656 45.1221 53.7901 45.0844L53.4767 44.9964L53.5143 38.7073L53.5519 32.4057L53.8403 32.1667C54.0032 32.0409 54.3417 31.9026 54.5925 31.8648C55.307 31.7516 55.658 31.6258 55.7207 31.4498C55.7583 31.3366 55.0438 31.2988 52.4613 31.2988C50.631 31.2988 49.1016 31.3366 49.064 31.3868Z" fill="#1F3CBA"/>
<path d="M16.1681 54.8323C15.8913 54.8323 15.6416 54.7991 15.4189 54.7327C15.2023 54.6663 15.0128 54.5878 14.8503 54.4972C14.6878 54.4067 14.5494 54.3131 14.4351 54.2165C14.3268 54.1139 14.2456 54.0263 14.1914 53.9539L14.6608 53.5011C14.6788 53.5433 14.7239 53.6067 14.7962 53.6912C14.8744 53.7758 14.9767 53.8603 15.103 53.9448C15.2294 54.0293 15.3798 54.1048 15.5543 54.1712C15.7349 54.2316 15.9394 54.2618 16.1681 54.2618C16.3306 54.2618 16.484 54.2376 16.6284 54.1893C16.7789 54.141 16.9082 54.0716 17.0166 53.981C17.1249 53.8844 17.2091 53.7667 17.2693 53.6278C17.3355 53.4829 17.3686 53.3169 17.3686 53.1297C17.3686 52.8701 17.2964 52.6618 17.1519 52.5049C17.0075 52.3419 16.827 52.2 16.6104 52.0792C16.3938 51.9585 16.1591 51.8468 15.9064 51.7441C15.6536 51.6355 15.4189 51.5087 15.2023 51.3638C14.9857 51.2128 14.8052 51.0287 14.6608 50.8114C14.5163 50.588 14.4441 50.3012 14.4441 49.951C14.4441 49.6974 14.4923 49.4771 14.5886 49.2899C14.6908 49.0967 14.8232 48.9367 14.9857 48.8099C15.1542 48.6831 15.3437 48.5896 15.5543 48.5292C15.771 48.4628 15.9936 48.4296 16.2223 48.4296C16.4569 48.4296 16.6645 48.4537 16.8451 48.502C17.0316 48.5443 17.1911 48.5986 17.3234 48.665C17.4618 48.7254 17.5762 48.7918 17.6664 48.8643C17.7567 48.9307 17.8259 48.988 17.874 49.0363L17.3866 49.462C17.3565 49.4318 17.3114 49.3895 17.2512 49.3352C17.1911 49.2809 17.1128 49.2295 17.0166 49.1812C16.9263 49.1269 16.818 49.0816 16.6916 49.0454C16.5653 49.0031 16.4238 48.982 16.2674 48.982C16.141 48.982 16.0117 48.9971 15.8793 49.0273C15.7529 49.0575 15.6386 49.1058 15.5363 49.1722C15.434 49.2386 15.3497 49.3261 15.2836 49.4348C15.2174 49.5374 15.1843 49.6612 15.1843 49.8061C15.1843 50.0476 15.2595 50.2408 15.4099 50.3857C15.5604 50.5306 15.7469 50.6604 15.9695 50.7751C16.1922 50.8838 16.4359 50.9925 16.7006 51.1012C16.9654 51.2038 17.2091 51.3336 17.4318 51.4906C17.6544 51.6415 17.8409 51.8347 17.9914 52.0702C18.1418 52.2996 18.217 52.5984 18.217 52.9667C18.217 53.2082 18.1749 53.4407 18.0907 53.6641C18.0064 53.8875 17.877 54.0867 17.7025 54.2618C17.534 54.4308 17.3204 54.5697 17.0617 54.6784C16.809 54.781 16.5111 54.8323 16.1681 54.8323ZM19.3291 50.7661H20.1324V54.7146H19.3291V50.7661ZM19.7262 49.9238C19.5818 49.9238 19.4585 49.8725 19.3562 49.7699C19.2598 49.6673 19.2117 49.5465 19.2117 49.4076C19.2117 49.2627 19.2598 49.139 19.3562 49.0363C19.4585 48.9337 19.5788 48.8824 19.7171 48.8824C19.8616 48.8824 19.985 48.9337 20.0873 49.0363C20.1896 49.139 20.2407 49.2627 20.2407 49.4076C20.2407 49.5465 20.1896 49.6673 20.0873 49.7699C19.985 49.8725 19.8646 49.9238 19.7262 49.9238ZM21.5666 50.7661H22.37V54.7146H21.5666V50.7661ZM21.9638 49.9238C21.8194 49.9238 21.6961 49.8725 21.5937 49.7699C21.4974 49.6673 21.4493 49.5465 21.4493 49.4076C21.4493 49.2627 21.4974 49.139 21.5937 49.0363C21.6961 48.9337 21.8164 48.8824 21.9547 48.8824C22.0993 48.8824 22.2226 48.9337 22.3249 49.0363C22.4272 49.139 22.4783 49.2627 22.4783 49.4076C22.4783 49.5465 22.4272 49.6673 22.3249 49.7699C22.2226 49.8725 22.1023 49.9238 21.9638 49.9238ZM23.1274 50.7661H24.0661L25.2214 53.7003H25.2395L26.4851 50.7661H27.144L25.3749 54.7146H24.8423L23.1274 50.7661ZM29.5982 54.8323C29.3154 54.8323 29.0506 54.784 28.8039 54.6874C28.5572 54.5848 28.3406 54.4429 28.154 54.2618C27.9735 54.0807 27.8291 53.8633 27.7208 53.6097C27.6185 53.3501 27.5673 53.0603 27.5673 52.7403C27.5673 52.4264 27.6185 52.1426 27.7208 51.889C27.8291 51.6294 27.9735 51.4091 28.154 51.2279C28.3406 51.0408 28.5572 50.8989 28.8039 50.8023C29.0506 50.6997 29.3154 50.6483 29.5982 50.6483C29.887 50.6483 30.1548 50.6966 30.4015 50.7932C30.6542 50.8898 30.8709 51.0287 31.0514 51.2098C31.2379 51.391 31.3823 51.6113 31.4846 51.8709C31.593 52.1305 31.6471 52.4203 31.6471 52.7403C31.6471 53.0603 31.593 53.3501 31.4846 53.6097C31.3763 53.8633 31.2289 54.0807 31.0424 54.2618C30.8618 54.4429 30.6452 54.5848 30.3925 54.6874C30.1458 54.784 29.881 54.8323 29.5982 54.8323ZM29.5982 54.3342C29.7607 54.3342 29.9141 54.301 30.0585 54.2346C30.209 54.1622 30.3383 54.0595 30.4466 53.9267C30.561 53.7878 30.6482 53.6188 30.7084 53.4195C30.7746 53.2203 30.8077 52.9939 30.8077 52.7403C30.8077 52.523 30.7776 52.3177 30.7174 52.1245C30.6633 51.9313 30.582 51.7623 30.4737 51.6174C30.3654 51.4725 30.236 51.3577 30.0856 51.2732C29.9412 51.1887 29.7787 51.1464 29.5982 51.1464C29.4117 51.1464 29.2432 51.1857 29.0927 51.2642C28.9483 51.3427 28.825 51.4513 28.7227 51.5902C28.6204 51.7291 28.5422 51.8981 28.488 52.0973C28.4338 52.2905 28.4068 52.5049 28.4068 52.7403C28.4068 52.9758 28.4368 53.1931 28.497 53.3924C28.5572 53.5856 28.6414 53.7546 28.7498 53.8995C28.8581 54.0384 28.9844 54.1471 29.1288 54.2255C29.2733 54.298 29.4297 54.3342 29.5982 54.3342ZM34.0123 54.8323C33.8619 54.8323 33.7024 54.8112 33.5339 54.7689C33.3715 54.7327 33.218 54.6633 33.0736 54.5606C32.9352 54.458 32.8209 54.3131 32.7306 54.1259C32.6404 53.9388 32.5952 53.7003 32.5952 53.4105V50.7661H33.4166V53.3109C33.4166 53.6429 33.4798 53.8814 33.6061 54.0263C33.7385 54.1712 33.9582 54.2437 34.265 54.2437C34.5178 54.2437 34.7464 54.1773 34.951 54.0444C35.1616 53.9116 35.303 53.7516 35.3752 53.5644V50.7661H36.1876V54.7146H35.4023L35.3843 54.1622H35.3662C35.2218 54.3493 35.0353 54.5093 34.8066 54.6421C34.5779 54.7689 34.3132 54.8323 34.0123 54.8323ZM38.5805 54.8323C38.1834 54.8323 37.8645 54.7689 37.6238 54.6421C37.3831 54.5093 37.1995 54.3614 37.0732 54.1984L37.4703 53.809C37.5365 53.9297 37.6599 54.0474 37.8404 54.1622C38.0269 54.2708 38.2556 54.3252 38.5264 54.3252C38.6166 54.3252 38.7069 54.3161 38.7971 54.298C38.8874 54.2738 38.9686 54.2376 39.0408 54.1893C39.1131 54.141 39.1702 54.0807 39.2123 54.0082C39.2545 53.9297 39.2755 53.8331 39.2755 53.7184C39.2755 53.5554 39.2244 53.4256 39.1221 53.329C39.0258 53.2324 38.9025 53.1479 38.752 53.0754C38.6016 52.9969 38.4391 52.9275 38.2646 52.8671C38.0961 52.8007 37.9367 52.7222 37.7862 52.6317C37.6358 52.5351 37.5094 52.4173 37.4071 52.2785C37.3109 52.1336 37.2627 51.9464 37.2627 51.717C37.2627 51.5177 37.3048 51.3517 37.3891 51.2189C37.4733 51.08 37.5786 50.9683 37.705 50.8838C37.8314 50.7993 37.9698 50.7389 38.1202 50.7027C38.2766 50.6665 38.4271 50.6483 38.5715 50.6483C38.8904 50.6483 39.1492 50.6906 39.3477 50.7751C39.5523 50.8536 39.7148 50.9532 39.8351 51.074L39.4199 51.4543C39.3598 51.3638 39.2635 51.2853 39.1311 51.2189C38.9987 51.1525 38.8332 51.1193 38.6347 51.1193C38.4602 51.1193 38.3067 51.1585 38.1743 51.237C38.042 51.3094 37.9758 51.4242 37.9758 51.5811C37.9758 51.726 38.0269 51.8407 38.1292 51.9253C38.2315 52.0098 38.3579 52.0853 38.5083 52.1517C38.6587 52.2181 38.8242 52.2845 39.0047 52.3509C39.1853 52.4173 39.3507 52.4988 39.5012 52.5954C39.6516 52.692 39.778 52.8158 39.8803 52.9667C39.9826 53.1177 40.0337 53.3139 40.0337 53.5554C40.0337 53.7848 39.9886 53.981 39.8983 54.144C39.8141 54.3071 39.7028 54.4399 39.5644 54.5425C39.426 54.6452 39.2695 54.7176 39.095 54.7599C38.9205 54.8082 38.749 54.8323 38.5805 54.8323ZM40.941 50.7661H41.7443L41.7353 51.2642H41.7534C41.8677 51.0951 42.0392 50.9502 42.2678 50.8295C42.5025 50.7087 42.7673 50.6483 43.0621 50.6483C43.3389 50.6483 43.5887 50.6966 43.8113 50.7932C44.04 50.8898 44.2325 51.0287 44.389 51.2098C44.5514 51.3849 44.6748 51.6023 44.759 51.8619C44.8493 52.1155 44.8944 52.3992 44.8944 52.7132C44.8944 53.009 44.8463 53.2867 44.75 53.5463C44.6597 53.7999 44.5304 54.0233 44.3619 54.2165C44.1994 54.4037 44.0039 54.5546 43.7752 54.6693C43.5465 54.778 43.2998 54.8323 43.0351 54.8323C42.7823 54.8323 42.5386 54.781 42.3039 54.6784C42.0753 54.5757 41.8948 54.4399 41.7624 54.2708H41.7443V56.5983H40.941V50.7661ZM42.8455 54.2889C43.1945 54.2889 43.4834 54.1591 43.712 53.8995C43.9407 53.6399 44.055 53.2414 44.055 52.7041C44.055 52.2271 43.9557 51.8498 43.7571 51.5721C43.5586 51.2883 43.2697 51.1464 42.8906 51.1464C42.7462 51.1464 42.6108 51.1676 42.4845 51.2098C42.3641 51.2521 42.2528 51.3094 42.1505 51.3819C42.0542 51.4483 41.97 51.5238 41.8978 51.6083C41.8316 51.6928 41.7804 51.7743 41.7443 51.8528V53.6731C41.8647 53.8663 42.0211 54.0173 42.2137 54.1259C42.4062 54.2346 42.6169 54.2889 42.8455 54.2889ZM46.995 54.8323C46.8024 54.8323 46.6219 54.8051 46.4534 54.7508C46.2849 54.6965 46.1405 54.615 46.0201 54.5063C45.8998 54.3976 45.8035 54.2618 45.7313 54.0988C45.6651 53.9358 45.632 53.7486 45.632 53.5373C45.632 53.1871 45.7644 52.8973 46.0292 52.6679C46.2939 52.4385 46.7001 52.3147 47.2477 52.2966L48.2767 52.2604V52.1245C48.2767 51.7804 48.2075 51.5298 48.0691 51.3728C47.9307 51.2159 47.696 51.1374 47.365 51.1374C47.1364 51.1374 46.9528 51.1887 46.8144 51.2913C46.676 51.394 46.5737 51.5147 46.5075 51.6536L46.0021 51.2913C46.1405 51.0981 46.321 50.9442 46.5437 50.8295C46.7663 50.7087 47.0702 50.6483 47.4553 50.6483C47.9788 50.6483 48.3789 50.7721 48.6557 51.0196C48.9386 51.2611 49.08 51.6294 49.08 52.1245V54.7146H48.3037L48.2857 54.1622H48.2676C48.1473 54.3252 47.9788 54.4791 47.7622 54.624C47.5516 54.7629 47.2958 54.8323 46.995 54.8323ZM47.1484 54.2799C47.3048 54.2799 47.4432 54.2588 47.5636 54.2165C47.69 54.1742 47.7983 54.1199 47.8885 54.0535C47.9848 53.9871 48.063 53.9146 48.1232 53.8361C48.1894 53.7516 48.2405 53.6671 48.2767 53.5826V52.7222L47.4824 52.7584C47.1695 52.7766 46.9167 52.84 46.7242 52.9486C46.5376 53.0573 46.4444 53.2475 46.4444 53.5192C46.4444 53.7426 46.5045 53.9267 46.6249 54.0716C46.7452 54.2105 46.9197 54.2799 47.1484 54.2799ZM50.2819 54.7146V48.2847H51.0582V54.7146H50.2819ZM51.7302 50.7661H52.6689L53.8243 53.7003H53.8423L55.0879 50.7661H55.7468L53.9777 54.7146H53.4452L51.7302 50.7661ZM58.2102 54.8323C57.9033 54.8323 57.6235 54.781 57.3708 54.6784C57.1241 54.5697 56.9104 54.4218 56.7299 54.2346C56.5554 54.0474 56.417 53.8241 56.3147 53.5644C56.2184 53.3048 56.1703 53.0241 56.1703 52.7222C56.1703 52.4022 56.2215 52.1155 56.3237 51.8619C56.426 51.6023 56.5644 51.3849 56.7389 51.2098C56.9195 51.0287 57.1271 50.8898 57.3617 50.7932C57.6024 50.6966 57.8552 50.6483 58.1199 50.6483C58.4328 50.6483 58.7036 50.6997 58.9323 50.8023C59.1669 50.9049 59.3595 51.0468 59.5099 51.2279C59.6664 51.4091 59.7837 51.6204 59.8619 51.8619C59.9402 52.1034 59.9793 52.363 59.9793 52.6407V52.8128H57.0368C57.0368 53.0301 57.0639 53.2324 57.118 53.4195C57.1782 53.6007 57.2594 53.7576 57.3617 53.8905C57.464 54.0233 57.5844 54.1259 57.7228 54.1984C57.8672 54.2708 58.0267 54.3071 58.2012 54.3071C58.4057 54.3071 58.5772 54.2829 58.7156 54.2346C58.854 54.1803 58.9654 54.1199 59.0496 54.0535C59.1399 53.9871 59.2061 53.9207 59.2482 53.8542C59.2903 53.7878 59.3174 53.7395 59.3294 53.7093L59.8078 54.0173C59.7837 54.0656 59.7356 54.135 59.6634 54.2255C59.5912 54.3161 59.4919 54.4067 59.3655 54.4972C59.2392 54.5878 59.0797 54.6663 58.8871 54.7327C58.6946 54.7991 58.4689 54.8323 58.2102 54.8323ZM59.1669 52.2966C59.1669 52.1396 59.1459 51.9917 59.1038 51.8528C59.0616 51.714 58.9955 51.5932 58.9052 51.4906C58.8209 51.3819 58.7126 51.2974 58.5803 51.237C58.4479 51.1766 58.2944 51.1464 58.1199 51.1464C57.9635 51.1464 57.8221 51.1796 57.6957 51.2461C57.5754 51.3125 57.4701 51.4 57.3798 51.5087C57.2895 51.6113 57.2173 51.7321 57.1632 51.8709C57.115 52.0098 57.0819 52.1517 57.0639 52.2966H59.1669ZM60.9701 54.7146V48.2847H61.7463V54.7146H60.9701ZM64.3681 54.8323C64.2177 54.8323 64.0582 54.8112 63.8897 54.7689C63.7273 54.7327 63.5738 54.6633 63.4294 54.5606C63.291 54.458 63.1767 54.3131 63.0864 54.1259C62.9962 53.9388 62.951 53.7003 62.951 53.4105V50.7661H63.7724V53.3109C63.7724 53.6429 63.8356 53.8814 63.9619 54.0263C64.0943 54.1712 64.3139 54.2437 64.6208 54.2437C64.8736 54.2437 65.1022 54.1773 65.3068 54.0444C65.5174 53.9116 65.6588 53.7516 65.731 53.5644V50.7661H66.5434V54.7146H65.7581L65.7401 54.1622H65.722C65.5776 54.3493 65.3911 54.5093 65.1624 54.6421C64.9337 54.7689 64.669 54.8323 64.3681 54.8323ZM69.2431 54.8323C69.0145 54.8323 68.8249 54.8051 68.6745 54.7508C68.524 54.6965 68.4007 54.6059 68.3044 54.4791C68.2081 54.3523 68.1389 54.1863 68.0968 53.981C68.0607 53.7758 68.0426 53.5222 68.0426 53.2203V51.2732H67.3747V50.7661H68.0426V50.0687L68.855 49.625V50.7661H70.0013V51.2732H68.855V53.4014C68.855 53.7395 68.8881 53.972 68.9543 54.0988C69.0265 54.2255 69.1589 54.2889 69.3514 54.2889C69.4838 54.2889 69.5951 54.2739 69.6854 54.2437C69.7757 54.2135 69.8268 54.1923 69.8388 54.1803L69.9652 54.7236C69.9351 54.7357 69.8509 54.7569 69.7125 54.787C69.5741 54.8172 69.4176 54.8323 69.2431 54.8323Z" fill="#59A32E"/>
</g>
</svg>
