<svg width="20" height="21" viewBox="0 0 20 21" fill="none" xmlns="http://www.w3.org/2000/svg">
<g clip-path="url(#clip0_98_7890)">
<g clip-path="url(#clip1_98_7890)">
<path d="M7.35355 15.1464L7.20711 15H7H4C3.17157 15 2.5 14.3284 2.5 13.5V5.5C2.5 4.67157 3.17157 4 4 4H16C16.8284 4 17.5 4.67157 17.5 5.5V13.5C17.5 14.3284 16.8284 15 16 15H13H12.7929L12.6464 15.1464L10 17.7929L7.35355 15.1464ZM6 6C5.17157 6 4.5 6.67157 4.5 7.5C4.5 8.32843 5.17157 9 6 9H14C14.8284 9 15.5 8.32843 15.5 7.5C15.5 6.67157 14.8284 6 14 6H6ZM6 10C5.17157 10 4.5 10.6716 4.5 11.5C4.5 12.3284 5.17157 13 6 13H9C9.82843 13 10.5 12.3284 10.5 11.5C10.5 10.6716 9.82843 10 9 10H6Z" stroke="white"/>
</g>
</g>
<defs>
<clipPath id="clip0_98_7890">
<rect width="20" height="21" fill="white"/>
</clipPath>
<clipPath id="clip1_98_7890">
<rect width="20" height="21" fill="white"/>
</clipPath>
</defs>
</svg>
