<svg width="134" height="134" viewBox="0 0 134 134" fill="none" xmlns="http://www.w3.org/2000/svg">
<path d="M66.7298 132.803C30.3231 132.803 0.703125 103.188 0.703125 66.7759C0.703125 41.5358 15.4685 18.1665 38.3231 7.24518C39.9482 6.47436 41.8439 6.48477 43.4534 7.29726C45.0627 8.10977 46.2086 9.6202 46.5523 11.3858C47.1044 14.2399 49.3335 20.8702 57.9898 20.8702C64.0367 20.8702 66.9169 17.5994 68.2606 14.8494C69.4689 12.3963 72.219 11.0994 74.8857 11.7609C77.5471 12.4223 79.3909 14.8338 79.3179 17.5734C79.2033 22.0318 80.4429 26.0318 82.6305 28.2817C85.5315 31.2557 90.5523 31.4535 97.2345 29.0577C99.6771 28.1775 102.406 29.0265 103.922 31.1358C105.443 33.2348 105.386 36.0889 103.787 38.1358C101.245 41.3858 101.005 46.1566 103.162 50.5837C105.724 55.8493 110.859 58.99 116.902 58.99C119.5 58.99 121.803 58.4275 123.933 57.2817C125.678 56.3442 127.771 56.3494 129.511 57.2973C131.245 58.2557 132.375 60.0213 132.516 61.99L132.568 62.7087C132.667 64.0577 132.761 65.4014 132.761 66.7765C132.756 103.188 103.14 132.803 66.7298 132.803ZM37.6938 20.8852C22.1205 30.7706 12.3551 48.1558 12.3551 66.7705C12.3551 96.7545 36.7458 121.145 66.7298 121.145C95.5165 121.145 119.146 98.6612 120.99 70.3332C119.651 70.5311 118.292 70.6301 116.896 70.6301C106.453 70.6301 97.1774 64.9009 92.6827 55.6767C90.563 51.3226 89.7297 46.7027 90.1411 42.3167C89.813 42.3271 89.4849 42.3324 89.1619 42.3324H89.1567C83.2089 42.3324 78.0682 40.275 74.2874 36.4001C72.4385 34.4938 70.9385 32.1657 69.8395 29.5356C66.4177 31.4782 62.3969 32.5096 57.9906 32.5096C49.027 32.5148 41.6418 28.13 37.6938 20.8852Z" fill="#2442BE"/>
<path d="M127.907 13.3693C127.907 16.0567 125.73 18.2234 123.047 18.2234C120.365 18.2234 118.193 16.0515 118.193 13.3693C118.193 10.6922 120.365 8.51514 123.047 8.51514C125.73 8.51514 127.907 10.6922 127.907 13.3693Z" fill="#2442BE"/>
<path d="M46.5013 52.4735C46.5013 57.0308 42.8086 60.7287 38.2513 60.7287C33.6888 60.7287 29.9961 57.0308 29.9961 52.4735C29.9961 47.9161 33.6888 44.2183 38.2513 44.2183C42.8086 44.2183 46.5013 47.9161 46.5013 52.4735Z" fill="#2442BE"/>
<path d="M52.4837 84.8958C52.4837 89.4532 48.791 93.151 44.2337 93.151C39.6764 93.151 35.9785 89.4532 35.9785 84.8958C35.9785 80.3385 39.6764 76.6406 44.2337 76.6406C48.791 76.6406 52.4837 80.3385 52.4837 84.8958Z" fill="#2442BE"/>
<path d="M82.7493 95.2601C82.7493 99.8174 79.0567 103.51 74.4941 103.51C69.9368 103.51 66.2441 99.8174 66.2441 95.2601C66.2441 90.6975 69.9368 87.0049 74.4941 87.0049C79.0567 87.0049 82.7493 90.6975 82.7493 95.2601Z" fill="#2442BE"/>
<path d="M79.0423 62.2972C79.0423 66.8545 75.3496 70.5524 70.7923 70.5524C66.235 70.5524 62.5371 66.8545 62.5371 62.2972C62.5371 57.7399 66.235 54.042 70.7923 54.042C75.3496 54.042 79.0423 57.7399 79.0423 62.2972Z" fill="#2442BE"/>
<path d="M104.433 10.1406C104.433 14.3333 101.027 17.7395 96.8287 17.7395C92.6309 17.7395 89.2246 14.3333 89.2246 10.1406C89.2246 5.93752 92.6309 2.53126 96.8287 2.53126C101.032 2.52605 104.433 5.93752 104.433 10.1406Z" fill="#2442BE"/>
<path d="M129.36 39.0986C129.36 46.2237 118.678 46.2237 118.678 39.0986C118.678 31.9789 129.36 31.9789 129.36 39.0986Z" fill="#2442BE"/>
</svg>
