<svg width="412" height="435" viewBox="0 0 412 435" fill="none" xmlns="http://www.w3.org/2000/svg">
<g clip-path="url(#clip0_356_542)">
<path d="M206 435.001C304.931 435.001 385.131 352.48 385.131 250.686C385.131 148.892 304.931 66.3721 206 66.3721C107.069 66.3721 26.8696 148.892 26.8696 250.686C26.8696 352.48 107.069 435.001 206 435.001Z" fill="#C0C3DA"/>
<path d="M85.9834 27.6985C85.9834 21.5635 90.7795 16.5898 96.696 16.5898H184.505V399.965H96.696C90.7795 399.965 85.9834 394.989 85.9834 388.855V27.6985Z" fill="#2442BE"/>
<path d="M85.7988 57.5654H183.935" stroke="#2751A6" stroke-width="1.11543"/>
<path d="M85.7988 97.4521H183.935" stroke="#2751A6" stroke-width="1.11543"/>
<path d="M85.7988 137.341H183.935" stroke="#2751A6" stroke-width="1.11543"/>
<path d="M85.7988 178.436H183.935" stroke="#2751A6" stroke-width="1.11543"/>
<path d="M85.7988 217.72H183.935" stroke="#2751A6" stroke-width="1.11543"/>
<path d="M85.7988 258.236H183.935" stroke="#2751A6" stroke-width="1.11543"/>
<path d="M85.7988 297.911H183.935" stroke="#2751A6" stroke-width="1.11543"/>
<path d="M85.7988 338.286H183.935" stroke="#2751A6" stroke-width="1.11543"/>
<path d="M114.947 17.0305H183.934V0H120.303C117.345 0 114.947 2.48676 114.947 5.55437V17.0305Z" fill="#2442BE"/>
<path d="M183.936 17.0305H297.79V5.55437C297.79 2.48676 295.391 0 292.434 0H183.936V17.0305Z" fill="#407BFF"/>
<path d="M184.505 16.5898H317.09C322.021 16.5898 326.017 20.7344 326.017 25.8471V390.707C326.017 395.819 322.021 399.965 317.09 399.965H184.505V16.5898Z" fill="#407BFF"/>
<path d="M148.77 56.5664H119.848V339.369H148.77V56.5664Z" fill="#86BEFF"/>
<path d="M218.384 308.251C218.384 303.138 222.381 298.994 227.312 298.994H288.862C293.792 298.994 297.79 303.138 297.79 308.251V361.108C297.79 366.221 293.792 370.365 288.862 370.365H227.312C222.381 370.365 218.384 366.221 218.384 361.108V308.251Z" fill="#4A4566"/>
<path d="M114.947 17.6787H183.934" stroke="#2751A6" stroke-width="1.11543"/>
<path d="M183.935 17.6787H297.79" stroke="#407BFF" stroke-width="1.11543"/>
<path d="M183.935 57.5654H326.201" stroke="#449AFF" stroke-width="1.11543"/>
<path d="M183.935 97.4521H326.201" stroke="#449AFF" stroke-width="1.11543"/>
<path d="M183.935 137.341H326.201" stroke="#449AFF" stroke-width="1.11543"/>
<path d="M183.935 178.436H326.201" stroke="#449AFF" stroke-width="1.11543"/>
<path d="M183.935 217.72H326.201" stroke="#449AFF" stroke-width="1.11543"/>
<path d="M183.935 258.236H326.201" stroke="#449AFF" stroke-width="1.11543"/>
<path d="M243.093 56.5664H221.313C219.341 56.5664 217.742 58.2243 217.742 60.2693V255.616C217.742 257.661 219.341 259.319 221.313 259.319H243.093C245.065 259.319 246.664 257.661 246.664 255.616V60.2693C246.664 58.2243 245.065 56.5664 243.093 56.5664Z" fill="#86BEFF"/>
<path d="M294.217 56.5664H272.437C270.464 56.5664 268.866 58.2243 268.866 60.2693V255.616C268.866 257.661 270.464 259.319 272.437 259.319H294.217C296.189 259.319 297.788 257.661 297.788 255.616V60.2693C297.788 58.2243 296.189 56.5664 294.217 56.5664Z" fill="#86BEFF"/>
<path d="M410.385 383.375H1.61532C0.723203 383.375 0 384.125 0 385.05V398.289C0 399.214 0.723203 399.964 1.61532 399.964H410.385C411.277 399.964 412 399.214 412 398.289V385.05C412 384.125 411.277 383.375 410.385 383.375Z" fill="#6E7191"/>
<path d="M47.5 347C73.7335 347 95 325.062 95 298C95 270.938 73.7335 249 47.5 249C21.2665 249 0 270.938 0 298C0 325.062 21.2665 347 47.5 347Z" fill="#5EAD33"/>
<path d="M48.0318 311H48.0318C45.2528 311 43 313.336 43 316.218V378.889C43 381.771 45.2528 384.107 48.0318 384.107C50.8108 384.107 53.0636 381.771 53.0636 378.889V316.218C53.0636 313.336 50.8108 311 48.0318 311Z" fill="#9D6428"/>
<path d="M85.9378 359.324C98.7745 359.324 109.181 348.617 109.181 335.409C109.181 322.201 98.7745 311.493 85.9378 311.493C73.1011 311.493 62.6948 322.201 62.6948 335.409C62.6948 348.617 73.1011 359.324 85.9378 359.324Z" fill="#00AB76"/>
<path d="M89.1264 341.881C89.1264 340.054 87.6981 338.573 85.9362 338.573C84.1744 338.573 82.7461 340.054 82.7461 341.881V381.614C82.7461 383.441 84.1744 384.922 85.9362 384.922C87.6981 384.922 89.1264 383.441 89.1264 381.614V341.881Z" fill="#9D6428"/>
<path d="M377 350C395.225 350 410 335.002 410 316.5C410 297.998 395.225 283 377 283C358.775 283 344 297.998 344 316.5C344 335.002 358.775 350 377 350Z" fill="#5EAD33"/>
<path d="M380.661 334.972C380.661 332.778 378.946 331 376.831 331C374.715 331 373 332.778 373 334.972V382.684C373 384.877 374.715 386.656 376.831 386.656C378.946 386.656 380.661 384.877 380.661 382.684V334.972Z" fill="#9D6428"/>
<path d="M142.504 353.489H126.514C125.8 353.489 125.141 353.87 124.783 354.489C124.426 355.107 124.426 355.869 124.783 356.488C125.14 357.106 125.8 357.487 126.514 357.487H142.504C143.218 357.487 143.878 357.106 144.235 356.488C144.592 355.869 144.592 355.107 144.235 354.489C143.878 353.87 143.218 353.489 142.504 353.489Z" fill="#2442BE"/>
<path d="M142.504 315.513C142.504 319.928 138.924 323.508 134.509 323.508C130.093 323.508 126.514 319.928 126.514 315.513C126.514 311.097 130.093 307.518 134.509 307.518C138.924 307.518 142.504 311.097 142.504 315.513Z" fill="#2442BE"/>
<path d="M150.498 341.496H144.502V335.84C144.54 333.308 143.641 330.852 141.976 328.944C140.312 327.037 138.001 325.812 135.487 325.506C132.672 325.229 129.871 326.158 127.779 328.063C125.687 329.968 124.5 332.671 124.514 335.5V349.492C124.514 350.022 124.725 350.53 125.099 350.905C125.474 351.28 125.983 351.49 126.513 351.49H146.5V361.484C146.5 362.015 146.711 362.523 147.086 362.898C147.461 363.273 147.969 363.483 148.499 363.483H154.495C155.025 363.483 155.534 363.273 155.909 362.898C156.284 362.523 156.494 362.015 156.494 361.484V347.493C156.494 345.903 155.863 344.378 154.738 343.253C153.613 342.129 152.088 341.497 150.498 341.497L150.498 341.496Z" fill="#2442BE"/>
<path d="M149 345H120V353H149V345Z" fill="#407BFF"/>
</g>
<defs>
<clipPath id="clip0_356_542">
<rect width="412" height="435" fill="white"/>
</clipPath>
</defs>
</svg>
