<svg width="64" height="65" viewBox="0 0 64 65" fill="none" xmlns="http://www.w3.org/2000/svg">
<g clip-path="url(#clip0_300_477)">
<mask id="mask0_300_477" style="mask-type:alpha" maskUnits="userSpaceOnUse" x="0" y="0" width="64" height="65">
<path d="M64 0.194336H0V64.1943H64V0.194336Z" fill="#C4C4C4"/>
</mask>
<g mask="url(#mask0_300_477)">
<path d="M64 0.194336H0V64.1943H64V0.194336Z" fill="#EFF0F7"/>
<mask id="mask1_300_477" style="mask-type:alpha" maskUnits="userSpaceOnUse" x="0" y="0" width="64" height="65">
<path d="M64 0.194336H0V64.1943H64V0.194336Z" fill="#EFF0F7"/>
</mask>
<g mask="url(#mask1_300_477)">
<path d="M38.463 18.268C39.0517 18.309 39.6344 18.129 40.0975 17.7633C40.5605 17.3975 40.8706 16.8723 40.9671 16.2902C41.0636 15.7081 40.9397 15.1109 40.6195 14.6153C40.2993 14.1197 39.8058 13.7612 39.2355 13.6099C39.5783 13.2211 39.7899 12.7342 39.8403 12.2183C39.8907 11.7024 39.7773 11.1838 39.5162 10.736C39.2551 10.2882 38.8596 9.93405 38.3858 9.72379C37.912 9.51353 37.3841 9.45785 36.8768 9.56467C36.8303 9.05542 36.6524 8.56697 36.3604 8.14713C36.0684 7.7273 35.6725 7.39046 35.2113 7.16959C34.7501 6.94871 34.2394 6.85137 33.7293 6.8871C33.2192 6.92282 32.7271 7.09038 32.3011 7.37338C31.7035 6.93473 30.9763 6.70861 30.2353 6.73101C29.4943 6.75341 28.7821 7.02303 28.2121 7.49697C27.708 7.42639 27.1945 7.52061 26.7483 7.76558C26.3021 8.01056 25.947 8.39317 25.736 8.85639C25.5249 9.31962 25.4692 9.83864 25.5771 10.3361C25.6851 10.8336 25.9509 11.2828 26.3349 11.6169" fill="#995037"/>
<path d="M27.8246 9.86343L28.3396 9.83768C30.8673 9.7117 33.3496 10.5428 35.2919 12.1653C37.2342 13.7879 38.4938 16.0827 38.8197 18.5925C39.4531 23.4309 40.0891 28.7842 40.187 31.3927C40.3878 36.8001 35.037 37.897 35.037 37.897L35.8095 44.3576L32.923 47.4888L22.6952 44.6022L20.3778 21.1495C19.6156 15.5618 22.2266 10.4685 27.8246 9.86343Z" fill="#FFBF9D"/>
<path d="M35.0822 37.8767C32.581 38.0001 30.0968 37.4041 27.9238 36.1592C27.9238 36.1592 29.8473 39.9444 35.2084 39.1899L35.0822 37.8767Z" fill="#FF9A6C"/>
<path d="M36.3695 24.327C36.381 24.5274 36.314 24.7244 36.1828 24.8762C36.0516 25.0281 35.8664 25.123 35.6665 25.1407C35.569 25.1533 35.4699 25.1462 35.3751 25.12C35.2803 25.0938 35.1917 25.0489 35.1145 24.988C35.0372 24.927 34.9729 24.8513 34.9254 24.7652C34.8778 24.6792 34.8479 24.5845 34.8374 24.4867C34.8252 24.2859 34.8918 24.0882 35.0231 23.9358C35.1544 23.7833 35.3399 23.6881 35.5403 23.6704C35.6381 23.6575 35.7375 23.6644 35.8326 23.6906C35.9277 23.7168 36.0166 23.7619 36.0939 23.8232C36.1712 23.8844 36.2355 23.9606 36.2828 24.0471C36.3302 24.1337 36.3596 24.2289 36.3695 24.327Z" fill="#211F54"/>
<path d="M37.7932 21.281C37.7031 21.3866 37.098 20.9823 36.2688 21.0235C35.4397 21.0647 34.8526 21.5128 34.7599 21.4149C34.7136 21.3712 34.8011 21.1858 35.056 20.9798C35.4019 20.713 35.8221 20.56 36.2585 20.542C36.6901 20.5189 37.1178 20.6344 37.4791 20.8716C37.7443 21.0544 37.8396 21.2347 37.7932 21.281Z" fill="#211F54"/>
<path d="M29.2834 24.5097C29.2949 24.71 29.2279 24.907 29.0967 25.0589C28.9655 25.2108 28.7803 25.3056 28.5804 25.3233C28.4827 25.3359 28.3834 25.3288 28.2884 25.3024C28.1935 25.276 28.1048 25.2309 28.0275 25.1697C27.9503 25.1085 27.886 25.0325 27.8386 24.9461C27.7911 24.8597 27.7615 24.7647 27.7513 24.6667C27.7398 24.4663 27.8067 24.2694 27.9379 24.1175C28.0691 23.9656 28.2543 23.8708 28.4542 23.853C28.552 23.8401 28.6514 23.847 28.7465 23.8732C28.8416 23.8995 28.9305 23.9446 29.0078 24.0058C29.0851 24.0671 29.1494 24.1432 29.1967 24.2298C29.2441 24.3163 29.2735 24.4115 29.2834 24.5097Z" fill="#211F54"/>
<path d="M29.6513 21.8397C29.5611 21.9453 28.956 21.5436 28.1269 21.5822C27.2977 21.6208 26.7106 22.0689 26.6154 21.971C26.569 21.9298 26.6566 21.7444 26.9141 21.5384C27.2597 21.2712 27.68 21.1182 28.1166 21.1007C28.5479 21.077 28.9754 21.1916 29.3371 21.4277C29.5998 21.6157 29.6976 21.7934 29.6513 21.8397Z" fill="#211F54"/>
<path d="M32.9694 27.8388C32.9694 27.7924 33.4844 27.6766 34.3033 27.5298C34.5144 27.4963 34.7127 27.4448 34.741 27.298C34.7464 27.0786 34.6863 26.8626 34.5685 26.6775C34.3444 26.1625 34.1076 25.6475 33.8629 25.0964C32.8793 22.8459 32.1557 20.9894 32.2459 20.9508C32.336 20.9121 33.2089 22.7043 34.1925 24.9574L34.8723 26.5487C35.0177 26.7981 35.0715 27.0905 35.0242 27.3753C34.9962 27.4512 34.9516 27.5199 34.8937 27.5765C34.8358 27.633 34.7661 27.676 34.6895 27.7023C34.5743 27.7392 34.4549 27.7617 34.3342 27.7693C33.4947 27.8568 32.9746 27.8851 32.9694 27.8388Z" fill="#211F54"/>
<path d="M30.2143 18.6159C30.1165 18.8296 29.3929 18.6365 28.5174 18.6519C27.6419 18.6674 26.9132 18.8502 26.8205 18.6365C26.7819 18.5335 26.9287 18.3352 27.2351 18.1524C27.6281 17.9305 28.0712 17.8126 28.5226 17.8099C28.9731 17.803 29.4174 17.9158 29.81 18.1369C30.119 18.3172 30.2581 18.5129 30.2143 18.6159Z" fill="#211F54"/>
<path d="M37.6646 17.8586C37.4998 18.0569 36.8045 17.8947 35.9831 17.9281C35.1617 17.9616 34.4691 18.129 34.2991 17.9281C34.2244 17.8354 34.3249 17.6396 34.6184 17.4465C35.028 17.2042 35.4944 17.0746 35.9703 17.0707C36.444 17.051 36.9143 17.1585 37.3324 17.3821C37.6311 17.5753 37.7367 17.7633 37.6646 17.8586Z" fill="#211F54"/>
<path d="M38.1835 16.1362C38.1835 16.1362 36.5922 12.8273 34.9236 12.1192C32.9049 11.2618 32.1633 13.4711 30.2552 13.0385C28.3472 12.6059 26.4211 11.7845 24.5774 13.3295C22.5561 15.0238 23.5964 16.0924 23.5835 18.4794C23.5397 28.2102 21.9046 31.0426 21.1733 26.4978C21.0935 25.9983 19.6824 25.6687 19.3709 23.5624C18.9692 20.8329 18.6962 17.5061 19.2138 15.5285C19.6464 13.8625 20.527 12.6806 22.1441 11.3467C24.6933 9.24303 28.324 9.02931 30.814 9.14519C33.304 9.26106 38.199 11.8926 38.1835 16.1362Z" fill="#995037"/>
<path d="M21.5018 26.3482C21.4857 26.1504 21.4296 25.958 21.3369 25.7825C21.2441 25.6071 21.1167 25.4523 20.9624 25.3276C20.8081 25.2028 20.63 25.1108 20.439 25.0569C20.248 25.0031 20.048 24.9886 19.8513 25.0144C18.8496 25.1612 17.7578 25.7869 17.9278 27.8649C18.229 31.5471 21.8649 30.4836 21.8623 30.378C21.8597 30.2725 21.6434 27.888 21.5018 26.3482Z" fill="#FFBF9D"/>
<path d="M20.9483 29.0596C20.9303 29.0596 20.8865 29.1085 20.7835 29.1677C20.6362 29.2454 20.4646 29.2629 20.3046 29.2167C19.9029 29.1059 19.5321 28.5137 19.4549 27.8519C19.4179 27.5374 19.4531 27.2186 19.5579 26.9198C19.5827 26.8016 19.636 26.6913 19.7132 26.5984C19.7904 26.5055 19.8891 26.4328 20.0008 26.3868C20.073 26.3618 20.1516 26.3625 20.2234 26.3888C20.2952 26.4151 20.3557 26.4653 20.3947 26.531C20.4514 26.6314 20.4333 26.7061 20.4539 26.7112C20.4745 26.7164 20.5286 26.6417 20.4848 26.4923C20.4577 26.4028 20.4004 26.3255 20.3226 26.2735C20.2146 26.2055 20.0843 26.1824 19.9596 26.2091C19.8107 26.2512 19.6752 26.3308 19.5661 26.4404C19.457 26.55 19.3779 26.6858 19.3364 26.8348C19.205 27.1666 19.1573 27.5256 19.1974 27.8803C19.2823 28.6193 19.7124 29.2836 20.2634 29.3943C20.3648 29.4152 20.4696 29.4129 20.5699 29.3875C20.6703 29.3621 20.7636 29.3142 20.8428 29.2476C20.9483 29.1471 20.9715 29.0647 20.9483 29.0596Z" fill="#7C4236"/>
<path d="M21.2295 19.1974C21.7238 19.5013 22.2466 19.8128 22.8259 19.8411C23.4053 19.8695 24.049 19.5064 24.1134 18.9296C24.1443 18.6721 24.0671 18.376 24.2267 18.1571C24.4173 17.8996 24.7906 17.9666 25.1022 17.9846C26.1811 18.0438 27.3733 16.7975 27.5948 15.7418C27.7452 15.9305 27.9609 16.0558 28.1994 16.093C28.4378 16.1302 28.6815 16.0766 28.8822 15.9427C29.2124 15.7168 29.5001 15.4343 29.732 15.1084C30.0384 14.7221 30.4761 14.3694 30.968 14.4131C31.2409 14.4389 31.5036 14.5882 31.7765 14.5496C32.2606 14.4827 32.4692 13.9033 32.5181 13.4192C32.567 12.9351 32.5953 12.3712 32.9945 12.0905C33.3936 11.8098 33.8622 11.9437 34.3103 11.9875C34.7583 12.0313 35.3402 11.8974 35.4226 11.4571C35.4361 11.3391 35.4254 11.2196 35.3913 11.1059C35.3572 10.9921 35.3004 10.8865 35.2244 10.7953C34.9031 10.363 34.4455 10.0517 33.9255 9.91145C33.4055 9.77128 32.8534 9.8105 32.3584 10.0228C32.144 9.4192 31.7556 8.89267 31.2422 8.50965C30.7287 8.12664 30.1134 7.90429 29.4737 7.87068C28.8341 7.83707 28.1988 7.99371 27.6481 8.32082C27.0974 8.64793 26.6559 9.13085 26.3794 9.70863C25.9699 9.37282 25.4854 9.14079 24.9671 9.03225C24.4487 8.92371 23.9119 8.94187 23.4021 9.08519C22.8922 9.2285 22.4245 9.49274 22.0387 9.85545C21.6528 10.2182 21.3602 10.6687 21.1857 11.1687C20.7269 11.0709 20.2495 11.1106 19.8131 11.2829C19.3768 11.4552 19.001 11.7523 18.7327 12.1371C18.4645 12.5219 18.3157 12.9773 18.3049 13.4463C18.2942 13.9153 18.4221 14.377 18.6725 14.7736C18.0288 15.1856 17.4932 15.8731 17.5163 16.6379C17.5395 17.4027 18.3223 18.1262 19.0613 17.8868C18.9286 18.1945 18.9179 18.5411 19.0312 18.8565C19.1446 19.1719 19.3735 19.4324 19.6718 19.5852C19.97 19.7381 20.3151 19.7719 20.6374 19.6798C20.9596 19.5878 21.2347 19.3766 21.4071 19.0893" fill="#995037"/>
<path d="M32.6978 11.1123C32.7007 11.1354 32.7007 11.1587 32.6978 11.1818C32.6962 11.2481 32.691 11.3143 32.6824 11.3801C32.6467 11.6327 32.5684 11.8774 32.4506 12.1037C32.2667 12.4629 32.0023 12.7748 31.6781 13.0152C31.2521 13.3457 30.729 13.5267 30.1898 13.5302L30.249 13.4452C30.3773 13.7782 30.369 14.1483 30.2259 14.4752C30.0765 14.8144 29.8788 15.1301 29.6388 15.4125C29.5236 15.5738 29.3925 15.723 29.2474 15.858C29.0789 15.9854 28.8817 16.0694 28.6731 16.1026C28.4573 16.1451 28.2343 16.134 28.0237 16.0703C27.8132 16.0065 27.6215 15.8921 27.4655 15.7369L27.5994 15.6906C27.5674 16.0762 27.4551 16.4509 27.2697 16.7906C27.0844 17.1303 26.83 17.4274 26.5231 17.663C26.1855 17.94 25.7671 18.1 25.3309 18.1188C24.9199 18.1204 24.5115 18.0525 24.1232 17.9179L24.221 17.869C24.0522 18.3251 23.7715 18.7315 23.4048 19.0509C23.2377 19.2106 23.0369 19.3307 22.8172 19.4024C22.5975 19.4742 22.3645 19.4957 22.1353 19.4655C21.7436 19.4009 21.3794 19.2232 21.0874 18.9542C20.7955 18.6851 20.5887 18.3366 20.4925 17.9514L20.5775 17.9875C20.2009 18.2157 19.7569 18.3067 19.3209 18.245C18.9964 18.2003 18.6869 18.0803 18.4171 17.8948C18.2476 17.7774 18.1003 17.6309 17.9819 17.4622C17.9392 17.4054 17.9046 17.343 17.8789 17.2768C18.033 17.4984 18.2269 17.6896 18.4505 17.8407C18.7158 18.0122 19.0173 18.1197 19.3312 18.1548C19.7447 18.2068 20.1635 18.1159 20.5182 17.8973L20.5852 17.8536L20.6032 17.9308C20.6985 18.2883 20.895 18.6106 21.1691 18.8591C21.4431 19.1076 21.7831 19.2717 22.1482 19.3316C22.3569 19.356 22.5684 19.3338 22.7674 19.2666C22.9665 19.1994 23.1481 19.0888 23.2992 18.9428C23.6449 18.6375 23.9101 18.252 24.0717 17.8201L24.0949 17.7506L24.167 17.7737C24.5381 17.9014 24.9281 17.9658 25.3206 17.9643C25.7236 17.9466 26.1098 17.7974 26.4201 17.5394C26.7119 17.3185 26.9543 17.039 27.1317 16.7188C27.3091 16.3986 27.4175 16.0449 27.45 15.6803L27.4629 15.5052L27.5839 15.6365C27.7227 15.7727 27.8924 15.8732 28.0786 15.9292C28.2647 15.9853 28.4617 15.9953 28.6526 15.9584C28.8393 15.9312 29.0164 15.8577 29.1676 15.7447C29.3061 15.6206 29.4305 15.4816 29.5383 15.3301C29.7719 15.0587 29.9653 14.7552 30.1126 14.4289C30.1787 14.2846 30.2158 14.1286 30.2215 13.97C30.2273 13.8114 30.2016 13.6531 30.146 13.5044L30.1126 13.4169H30.2053C30.7193 13.4217 31.221 13.259 31.6344 12.9534C31.9529 12.726 32.2168 12.4304 32.4068 12.0882C32.5602 11.7824 32.6586 11.4521 32.6978 11.1123Z" fill="#455A64"/>
<path d="M32.928 30.684C32.8997 30.5475 32.0036 30.7844 31.1642 30.169C30.3247 29.5536 30.1702 28.588 30.044 28.624C29.9848 28.624 29.9256 28.8815 30.0209 29.2909C30.1526 29.8178 30.4652 30.2817 30.9041 30.6016C31.3271 30.9077 31.852 31.0387 32.3692 30.9672C32.7529 30.9029 32.9486 30.7458 32.928 30.684Z" fill="#211F54"/>
<path d="M22.308 40.6239C22.308 40.6239 22.9826 44.198 32.0207 46.5C32.0207 46.5 36.1664 43.8091 35.3244 40.2686L45.7684 46.5077L48.2662 75.9009L51.6136 96.601C41.2623 101.954 26.6365 100.685 12.7085 96.4671L16.7538 83.6799L16.4087 78.4759L11.8613 50.8414L20.0034 42.6993L22.308 40.6239Z" fill="#5EAD33"/>
<path d="M35.3242 40.2637C35.5251 40.2637 42.4929 42.2155 43.528 42.522C43.5821 42.54 46.309 43.4876 46.3605 43.4953C46.9991 43.5777 50.9079 45.0557 52.4889 48.5474C53.918 51.7017 56.3382 65.6594 56.3382 65.6594L45.9485 66.7862V51.4391L36.8126 43.2507L35.3242 40.2637Z" fill="#407BFF"/>
<path d="M45.4027 49.9609C45.4336 50.0701 45.4526 50.1823 45.4594 50.2956C45.4877 50.5145 45.5186 50.8312 45.5469 51.2226C45.6087 51.9951 45.6551 53.0895 45.6319 54.2868C45.6087 55.4842 45.5186 56.5683 45.4285 57.3485C45.3821 57.7373 45.3383 58.054 45.3023 58.2703C45.2916 58.383 45.2691 58.4944 45.2353 58.6025C45.2285 58.4889 45.2337 58.375 45.2508 58.2626C45.274 58.018 45.2997 57.709 45.3332 57.3382C45.4001 56.5657 45.4748 55.479 45.498 54.2843C45.5212 53.0895 45.498 52.0106 45.4542 51.2278C45.4336 50.857 45.4182 50.5454 45.4079 50.3008C45.3949 50.1879 45.3932 50.0741 45.4027 49.9609Z" fill="#211F54"/>
<path d="M46.2426 43.9121C46.2001 44.1389 46.1425 44.3625 46.0701 44.5816C45.7742 45.6508 45.5955 46.7491 45.5371 47.857C45.5367 48.0879 45.5194 48.3186 45.4856 48.547C45.444 48.3186 45.4293 48.0862 45.4418 47.8544C45.4465 46.7334 45.6282 45.6202 45.9799 44.5559C46.0416 44.3316 46.1298 44.1155 46.2426 43.9121Z" fill="#211F54"/>
<path d="M8.0332 62.9845C8.0332 62.9845 8.86234 69.1645 10.6313 73.8715C12.4003 78.5785 14.7204 82.6598 17.3262 82.8246C19.9321 82.9894 28.875 81.3878 32.6344 79.2866C36.3938 77.1855 38.9328 75.7512 38.9328 75.7512L44.3402 71.9943L39.8083 66.9088C39.8083 66.9088 27.8707 70.6116 25.8803 70.7223C24.6858 70.7867 23.4878 70.7098 22.3114 70.4931C22.3114 70.4931 22.6229 65.575 22.0693 63.6412C21.5157 61.7074 19.8059 58.0586 19.8059 58.0586L8.0332 62.9845Z" fill="#FFBF9D"/>
<path d="M22.3083 40.624C21.9014 40.8944 14.295 44.0719 13.5534 44.453C13.5534 44.453 5.42681 47.5429 6.38985 56.1948C6.92544 60.9971 7.80608 64.9188 7.80608 64.9188C7.80608 64.9188 11.102 67.4547 13.5534 66.4479C16.7103 65.1604 22.3083 64.9188 22.3083 64.9188L18.5591 52.2706L22.3083 40.624Z" fill="#407BFF"/>
<path d="M18.3974 52.541C18.4335 52.541 18.9948 54.2662 19.654 56.4163C20.3132 58.5664 20.8179 60.3225 20.7819 60.3328C20.7458 60.3431 20.1845 58.6102 19.5253 56.4575C18.8661 54.3048 18.3717 52.5513 18.3974 52.541Z" fill="#211F54"/>
<path d="M17.2915 50.0866C17.0649 49.7995 16.8225 49.5253 16.5653 49.2652L16.3696 49.085L16.143 48.9073C15.9781 48.7762 15.8062 48.6542 15.6281 48.5416C15.2189 48.2826 14.7882 48.0595 14.3406 47.8747C13.5243 47.5253 12.6524 47.3239 11.7656 47.2799C11.3997 47.2781 11.0344 47.3082 10.6738 47.37C10.7641 47.327 10.8592 47.295 10.9571 47.2748C11.2224 47.2151 11.4936 47.1848 11.7656 47.1846C12.6653 47.2026 13.5529 47.3949 14.3792 47.7511C14.8352 47.9391 15.273 48.1684 15.6873 48.4361C15.8701 48.57 16.0529 48.6936 16.2023 48.8197L16.4289 49.0077L16.622 49.1983C16.7337 49.3051 16.837 49.4205 16.931 49.5433C17.0081 49.6312 17.0771 49.7261 17.137 49.8266C17.1976 49.9075 17.2494 49.9946 17.2915 50.0866Z" fill="#211F54"/>
<g opacity="0.3">
<path opacity="0.3" d="M20.668 60.6182C22.0908 63.3463 22.8087 66.3869 22.7563 69.4632C25.2119 69.6985 27.5423 70.6584 29.4512 72.221C28.3156 71.4485 25.5089 70.4932 22.2129 70.5421C22.3777 65.4231 21.7443 64.0404 20.668 60.6182Z" fill="black"/>
</g>
</g>
</g>
</g>
<defs>
<clipPath id="clip0_300_477">
<rect width="64" height="65" fill="white"/>
</clipPath>
</defs>
</svg>
