<svg width="64" height="64" viewBox="0 0 64 64" fill="none" xmlns="http://www.w3.org/2000/svg">
<g clip-path="url(#clip0_301_594)">
<mask id="mask0_301_594" style="mask-type:alpha" maskUnits="userSpaceOnUse" x="0" y="0" width="64" height="64">
<path d="M64 0H0V64H64V0Z" fill="#DCDDEB"/>
</mask>
<g mask="url(#mask0_301_594)">
<path d="M64.334 0H0.333984V64H64.334V0Z" fill="#EFF0F7"/>
<mask id="mask1_301_594" style="mask-type:alpha" maskUnits="userSpaceOnUse" x="0" y="0" width="65" height="64">
<path d="M64.334 0H0.333984V64H64.334V0Z" fill="#EFF0F7"/>
</mask>
<g mask="url(#mask1_301_594)">
<path d="M26.3873 42.4445L27.9036 38.6091L36.9501 38.1309L40.6449 38.6091L41.0515 39.6702L43.5599 84.0437C43.5599 84.0437 34.7972 85.8105 30.4145 85.1968C26.0319 84.5832 20.8848 82.5836 20.8848 82.5836V57.349L26.3873 42.4445Z" fill="#E5D11F"/>
<path d="M45.6658 22.362C44.6686 18.0459 44.285 13.024 40.6951 10.2114C38.0333 8.12238 34.9982 7.5394 31.6179 7.68259C29.9533 7.75163 28.0739 8.51871 26.6216 9.3395C24.6348 10.4645 23.7936 12.7479 22.8322 14.8216C20.9119 18.9766 21.1548 24.6019 22.4563 26.1642L39.8155 35.3309C43.2827 33.5283 45.4536 32.8098 46.0084 28.1893C46.2325 26.2417 46.1166 24.27 45.6658 22.362Z" fill="#A0A3BD"/>
<path d="M40.514 13.6403L29.5907 10.416C26.0698 9.90467 23.5486 14.162 23.1855 17.7008C22.7841 21.6308 22.4466 26.4456 22.7969 29.404C23.5026 35.3515 28.0054 36.2822 28.0054 36.2822L27.9721 38.6704C27.9721 38.6704 27.8675 41.2576 28.9986 42.4592C30.1294 43.6606 32.1416 45.4899 33.0395 45.4899C33.8253 45.4899 36.2779 44.3991 37.6417 43.1327C39.2132 41.6734 40.5524 38.875 40.5524 38.875L42.2911 15.8214C42.3221 15.3013 42.1567 14.7885 41.8276 14.3846C41.4985 13.9807 41.0297 13.715 40.514 13.6403Z" fill="#FFBF9D"/>
<path d="M25.19 23.0832C25.1827 23.28 25.2514 23.472 25.3818 23.6196C25.5122 23.7671 25.6944 23.8589 25.8906 23.8758C25.9867 23.8875 26.0842 23.8798 26.1772 23.8531C26.2703 23.8265 26.3571 23.7814 26.4324 23.7206C26.5078 23.6598 26.5702 23.5845 26.6159 23.4992C26.6616 23.4138 26.6897 23.3202 26.6986 23.2238C26.7059 23.027 26.6372 22.8349 26.5068 22.6874C26.3764 22.5398 26.1942 22.4481 25.998 22.4311C25.9019 22.4194 25.8044 22.4271 25.7113 22.4538C25.6182 22.4805 25.5315 22.5255 25.4561 22.5863C25.3808 22.6471 25.3184 22.7224 25.2727 22.8078C25.227 22.8931 25.1988 22.9868 25.19 23.0832Z" fill="#211F54"/>
<path d="M23.9088 21.2648C23.9983 21.3671 24.5889 20.9657 25.4071 21.0091C26.2254 21.0526 26.8032 21.4745 26.8953 21.3773C26.9413 21.3364 26.8518 21.1549 26.5987 20.9529C26.2558 20.6946 25.8413 20.549 25.4123 20.5361C24.9879 20.5176 24.5687 20.635 24.2156 20.871C23.9573 21.0424 23.8653 21.2188 23.9088 21.2648Z" fill="#211F54"/>
<path d="M32.354 23.0832C32.3467 23.28 32.4154 23.472 32.5458 23.6196C32.6763 23.7671 32.8584 23.8589 33.0546 23.8758C33.1508 23.8879 33.2484 23.8804 33.3416 23.8539C33.4349 23.8274 33.5218 23.7824 33.5972 23.7215C33.6726 23.6606 33.735 23.5852 33.7806 23.4997C33.8262 23.4142 33.8541 23.3203 33.8627 23.2238C33.8699 23.027 33.8013 22.8349 33.6708 22.6874C33.5404 22.5398 33.3583 22.4481 33.162 22.4311C33.0659 22.4194 32.9685 22.4271 32.8754 22.4538C32.7823 22.4805 32.6955 22.5255 32.6202 22.5863C32.5448 22.6471 32.4825 22.7224 32.4368 22.8078C32.391 22.8931 32.3629 22.9868 32.354 23.0832Z" fill="#211F54"/>
<path d="M31.935 21.3725C32.0245 21.4774 32.6152 21.0734 33.4309 21.1168C34.2465 21.1603 34.8295 21.5822 34.9216 21.485C34.9676 21.4416 34.8781 21.26 34.625 21.0606C34.2814 20.8015 33.8661 20.6551 33.436 20.6412C33.0118 20.6247 32.5932 20.7419 32.2393 20.9762C31.9836 21.1398 31.889 21.3137 31.935 21.3725Z" fill="#211F54"/>
<path d="M28.7576 26.6501C28.7576 26.6041 28.259 26.4967 27.4408 26.3586C27.2337 26.3305 27.0393 26.2794 27.0087 26.1362C27 25.9206 27.057 25.7075 27.1723 25.5251L27.8499 23.9628C28.796 21.7382 29.4889 19.9049 29.3969 19.8716C29.3048 19.8384 28.4687 21.6052 27.5252 23.8324L26.8731 25.4049C26.7311 25.6506 26.6813 25.9389 26.7325 26.218C26.7591 26.2928 26.8028 26.3604 26.86 26.4155C26.9173 26.4705 26.9865 26.5115 27.0624 26.5351C27.1768 26.5712 27.2954 26.5927 27.4152 26.599C28.2386 26.6731 28.7525 26.6961 28.7576 26.6501Z" fill="#211F54"/>
<path d="M27.9796 36.282C30.7608 36.438 33.5306 35.8183 35.9803 34.4922C35.9803 34.4922 33.8606 38.5526 27.9668 37.7651L27.9796 36.282Z" fill="#FF9A6C"/>
<path d="M31.4026 28.4625C31.3016 28.2948 31.1608 28.1546 30.9927 28.0542C30.8245 27.9539 30.6343 27.8965 30.4387 27.8872C30.1651 27.8572 29.8885 27.9006 29.6373 28.013C29.3861 28.1253 29.1694 28.3026 29.0093 28.5264C28.8953 28.7376 28.8634 28.9835 28.9198 29.2168C28.9684 29.3344 28.9198 29.2756 29.017 29.36C29.3107 29.6857 29.6793 29.9349 30.0909 30.0862C30.3137 30.1509 30.5507 30.1472 30.7714 30.0756C30.9921 30.004 31.1861 29.8679 31.3285 29.6847C31.4513 29.5072 31.5232 29.2994 31.5363 29.084C31.5494 28.8685 31.5031 28.6536 31.4026 28.4625Z" fill="#FF9A6C"/>
<path d="M31.2817 27.3459C31.1513 27.3306 31.1079 28.2178 30.3229 28.811C29.5379 29.4043 28.5995 29.2662 28.5867 29.3889C28.5714 29.4426 28.7887 29.5705 29.185 29.5986C29.7032 29.6291 30.2156 29.4761 30.6323 29.1665C31.0333 28.8692 31.3021 28.4269 31.3814 27.934C31.4326 27.5658 31.3482 27.3434 31.2817 27.3459Z" fill="#211F54"/>
<path d="M31.6269 18.3761C31.6857 18.6037 32.5065 18.5781 33.45 18.7852C34.3935 18.9923 35.1376 19.3273 35.2833 19.1432C35.3498 19.0537 35.2347 18.8312 34.9458 18.5883C34.5559 18.2861 34.1024 18.0763 33.6196 17.9749C33.1368 17.8734 32.6373 17.883 32.1587 18.0028C31.7956 18.1102 31.6038 18.2662 31.6269 18.3761Z" fill="#211F54"/>
<path d="M23.9779 19.0714C24.162 19.2324 24.745 18.9512 25.5121 18.8336C26.2792 18.7159 26.9107 18.7569 27.0309 18.5446C27.0795 18.4423 26.9542 18.2736 26.6525 18.1381C26.2458 17.98 25.803 17.9383 25.374 18.0179C24.9345 18.0804 24.5225 18.2686 24.1876 18.56C23.9523 18.7875 23.8935 18.9895 23.9779 19.0714Z" fill="#211F54"/>
<path d="M29.5574 9.7793C29.5574 9.82277 29.5395 9.86368 29.5293 9.90715H29.5497L29.5574 9.7793Z" fill="#211F54"/>
<path d="M38.1845 38.392C38.0514 38.4295 37.912 38.4386 37.7752 38.4187C37.6383 38.3988 37.5072 38.3504 37.3903 38.2767C37.2734 38.2029 37.1733 38.1054 37.0965 37.9905C37.0196 37.8756 36.9678 37.7458 36.9443 37.6096C36.7566 36.4193 36.7462 35.2078 36.9137 34.0145C37.1054 32.3729 38.2203 30.6546 38.3583 29.0054C38.614 25.8629 38.3456 24.1012 37.9952 21.4649C36.5148 21.2808 35.134 20.3936 34.1598 19.2429C32.9734 17.8622 32.2574 16.149 31.5594 14.4666C31.6026 16.1309 32.1649 17.7401 33.1677 19.0691C32.835 19.1204 32.495 19.093 32.1748 18.9891C31.8546 18.8852 31.5633 18.7077 31.3241 18.4707C30.8505 17.9923 30.4821 17.4201 30.2426 16.7908C29.6033 15.2925 29.2478 13.6885 29.1942 12.0605C28.9718 14.39 29.233 16.7403 29.9613 18.9642C29.5471 18.8364 29.1021 18.9515 28.6828 19.0128C28.2635 19.0742 27.7623 19.064 27.458 18.7571C27.2741 18.5306 27.158 18.2567 27.1231 17.967C26.7161 15.9872 26.6504 13.9524 26.9287 11.9505C26.3682 13.0113 25.9134 14.1247 25.571 15.2745C25.2316 16.4355 25.2227 17.6681 25.5454 18.8338C25.4978 18.8829 25.4407 18.922 25.3777 18.9486C25.3147 18.9753 25.2469 18.989 25.1785 18.989C25.1101 18.989 25.0423 18.9753 24.9793 18.9486C24.9163 18.922 24.8592 18.8829 24.8116 18.8338C24.6248 18.6296 24.5122 18.3684 24.492 18.0923C24.336 17.0977 24.5099 16.0851 24.6863 15.0956C24.0956 16.1439 23.8987 17.361 23.5715 18.5168C23.2442 19.6725 22.7225 20.8641 21.7177 21.5238C21.5478 20.0117 21.5978 18.4829 21.866 16.9852C22.0628 15.745 22.6509 14.5151 23.1956 13.385C23.7726 12.133 24.5862 11.0043 25.5914 10.0609C27.3353 8.52673 28.064 9.19154 29.1712 9.77197L29.3016 9.82822C29.3016 9.80009 29.3016 9.77197 29.3016 9.7464L29.3502 9.5086C32.2637 8.85707 35.2986 8.99924 38.1384 9.92027C40.2351 10.603 40.4397 15.1186 40.9511 12.9733C41.2605 11.6744 42.943 12.8608 42.9634 12.8966C45.436 17.3585 48.0594 24.4361 48.1796 35.6203L38.1845 38.392Z" fill="#A0A3BD"/>
<path d="M23.472 41.2806L18.1024 42.3289C16.9576 42.5668 15.8979 43.1082 15.0341 43.8963C14.1704 44.6845 13.5345 45.6904 13.1931 46.8087C13.0237 47.3616 12.9014 47.9279 12.8274 48.5014C12.3595 52.1272 6.3777 69.2255 6.69584 71.9666C7.01399 74.7077 8.8309 77.5766 11.664 78.7476C14.7733 80.0261 16.9365 76.1626 16.9365 76.1626C16.9569 76.5154 16.9697 76.7123 16.9697 76.7123L8.8309 95.1224C10.902 98.8172 14.7912 103.144 18.7417 104.085C18.7417 104.085 23.3263 75.4747 23.5845 69.2255C23.8428 62.9763 27.8547 38.6904 27.8547 38.6904L23.472 41.2806Z" fill="#E5D11F"/>
<path d="M8.81836 95.12C8.82841 95.0877 8.84036 95.0561 8.85415 95.0253L8.96922 94.7518L9.41924 93.706L11.1119 89.8271C12.5643 86.526 14.592 81.9235 16.8983 76.6868V76.715C16.8574 75.3061 16.8037 73.8358 16.7347 72.3375C16.5762 68.9572 16.3921 65.738 16.2693 62.8102C16.1466 59.8825 16.0699 57.2386 16.0469 55.0218C16.0239 52.8049 16.0469 51.0073 16.0469 49.7672L16.0801 48.3404C16.0801 48.1819 16.0801 48.0592 16.0801 47.9697C16.0801 47.8802 16.0801 47.8418 16.0801 47.8418C16.0823 47.8844 16.0823 47.9271 16.0801 47.9697C16.0801 48.0592 16.0801 48.1819 16.0801 48.3404C16.0801 48.6728 16.0801 49.1535 16.0801 49.7698C16.0801 51.0099 16.0801 52.8023 16.1108 55.0192C16.1415 57.2361 16.2284 59.8774 16.3665 62.8026C16.5046 65.7277 16.6733 68.9521 16.8421 72.3324C16.9111 73.8307 16.9623 75.301 17.0057 76.7124V76.7252V76.7406L11.181 89.8603C10.4574 91.4993 9.86926 92.8136 9.46015 93.7341L8.98967 94.7569C8.93853 94.8719 8.89506 94.9589 8.86693 95.0253C8.85286 95.0579 8.83664 95.0895 8.81836 95.12Z" fill="#211F54"/>
<path d="M16.3021 63.8177C16.2791 63.8177 16.2689 63.5876 16.1436 63.2424C15.9847 62.7931 15.6903 62.4042 15.301 62.1294C14.9117 61.8546 14.4467 61.7074 13.9702 61.7082C13.6045 61.7082 13.3821 61.7773 13.377 61.7542C13.5599 61.6615 13.7625 61.6142 13.9676 61.6162C14.4689 61.5867 14.9655 61.7274 15.3768 62.0157C15.788 62.3039 16.0898 62.7227 16.2331 63.204C16.3066 63.3997 16.3303 63.6106 16.3021 63.8177Z" fill="#211F54"/>
<path d="M48.4783 79.843L53.6868 44.7896L44.0726 41.2661C44.0726 41.2661 41.8199 39.195 40.6207 38.1211L40.1988 43.5418C40.1988 43.5418 38.8871 65.703 40.9352 76.859C42.9834 88.015 42.6919 87.6417 44.1902 94.9035C45.2795 100.187 45.4687 104.802 47.1001 105.267C48.7314 105.733 54.4206 97.4144 54.4206 97.4144L48.4783 79.843Z" fill="#E5D11F"/>
<path d="M53.6781 44.7891C53.6781 44.7891 56.593 46.2185 57.0276 50.2891C57.4137 53.8689 58.0505 75.8587 57.9662 77.6256C57.8818 79.3924 56.3578 84.4092 53.6193 84.583C49.2853 84.8592 48.0938 81.5147 48.0938 81.5147L49.2468 70.2871L53.6781 44.7891Z" fill="#E5D11F"/>
<path d="M52.4898 50.4502C52.4831 50.524 52.472 50.5975 52.4566 50.67C52.4259 50.826 52.385 51.0331 52.3364 51.2939L51.8838 53.5952C51.508 55.5308 51.017 58.1977 50.5465 61.1817C50.0761 64.1657 49.7181 66.853 49.4803 68.8091C49.3627 69.7807 49.2681 70.5683 49.2016 71.1283C49.1683 71.384 49.1428 71.6039 49.1249 71.7598C49.1182 71.833 49.1063 71.9057 49.0891 71.9772C49.0823 71.904 49.0823 71.8304 49.0891 71.7573C49.1044 71.5987 49.1198 71.3891 49.1428 71.1231C49.1914 70.5734 49.2706 69.7807 49.378 68.7989C49.5928 66.8377 49.938 64.135 50.4008 61.1587C50.8636 58.1824 51.3801 55.5078 51.779 53.5773C51.9784 52.6108 52.1472 51.8309 52.2725 51.2939C52.3339 51.0383 52.3799 50.8286 52.4157 50.6752C52.434 50.5982 52.4588 50.5229 52.4898 50.4502Z" fill="#211F54"/>
</g>
</g>
</g>
<defs>
<clipPath id="clip0_301_594">
<rect width="64" height="64" fill="white"/>
</clipPath>
</defs>
</svg>
