<svg width="64" height="64" viewBox="0 0 64 64" fill="none" xmlns="http://www.w3.org/2000/svg">
<mask id="mask0_301_558" style="mask-type:alpha" maskUnits="userSpaceOnUse" x="0" y="0" width="64" height="64">
<path d="M64 0H0V64H64V0Z" fill="#C4C4C4"/>
</mask>
<g mask="url(#mask0_301_558)">
<path d="M64 0H0V64H64V0Z" fill="#EFF0F7"/>
<mask id="mask1_301_558" style="mask-type:alpha" maskUnits="userSpaceOnUse" x="0" y="0" width="64" height="64">
<path d="M64 0H0V64H64V0Z" fill="#EFF0F7"/>
</mask>
<g mask="url(#mask1_301_558)">
<path d="M38.463 18.0737C39.0517 18.1147 39.6344 17.9347 40.0975 17.569C40.5605 17.2032 40.8706 16.678 40.9671 16.0959C41.0636 15.5138 40.9397 14.9166 40.6195 14.421C40.2993 13.9254 39.8058 13.5669 39.2355 13.4156C39.5783 13.0268 39.7899 12.5399 39.8403 12.024C39.8907 11.5081 39.7773 10.9895 39.5162 10.5417C39.2551 10.0939 38.8596 9.73971 38.3858 9.52945C37.912 9.31919 37.3841 9.26351 36.8768 9.37033C36.8303 8.86108 36.6524 8.37263 36.3604 7.95279C36.0684 7.53296 35.6725 7.19612 35.2113 6.97525C34.7501 6.75437 34.2394 6.65703 33.7293 6.69276C33.2192 6.72848 32.7271 6.89604 32.3011 7.17904C31.7035 6.74039 30.9763 6.51427 30.2353 6.53667C29.4943 6.55907 28.7821 6.82869 28.2121 7.30263C27.708 7.23205 27.1945 7.32627 26.7483 7.57124C26.3021 7.81622 25.947 8.19883 25.736 8.66205C25.5249 9.12528 25.4692 9.6443 25.5771 10.1418C25.6851 10.6393 25.9509 11.0885 26.3349 11.4226" fill="#9D6428"/>
<path d="M27.8246 9.66909L28.3396 9.64334C30.8673 9.51736 33.3496 10.3485 35.2919 11.971C37.2342 13.5936 38.4938 15.8884 38.8197 18.3982C39.4531 23.2366 40.0891 28.5899 40.187 31.1984C40.3878 36.6058 35.037 37.7027 35.037 37.7027L35.8095 44.1633L32.923 47.2945L22.6952 44.4079L20.3778 20.9552C19.6156 15.3675 22.2266 10.2742 27.8246 9.66909Z" fill="#FFBF9D"/>
<path d="M35.0822 37.6823C32.581 37.8057 30.0968 37.2097 27.9238 35.9648C27.9238 35.9648 29.8473 39.75 35.2084 38.9955L35.0822 37.6823Z" fill="#FF9A6C"/>
<path d="M36.3695 24.1326C36.381 24.333 36.314 24.53 36.1828 24.6818C36.0516 24.8337 35.8664 24.9286 35.6665 24.9463C35.569 24.9589 35.4699 24.9518 35.3751 24.9256C35.2803 24.8994 35.1917 24.8545 35.1145 24.7936C35.0372 24.7326 34.9729 24.6569 34.9254 24.5708C34.8778 24.4848 34.8479 24.3901 34.8374 24.2923C34.8252 24.0915 34.8918 23.8938 35.0231 23.7414C35.1544 23.5889 35.3399 23.4937 35.5403 23.476C35.6381 23.4631 35.7375 23.47 35.8326 23.4962C35.9277 23.5224 36.0166 23.5675 36.0939 23.6288C36.1712 23.69 36.2355 23.7662 36.2828 23.8527C36.3302 23.9393 36.3596 24.0345 36.3695 24.1326Z" fill="#211F54"/>
<path d="M37.7932 21.0866C37.7031 21.1922 37.098 20.7879 36.2688 20.8291C35.4397 20.8703 34.8526 21.3184 34.7599 21.2205C34.7136 21.1768 34.8011 20.9914 35.056 20.7854C35.4019 20.5186 35.8221 20.3656 36.2585 20.3476C36.6901 20.3245 37.1178 20.44 37.4791 20.6772C37.7443 20.86 37.8396 21.0403 37.7932 21.0866Z" fill="#211F54"/>
<path d="M29.2834 24.3154C29.2949 24.5157 29.2279 24.7127 29.0967 24.8646C28.9655 25.0165 28.7803 25.1113 28.5804 25.129C28.4827 25.1416 28.3834 25.1345 28.2884 25.1081C28.1935 25.0817 28.1048 25.0366 28.0275 24.9754C27.9503 24.9142 27.886 24.8382 27.8386 24.7518C27.7911 24.6654 27.7615 24.5704 27.7513 24.4724C27.7398 24.272 27.8067 24.0751 27.9379 23.9232C28.0691 23.7713 28.2543 23.6765 28.4542 23.6587C28.552 23.6458 28.6514 23.6527 28.7465 23.6789C28.8416 23.7052 28.9305 23.7503 29.0078 23.8115C29.0851 23.8728 29.1494 23.9489 29.1967 24.0355C29.2441 24.122 29.2735 24.2172 29.2834 24.3154Z" fill="#211F54"/>
<path d="M29.6513 21.6454C29.5611 21.751 28.956 21.3493 28.1269 21.3879C27.2977 21.4265 26.7106 21.8746 26.6154 21.7767C26.569 21.7355 26.6566 21.5501 26.9141 21.3441C27.2597 21.0769 27.68 20.9239 28.1166 20.9064C28.5479 20.8827 28.9754 20.9973 29.3371 21.2334C29.5998 21.4214 29.6976 21.5991 29.6513 21.6454Z" fill="#211F54"/>
<path d="M32.9694 27.6445C32.9694 27.5981 33.4844 27.4823 34.3033 27.3355C34.5144 27.302 34.7127 27.2505 34.741 27.1037C34.7464 26.8843 34.6863 26.6683 34.5685 26.4832C34.3444 25.9682 34.1076 25.4532 33.8629 24.9021C32.8793 22.6516 32.1557 20.7951 32.2459 20.7565C32.336 20.7178 33.2089 22.51 34.1925 24.7631L34.8723 26.3544C35.0177 26.6038 35.0715 26.8962 35.0242 27.181C34.9962 27.2569 34.9516 27.3256 34.8937 27.3822C34.8358 27.4387 34.7661 27.4817 34.6895 27.508C34.5743 27.5449 34.4549 27.5674 34.3342 27.575C33.4947 27.6625 32.9746 27.6908 32.9694 27.6445Z" fill="#211F54"/>
<path d="M30.2143 18.4215C30.1165 18.6352 29.3929 18.4421 28.5174 18.4575C27.6419 18.473 26.9132 18.6558 26.8205 18.4421C26.7819 18.3391 26.9287 18.1408 27.2351 17.958C27.6281 17.7361 28.0712 17.6182 28.5226 17.6155C28.9731 17.6086 29.4174 17.7214 29.81 17.9425C30.119 18.1228 30.2581 18.3185 30.2143 18.4215Z" fill="#211F54"/>
<path d="M37.6646 17.6642C37.4998 17.8625 36.8045 17.7003 35.9831 17.7337C35.1617 17.7672 34.4691 17.9346 34.2991 17.7337C34.2244 17.641 34.3249 17.4453 34.6184 17.2522C35.028 17.0099 35.4944 16.8802 35.9703 16.8763C36.444 16.8566 36.9143 16.9642 37.3324 17.1878C37.6311 17.381 37.7367 17.5689 37.6646 17.6642Z" fill="#211F54"/>
<path d="M21.5018 26.1538C21.4857 25.956 21.4296 25.7636 21.3369 25.5881C21.2441 25.4127 21.1167 25.2579 20.9624 25.1332C20.8081 25.0084 20.63 24.9164 20.439 24.8625C20.248 24.8087 20.048 24.7942 19.8513 24.82C18.8496 24.9668 17.7578 25.5925 17.9278 27.6705C18.229 31.3527 21.8649 30.2892 21.8623 30.1836C21.8597 30.0781 21.6434 27.6936 21.5018 26.1538Z" fill="#FFBF9D"/>
<path d="M20.9483 28.8652C20.9303 28.8652 20.8865 28.9141 20.7835 28.9733C20.6362 29.051 20.4646 29.0685 20.3046 29.0223C19.9029 28.9115 19.5321 28.3193 19.4549 27.6575C19.4179 27.343 19.4531 27.0242 19.5579 26.7254C19.5827 26.6072 19.636 26.4969 19.7132 26.404C19.7904 26.3111 19.8891 26.2384 20.0008 26.1924C20.073 26.1674 20.1516 26.1681 20.2234 26.1944C20.2952 26.2207 20.3557 26.2709 20.3947 26.3366C20.4514 26.437 20.4333 26.5117 20.4539 26.5168C20.4745 26.522 20.5286 26.4473 20.4848 26.2979C20.4577 26.2084 20.4004 26.1311 20.3226 26.0791C20.2146 26.0111 20.0843 25.988 19.9596 26.0147C19.8107 26.0568 19.6752 26.1364 19.5661 26.246C19.457 26.3556 19.3779 26.4914 19.3364 26.6404C19.205 26.9722 19.1573 27.3312 19.1974 27.6859C19.2823 28.4249 19.7124 29.0892 20.2634 29.1999C20.3648 29.2208 20.4696 29.2185 20.5699 29.1931C20.6703 29.1677 20.7636 29.1198 20.8428 29.0532C20.9483 28.9527 20.9715 28.8703 20.9483 28.8652Z" fill="#7C4236"/>
<path d="M21.2295 19.003C21.7238 19.3069 22.2466 19.6184 22.8259 19.6467C23.4053 19.6751 24.049 19.312 24.1134 18.7352C24.1443 18.4777 24.0671 18.1816 24.2267 17.9627C24.4173 17.7052 24.7906 17.7722 25.1022 17.7902C26.1811 17.8494 27.3733 16.6031 27.5948 15.5474C27.7452 15.7361 27.9609 15.8614 28.1994 15.8986C28.4378 15.9358 28.6815 15.8822 28.8822 15.7483C29.2124 15.5224 29.5001 15.2399 29.732 14.914C30.0384 14.5277 30.4761 14.175 30.968 14.2187C31.2409 14.2445 31.5036 14.3938 31.7765 14.3552C32.2606 14.2883 32.4692 13.7089 32.5181 13.2248C32.567 12.7407 32.5953 12.1768 32.9945 11.8961C33.3936 11.6154 33.8622 11.7493 34.3103 11.7931C34.7583 11.8369 35.3402 11.703 35.4226 11.2627C35.4361 11.1447 35.4254 11.0252 35.3913 10.9115C35.3572 10.7977 35.3004 10.6921 35.2244 10.6009C34.9031 10.1686 34.4455 9.85732 33.9255 9.71711C33.4055 9.57694 32.8534 9.61616 32.3584 9.82842C32.144 9.22486 31.7556 8.69833 31.2422 8.31531C30.7287 7.9323 30.1134 7.70995 29.4737 7.67634C28.8341 7.64273 28.1988 7.79937 27.6481 8.12648C27.0974 8.45359 26.6559 8.93651 26.3794 9.51429C25.9699 9.17848 25.4854 8.94645 24.9671 8.83791C24.4487 8.72937 23.9119 8.74753 23.4021 8.89085C22.8922 9.03416 22.4245 9.2984 22.0387 9.66111C21.6528 10.0238 21.3602 10.4743 21.1857 10.9743C20.7269 10.8765 20.2495 10.9162 19.8131 11.0885C19.3768 11.2608 19.001 11.5579 18.7327 11.9427C18.4645 12.3275 18.3157 12.7829 18.3049 13.2519C18.2942 13.7209 18.4221 14.1826 18.6725 14.5792C18.0288 14.9912 17.4932 15.6787 17.5163 16.4435C17.5395 17.2083 18.3223 17.9318 19.0613 17.6924C18.9286 18.0001 18.9179 18.3467 19.0312 18.6621C19.1446 18.9775 19.3735 19.238 19.6718 19.3908C19.97 19.5437 20.3151 19.5775 20.6374 19.4854C20.9596 19.3934 21.2347 19.1822 21.4071 18.8949" fill="#9D6428"/>
<path d="M32.6978 10.918C32.7007 10.9411 32.7007 10.9644 32.6978 10.9875C32.6962 11.0538 32.691 11.12 32.6824 11.1858C32.6467 11.4384 32.5684 11.6831 32.4506 11.9094C32.2667 12.2686 32.0023 12.5805 31.6781 12.8209C31.2521 13.1514 30.729 13.3324 30.1898 13.3359L30.249 13.2509C30.3773 13.5839 30.369 13.954 30.2259 14.2809C30.0765 14.6201 29.8788 14.9358 29.6388 15.2182C29.5236 15.3795 29.3925 15.5287 29.2474 15.6637C29.0789 15.7911 28.8817 15.8751 28.6731 15.9083C28.4573 15.9508 28.2343 15.9397 28.0237 15.876C27.8132 15.8122 27.6215 15.6978 27.4655 15.5426L27.5994 15.4963C27.5674 15.8819 27.4551 16.2566 27.2697 16.5963C27.0844 16.936 26.83 17.2331 26.5231 17.4687C26.1855 17.7457 25.7671 17.9057 25.3309 17.9245C24.9199 17.9261 24.5115 17.8582 24.1232 17.7236L24.221 17.6747C24.0522 18.1308 23.7715 18.5372 23.4048 18.8566C23.2377 19.0163 23.0369 19.1364 22.8172 19.2081C22.5975 19.2799 22.3645 19.3014 22.1353 19.2712C21.7436 19.2066 21.3794 19.0289 21.0874 18.7599C20.7955 18.4908 20.5887 18.1423 20.4925 17.7571L20.5775 17.7932C20.2009 18.0214 19.7569 18.1124 19.3209 18.0507C18.9964 18.006 18.6869 17.886 18.4171 17.7005C18.2476 17.5831 18.1003 17.4366 17.9819 17.2679C17.9392 17.2111 17.9046 17.1487 17.8789 17.0825C18.033 17.3041 18.2269 17.4953 18.4505 17.6464C18.7158 17.8179 19.0173 17.9254 19.3312 17.9605C19.7447 18.0125 20.1635 17.9216 20.5182 17.703L20.5852 17.6593L20.6032 17.7365C20.6985 18.094 20.895 18.4163 21.1691 18.6648C21.4431 18.9133 21.7831 19.0774 22.1482 19.1373C22.3569 19.1617 22.5684 19.1395 22.7674 19.0723C22.9665 19.0051 23.1481 18.8945 23.2992 18.7485C23.6449 18.4432 23.9101 18.0577 24.0717 17.6258L24.0949 17.5563L24.167 17.5794C24.5381 17.7071 24.9281 17.7715 25.3206 17.77C25.7236 17.7523 26.1098 17.6031 26.4201 17.3451C26.7119 17.1242 26.9543 16.8447 27.1317 16.5245C27.3091 16.2043 27.4175 15.8506 27.45 15.486L27.4629 15.3109L27.5839 15.4422C27.7227 15.5784 27.8924 15.6789 28.0786 15.7349C28.2647 15.791 28.4617 15.801 28.6526 15.7641C28.8393 15.7369 29.0164 15.6634 29.1676 15.5504C29.3061 15.4263 29.4305 15.2873 29.5383 15.1358C29.7719 14.8644 29.9653 14.5609 30.1126 14.2346C30.1787 14.0903 30.2158 13.9343 30.2215 13.7757C30.2273 13.6171 30.2016 13.4588 30.146 13.3101L30.1126 13.2226H30.2053C30.7193 13.2274 31.221 13.0647 31.6344 12.7591C31.9529 12.5317 32.2168 12.2361 32.4068 11.8939C32.5602 11.5881 32.6586 11.2578 32.6978 10.918Z" fill="#455A64"/>
<path d="M32.928 30.4897C32.8997 30.3532 32.0036 30.5901 31.1642 29.9747C30.3247 29.3593 30.1702 28.3937 30.044 28.4297C29.9848 28.4297 29.9256 28.6872 30.0209 29.0966C30.1526 29.6235 30.4652 30.0874 30.9041 30.4073C31.3271 30.7134 31.852 30.8444 32.3692 30.7729C32.7529 30.7086 32.9486 30.5515 32.928 30.4897Z" fill="#211F54"/>
<path d="M22.308 40.4295C22.308 40.4295 22.9826 44.0036 32.0207 46.3056C32.0207 46.3056 36.1664 43.6147 35.3244 40.0742L45.7684 46.3133L48.2662 75.7065L51.6136 96.4066C41.2623 101.76 26.6365 100.491 12.7085 96.2727L16.7538 83.4855L16.4087 78.2815L11.8613 50.647L20.0034 42.5049L22.308 40.4295Z" fill="#05C168"/>
<path d="M35.3242 40.0693C35.5251 40.0693 42.4929 42.0211 43.528 42.3276C43.5821 42.3456 46.309 43.2932 46.3605 43.3009C46.9991 43.3833 50.9079 44.8613 52.4889 48.353C53.918 51.5073 56.3382 65.465 56.3382 65.465L45.9485 66.5918V51.2447L36.8126 43.0563L35.3242 40.0693Z" fill="#326C90"/>
<path d="M45.4027 49.7666C45.4336 49.8758 45.4526 49.988 45.4594 50.1013C45.4877 50.3202 45.5186 50.6369 45.5469 51.0283C45.6087 51.8008 45.6551 52.8952 45.6319 54.0925C45.6087 55.2899 45.5186 56.374 45.4285 57.1542C45.3821 57.543 45.3383 57.8597 45.3023 58.076C45.2916 58.1887 45.2691 58.3001 45.2353 58.4082C45.2285 58.2946 45.2337 58.1807 45.2508 58.0683C45.274 57.8237 45.2997 57.5147 45.3332 57.1439C45.4001 56.3714 45.4748 55.2847 45.498 54.09C45.5212 52.8952 45.498 51.8163 45.4542 51.0335C45.4336 50.6627 45.4182 50.3511 45.4079 50.1065C45.3949 49.9936 45.3932 49.8798 45.4027 49.7666Z" fill="#211F54"/>
<path d="M46.2426 43.7178C46.2001 43.9446 46.1425 44.1682 46.0701 44.3873C45.7742 45.4565 45.5955 46.5548 45.5371 47.6627C45.5367 47.8936 45.5194 48.1243 45.4856 48.3527C45.444 48.1243 45.4293 47.8919 45.4418 47.6601C45.4465 46.5391 45.6282 45.4259 45.9799 44.3616C46.0416 44.1373 46.1298 43.9212 46.2426 43.7178Z" fill="#211F54"/>
<path d="M8.0332 62.7902C8.0332 62.7902 8.86234 68.9702 10.6313 73.6772C12.4003 78.3842 14.7204 82.4655 17.3262 82.6303C19.9321 82.7951 28.875 81.1935 32.6344 79.0923C36.3938 76.9912 38.9328 75.5569 38.9328 75.5569L44.3402 71.8L39.8083 66.7145C39.8083 66.7145 27.8707 70.4173 25.8803 70.528C24.6858 70.5924 23.4878 70.5155 22.3114 70.2988C22.3114 70.2988 22.6229 65.3807 22.0693 63.4469C21.5157 61.5131 19.8059 57.8643 19.8059 57.8643L8.0332 62.7902Z" fill="#FFBF9D"/>
<path d="M22.3083 40.4297C21.9014 40.7001 14.295 43.8776 13.5534 44.2587C13.5534 44.2587 5.42681 47.3486 6.38985 56.0005C6.92544 60.8028 7.80608 64.7245 7.80608 64.7245C7.80608 64.7245 11.102 67.2604 13.5534 66.2536C16.7103 64.9661 22.3083 64.7245 22.3083 64.7245L18.5591 52.0763L22.3083 40.4297Z" fill="#326C90"/>
<path d="M18.3974 52.3467C18.4335 52.3467 18.9948 54.0719 19.654 56.222C20.3132 58.3721 20.8179 60.1282 20.7819 60.1385C20.7458 60.1488 20.1845 58.4159 19.5253 56.2632C18.8661 54.1105 18.3717 52.357 18.3974 52.3467Z" fill="#211F54"/>
<path d="M17.2915 49.8922C17.0649 49.6051 16.8225 49.3309 16.5653 49.0708L16.3696 48.8906L16.143 48.7129C15.9781 48.5818 15.8062 48.4598 15.6281 48.3472C15.2189 48.0882 14.7882 47.8651 14.3406 47.6803C13.5243 47.3309 12.6524 47.1295 11.7656 47.0855C11.3997 47.0837 11.0344 47.1138 10.6738 47.1756C10.7641 47.1326 10.8592 47.1006 10.9571 47.0804C11.2224 47.0207 11.4936 46.9904 11.7656 46.9902C12.6653 47.0082 13.5529 47.2005 14.3792 47.5567C14.8352 47.7447 15.273 47.974 15.6873 48.2417C15.8701 48.3756 16.0529 48.4992 16.2023 48.6253L16.4289 48.8133L16.622 49.0039C16.7337 49.1107 16.837 49.2261 16.931 49.3489C17.0081 49.4368 17.0771 49.5317 17.137 49.6322C17.1976 49.7131 17.2494 49.8002 17.2915 49.8922Z" fill="#211F54"/>
<g opacity="0.3">
<path opacity="0.3" d="M20.668 60.4238C22.0908 63.1519 22.8087 66.1925 22.7563 69.2688C25.2119 69.5041 27.5423 70.464 29.4512 72.0266C28.3156 71.2541 25.5089 70.2988 22.2129 70.3477C22.3777 65.2287 21.7443 63.846 20.668 60.4238Z" fill="black"/>
</g>
</g>
</g>
</svg>
