<svg width="64" height="65" viewBox="0 0 64 65" fill="none" xmlns="http://www.w3.org/2000/svg">
<g clip-path="url(#clip0_299_327)">
<mask id="mask0_299_327" style="mask-type:alpha" maskUnits="userSpaceOnUse" x="0" y="0" width="64" height="65">
<path d="M0 0.194336H64V64.1943H0V0.194336Z" fill="#C4C4C4"/>
</mask>
<g mask="url(#mask0_299_327)">
<path d="M0 0.194336H64V64.1943H0V0.194336Z" fill="#EFF0F7"/>
<mask id="mask1_299_327" style="mask-type:alpha" maskUnits="userSpaceOnUse" x="0" y="0" width="64" height="65">
<path d="M0 0.194336H64V64.1943H0V0.194336Z" fill="#EFF0F7"/>
</mask>
<g mask="url(#mask1_299_327)">
<path d="M36.1754 9.86343L35.6604 9.83768C33.1327 9.7117 30.6504 10.5428 28.7081 12.1653C26.7658 13.7879 25.5062 16.0827 25.1803 18.5925C24.5469 23.4309 23.9109 28.7842 23.813 31.3927C23.6122 36.8001 28.963 37.897 28.963 37.897L28.1905 44.3576L31.077 47.4888L41.3048 44.6022L43.6222 21.1495C44.3844 15.5618 41.7734 10.4685 36.1754 9.86343Z" fill="#FFBF9D"/>
<path d="M28.9178 37.8767C31.419 38.0001 33.9032 37.4041 36.0762 36.1592C36.0762 36.1592 34.1527 39.9444 28.7916 39.1899L28.9178 37.8767Z" fill="#FF9A6C"/>
<path d="M27.6305 24.327C27.619 24.5274 27.686 24.7244 27.8172 24.8762C27.9484 25.0281 28.1336 25.123 28.3335 25.1407C28.431 25.1533 28.5301 25.1462 28.6249 25.12C28.7197 25.0938 28.8083 25.0489 28.8855 24.988C28.9628 24.927 29.0271 24.8513 29.0746 24.7652C29.1222 24.6792 29.1521 24.5845 29.1626 24.4867C29.1748 24.2859 29.1082 24.0882 28.9769 23.9358C28.8456 23.7833 28.6601 23.6881 28.4597 23.6704C28.3619 23.6575 28.2625 23.6644 28.1674 23.6906C28.0723 23.7168 27.9834 23.7619 27.9061 23.8232C27.8288 23.8844 27.7645 23.9606 27.7172 24.0471C27.6698 24.1337 27.6404 24.2289 27.6305 24.327Z" fill="#211F54"/>
<path d="M26.2068 21.281C26.2969 21.3866 26.902 20.9823 27.7312 21.0235C28.5603 21.0647 29.1474 21.5128 29.2401 21.4149C29.2864 21.3712 29.1989 21.1858 28.944 20.9798C28.5981 20.713 28.1779 20.56 27.7415 20.542C27.3099 20.5189 26.8822 20.6344 26.5209 20.8716C26.2557 21.0544 26.1604 21.2347 26.2068 21.281Z" fill="#211F54"/>
<path d="M34.7166 24.5097C34.7051 24.71 34.7721 24.907 34.9033 25.0589C35.0345 25.2108 35.2197 25.3056 35.4196 25.3233C35.5173 25.3359 35.6166 25.3288 35.7116 25.3024C35.8065 25.276 35.8952 25.2309 35.9725 25.1697C36.0497 25.1085 36.114 25.0325 36.1614 24.9461C36.2089 24.8597 36.2385 24.7647 36.2487 24.6667C36.2602 24.4663 36.1933 24.2694 36.0621 24.1175C35.9309 23.9656 35.7457 23.8708 35.5458 23.853C35.448 23.8401 35.3486 23.847 35.2535 23.8732C35.1584 23.8995 35.0695 23.9446 34.9922 24.0058C34.9149 24.0671 34.8506 24.1432 34.8033 24.2298C34.7559 24.3163 34.7265 24.4115 34.7166 24.5097Z" fill="#211F54"/>
<path d="M34.3487 21.8397C34.4389 21.9453 35.044 21.5436 35.8731 21.5822C36.7023 21.6208 37.2894 22.0689 37.3846 21.971C37.431 21.9298 37.3434 21.7444 37.0859 21.5384C36.7403 21.2712 36.32 21.1182 35.8834 21.1007C35.4521 21.077 35.0246 21.1916 34.6629 21.4277C34.4002 21.6157 34.3024 21.7934 34.3487 21.8397Z" fill="#211F54"/>
<path d="M31.0306 27.8388C31.0306 27.7924 30.5156 27.6766 29.6967 27.5298C29.4856 27.4963 29.2873 27.4448 29.259 27.298C29.2536 27.0786 29.3137 26.8626 29.4315 26.6775C29.6556 26.1625 29.8924 25.6475 30.1371 25.0964C31.1207 22.8459 31.8443 20.9894 31.7541 20.9508C31.664 20.9121 30.7911 22.7043 29.8075 24.9574L29.1277 26.5487C28.9823 26.7981 28.9285 27.0905 28.9758 27.3753C29.0038 27.4512 29.0484 27.5199 29.1063 27.5765C29.1642 27.633 29.2339 27.676 29.3105 27.7023C29.4257 27.7392 29.5451 27.7617 29.6658 27.7693C30.5053 27.8568 31.0254 27.8851 31.0306 27.8388Z" fill="#211F54"/>
<path d="M33.7857 18.6159C33.8835 18.8296 34.6071 18.6365 35.4826 18.6519C36.3581 18.6674 37.0868 18.8502 37.1795 18.6365C37.2181 18.5335 37.0713 18.3352 36.7649 18.1524C36.3719 17.9305 35.9288 17.8126 35.4774 17.8099C35.0269 17.803 34.5826 17.9158 34.19 18.1369C33.881 18.3172 33.7419 18.5129 33.7857 18.6159Z" fill="#211F54"/>
<path d="M26.3354 17.8586C26.5002 18.0569 27.1955 17.8947 28.0169 17.9281C28.8383 17.9616 29.5309 18.129 29.7009 17.9281C29.7756 17.8354 29.6751 17.6396 29.3816 17.4465C28.972 17.2042 28.5056 17.0746 28.0297 17.0707C27.556 17.051 27.0857 17.1585 26.6676 17.3821C26.3689 17.5753 26.2633 17.7633 26.3354 17.8586Z" fill="#211F54"/>
<path d="M42.4982 26.3482C42.5143 26.1504 42.5704 25.958 42.6631 25.7825C42.7559 25.6071 42.8833 25.4523 43.0376 25.3276C43.1919 25.2028 43.37 25.1108 43.561 25.0569C43.752 25.0031 43.952 24.9886 44.1487 25.0144C45.1504 25.1612 46.2422 25.7869 46.0722 27.8649C45.771 31.5471 42.1351 30.4836 42.1377 30.378C42.1403 30.2725 42.3566 27.888 42.4982 26.3482Z" fill="#FFBF9D"/>
<path d="M43.0517 29.0596C43.0697 29.0596 43.1135 29.1085 43.2165 29.1677C43.3638 29.2454 43.5354 29.2629 43.6954 29.2167C44.0971 29.1059 44.4679 28.5137 44.5451 27.8519C44.5821 27.5374 44.5469 27.2186 44.4421 26.9198C44.4173 26.8016 44.364 26.6913 44.2868 26.5984C44.2096 26.5055 44.1109 26.4328 43.9992 26.3868C43.927 26.3618 43.8484 26.3625 43.7766 26.3888C43.7048 26.4151 43.6443 26.4653 43.6053 26.531C43.5486 26.6314 43.5667 26.7061 43.5461 26.7112C43.5255 26.7164 43.4714 26.6417 43.5152 26.4923C43.5423 26.4028 43.5996 26.3255 43.6774 26.2735C43.7854 26.2055 43.9157 26.1824 44.0404 26.2091C44.1893 26.2512 44.3248 26.3308 44.4339 26.4404C44.543 26.55 44.6221 26.6858 44.6636 26.8348C44.795 27.1666 44.8427 27.5256 44.8026 27.8803C44.7177 28.6193 44.2876 29.2836 43.7366 29.3943C43.6352 29.4152 43.5304 29.4129 43.4301 29.3875C43.3297 29.3621 43.2364 29.3142 43.1572 29.2476C43.0517 29.1471 43.0285 29.0647 43.0517 29.0596Z" fill="#7C4236"/>
<path d="M31.072 30.684C31.1003 30.5475 31.9964 30.7844 32.8358 30.169C33.6753 29.5536 33.8298 28.588 33.956 28.624C34.0152 28.624 34.0744 28.8815 33.9791 29.2909C33.8474 29.8178 33.5348 30.2817 33.0959 30.6016C32.6729 30.9077 32.148 31.0387 31.6308 30.9672C31.2471 30.9029 31.0514 30.7458 31.072 30.684Z" fill="#211F54"/>
<path d="M41.692 40.6239C41.692 40.6239 41.0174 44.198 31.9793 46.5C31.9793 46.5 27.8336 43.8091 28.6756 40.2686L18.2316 46.5077L15.7338 75.9009L12.3864 96.601C22.7377 101.954 37.3635 100.685 51.2915 96.4671L47.2462 83.6799L47.5913 78.4759L52.1387 50.8414L43.9966 42.6993L41.692 40.6239Z" fill="#0075FF"/>
<path d="M28.6758 40.2637C28.4749 40.2637 21.5071 42.2155 20.472 42.522C20.4179 42.54 17.691 43.4876 17.6395 43.4953C17.0009 43.5777 13.0921 45.0557 11.5111 48.5474C10.082 51.7017 7.66178 65.6594 7.66178 65.6594L18.0515 66.7862V51.4391L27.1874 43.2507L28.6758 40.2637Z" fill="#0075FF"/>
<path d="M18.5973 49.9609C18.5664 50.0701 18.5474 50.1823 18.5406 50.2956C18.5123 50.5145 18.4814 50.8312 18.4531 51.2226C18.3913 51.9951 18.3449 53.0895 18.3681 54.2868C18.3913 55.4842 18.4814 56.5683 18.5715 57.3485C18.6179 57.7373 18.6617 58.054 18.6977 58.2703C18.7084 58.383 18.7309 58.4944 18.7647 58.6025C18.7715 58.4889 18.7663 58.375 18.7492 58.2626C18.726 58.018 18.7003 57.709 18.6668 57.3382C18.5999 56.5657 18.5252 55.479 18.502 54.2843C18.4788 53.0895 18.502 52.0106 18.5458 51.2278C18.5664 50.857 18.5818 50.5454 18.5921 50.3008C18.6051 50.1879 18.6068 50.0741 18.5973 49.9609Z" fill="#211F54"/>
<path d="M17.7574 43.9121C17.7999 44.1389 17.8575 44.3625 17.9299 44.5816C18.2258 45.6508 18.4045 46.7491 18.4629 47.857C18.4633 48.0879 18.4806 48.3186 18.5144 48.547C18.556 48.3186 18.5707 48.0862 18.5582 47.8544C18.5535 46.7334 18.3718 45.6202 18.0201 44.5559C17.9584 44.3316 17.8702 44.1155 17.7574 43.9121Z" fill="#211F54"/>
<path d="M55.9668 62.9845C55.9668 62.9845 55.1377 69.1645 53.3687 73.8715C51.5997 78.5785 49.2796 82.6598 46.6738 82.8246C44.0679 82.9894 35.125 81.3878 31.3656 79.2866C27.6062 77.1855 25.0672 75.7512 25.0672 75.7512L19.6598 71.9943L24.1917 66.9088C24.1917 66.9088 36.1293 70.6116 38.1197 70.7223C39.3142 70.7867 40.5122 70.7098 41.6886 70.4931C41.6886 70.4931 41.3771 65.575 41.9307 63.6412C42.4843 61.7074 44.1941 58.0586 44.1941 58.0586L55.9668 62.9845Z" fill="#FFBF9D"/>
<path d="M41.6917 40.624C42.0986 40.8944 49.705 44.0719 50.4466 44.453C50.4466 44.453 58.5732 47.5429 57.6102 56.1948C57.0746 60.9971 56.1939 64.9188 56.1939 64.9188C56.1939 64.9188 52.898 67.4547 50.4466 66.4479C47.2897 65.1604 41.6917 64.9188 41.6917 64.9188L45.4409 52.2706L41.6917 40.624Z" fill="#0075FF"/>
<path d="M45.6026 52.541C45.5665 52.541 45.0052 54.2662 44.346 56.4163C43.6868 58.5664 43.1821 60.3225 43.2181 60.3328C43.2542 60.3431 43.8155 58.6102 44.4747 56.4575C45.1339 54.3048 45.6283 52.5513 45.6026 52.541Z" fill="#211F54"/>
<path d="M46.7085 50.0866C46.9351 49.7995 47.1775 49.5253 47.4347 49.2652L47.6304 49.085L47.857 48.9073C48.0219 48.7762 48.1938 48.6542 48.3719 48.5416C48.7811 48.2826 49.2118 48.0595 49.6594 47.8747C50.4757 47.5253 51.3476 47.3239 52.2344 47.2799C52.6003 47.2781 52.9656 47.3082 53.3262 47.37C53.2359 47.327 53.1408 47.295 53.0429 47.2748C52.7776 47.2151 52.5064 47.1848 52.2344 47.1846C51.3347 47.2026 50.4471 47.3949 49.6208 47.7511C49.1648 47.9391 48.727 48.1684 48.3127 48.4361C48.1299 48.57 47.9471 48.6936 47.7977 48.8197L47.5711 49.0077L47.378 49.1983C47.2663 49.3051 47.163 49.4205 47.069 49.5433C46.9919 49.6312 46.9229 49.7261 46.863 49.8266C46.8024 49.9075 46.7506 49.9946 46.7085 50.0866Z" fill="#211F54"/>
<g opacity="0.3">
<path opacity="0.3" d="M43.332 60.6182C41.9092 63.3463 41.1913 66.3869 41.2437 69.4632C38.7881 69.6985 36.4577 70.6584 34.5488 72.221C35.6844 71.4485 38.4911 70.4932 41.7871 70.5421C41.6223 65.4231 42.2557 64.0404 43.332 60.6182Z" fill="black"/>
</g>
</g>
</g>
</g>
<defs>
<clipPath id="clip0_299_327">
<rect width="64" height="65" fill="white" transform="matrix(-1 0 0 1 64 0)"/>
</clipPath>
</defs>
</svg>
