<svg width="64" height="64" viewBox="0 0 64 64" fill="none" xmlns="http://www.w3.org/2000/svg">
<mask id="mask0_301_627" style="mask-type:alpha" maskUnits="userSpaceOnUse" x="0" y="0" width="64" height="64">
<path d="M0 0H64V64H0V0Z" fill="#C4C4C4"/>
</mask>
<g mask="url(#mask0_301_627)">
<path d="M0 0H64V64H0V0Z" fill="#EFF0F7"/>
<mask id="mask1_301_627" style="mask-type:alpha" maskUnits="userSpaceOnUse" x="0" y="0" width="64" height="64">
<path d="M0 0H64V64H0V0Z" fill="#EFF0F7"/>
</mask>
<g mask="url(#mask1_301_627)">
<path d="M36.1754 9.66909L35.6604 9.64334C33.1327 9.51736 30.6504 10.3485 28.7081 11.971C26.7658 13.5936 25.5062 15.8884 25.1803 18.3982C24.5469 23.2366 23.9109 28.5899 23.813 31.1984C23.6122 36.6058 28.963 37.7027 28.963 37.7027L28.1905 44.1633L31.077 47.2945L41.3048 44.4079L43.6222 20.9552C44.3844 15.3675 41.7734 10.2742 36.1754 9.66909Z" fill="#FFBF9D"/>
<path d="M28.9178 37.6823C31.419 37.8057 33.9032 37.2097 36.0762 35.9648C36.0762 35.9648 34.1527 39.75 28.7916 38.9955L28.9178 37.6823Z" fill="#FF9A6C"/>
<path d="M27.6305 24.1326C27.619 24.333 27.686 24.53 27.8172 24.6818C27.9484 24.8337 28.1336 24.9286 28.3335 24.9463C28.431 24.9589 28.5301 24.9518 28.6249 24.9256C28.7197 24.8994 28.8083 24.8545 28.8855 24.7936C28.9628 24.7326 29.0271 24.6569 29.0746 24.5708C29.1222 24.4848 29.1521 24.3901 29.1626 24.2923C29.1748 24.0915 29.1082 23.8938 28.9769 23.7414C28.8456 23.5889 28.6601 23.4937 28.4597 23.476C28.3619 23.4631 28.2625 23.47 28.1674 23.4962C28.0723 23.5224 27.9834 23.5675 27.9061 23.6288C27.8288 23.69 27.7645 23.7662 27.7172 23.8527C27.6698 23.9393 27.6404 24.0345 27.6305 24.1326Z" fill="#211F54"/>
<path d="M26.2068 21.0866C26.2969 21.1922 26.902 20.7879 27.7312 20.8291C28.5603 20.8703 29.1474 21.3184 29.2401 21.2205C29.2864 21.1768 29.1989 20.9914 28.944 20.7854C28.5981 20.5186 28.1779 20.3656 27.7415 20.3476C27.3099 20.3245 26.8822 20.44 26.5209 20.6772C26.2557 20.86 26.1604 21.0403 26.2068 21.0866Z" fill="#211F54"/>
<path d="M34.7166 24.3154C34.7051 24.5157 34.7721 24.7127 34.9033 24.8646C35.0345 25.0165 35.2197 25.1113 35.4196 25.129C35.5173 25.1416 35.6166 25.1345 35.7116 25.1081C35.8065 25.0817 35.8952 25.0366 35.9725 24.9754C36.0497 24.9142 36.114 24.8382 36.1614 24.7518C36.2089 24.6654 36.2385 24.5704 36.2487 24.4724C36.2602 24.272 36.1933 24.0751 36.0621 23.9232C35.9309 23.7713 35.7457 23.6765 35.5458 23.6587C35.448 23.6458 35.3486 23.6527 35.2535 23.6789C35.1584 23.7052 35.0695 23.7503 34.9922 23.8115C34.9149 23.8728 34.8506 23.9489 34.8033 24.0355C34.7559 24.122 34.7265 24.2172 34.7166 24.3154Z" fill="#211F54"/>
<path d="M34.3487 21.6454C34.4389 21.751 35.044 21.3493 35.8731 21.3879C36.7023 21.4265 37.2894 21.8746 37.3846 21.7767C37.431 21.7355 37.3434 21.5501 37.0859 21.3441C36.7403 21.0769 36.32 20.9239 35.8834 20.9064C35.4521 20.8827 35.0246 20.9973 34.6629 21.2334C34.4002 21.4214 34.3024 21.5991 34.3487 21.6454Z" fill="#211F54"/>
<path d="M31.0306 27.6445C31.0306 27.5981 30.5156 27.4823 29.6967 27.3355C29.4856 27.302 29.2873 27.2505 29.259 27.1037C29.2536 26.8843 29.3137 26.6683 29.4315 26.4832C29.6556 25.9682 29.8924 25.4532 30.1371 24.9021C31.1207 22.6516 31.8443 20.7951 31.7541 20.7565C31.664 20.7178 30.7911 22.51 29.8075 24.7631L29.1277 26.3544C28.9823 26.6038 28.9285 26.8962 28.9758 27.181C29.0038 27.2569 29.0484 27.3256 29.1063 27.3822C29.1642 27.4387 29.2339 27.4817 29.3105 27.508C29.4257 27.5449 29.5451 27.5674 29.6658 27.575C30.5053 27.6625 31.0254 27.6908 31.0306 27.6445Z" fill="#211F54"/>
<path d="M33.7857 18.4215C33.8835 18.6352 34.6071 18.4421 35.4826 18.4575C36.3581 18.473 37.0868 18.6558 37.1795 18.4421C37.2181 18.3391 37.0713 18.1408 36.7649 17.958C36.3719 17.7361 35.9288 17.6182 35.4774 17.6155C35.0269 17.6086 34.5826 17.7214 34.19 17.9425C33.881 18.1228 33.7419 18.3185 33.7857 18.4215Z" fill="#211F54"/>
<path d="M26.3354 17.6642C26.5002 17.8625 27.1955 17.7003 28.0169 17.7337C28.8383 17.7672 29.5309 17.9346 29.7009 17.7337C29.7756 17.641 29.6751 17.4453 29.3816 17.2522C28.972 17.0099 28.5056 16.8802 28.0297 16.8763C27.556 16.8566 27.0857 16.9642 26.6676 17.1878C26.3689 17.381 26.2633 17.5689 26.3354 17.6642Z" fill="#211F54"/>
<path d="M25.8165 15.9419C25.8165 15.9419 27.4078 12.633 29.0764 11.9249C31.0951 11.0675 31.8367 13.2768 33.7448 12.8442C35.6528 12.4116 37.5789 11.5902 39.4226 13.1352C41.4439 14.8295 40.4036 15.8981 40.4165 18.2851C40.4603 28.0159 42.0954 30.8483 42.8267 26.3035C42.9065 25.804 44.3176 25.4744 44.6291 23.3681C45.0308 20.6386 45.3038 17.3118 44.7862 15.3342C44.3536 13.6682 43.473 12.4863 41.8559 11.1524C39.3067 9.0487 35.676 8.83498 33.186 8.95086C30.696 9.06673 25.801 11.6983 25.8165 15.9419Z" fill="black"/>
<path d="M42.4982 26.1538C42.5143 25.956 42.5704 25.7636 42.6631 25.5881C42.7559 25.4127 42.8833 25.2579 43.0376 25.1332C43.1919 25.0084 43.37 24.9164 43.561 24.8625C43.752 24.8087 43.952 24.7942 44.1487 24.82C45.1504 24.9668 46.2422 25.5925 46.0722 27.6705C45.771 31.3527 42.1351 30.2892 42.1377 30.1836C42.1403 30.0781 42.3566 27.6936 42.4982 26.1538Z" fill="#FFBF9D"/>
<path d="M43.0517 28.8652C43.0697 28.8652 43.1135 28.9141 43.2165 28.9733C43.3638 29.051 43.5354 29.0685 43.6954 29.0223C44.0971 28.9115 44.4679 28.3193 44.5451 27.6575C44.5821 27.343 44.5469 27.0242 44.4421 26.7254C44.4173 26.6072 44.364 26.4969 44.2868 26.404C44.2096 26.3111 44.1109 26.2384 43.9992 26.1924C43.927 26.1674 43.8484 26.1681 43.7766 26.1944C43.7048 26.2207 43.6443 26.2709 43.6053 26.3366C43.5486 26.437 43.5667 26.5117 43.5461 26.5168C43.5255 26.522 43.4714 26.4473 43.5152 26.2979C43.5423 26.2084 43.5996 26.1311 43.6774 26.0791C43.7854 26.0111 43.9157 25.988 44.0404 26.0147C44.1893 26.0568 44.3248 26.1364 44.4339 26.246C44.543 26.3556 44.6221 26.4914 44.6636 26.6404C44.795 26.9722 44.8427 27.3312 44.8026 27.6859C44.7177 28.4249 44.2876 29.0892 43.7366 29.1999C43.6352 29.2208 43.5304 29.2185 43.4301 29.1931C43.3297 29.1677 43.2364 29.1198 43.1572 29.0532C43.0517 28.9527 43.0285 28.8703 43.0517 28.8652Z" fill="#7C4236"/>
<path d="M31.072 30.4897C31.1003 30.3532 31.9964 30.5901 32.8358 29.9747C33.6753 29.3593 33.8298 28.3937 33.956 28.4297C34.0152 28.4297 34.0744 28.6872 33.9791 29.0966C33.8474 29.6235 33.5348 30.0874 33.0959 30.4073C32.6729 30.7134 32.148 30.8444 31.6308 30.7729C31.2471 30.7086 31.0514 30.5515 31.072 30.4897Z" fill="#211F54"/>
<path d="M41.692 40.4295C41.692 40.4295 41.0174 44.0036 31.9793 46.3056C31.9793 46.3056 27.8336 43.6147 28.6756 40.0742L18.2316 46.3133L15.7338 75.7065L12.3864 96.4066C22.7377 101.76 37.3635 100.491 51.2915 96.2727L47.2462 83.4855L47.5913 78.2815L52.1387 50.647L43.9966 42.5049L41.692 40.4295Z" fill="#0E0F11"/>
<path d="M28.6758 40.0693C28.4749 40.0693 21.5071 42.0211 20.472 42.3276C20.4179 42.3456 17.691 43.2932 17.6395 43.3009C17.0009 43.3833 13.0921 44.8613 11.5111 48.353C10.082 51.5073 7.66178 65.465 7.66178 65.465L18.0515 66.5918V51.2447L27.1874 43.0563L28.6758 40.0693Z" fill="#1BC792"/>
<path d="M18.5973 49.7666C18.5664 49.8758 18.5474 49.988 18.5406 50.1013C18.5123 50.3202 18.4814 50.6369 18.4531 51.0283C18.3913 51.8008 18.3449 52.8952 18.3681 54.0925C18.3913 55.2899 18.4814 56.374 18.5715 57.1542C18.6179 57.543 18.6617 57.8597 18.6977 58.076C18.7084 58.1887 18.7309 58.3001 18.7647 58.4082C18.7715 58.2946 18.7663 58.1807 18.7492 58.0683C18.726 57.8237 18.7003 57.5147 18.6668 57.1439C18.5999 56.3714 18.5252 55.2847 18.502 54.09C18.4788 52.8952 18.502 51.8163 18.5458 51.0335C18.5664 50.6627 18.5818 50.3511 18.5921 50.1065C18.6051 49.9936 18.6068 49.8798 18.5973 49.7666Z" fill="#211F54"/>
<path d="M17.7574 43.7178C17.7999 43.9446 17.8575 44.1682 17.9299 44.3873C18.2258 45.4565 18.4045 46.5548 18.4629 47.6627C18.4633 47.8936 18.4806 48.1243 18.5144 48.3527C18.556 48.1243 18.5707 47.8919 18.5582 47.6601C18.5535 46.5391 18.3718 45.4259 18.0201 44.3616C17.9584 44.1373 17.8702 43.9212 17.7574 43.7178Z" fill="#211F54"/>
<path d="M55.9668 62.7902C55.9668 62.7902 55.1377 68.9702 53.3687 73.6772C51.5997 78.3842 49.2796 82.4655 46.6738 82.6303C44.0679 82.7951 35.125 81.1935 31.3656 79.0923C27.6062 76.9912 25.0672 75.5569 25.0672 75.5569L19.6598 71.8L24.1917 66.7145C24.1917 66.7145 36.1293 70.4173 38.1197 70.528C39.3142 70.5924 40.5122 70.5155 41.6886 70.2988C41.6886 70.2988 41.3771 65.3807 41.9307 63.4469C42.4843 61.5131 44.1941 57.8643 44.1941 57.8643L55.9668 62.7902Z" fill="#FFBF9D"/>
<path d="M41.6917 40.4297C42.0986 40.7001 49.705 43.8776 50.4466 44.2587C50.4466 44.2587 58.5732 47.3486 57.6102 56.0005C57.0746 60.8028 56.1939 64.7245 56.1939 64.7245C56.1939 64.7245 52.898 67.2604 50.4466 66.2536C47.2897 64.9661 41.6917 64.7245 41.6917 64.7245L45.4409 52.0763L41.6917 40.4297Z" fill="#0E0F11"/>
<path d="M45.6026 52.3467C45.5665 52.3467 45.0052 54.0719 44.346 56.222C43.6868 58.3721 43.1821 60.1282 43.2181 60.1385C43.2542 60.1488 43.8155 58.4159 44.4747 56.2632C45.1339 54.1105 45.6283 52.357 45.6026 52.3467Z" fill="#211F54"/>
<path d="M46.7085 49.8922C46.9351 49.6051 47.1775 49.3309 47.4347 49.0708L47.6304 48.8906L47.857 48.7129C48.0219 48.5818 48.1938 48.4598 48.3719 48.3472C48.7811 48.0882 49.2118 47.8651 49.6594 47.6803C50.4757 47.3309 51.3476 47.1295 52.2344 47.0855C52.6003 47.0837 52.9656 47.1138 53.3262 47.1756C53.2359 47.1326 53.1408 47.1006 53.0429 47.0804C52.7776 47.0207 52.5064 46.9904 52.2344 46.9902C51.3347 47.0082 50.4471 47.2005 49.6208 47.5567C49.1648 47.7447 48.727 47.974 48.3127 48.2417C48.1299 48.3756 47.9471 48.4992 47.7977 48.6253L47.5711 48.8133L47.378 49.0039C47.2663 49.1107 47.163 49.2261 47.069 49.3489C46.9919 49.4368 46.9229 49.5317 46.863 49.6322C46.8024 49.7131 46.7506 49.8002 46.7085 49.8922Z" fill="#211F54"/>
<g opacity="0.3">
<path opacity="0.3" d="M43.332 60.4238C41.9092 63.1519 41.1913 66.1925 41.2437 69.2688C38.7881 69.5041 36.4577 70.464 34.5488 72.0266C35.6844 71.2541 38.4911 70.2988 41.7871 70.3477C41.6223 65.2287 42.2557 63.846 43.332 60.4238Z" fill="black"/>
</g>
</g>
</g>
</svg>
