<svg width="64" height="64" viewBox="0 0 64 64" fill="none" xmlns="http://www.w3.org/2000/svg">
<g clip-path="url(#clip0_300_401)">
<mask id="mask0_300_401" style="mask-type:alpha" maskUnits="userSpaceOnUse" x="0" y="0" width="64" height="64">
<path d="M0 0H64V64H0V0Z" fill="#DCDDEB"/>
</mask>
<g mask="url(#mask0_300_401)">
<path d="M-0.333984 0H63.666V64H-0.333984V0Z" fill="#EFF0F7"/>
<mask id="mask1_300_401" style="mask-type:alpha" maskUnits="userSpaceOnUse" x="-1" y="0" width="65" height="64">
<path d="M-0.333984 0H63.666V64H-0.333984V0Z" fill="#EFF0F7"/>
</mask>
<g mask="url(#mask1_300_401)">
<path d="M37.6127 42.4445L36.0964 38.6091L27.0499 38.1309L23.3551 38.6091L22.9485 39.6702L20.4401 84.0437C20.4401 84.0437 29.2028 85.8105 33.5855 85.1968C37.9681 84.5832 43.1152 82.5836 43.1152 82.5836V57.349L37.6127 42.4445Z" fill="#6B22DF"/>
<path d="M41.5253 16.9365C41.5253 16.9365 43.8905 25.7836 44.095 32.0456L44.1641 34.1295C44.1641 34.1295 38.9402 38.4763 34.5627 38.732L30.8909 29.706L41.5253 16.9365Z" fill="#E8D90C"/>
<path d="M18.3342 22.362C19.3314 18.0459 19.715 13.024 23.3049 10.2114C25.9667 8.12238 29.0018 7.5394 32.3821 7.68259C34.0467 7.75163 35.9261 8.51871 37.3784 9.3395C39.3652 10.4645 40.2064 12.7479 41.1678 14.8216C43.0881 18.9766 42.8452 24.6019 41.5437 26.1642L24.1845 35.3309C20.7173 33.5283 18.5464 32.8098 17.9916 28.1893C17.7675 26.2417 17.8834 24.27 18.3342 22.362Z" fill="#E8D90C"/>
<path d="M23.486 13.6403L34.4093 10.416C37.9302 9.90467 40.4514 14.162 40.8145 17.7008C41.2159 21.6308 41.5534 26.4456 41.2031 29.404C40.4974 35.3515 35.9946 36.2822 35.9946 36.2822L36.0279 38.6704C36.0279 38.6704 36.1325 41.2576 35.0014 42.4592C33.8706 43.6606 31.8584 45.4899 30.9605 45.4899C30.1747 45.4899 27.7221 44.3991 26.3583 43.1327C24.7868 41.6734 23.4476 38.875 23.4476 38.875L21.7089 15.8214C21.6779 15.3013 21.8433 14.7885 22.1724 14.3846C22.5015 13.9807 22.9703 13.715 23.486 13.6403Z" fill="#FFBF9D"/>
<path d="M38.81 23.0832C38.8173 23.28 38.7486 23.472 38.6182 23.6196C38.4878 23.7671 38.3056 23.8589 38.1094 23.8758C38.0133 23.8875 37.9158 23.8798 37.8228 23.8531C37.7297 23.8265 37.6429 23.7814 37.5676 23.7206C37.4922 23.6598 37.4298 23.5845 37.3841 23.4992C37.3384 23.4138 37.3103 23.3202 37.3014 23.2238C37.2941 23.027 37.3628 22.8349 37.4932 22.6874C37.6236 22.5398 37.8058 22.4481 38.002 22.4311C38.0981 22.4194 38.1956 22.4271 38.2887 22.4538C38.3818 22.4805 38.4685 22.5255 38.5439 22.5863C38.6192 22.6471 38.6816 22.7224 38.7273 22.8078C38.773 22.8931 38.8012 22.9868 38.81 23.0832Z" fill="#211F54"/>
<path d="M40.0912 21.2648C40.0017 21.3671 39.4111 20.9657 38.5929 21.0091C37.7746 21.0526 37.1968 21.4745 37.1047 21.3773C37.0587 21.3364 37.1482 21.1549 37.4013 20.9529C37.7442 20.6946 38.1587 20.549 38.5877 20.5361C39.0121 20.5176 39.4313 20.635 39.7844 20.871C40.0427 21.0424 40.1347 21.2188 40.0912 21.2648Z" fill="#211F54"/>
<path d="M31.646 23.0832C31.6533 23.28 31.5846 23.472 31.4542 23.6196C31.3237 23.7671 31.1416 23.8589 30.9454 23.8758C30.8492 23.8879 30.7516 23.8804 30.6584 23.8539C30.5651 23.8274 30.4782 23.7824 30.4028 23.7215C30.3274 23.6606 30.265 23.5852 30.2194 23.4997C30.1738 23.4142 30.1459 23.3203 30.1373 23.2238C30.1301 23.027 30.1987 22.8349 30.3292 22.6874C30.4596 22.5398 30.6417 22.4481 30.838 22.4311C30.9341 22.4194 31.0315 22.4271 31.1246 22.4538C31.2177 22.4805 31.3045 22.5255 31.3798 22.5863C31.4552 22.6471 31.5175 22.7224 31.5632 22.8078C31.609 22.8931 31.6371 22.9868 31.646 23.0832Z" fill="#211F54"/>
<path d="M32.065 21.3725C31.9755 21.4774 31.3848 21.0734 30.5691 21.1168C29.7535 21.1603 29.1705 21.5822 29.0784 21.485C29.0324 21.4416 29.1219 21.26 29.375 21.0606C29.7186 20.8015 30.1339 20.6551 30.564 20.6412C30.9882 20.6247 31.4068 20.7419 31.7607 20.9762C32.0164 21.1398 32.111 21.3137 32.065 21.3725Z" fill="#211F54"/>
<path d="M35.2424 26.6501C35.2424 26.6041 35.741 26.4967 36.5592 26.3586C36.7663 26.3305 36.9607 26.2794 36.9913 26.1362C37 25.9206 36.943 25.7075 36.8277 25.5251L36.1501 23.9628C35.204 21.7382 34.5111 19.9049 34.6031 19.8716C34.6952 19.8384 35.5313 21.6052 36.4748 23.8324L37.1269 25.4049C37.2689 25.6506 37.3187 25.9389 37.2675 26.218C37.2409 26.2928 37.1972 26.3604 37.14 26.4155C37.0827 26.4705 37.0135 26.5115 36.9376 26.5351C36.8232 26.5712 36.7046 26.5927 36.5848 26.599C35.7614 26.6731 35.2475 26.6961 35.2424 26.6501Z" fill="#211F54"/>
<path d="M36.0204 36.282C33.2392 36.438 30.4694 35.8183 28.0197 34.4922C28.0197 34.4922 30.1394 38.5526 36.0332 37.7651L36.0204 36.282Z" fill="#FF9A6C"/>
<path d="M32.5974 28.4625C32.6984 28.2948 32.8392 28.1546 33.0073 28.0542C33.1755 27.9539 33.3657 27.8965 33.5613 27.8872C33.8349 27.8572 34.1115 27.9006 34.3627 28.013C34.6139 28.1253 34.8306 28.3026 34.9907 28.5264C35.1047 28.7376 35.1366 28.9835 35.0802 29.2168C35.0316 29.3344 35.0802 29.2756 34.983 29.36C34.6893 29.6857 34.3207 29.9349 33.9091 30.0862C33.6863 30.1509 33.4493 30.1472 33.2286 30.0756C33.0079 30.004 32.8139 29.8679 32.6715 29.6847C32.5487 29.5072 32.4768 29.2994 32.4637 29.084C32.4506 28.8685 32.4969 28.6536 32.5974 28.4625Z" fill="#FF9A6C"/>
<path d="M32.7183 27.3459C32.8487 27.3306 32.8921 28.2178 33.6771 28.811C34.4621 29.4043 35.4005 29.2662 35.4133 29.3889C35.4286 29.4426 35.2113 29.5705 34.815 29.5986C34.2968 29.6291 33.7844 29.4761 33.3677 29.1665C32.9667 28.8692 32.6979 28.4269 32.6186 27.934C32.5674 27.5658 32.6518 27.3434 32.7183 27.3459Z" fill="#211F54"/>
<path d="M32.3731 18.3761C32.3143 18.6037 31.4935 18.5781 30.55 18.7852C29.6065 18.9923 28.8624 19.3273 28.7167 19.1432C28.6502 19.0537 28.7653 18.8312 29.0542 18.5883C29.4441 18.2861 29.8976 18.0763 30.3804 17.9749C30.8632 17.8734 31.3627 17.883 31.8413 18.0028C32.2044 18.1102 32.3962 18.2662 32.3731 18.3761Z" fill="#211F54"/>
<path d="M40.0221 19.0714C39.838 19.2324 39.255 18.9512 38.4879 18.8336C37.7208 18.7159 37.0893 18.7569 36.9691 18.5446C36.9205 18.4423 37.0458 18.2736 37.3475 18.1381C37.7542 17.98 38.197 17.9383 38.626 18.0179C39.0655 18.0804 39.4775 18.2686 39.8124 18.56C40.0477 18.7875 40.1065 18.9895 40.0221 19.0714Z" fill="#211F54"/>
<path d="M34.4426 9.7793C34.4426 9.82277 34.4605 9.86368 34.4707 9.90715H34.4503L34.4426 9.7793Z" fill="#211F54"/>
<path d="M25.7842 46.9496C25.9145 47.0007 26.0509 47.0131 26.1849 46.986C26.3189 46.9589 26.4472 46.8928 26.5616 46.7923C26.6761 46.6916 26.7741 46.5586 26.8492 46.4019C26.9245 46.2451 26.9752 46.0681 26.9982 45.8823C27.182 44.2585 27.1921 42.6059 27.0282 40.978C26.8405 38.7387 25.7491 36.3947 25.6141 34.1449C25.3638 29.8581 25.6265 27.4549 25.9695 23.8586C27.4187 23.6075 28.7703 22.3972 29.724 20.8275C30.8853 18.9441 31.5862 16.607 32.2695 14.312C32.2272 16.5823 31.6768 18.7775 30.6951 20.5904C31.0208 20.6604 31.3536 20.623 31.6671 20.4813C31.9805 20.3396 32.2657 20.0974 32.4998 19.7741C32.9634 19.1215 33.3241 18.341 33.5585 17.4825C34.1843 15.4386 34.5323 13.2505 34.5848 11.0297C34.8025 14.2075 34.5468 17.4136 33.8339 20.4473C34.2393 20.273 34.6749 20.43 35.0854 20.5136C35.4959 20.5974 35.9865 20.5835 36.2844 20.1648C36.4644 19.8558 36.578 19.4822 36.6122 19.087C37.0106 16.3863 37.0749 13.6105 36.8025 10.8797C37.3512 12.3267 37.7964 13.8456 38.1315 15.4141C38.4638 16.9978 38.4725 18.6793 38.1566 20.2695C38.2032 20.3364 38.2591 20.3898 38.3208 20.4261C38.3824 20.4625 38.4488 20.4812 38.5158 20.4812C38.5827 20.4812 38.6491 20.4625 38.7108 20.4261C38.7724 20.3898 38.8283 20.3364 38.8749 20.2695C39.0578 19.9909 39.168 19.6346 39.1878 19.2579C39.3405 17.9012 39.1702 16.5198 38.9976 15.17C39.5758 16.6001 39.7685 18.2603 40.0888 19.837C40.4092 21.4136 40.9199 23.0391 41.9035 23.939C42.0698 21.8763 42.0209 19.7908 41.7584 17.7477C41.5657 16.0559 40.99 14.3781 40.4568 12.8365C39.892 11.1286 39.0956 9.58892 38.1116 8.30199C36.4045 6.20918 35.6911 7.11608 34.6073 7.90786L34.4797 7.9846C34.4797 7.94622 34.4797 7.90786 34.4797 7.87298L34.4321 7.54859C31.5801 6.65981 28.6092 6.85375 25.8293 8.11017C23.7769 9.04149 23.5766 15.2014 23.076 12.2749C22.7731 10.503 21.1261 12.1214 21.1061 12.1703C18.6857 18.2569 16.1177 27.9118 16 43.1686L25.7842 46.9496Z" fill="#E8D90C"/>
<path d="M40.528 41.2806L45.8976 42.3289C47.0424 42.5668 48.1021 43.1082 48.9659 43.8963C49.8296 44.6845 50.4655 45.6904 50.8069 46.8087C50.9763 47.3616 51.0986 47.9279 51.1726 48.5014C51.6405 52.1272 57.6223 69.2255 57.3042 71.9666C56.986 74.7077 55.1691 77.5766 52.336 78.7476C49.2267 80.0261 47.0635 76.1626 47.0635 76.1626C47.0431 76.5154 47.0303 76.7123 47.0303 76.7123L55.1691 95.1224C53.098 98.8172 49.2088 103.144 45.2583 104.085C45.2583 104.085 40.6737 75.4747 40.4155 69.2255C40.1572 62.9763 36.1453 38.6904 36.1453 38.6904L40.528 41.2806Z" fill="#6B22DF"/>
<path d="M55.1816 95.12C55.1716 95.0877 55.1596 95.0561 55.1459 95.0253L55.0308 94.7518L54.5808 93.706L52.8881 89.8271C51.4357 86.526 49.408 81.9235 47.1017 76.6868V76.715C47.1426 75.3061 47.1963 73.8358 47.2653 72.3375C47.4238 68.9572 47.6079 65.738 47.7307 62.8102C47.8534 59.8825 47.9301 57.2386 47.9531 55.0218C47.9761 52.8049 47.9531 51.0073 47.9531 49.7672L47.9199 48.3404C47.9199 48.1819 47.9199 48.0592 47.9199 47.9697C47.9199 47.8802 47.9199 47.8418 47.9199 47.8418C47.9177 47.8844 47.9177 47.9271 47.9199 47.9697C47.9199 48.0592 47.9199 48.1819 47.9199 48.3404C47.9199 48.6728 47.9199 49.1535 47.9199 49.7698C47.9199 51.0099 47.9199 52.8023 47.8892 55.0192C47.8585 57.2361 47.7716 59.8774 47.6335 62.8026C47.4954 65.7277 47.3267 68.9521 47.1579 72.3324C47.0889 73.8307 47.0377 75.301 46.9943 76.7124V76.7252V76.7406L52.819 89.8603C53.5426 91.4993 54.1307 92.8136 54.5399 93.7341L55.0103 94.7569C55.0615 94.8719 55.1049 94.9589 55.1331 95.0253C55.1471 95.0579 55.1634 95.0895 55.1816 95.12Z" fill="#211F54"/>
<path d="M47.6979 63.8177C47.7209 63.8177 47.7311 63.5876 47.8564 63.2424C48.0153 62.7931 48.3097 62.4042 48.699 62.1294C49.0883 61.8546 49.5533 61.7074 50.0298 61.7082C50.3955 61.7082 50.6179 61.7773 50.623 61.7542C50.4401 61.6615 50.2375 61.6142 50.0324 61.6162C49.5311 61.5867 49.0345 61.7274 48.6232 62.0157C48.212 62.3039 47.9102 62.7227 47.7669 63.204C47.6934 63.3997 47.6697 63.6106 47.6979 63.8177Z" fill="#211F54"/>
<path d="M15.5217 79.843L10.3132 44.7896L19.9274 41.2661C19.9274 41.2661 22.1801 39.195 23.3793 38.1211L23.8012 43.5418C23.8012 43.5418 25.1129 65.703 23.0648 76.859C21.0166 88.015 21.3081 87.6417 19.8098 94.9035C18.7205 100.187 18.5313 104.802 16.8999 105.267C15.2686 105.733 9.57938 97.4144 9.57938 97.4144L15.5217 79.843Z" fill="#6B22DF"/>
<path d="M10.3219 44.7891C10.3219 44.7891 7.40695 46.2185 6.97235 50.2891C6.58625 53.8689 5.94955 75.8587 6.03385 77.6256C6.11825 79.3924 7.64225 84.4092 10.3807 84.583C14.7147 84.8592 15.9062 81.5147 15.9062 81.5147L14.7532 70.2871L10.3219 44.7891Z" fill="#6B22DF"/>
<path d="M11.5102 50.4502C11.5169 50.524 11.528 50.5975 11.5434 50.67C11.5741 50.826 11.615 51.0331 11.6636 51.2939L12.1162 53.5952C12.492 55.5308 12.983 58.1977 13.4535 61.1817C13.9239 64.1657 14.2819 66.853 14.5197 68.8091C14.6373 69.7807 14.7319 70.5683 14.7984 71.1283C14.8317 71.384 14.8572 71.6039 14.8751 71.7598C14.8818 71.833 14.8937 71.9057 14.9109 71.9772C14.9177 71.904 14.9177 71.8304 14.9109 71.7573C14.8956 71.5987 14.8802 71.3891 14.8572 71.1231C14.8086 70.5734 14.7294 69.7807 14.622 68.7989C14.4072 66.8377 14.062 64.135 13.5992 61.1587C13.1364 58.1824 12.6199 55.5078 12.221 53.5773C12.0216 52.6108 11.8528 51.8309 11.7275 51.2939C11.6661 51.0383 11.6201 50.8286 11.5843 50.6752C11.566 50.5982 11.5412 50.5229 11.5102 50.4502Z" fill="#211F54"/>
</g>
</g>
</g>
<defs>
<clipPath id="clip0_300_401">
<rect width="64" height="64" fill="white" transform="matrix(-1 0 0 1 64 0)"/>
</clipPath>
</defs>
</svg>
