<svg width="80" height="80" viewBox="0 0 80 80" fill="none" xmlns="http://www.w3.org/2000/svg">
<path d="M40 80C62.0914 80 80 62.0914 80 40C80 17.9086 62.0914 0 40 0C17.9086 0 0 17.9086 0 40C0 62.0914 17.9086 80 40 80Z" fill="#2442BE"/>
<path d="M65.0017 40.3469L61.0521 38.4477L60.4089 33.9602C60.3334 33.4393 59.964 33.009 59.4605 32.8552C58.9569 32.7018 58.4099 32.8524 58.0565 33.2429L55.0152 36.6024L53.1292 36.3269L51.971 32.0555C51.8282 31.5277 51.3929 31.1299 50.8545 31.0347C50.3158 30.9399 49.771 31.1651 49.456 31.6124L46.5021 35.8059L45.9509 35.7936L43.8443 35.4713L41.337 30.1333C41.0935 29.6147 40.5721 29.2837 39.9995 29.2837C39.4263 29.2837 38.9049 29.6147 38.6614 30.1333L36.1542 35.4713L34.048 35.7931L33.4964 35.8055L30.5424 31.6115C30.2275 31.1647 29.6827 30.9399 29.1439 31.0347C28.6056 31.1299 28.1707 31.5272 28.0274 32.055L26.8697 36.3264L24.981 36.6024L21.9387 33.242H21.9383C21.5844 32.8519 21.0369 32.7013 20.5339 32.8556C20.0304 33.0099 19.6609 33.4406 19.5863 33.962L18.9441 38.4476L14.9945 40.3469C14.5349 40.5675 14.2374 41.0266 14.2241 41.5361C14.2108 42.0456 14.4832 42.5193 14.9304 42.7638L18.9175 44.9455L19.5419 49.5415C19.6105 50.0579 19.9703 50.4891 20.4661 50.6484C20.6039 50.6937 20.7476 50.717 20.8923 50.717C21.2594 50.717 21.61 50.5674 21.8646 50.3028L24.9078 47.1603L25.8325 47.3553L25.8577 49.3213H25.8572C25.8609 49.8624 26.1763 50.3531 26.667 50.5816C27.1554 50.8141 27.7341 50.7445 28.1534 50.4026L32.01 47.2889L33.0551 47.6473L32.8345 48.9996V48.9991C32.7416 49.558 32.9768 50.1211 33.4397 50.4474C33.9029 50.7738 34.5122 50.8063 35.0075 50.5312L39.9995 47.7737L44.99 50.5307C45.4853 50.8045 46.0937 50.7715 46.5564 50.4456C47.0192 50.1197 47.255 49.558 47.1639 48.9995L46.9433 47.6468L47.9883 47.2884L51.844 50.4016V50.402C52.2643 50.7417 52.842 50.8113 53.3309 50.5815C53.8203 50.3517 54.1352 49.8628 54.1421 49.3222L54.1668 47.3542L55.0874 47.1597L58.1306 50.3014V50.3023C58.3847 50.5669 58.7353 50.717 59.1024 50.717C59.248 50.717 59.3931 50.6937 59.5314 50.6479C60.0271 50.4877 60.3865 50.0565 60.4538 49.5397L61.0772 44.946L65.0652 42.7639V42.7634C65.512 42.519 65.7844 42.0447 65.7707 41.5356C65.7574 41.0266 65.4603 40.5679 65.0016 40.3468L65.0017 40.3469ZM24.8415 45.2606C24.4977 45.1887 24.1411 45.2986 23.8972 45.5513L21.2352 48.2997L20.6928 44.3011V44.3016C20.6498 43.9725 20.4529 43.6836 20.1622 43.5234L16.6471 41.5999L20.1288 39.9249C20.442 39.7771 20.6598 39.4818 20.7093 39.1389L21.2668 35.248L23.7561 37.9978L21.9851 38.597L21.9846 38.5965C21.4834 38.7659 21.119 39.2012 21.0407 39.7245C20.9624 40.2477 21.1835 40.7709 21.6138 41.079L25.7913 44.0793L25.8087 45.4644L24.8415 45.2606ZM32.1799 45.3966C31.8444 45.284 31.4745 45.3503 31.1989 45.5733L27.691 48.405L27.6306 43.6461C27.6224 43.3161 27.4603 43.0085 27.193 42.8153L23.3762 40.0737L27.6805 38.6184H27.68C28.0105 38.5068 28.2637 38.238 28.3548 37.9011L28.4944 37.3857L28.4958 37.3811L29.5665 33.4292L31.5051 36.1817L30.5122 36.3332H30.5127C29.9647 36.4165 29.5093 36.7992 29.3335 37.3247C29.1578 37.8502 29.2905 38.4298 29.6773 38.8261L33.805 43.0545L33.3569 45.8002L32.1799 45.3966ZM40.5122 45.9491C40.3565 45.8617 40.1803 45.8154 40.0018 45.8154C39.8228 45.8159 39.6475 45.8612 39.4909 45.9468L34.7782 48.5501L35.691 42.959C35.7423 42.6253 35.6342 42.2874 35.3989 42.0453L31.4974 38.0494L36.8414 37.2332C37.1934 37.1815 37.4965 36.9568 37.6475 36.6345L39.9999 31.6257L42.3528 36.6368C42.5034 36.9568 42.8033 37.1802 43.153 37.2328L48.5024 38.0495L44.599 42.0476H44.5985C44.3637 42.2906 44.2566 42.6303 44.3097 42.964L45.2215 48.5501L40.5122 45.9491ZM48.8013 45.5742C48.5235 45.3503 48.1499 45.284 47.8121 45.3993L46.6421 45.8003L46.1944 43.0546L50.3211 38.8267C50.7084 38.4308 50.8416 37.8512 50.6663 37.3253C50.4905 36.7998 50.0355 36.4167 49.4879 36.3333L48.4941 36.1818L50.4328 33.4293L51.5035 37.383L51.5039 37.3857L51.644 37.903L51.6445 37.9026C51.736 38.2386 51.9887 38.5068 52.3183 38.618L56.6235 40.0738L52.8039 42.8166C52.5357 43.0126 52.3745 43.3225 52.3686 43.6548L52.3091 48.4059L48.8013 45.5742ZM59.828 43.527V43.5266C59.5441 43.6873 59.3505 43.9706 59.3038 44.2933L58.7605 48.3001L56.0995 45.5531V45.5526C55.8541 45.2986 55.4952 45.1883 55.1501 45.2615L54.1915 45.4638L54.2089 44.0796L58.3864 41.0794H58.386C58.8158 40.7713 59.0369 40.2481 58.9586 39.7248C58.8808 39.2016 58.5164 38.7663 58.0156 38.5964L56.2417 37.9968L58.7301 35.2479L59.2858 39.1206V39.121C59.3284 39.4689 59.5454 39.7711 59.8613 39.9226L63.3495 41.5994L59.828 43.527Z" fill="#DCDDEB"/>
</svg>
