<svg width="412" height="435" viewBox="0 0 412 435" fill="none" xmlns="http://www.w3.org/2000/svg">
<path d="M206.129 415.25C314.721 415.25 402.752 402.011 402.752 385.68C402.752 369.349 314.721 356.11 206.129 356.11C97.5365 356.11 9.50537 369.349 9.50537 385.68C9.50537 402.011 97.5365 415.25 206.129 415.25Z" fill="#C0C3DA"/>
<path d="M312.67 375.95C305.821 347.72 301.942 301.28 303.719 266.02H293.001C294.768 301.28 290.9 347.72 284.05 375.95H312.68H312.67Z" fill="#9D6428"/>
<path d="M376.654 375.95C369.795 347.72 365.927 301.28 367.694 266.02H356.976C358.743 301.28 354.874 347.72 348.025 375.95H376.654Z" fill="#9D6428"/>
<path d="M406 237.17C406 285.82 386.79 325.27 363.099 325.27C339.408 325.27 320.198 285.83 320.198 237.17C320.198 188.51 339.408 93 363.099 93C386.79 93 406 188.51 406 237.17Z" fill="#5EAD33"/>
<path d="M333.772 247.69C333.772 290.33 316.94 324.9 296.173 324.9C275.405 324.9 258.573 290.33 258.573 247.69C258.573 205.05 275.405 121.34 296.173 121.34C316.94 121.34 333.772 205.05 333.772 247.69Z" fill="#00AB76"/>
<path d="M29.901 241.21H12.3623L17.7691 230.8L29.901 225.32V241.21Z" fill="#1A70BC"/>
<path d="M274.163 229.51H147.438V375.96H274.163V229.51Z" fill="#2442BE"/>
<path d="M157.802 242.778L160.561 246.17H274.345V227.17H157.811V242.778H157.802Z" fill="#86BEFF"/>
<path d="M208.192 133.08H86.3096L158.767 241.21H288.511L208.192 133.08Z" fill="#407BFF"/>
<path d="M147.666 229.51L85.3252 145.59L22.984 229.51H22.7261V375.96H151.993V229.51H147.657H147.666Z" fill="#2442BE"/>
<path d="M147.666 229.51L85.3252 145.59L22.984 229.51H22.7261V375.96L151.993 229.51H147.657H147.666Z" fill="#2442BE"/>
<path d="M133.92 276.17H97.6196V284.17H133.92V276.17Z" fill="#407BFF"/>
<path d="M87.1122 276.17H50.812V284.17H87.1122V276.17Z" fill="#407BFF"/>
<path d="M133.92 251.17H97.6196V271.17H133.92V251.17Z" fill="white"/>
<path d="M97.6196 271.17L133.92 251.17H97.6196V271.17Z" fill="#C0C3DA"/>
<path d="M97.6196 271.17L112.745 262.837H97.6196V271.17Z" fill="#C0C3DA"/>
<path d="M87.1122 251.17H50.812V271.17H87.1122V251.17Z" fill="white"/>
<path d="M50.812 271.17L87.1122 251.17H50.812V271.17Z" fill="#C0C3DA"/>
<path d="M50.812 271.17L65.9371 262.837H50.812V271.17Z" fill="#C0C3DA"/>
<path d="M85.3353 145.59L157.802 242.67L161.523 241.22H166.638L86.3192 133.09L6 241.22H14.2249L85.3353 145.59Z" fill="#86BEFF"/>
<path d="M202.327 126.05H178.798V165.7H202.327V126.05Z" fill="#86BEFF"/>
<path d="M170.345 114.41V154.01L178.799 165.69V122.37L184.196 114.4H170.345V114.41Z" fill="#86BEFF"/>
<path d="M193.873 114.39H170.345L178.799 126.08H202.327L193.873 114.39Z" fill="#86BEFF"/>
<path d="M189.45 118.189H180.814L183.919 122.479H192.555L189.45 118.189Z" fill="white"/>
<path d="M141.562 301.17H44.125V376.17H141.562V301.17Z" fill="#C0C3DA"/>
<path d="M147 306H40V314H147V306Z" fill="#2442BE"/>
<path d="M209.262 265.68H184.549V331.74H209.262V265.68Z" fill="white"/>
<path d="M240.701 265.68H215.988V331.74H240.701V265.68Z" fill="white"/>
<path d="M215.988 331.74L240.701 265.68H215.988V331.74Z" fill="#C0C3DA"/>
<path d="M215.988 331.74L240.701 265.68H215.988V331.74Z" fill="#C0C3DA"/>
<path d="M215.988 331.74L240.701 265.68H215.988V331.74Z" fill="#C0C3DA"/>
<path d="M184.549 265.68V331.74L209.262 265.68H184.549Z" fill="#C0C3DA"/>
<path d="M246.231 336.479H179.009V344.539H246.231V336.479Z" fill="#407BFF"/>
<rect x="22.1538" y="375.17" width="252.191" height="9" fill="#6E7191"/>
<g clip-path="url(#clip0_356_384)">
<path d="M93.7347 362.084H95.7912C96.5259 362.084 97.2043 361.674 97.5717 361.008C97.9391 360.342 97.9391 359.521 97.5717 358.855C97.2044 358.189 96.5259 357.779 95.7912 357.779H93.7347C93.0001 357.779 92.3216 358.189 91.9542 358.855C91.5868 359.521 91.5869 360.342 91.9542 361.008C92.3215 361.674 93.0001 362.084 93.7347 362.084Z" fill="#407BFF"/>
<path d="M97.8475 355.627H99.904C100.639 355.627 101.317 355.217 101.684 354.551C102.052 353.885 102.052 353.064 101.684 352.398C101.317 351.732 100.639 351.322 99.904 351.322H97.8475C97.1129 351.322 96.4344 351.732 96.067 352.398C95.6997 353.064 95.6997 353.885 96.067 354.551C96.4343 355.217 97.1128 355.627 97.8475 355.627Z" fill="#407BFF"/>
<path d="M99.9028 359.932C99.9028 360.503 100.119 361.051 100.505 361.455C100.891 361.858 101.413 362.085 101.959 362.085H104.015C104.75 362.085 105.428 361.675 105.796 361.009C106.163 360.343 106.163 359.522 105.796 358.856C105.429 358.19 104.75 357.78 104.015 357.78H101.959C101.413 357.78 100.891 358.007 100.505 358.41C100.119 358.814 99.9028 359.362 99.9028 359.932Z" fill="#407BFF"/>
<path d="M111.212 364.237H86.5373C85.9695 364.237 85.5088 364.719 85.5088 365.313C85.5088 365.908 85.9695 366.39 86.5373 366.39H111.212C111.78 366.39 112.241 365.908 112.241 365.313C112.241 364.719 111.78 364.237 111.212 364.237Z" fill="#407BFF"/>
<path d="M84.3408 344.864C81.5794 344.864 79.3408 347.103 79.3408 349.864V365.695C79.3408 368.456 81.5794 370.695 84.3408 370.695H131.915C134.676 370.695 136.915 368.456 136.915 365.695V349.864C136.915 347.103 134.676 344.864 131.915 344.864H84.3408ZM111.212 368.541H86.5371C85.4351 368.541 84.4168 367.926 83.8658 366.927C83.3148 365.927 83.3148 364.697 83.8658 363.698C84.4168 362.699 85.4352 362.083 86.5371 362.083H87.9416C88.9459 362.083 89.6271 360.935 89.621 359.931C89.621 358.789 90.0546 357.694 90.8255 356.887C91.5969 356.079 92.6427 355.626 93.7335 355.626C93.9887 355.626 94.1523 355.348 94.0565 355.112C93.8472 354.595 93.7369 354.039 93.7335 353.474C93.7335 352.332 94.1672 351.237 94.938 350.43C95.7094 349.622 96.7553 349.169 97.8461 349.169H99.9025C100.993 349.169 102.039 349.622 102.811 350.43C103.581 351.237 104.015 352.332 104.015 353.474C104.012 354.039 103.901 354.595 103.692 355.112C103.596 355.348 103.76 355.626 104.015 355.626C105.106 355.626 106.152 356.079 106.923 356.887C107.694 357.694 108.128 358.789 108.128 359.931C108.121 360.936 108.802 362.083 109.807 362.083H111.212C112.313 362.083 113.332 362.699 113.883 363.698C114.434 364.697 114.434 365.928 113.883 366.927C113.332 367.926 112.314 368.541 111.212 368.541ZM132.802 351.321C132.743 353.383 131.997 355.358 130.694 356.905L129.91 357.725C129.889 357.747 129.901 357.779 129.931 357.779H131.774C132.047 357.779 132.308 357.893 132.501 358.094C132.694 358.296 132.802 358.57 132.802 358.855V365.313C132.802 366.169 132.477 366.99 131.899 367.596C131.32 368.201 130.536 368.542 129.718 368.542H123.549C122.731 368.542 121.946 368.201 121.368 367.596C120.789 366.99 120.465 366.169 120.465 365.313V358.855C120.465 358.261 120.925 357.779 121.493 357.779C122.066 357.779 122.528 357.322 122.608 356.755C122.845 355.07 123.544 353.485 124.629 352.195L125.412 351.375C126.89 350.011 128.777 349.231 130.746 349.169H131.774C132.047 349.169 132.308 349.282 132.501 349.484C132.694 349.686 132.802 349.96 132.802 350.245L132.802 351.321Z" fill="#2442BE"/>
<path d="M122.522 365.314C122.522 365.599 122.63 365.873 122.823 366.075C123.016 366.277 123.278 366.39 123.55 366.39H129.719C129.991 366.39 130.253 366.277 130.446 366.075C130.639 365.873 130.747 365.599 130.747 365.314V359.933H122.522L122.522 365.314Z" fill="#407BFF"/>
<path d="M126.084 353.718C125.168 354.862 124.639 356.289 124.578 357.779C126.002 357.715 127.365 357.161 128.457 356.203L129.242 355.382V355.382C130.157 354.239 130.686 352.811 130.747 351.321C129.324 351.385 127.96 351.939 126.868 352.897L126.084 353.718Z" fill="#407BFF"/>
<path d="M105.044 339.483C105.044 340.078 105.504 340.56 106.072 340.56C106.639 340.56 107.1 340.078 107.1 339.483C107.087 339.038 107.216 338.602 107.467 338.243C107.898 337.542 108.128 336.727 108.128 335.894C108.128 335.06 107.898 334.245 107.467 333.544C107.228 333.18 107.101 332.749 107.101 332.307C107.101 331.865 107.228 331.434 107.467 331.069C107.91 330.375 108.141 329.556 108.128 328.721C108.128 328.126 107.667 327.645 107.1 327.645C106.532 327.645 106.072 328.126 106.072 328.721C106.084 329.164 105.955 329.6 105.705 329.959C105.273 330.658 105.044 331.473 105.044 332.306C105.044 333.138 105.273 333.953 105.705 334.653C105.942 335.018 106.07 335.449 106.07 335.891C106.07 336.333 105.942 336.764 105.705 337.128C105.26 337.825 105.03 338.646 105.044 339.483Z" fill="#2442BE"/>
<path d="M88.5943 339.483C88.5943 340.078 89.0545 340.56 89.6223 340.56C90.1901 340.56 90.6508 340.078 90.6508 339.483C90.6375 339.038 90.7666 338.602 91.0176 338.243C91.4492 337.542 91.6788 336.727 91.6788 335.894C91.6788 335.06 91.4492 334.245 91.0176 333.544C90.7788 333.18 90.6513 332.749 90.6513 332.307C90.6513 331.865 90.7788 331.434 91.0176 331.069C91.4609 330.375 91.6915 329.556 91.6788 328.721C91.6788 328.126 91.2186 327.645 90.6508 327.645C90.083 327.645 89.6223 328.126 89.6223 328.721C89.635 329.164 89.506 329.6 89.2555 329.959C88.8239 330.658 88.5943 331.473 88.5943 332.306C88.5943 333.138 88.8239 333.953 89.2555 334.653C89.4932 335.018 89.6208 335.449 89.6208 335.891C89.6208 336.333 89.4932 336.764 89.2555 337.128C88.8116 337.825 88.581 338.646 88.5943 339.483Z" fill="#2442BE"/>
<path d="M96.8194 337.331C96.8194 337.926 97.2796 338.407 97.8474 338.407C98.4152 338.407 98.8754 337.926 98.8754 337.331C98.8627 336.886 98.9917 336.45 99.2427 336.09C99.6743 335.39 99.9039 334.574 99.9039 333.741C99.9039 332.908 99.6743 332.093 99.2427 331.392C99.004 331.028 98.8764 330.597 98.8764 330.155C98.8764 329.713 99.004 329.281 99.2427 328.917C99.6861 328.223 99.9167 327.404 99.9039 326.569C99.9039 325.974 99.4432 325.492 98.8754 325.492C98.3076 325.492 97.8474 325.974 97.8474 326.569C97.8602 327.013 97.7311 327.448 97.4806 327.806C97.049 328.506 96.8194 329.321 96.8194 330.153C96.8194 330.987 97.049 331.802 97.4806 332.501C97.7183 332.865 97.8459 333.297 97.8459 333.739C97.8459 334.18 97.7184 334.612 97.4806 334.977C97.0363 335.672 96.8057 336.494 96.8194 337.331Z" fill="#2442BE"/>
<path d="M141.616 335.999L122.884 314.196L159.882 313.804L141.616 335.999Z" fill="white"/>
</g>
<path d="M63.052 365.532H50.7522C50.2029 365.532 49.6956 365.825 49.4209 366.301C49.1461 366.777 49.1462 367.363 49.4209 367.839C49.6955 368.314 50.2029 368.607 50.7522 368.607H63.052C63.6013 368.607 64.109 368.314 64.3837 367.839C64.6585 367.363 64.6584 366.777 64.3837 366.301C64.1091 365.825 63.6014 365.532 63.052 365.532Z" fill="#2442BE"/>
<path d="M63.0521 336.32C63.0521 339.717 60.2987 342.47 56.9021 342.47C53.5054 342.47 50.752 339.717 50.752 336.32C50.752 332.923 53.5054 330.17 56.9021 330.17C60.2987 330.17 63.0521 332.923 63.0521 336.32Z" fill="#2442BE"/>
<path d="M69.2015 356.307H64.5892V351.956C64.6185 350.008 63.9265 348.119 62.6463 346.651C61.3661 345.184 59.5881 344.242 57.6548 344.007C55.4888 343.794 53.3343 344.508 51.7252 345.974C50.1161 347.439 49.2033 349.518 49.214 351.695V362.457C49.214 362.865 49.3761 363.256 49.6641 363.544C49.9525 363.833 50.3435 363.995 50.7513 363.995H66.1263V371.682C66.1263 372.09 66.2884 372.481 66.5768 372.77C66.8652 373.058 67.2562 373.22 67.664 373.22H72.2763C72.6841 373.22 73.0751 373.058 73.3635 372.77C73.6519 372.481 73.8141 372.09 73.8141 371.682V360.92C73.8141 359.697 73.3281 358.523 72.4629 357.658C71.5977 356.793 70.4247 356.307 69.2014 356.307L69.2015 356.307Z" fill="#2442BE"/>
<defs>
<clipPath id="clip0_356_384">
<rect width="66.8688" height="70" fill="white" transform="translate(74.6938 314.17)"/>
</clipPath>
</defs>
</svg>
