<svg width="129" height="20" viewBox="0 0 129 20" fill="none" xmlns="http://www.w3.org/2000/svg">
<path d="M9.0772 0.967372C9.4963 -0.322457 11.3211 -0.322457 11.7402 0.967372L13.2376 5.57591C13.425 6.15271 13.9626 6.54331 14.5691 6.54331H19.4147C20.771 6.54331 21.3348 8.27871 20.2376 9.07591L16.3174 11.9241C15.8267 12.2806 15.6214 12.9125 15.8088 13.4893L17.3062 18.0979C17.7253 19.3877 16.2491 20.4603 15.1519 19.6631L11.2316 16.8149C10.7409 16.4584 10.0765 16.4584 9.5858 16.8149L5.66558 19.6631C4.56838 20.4603 3.09211 19.3877 3.5112 18.0979L5.0086 13.4893C5.19602 12.9125 4.9907 12.2806 4.50002 11.9241L0.579784 9.07591C-0.517416 8.27871 0.046474 6.54331 1.40268 6.54331H6.24836C6.8549 6.54331 7.3924 6.15271 7.5798 5.57591L9.0772 0.967372Z" fill="#FCEA4E"/>
<path d="M116.347 0.967372C116.766 -0.322457 118.591 -0.322457 119.01 0.967372L120.507 5.57591C120.695 6.15271 121.232 6.54331 121.839 6.54331H126.684C128.041 6.54331 128.604 8.27871 127.507 9.07591L123.587 11.9241C123.096 12.2806 122.891 12.9125 123.078 13.4893L124.576 18.0979C124.995 19.3877 123.519 20.4603 122.421 19.6631L118.501 16.8149C118.01 16.4584 117.346 16.4584 116.855 16.8149L112.935 19.6631C111.838 20.4603 110.362 19.3877 110.781 18.0979L112.278 13.4893C112.466 12.9125 112.26 12.2806 111.77 11.9241L107.849 9.07591C106.752 8.27871 107.316 6.54331 108.672 6.54331H113.518C114.124 6.54331 114.662 6.15271 114.849 5.57591L116.347 0.967372Z" fill="#FCEA4E"/>
<path d="M89.5294 0.967372C89.9485 -0.322457 91.7733 -0.322457 92.1924 0.967372L93.6898 5.57591C93.8772 6.15271 94.4148 6.54331 95.0213 6.54331H99.8669C101.223 6.54331 101.787 8.27871 100.69 9.07591L96.7696 11.9241C96.2789 12.2806 96.0736 12.9125 96.261 13.4893L97.7584 18.0979C98.1775 19.3877 96.7013 20.4603 95.6041 19.6631L91.6838 16.8149C91.1931 16.4584 90.5287 16.4584 90.038 16.8149L86.1177 19.6631C85.0205 20.4603 83.5443 19.3877 83.9634 18.0979L85.4608 13.4893C85.6482 12.9125 85.4429 12.2806 84.9522 11.9241L81.0319 9.07591C79.9347 8.27871 80.4986 6.54331 81.8548 6.54331H86.7005C87.3071 6.54331 87.8446 6.15271 88.032 5.57591L89.5294 0.967372Z" fill="#FCEA4E"/>
<path d="M62.712 0.967372C63.1311 -0.322457 64.9559 -0.322457 65.375 0.967372L66.8724 5.57591C67.0598 6.15271 67.5974 6.54331 68.2039 6.54331H73.0495C74.4058 6.54331 74.9696 8.27871 73.8724 9.07591L69.9522 11.9241C69.4615 12.2806 69.2562 12.9125 69.4436 13.4893L70.941 18.0979C71.3601 19.3877 69.8839 20.4603 68.7867 19.6631L64.8664 16.8149C64.3757 16.4584 63.7113 16.4584 63.2206 16.8149L59.3003 19.6631C58.2031 20.4603 56.7269 19.3877 57.146 18.0979L58.6434 13.4893C58.8308 12.9125 58.6255 12.2806 58.1348 11.9241L54.2145 9.07591C53.1173 8.27871 53.6812 6.54331 55.0374 6.54331H59.8831C60.4897 6.54331 61.0272 6.15271 61.2146 5.57591L62.712 0.967372Z" fill="#FCEA4E"/>
<path d="M35.8946 0.967372C36.3137 -0.322457 38.1385 -0.322457 38.5576 0.967372L40.055 5.57591C40.2424 6.15271 40.78 6.54331 41.3865 6.54331H46.2321C47.5884 6.54331 48.1522 8.27871 47.055 9.07591L43.1348 11.9241C42.6441 12.2806 42.4388 12.9125 42.6262 13.4893L44.1236 18.0979C44.5427 19.3877 43.0665 20.4603 41.9693 19.6631L38.049 16.8149C37.5583 16.4584 36.8939 16.4584 36.4032 16.8149L32.483 19.6631C31.3858 20.4603 29.9095 19.3877 30.3286 18.0979L31.826 13.4893C32.0134 12.9125 31.8081 12.2806 31.3174 11.9241L27.3972 9.07591C26.3 8.27871 26.8639 6.54331 28.2201 6.54331H33.0657C33.6723 6.54331 34.2098 6.15271 34.3972 5.57591L35.8946 0.967372Z" fill="#FCEA4E"/>
</svg>
