<svg width="50" height="50" viewBox="0 0 50 50" fill="none" xmlns="http://www.w3.org/2000/svg">
<path fill-rule="evenodd" clip-rule="evenodd" d="M31.2792 6.63539L31.8584 7.36872C32.15 7.73747 32.3146 7.94372 32.448 8.08747L32.573 8.2083L32.723 8.23747C32.9084 8.26455 33.1605 8.28122 33.6188 8.31039L34.5313 8.36664C35.9521 8.45622 37.198 8.5333 38.1459 8.74164C39.15 8.9583 40.2417 9.4083 40.8209 10.575C41.3938 11.725 41.1146 12.8708 40.7084 13.8166C40.3209 14.7208 39.6563 15.8 38.8917 17.0416L38.8292 17.1437L38.4042 17.8312C38.2382 18.0906 38.0818 18.3561 37.9355 18.6271C37.9078 18.6842 37.8828 18.7426 37.8605 18.8021V18.8354C37.8605 18.8604 37.8674 18.9159 37.8813 19.0021C37.9188 19.2021 37.9855 19.4625 38.1042 19.9208L38.3125 20.7146L38.3417 20.8291C38.7167 22.2666 39.0417 23.5083 39.1542 24.4916C39.2709 25.5062 39.2209 26.7041 38.323 27.6375C37.4063 28.5916 36.2042 28.6541 35.1938 28.5333C34.2334 28.4187 33.0271 28.0833 31.6459 27.7021L30.7605 27.4562C30.4716 27.3707 30.1797 27.2957 29.8855 27.2312L29.748 27.2104L29.6209 27.2729C29.4542 27.3646 29.2459 27.5041 28.8605 27.7604L28.0959 28.2708C26.9042 29.0646 25.8625 29.7604 24.9855 30.1708C24.0646 30.6 22.9021 30.9166 21.7313 30.2958C20.9855 29.9 20.548 29.2854 20.275 28.6291C15.5396 30.6271 11.6709 34.0583 10.3313 38.0041C10.2192 38.3348 9.99954 38.6185 9.7074 38.8098C9.41525 39.001 9.06745 39.0889 8.71951 39.0595C8.37156 39.03 8.04352 38.8848 7.78775 38.647C7.53197 38.4093 7.3632 38.0927 7.30837 37.7479C5.35004 25.4896 9.00837 18.0958 14.2667 14.0666C14.6313 13.2416 15.323 12.6916 16.0084 12.2875C16.8438 11.7958 18.0021 11.3333 19.3271 10.8041L19.4396 10.7583L20.175 10.4646C20.4555 10.3586 20.7321 10.2425 21.0042 10.1166L21.1375 10.0396L21.2188 9.88747C21.3021 9.7083 21.3917 9.46039 21.5542 9.01872L21.8355 8.25414L21.8771 8.14164C22.3855 6.76247 22.825 5.56664 23.2938 4.70414C23.775 3.81664 24.5146 2.84997 25.8188 2.64164C27.1209 2.4333 28.1271 3.1208 28.8605 3.81247C29.575 4.48539 30.3667 5.48539 31.2771 6.63539M14.9167 17.625C11.9521 20.4812 9.6667 25.1041 9.91254 32.4333C12.3459 29.375 15.9 26.9833 19.7021 25.4916C19.6618 24.9736 19.625 24.4215 19.5917 23.8354L19.5334 22.8979C19.5185 22.584 19.4935 22.2706 19.4584 21.9583C19.4478 21.891 19.4339 21.8243 19.4167 21.7583L19.4 21.7375L19.2917 21.6166C19.0681 21.4047 18.8366 21.2011 18.598 21.0062L17.8896 20.4104C16.775 19.4687 15.8063 18.65 15.1563 17.9125C15.0736 17.819 14.9937 17.7232 14.9167 17.625ZM22.9855 26.75C23.0286 26.4619 22.9904 26.1675 22.875 25.9C22.8125 25.2833 22.7625 24.5104 22.7021 23.525L22.6521 22.7062L22.6417 22.5312C22.6 21.8146 22.5542 21.0521 22.2146 20.3666C21.8709 19.6791 21.2896 19.1875 20.7459 18.7312L20.6146 18.6208L19.998 18.1C18.7667 17.0583 17.9813 16.3896 17.5 15.8458C17.3526 15.6919 17.2296 15.5162 17.1355 15.325L17.1396 15.3187C17.2732 15.1846 17.4263 15.0715 17.5938 14.9833C18.198 14.6271 19.1292 14.25 20.6 13.6625L21.3355 13.3687L21.4959 13.3062C22.1375 13.0521 22.85 12.7687 23.3896 12.2083C23.9209 11.6562 24.1855 10.9312 24.4271 10.2666L24.4896 10.1L24.7688 9.33539C25.3313 7.81039 25.6938 6.83539 26.0396 6.19997C26.1175 6.04629 26.211 5.90108 26.3188 5.76664C26.3959 5.81247 26.525 5.90622 26.7188 6.08955C27.2459 6.58539 27.8938 7.39789 28.9021 8.67289L29.4084 9.31039L29.5167 9.44997C29.9542 10.0041 30.4334 10.6125 31.1084 10.9708C31.7959 11.3354 32.5625 11.3812 33.2521 11.4208L33.423 11.4312L34.2146 11.4812C35.7959 11.5791 36.7959 11.6479 37.4813 11.7937C37.6678 11.8261 37.8483 11.8865 38.0167 11.9729L38.0209 11.975V12C37.9888 12.2024 37.927 12.3989 37.8375 12.5833C37.55 13.2521 37.0125 14.1333 36.1667 15.5083L35.7438 16.1958L35.6521 16.3416C35.2792 16.9458 34.8792 17.5916 34.7688 18.3541C34.6584 19.1104 34.8521 19.8479 35.0375 20.5437L35.0813 20.7146L35.2896 21.5062C35.7021 23.0916 35.9667 24.1125 36.05 24.8479C36.0896 25.1833 36.0771 25.3625 36.0625 25.45C35.8958 25.4645 35.7279 25.4589 35.5625 25.4333C34.8688 25.35 33.8959 25.0854 32.3625 24.6604L31.5959 24.4479L31.4292 24.4C30.7625 24.2125 30.0188 24.0041 29.2521 24.1271C28.4855 24.25 27.8438 24.6812 27.273 25.0646L27.1271 25.1625L26.4646 25.6041C25.1396 26.4875 24.298 27.0437 23.6646 27.3396C23.5165 27.4156 23.3599 27.4737 23.198 27.5125C23.1114 27.3304 23.0518 27.1367 23.0209 26.9375L22.9855 26.75ZM23.223 27.5562L23.2396 27.5708C23.2396 27.5736 23.2341 27.5687 23.223 27.5562ZM36.1105 25.4416C36.1257 25.4319 36.1348 25.4284 36.1375 25.4312L36.1105 25.4416ZM26.25 5.72914C26.2361 5.72914 26.2292 5.72705 26.2292 5.72289L26.25 5.72914Z" fill="#D3D9F2"/>
<path d="M21.4167 33.3333C21.4167 33.3333 22.7376 36.2292 24.3626 37.2292C25.9876 38.2229 29.1667 38.0833 29.1667 38.0833C29.1667 38.0833 26.2709 39.4021 25.2709 41.0271C24.2751 42.6521 24.4167 45.8333 24.4167 45.8333C24.4167 45.8333 23.0959 42.9375 21.4709 41.9375C19.848 40.9458 16.6667 41.0833 16.6667 41.0833C16.6667 41.0833 19.5626 39.7646 20.5626 38.1396C21.5584 36.5146 21.4167 33.3333 21.4167 33.3333ZM38.5001 31.25C38.5001 31.25 37.6209 33.1813 36.5376 33.8458C35.4542 34.5104 33.3334 34.4167 33.3334 34.4167C33.3334 34.4167 35.2647 35.2958 35.9292 36.3792C36.5938 37.4625 36.5001 39.5833 36.5001 39.5833C36.5001 39.5833 37.3792 37.6521 38.4626 36.9875C39.5459 36.3229 41.6667 36.4167 41.6667 36.4167C41.6667 36.4167 39.7355 35.5375 39.0709 34.4542C38.4063 33.3708 38.5001 31.25 38.5001 31.25Z" fill="#D3D9F2" stroke="#D3D9F2" stroke-linejoin="round"/>
</svg>
