<svg width="198" height="146" viewBox="0 0 198 146" fill="none" xmlns="http://www.w3.org/2000/svg">
<path d="M123.23 54.8149C123.23 81.14 129.556 101.75 142.209 116.644C155.034 131.539 172.973 141.324 196.024 146L196.024 118.982C178.519 113.613 166.733 103.915 160.667 89.8861C157.201 82.4389 155.814 75.2515 156.508 68.3239L197.324 68.3239L197.324 1.99184e-06L123.23 -4.48567e-06L123.23 54.8149ZM7.97165e-06 54.8149C5.70053e-06 80.7936 6.15285 101.317 18.4585 116.384C30.9375 131.452 49.0494 141.324 72.7942 146L72.7942 118.982C55.1156 113.44 43.2432 103.915 37.177 90.4057C34.0573 83.3049 32.7574 75.9442 33.2774 68.3238L74.0941 68.3238L74.0941 -8.78128e-06L1.27637e-05 -1.52588e-05L7.97165e-06 54.8149Z" fill="white" fill-opacity="0.1"/>
</svg>
